<svg width="474" height="356" viewBox="0 0 474 356" fill="none" xmlns="http://www.w3.org/2000/svg">
<path d="M219 335.434C231.876 333.754 244.256 332.326 256.14 331.15L251.569 323.483C253.157 323.041 260.038 327.479 260.038 327.479L254.227 305.307C262.169 306.198 265.861 328.812 265.861 328.812L274.867 321.28L270.431 329.811C306.797 326.634 338.176 325.654 364.554 325.899L360.641 319.337C362.23 318.895 369.11 323.333 369.11 323.333L363.299 301.161C371.241 302.052 374.933 324.666 374.933 324.666L383.939 317.135L379.24 326.17C401.347 326.786 419.36 328.25 433.256 329.846C429.353 319.648 415.711 309.838 415.711 309.838C426.204 312.579 431.661 317.036 434.484 321.166C435.046 300.052 431.186 279.054 423.154 259.52C423.154 259.52 444.308 299.436 441.116 326.037L440.71 330.762C459.133 333.18 468.377 335.586 468.377 335.586L219 335.434Z" fill="#3F3D56"/>
<path d="M237 356C367.891 356 474 347.745 474 337.561C474 327.378 367.891 319.123 237 319.123C106.109 319.123 0 327.378 0 337.561C0 347.745 106.109 356 237 356Z" fill="#3F3D56"/>
<path d="M242.925 42.5416C242.925 42.5416 248.192 55.0536 236.342 60.9804C224.492 66.9071 267.942 78.102 272.55 63.6145C272.55 63.6145 260.7 59.0048 265.967 45.1757L242.925 42.5416Z" fill="#FFD9D9"/>
<path d="M257.079 301.013L256.421 314.842L267.612 316.818V302.989L257.079 301.013Z" fill="#FFD9D9"/>
<path d="M214.946 301.013L215.604 314.842L204.413 316.818V302.989L214.946 301.013Z" fill="#FFD9D9"/>
<path d="M255.762 50.1146C265.943 50.1146 274.196 41.8593 274.196 31.6759C274.196 21.4925 265.943 13.2372 255.762 13.2372C245.582 13.2372 237.329 21.4925 237.329 31.6759C237.329 41.8593 245.582 50.1146 255.762 50.1146Z" fill="#FFD9D9"/>
<path d="M281.438 165.357L280.779 170.625L284.071 183.137L288.679 171.942L281.438 165.357Z" fill="#FFD9D9"/>
<path d="M208.362 167.332L204.412 214.088C204.412 214.088 199.804 222.648 202.437 229.892C202.437 229.892 198.487 239.77 199.804 243.063C201.121 246.355 201.779 249.648 200.462 250.965C199.146 252.282 198.487 289.16 200.462 292.452C202.437 295.745 203.754 303.647 203.754 303.647C203.754 303.647 214.946 306.281 217.579 299.037C220.212 291.794 218.896 291.135 221.529 289.16C224.162 287.184 224.162 259.526 224.162 259.526C224.162 259.526 220.871 256.233 222.846 254.916C224.821 253.599 226.137 254.916 224.162 251.624C222.187 248.331 218.896 248.331 222.187 247.014C224.022 246.303 225.785 245.421 227.454 244.38L246.546 194.332C246.546 194.332 253.787 250.307 255.104 252.941C256.421 255.575 258.396 252.282 256.421 255.575C254.446 258.867 253.787 256.892 254.446 258.867C255.104 260.843 250.496 289.16 253.129 295.086C254.666 298.512 255.985 302.031 257.079 305.623C257.079 305.623 267.612 310.232 268.929 306.94C270.246 303.647 269.587 297.72 271.562 297.062C273.537 296.403 275.512 295.086 275.512 289.818C275.512 284.55 279.462 258.867 279.462 258.867C279.462 258.867 274.854 256.892 276.171 253.599C277.487 250.307 277.487 250.965 276.829 248.331C276.171 245.697 274.854 245.038 276.171 243.063C277.487 241.087 277.487 235.16 277.487 235.16L285.387 183.137L279.287 165.357L208.362 167.332Z" fill="#2F2E41"/>
<path d="M257.737 311.549C257.737 311.549 255.762 309.574 255.104 311.549C254.446 313.525 254.446 331.964 254.446 331.964C254.446 331.964 259.712 335.915 259.712 337.89C259.712 339.866 263.662 346.451 272.879 345.134C272.971 345.121 273.062 345.107 273.153 345.093C274.487 344.877 275.753 344.353 276.85 343.563C277.947 342.773 278.845 341.738 279.474 340.541C280.102 339.344 280.444 338.017 280.472 336.665C280.499 335.314 280.212 333.974 279.633 332.752L270.246 312.867C270.246 312.867 263.662 306.281 257.737 311.549Z" fill="#2F2E41"/>
<path d="M214.287 311.549C214.287 311.549 216.262 309.574 216.921 311.549C217.579 313.525 217.579 331.964 217.579 331.964C217.579 331.964 212.312 335.915 212.312 337.89C212.312 339.866 208.362 346.451 199.146 345.134C199.054 345.121 198.962 345.107 198.872 345.093C197.538 344.877 196.272 344.353 195.175 343.563C194.078 342.773 193.18 341.738 192.551 340.541C191.922 339.344 191.581 338.017 191.553 336.665C191.525 335.314 191.812 333.974 192.391 332.752L201.779 312.867C201.779 312.867 208.362 306.281 214.287 311.549Z" fill="#2F2E41"/>
<path d="M241.713 11.7038L238.42 10.3849C238.42 10.3849 245.306 2.8013 254.887 3.46078L252.192 0.493249C252.192 0.493249 258.779 -2.1445 264.767 4.77963C267.915 8.4195 271.557 12.698 273.828 17.5176H277.355L275.883 20.7599L281.035 24.0021L275.747 23.4197C276.247 26.2188 276.076 29.097 275.246 31.8168L275.388 34.3795C275.388 34.3795 269.258 24.8926 269.258 23.5737V26.8709C269.258 26.8709 265.965 23.9035 265.965 21.9251L264.169 24.2332L263.27 20.6062L252.192 24.2332L253.989 21.2657L247.103 22.2549L249.797 18.6279C249.797 18.6279 242.013 22.9143 241.713 26.5412C241.414 30.1681 237.522 34.7843 237.522 34.7843L235.725 31.487C235.725 31.487 233.031 16.6496 241.713 11.7038Z" fill="#2F2E41"/>
<path d="M284.071 72.5045H291.405C291.944 72.5042 292.467 72.6875 292.888 73.0241C293.309 73.3607 293.603 73.8306 293.722 74.3565C294.853 79.3698 297.77 93.5806 297.237 104.772C296.579 118.601 297.896 128.479 297.237 130.455C296.579 132.43 297.237 133.089 297.237 135.064C297.237 137.04 299.212 135.723 297.237 138.357C295.262 140.991 295.262 140.333 295.262 142.308C295.262 144.284 288.679 174.576 288.679 174.576C288.679 174.576 284.153 167.135 279.174 168.551L280.121 141.65L281.437 130.455L279.462 110.699L284.071 72.5045Z" fill="#3F3D56"/>
<path d="M252.142 65.59C252.142 65.59 240.95 65.1831 237.329 60.4476C237.329 60.4476 213.958 68.2241 211.325 74.8094C208.692 81.3947 220.542 111.028 220.542 111.028C220.542 111.028 200.133 171.613 210.008 171.613C219.883 171.613 242.267 179.515 255.433 174.905C263.592 172.075 271.955 169.873 280.45 168.32C280.45 168.32 281.767 150.54 280.45 147.247C279.133 143.955 275.842 145.93 277.817 141.321C279.792 136.711 279.133 136.052 278.475 134.077C277.817 132.101 279.792 129.467 279.792 126.833C279.792 124.199 279.133 118.272 279.133 118.272C279.133 118.272 296.908 76.785 292.958 72.8338C289.008 68.8827 268.902 61.2695 268.902 61.2695C268.902 61.2695 263.333 68.2241 252.142 65.59Z" fill="#5F3AFF"/>
<path d="M400.267 266.44C408.266 266.44 414.75 259.954 414.75 251.953C414.75 243.952 408.266 237.465 400.267 237.465C392.268 237.465 385.784 243.952 385.784 251.953C385.784 259.954 392.268 266.44 400.267 266.44Z" fill="#5F3AFF"/>
<path d="M390.392 259.197C392.21 259.197 393.683 255.953 393.683 251.953C393.683 247.952 392.21 244.709 390.392 244.709C388.574 244.709 387.1 247.952 387.1 251.953C387.1 255.953 388.574 259.197 390.392 259.197Z" fill="white"/>
<path d="M353.525 173.588C361.524 173.588 368.008 167.102 368.008 159.101C368.008 151.099 361.524 144.613 353.525 144.613C345.526 144.613 339.042 151.099 339.042 159.101C339.042 167.102 345.526 173.588 353.525 173.588Z" fill="#535461"/>
<path d="M349.663 153.768C352.902 151.421 354.663 148.324 353.597 146.852C352.53 145.379 349.04 146.088 345.801 148.435C342.562 150.781 340.801 153.878 341.868 155.351C342.934 156.823 346.424 156.115 349.663 153.768Z" fill="white"/>
<path d="M390.392 88.4476C395.377 88.4476 399.418 84.4054 399.418 79.419C399.418 74.4327 395.377 70.3904 390.392 70.3904C385.407 70.3904 381.366 74.4327 381.366 79.419C381.366 84.4054 385.407 88.4476 390.392 88.4476Z" fill="#535461"/>
<path d="M387.984 76.0955C390.003 74.633 391.101 72.7033 390.436 71.7855C389.771 70.8677 387.596 71.3094 385.578 72.772C383.559 74.2346 382.462 76.1642 383.126 77.082C383.791 77.9998 385.966 77.5581 387.984 76.0955Z" fill="white"/>
<path d="M322.584 320.907C327.568 320.907 331.61 316.865 331.61 311.879C331.61 306.892 327.568 302.85 322.584 302.85C317.599 302.85 313.558 306.892 313.558 311.879C313.558 316.865 317.599 320.907 322.584 320.907Z" fill="#3F3D56"/>
<path d="M320.177 308.555C322.195 307.093 323.293 305.163 322.628 304.245C321.964 303.328 319.789 303.769 317.77 305.232C315.752 306.694 314.654 308.624 315.319 309.542C315.983 310.46 318.158 310.018 320.177 308.555Z" fill="white"/>
<path d="M398.95 200.588C406.949 200.588 413.433 194.102 413.433 186.1C413.433 178.099 406.949 171.613 398.95 171.613C390.951 171.613 384.467 178.099 384.467 186.1C384.467 194.102 390.951 200.588 398.95 200.588Z" fill="#535461"/>
<path d="M389.075 193.344C390.893 193.344 392.367 190.101 392.367 186.1C392.367 182.1 390.893 178.857 389.075 178.857C387.257 178.857 385.784 182.1 385.784 186.1C385.784 190.101 387.257 193.344 389.075 193.344Z" fill="white"/>
<path d="M352.208 107.736C360.207 107.736 366.691 101.249 366.691 93.2481C366.691 85.2468 360.207 78.7605 352.208 78.7605C344.209 78.7605 337.725 85.2468 337.725 93.2481C337.725 101.249 344.209 107.736 352.208 107.736Z" fill="#5F3AFF"/>
<path d="M348.346 87.915C351.585 85.5681 353.346 82.4717 352.28 80.999C351.214 79.5263 347.723 80.235 344.484 82.5819C341.245 84.9288 339.484 88.0252 340.551 89.4979C341.617 90.9706 345.107 90.2619 348.346 87.915Z" fill="white"/>
<path d="M389.075 22.595C394.06 22.595 398.101 18.5528 398.101 13.5664C398.101 8.58008 394.06 4.53784 389.075 4.53784C384.09 4.53784 380.049 8.58008 380.049 13.5664C380.049 18.5528 384.09 22.595 389.075 22.595Z" fill="#5F3AFF"/>
<path d="M386.669 10.2429C388.687 8.78036 389.785 6.85071 389.12 5.93293C388.455 5.01515 386.28 5.4568 384.262 6.91938C382.243 8.38196 381.146 10.3116 381.81 11.2294C382.475 12.1472 384.65 11.7055 386.669 10.2429Z" fill="white"/>
<path d="M321.267 255.055C326.252 255.055 330.293 251.013 330.293 246.026C330.293 241.04 326.252 236.998 321.267 236.998C316.282 236.998 312.241 241.04 312.241 246.026C312.241 251.013 316.282 255.055 321.267 255.055Z" fill="#535461"/>
<path d="M318.86 242.703C320.878 241.24 321.976 239.31 321.311 238.393C320.647 237.475 318.472 237.917 316.453 239.379C314.435 240.842 313.337 242.771 314.002 243.689C314.666 244.607 316.841 244.165 318.86 242.703Z" fill="white"/>
<path d="M215.275 186.716H32.9165V297.434H215.275V186.716Z" fill="#F2F2F2"/>
<path d="M200.463 171.942C200.463 171.942 194.538 202.893 204.413 200.259C214.288 197.624 209.679 171.942 209.679 171.942H200.463Z" fill="#FFD9D9"/>
<path d="M215.604 72.5045L213.266 73.6739C212.356 74.1291 211.564 74.7888 210.951 75.6014C210.338 76.4139 209.922 77.3574 209.734 78.3577L200.462 127.821C200.462 127.821 197.829 133.747 197.829 134.406C197.829 135.064 199.146 135.064 197.829 137.04C196.512 139.016 194.537 138.357 195.854 139.674C196.606 140.358 197.075 141.297 197.171 142.308L198.487 174.576C198.487 174.576 209.679 171.283 212.971 174.576C212.971 174.576 209.679 164.698 211.654 161.406C213.629 158.113 213.629 153.503 213.629 153.503C213.629 153.503 212.312 153.503 215.604 150.211C218.896 146.918 219.554 145.601 218.896 144.942C218.237 144.284 217.579 138.357 217.579 137.699C217.579 137.04 224.162 92.9188 224.162 92.9188L215.604 72.5045Z" fill="#3F3D56"/>
<path d="M126.364 279.283C148.411 279.283 166.283 261.406 166.283 239.352C166.283 217.299 148.411 199.422 126.364 199.422C104.317 199.422 86.4448 217.299 86.4448 239.352C86.4448 261.406 104.317 279.283 126.364 279.283Z" fill="#5F3AFF"/>
<path d="M161.124 264.423C153.459 264.424 136.534 256.549 121.481 247.327C102.802 235.882 84.6613 220.924 87.8327 215.745C88.7292 214.281 90.951 213.898 94.6264 214.573L94.3629 216.008C91.5167 215.484 89.5907 215.667 89.0767 216.506C88.327 217.731 89.98 221.285 96.8673 227.589C103.144 233.334 112.156 239.902 122.243 246.082C132.331 252.263 142.274 257.309 150.242 260.292C158.986 263.565 162.902 263.422 163.651 262.198C164.166 261.358 163.451 259.556 161.689 257.255L162.847 256.368C165.122 259.34 165.792 261.496 164.895 262.96C164.28 263.966 162.97 264.423 161.124 264.423Z" fill="#3F3D56"/>
<path d="M121.436 226.995C125.946 226.995 129.602 223.338 129.602 218.827C129.602 214.317 125.946 210.66 121.436 210.66C116.927 210.66 113.271 214.317 113.271 218.827C113.271 223.338 116.927 226.995 121.436 226.995Z" fill="white"/>
<path d="M123.802 269.048C126.808 269.048 129.245 266.61 129.245 263.602C129.245 260.595 126.808 258.157 123.802 258.157C120.796 258.157 118.358 260.595 118.358 263.602C118.358 266.61 120.796 269.048 123.802 269.048Z" fill="white"/>
<path d="M142.547 250.38C145.553 250.38 147.99 247.942 147.99 244.935C147.99 241.928 145.553 239.49 142.547 239.49C139.54 239.49 137.103 241.928 137.103 244.935C137.103 247.942 139.54 250.38 142.547 250.38Z" fill="white"/>
<path d="M38.4538 180.484C37.1727 179.391 35.6889 178.561 34.0872 178.041C32.4855 177.522 30.7972 177.323 29.1188 177.457C27.4403 177.59 25.8044 178.052 24.3047 178.818C22.805 179.584 21.4707 180.637 20.378 181.919C19.2853 183.2 18.4557 184.684 17.9364 186.287C17.4172 187.889 17.2185 189.578 17.3517 191.256C17.4849 192.935 17.9475 194.572 18.7129 196.072C19.4783 197.572 20.5316 198.907 21.8127 200L41.3231 216.646L57.9642 197.13C60.1709 194.542 61.2595 191.183 60.9905 187.792C60.7214 184.401 59.1168 181.256 56.5295 179.049C53.9423 176.841 50.5844 175.752 47.1945 176.021C43.8046 176.291 40.6605 177.896 38.4538 180.484Z" fill="#FF6584"/>
</svg>
