<svg width="353" height="595" viewBox="0 0 353 595" fill="none" xmlns="http://www.w3.org/2000/svg">
<g filter="url(#filter0_d)">
<path fill-rule="evenodd" clip-rule="evenodd" d="M231.563 17.5868C231.563 7.87388 223.689 -5.44585e-06 213.976 -5.87041e-06C204.263 -6.29498e-06 196.389 7.87389 196.389 17.5868L196.389 37.2529L64 37.2529C30.8629 37.2529 3.99997 64.1158 3.99997 97.2529L3.99995 489.747C3.99995 512.329 16.4753 531.998 34.9101 542.236L34.9101 569.413C34.9101 579.126 42.784 587 52.4969 587C62.2099 587 70.0838 579.126 70.0838 569.413L70.0838 549.747L70.0838 530.081C70.0838 520.368 77.9577 512.494 87.6706 512.494C97.3835 512.494 105.257 520.368 105.257 530.081L105.257 549.747L105.257 569.413C105.257 579.126 113.131 587 122.844 587C132.557 587 140.431 579.126 140.431 569.413L140.431 549.747L288.275 549.747C321.412 549.747 348.275 522.884 348.275 489.747L348.275 97.2529C348.275 68.8059 328.478 44.9827 301.91 38.8089L301.91 17.5868C301.91 7.87389 294.036 -2.37087e-06 284.323 -2.79544e-06C274.61 -3.22e-06 266.736 7.87389 266.736 17.5868L266.736 37.2529L266.736 56.919C266.736 66.632 258.863 74.5059 249.15 74.5059C239.437 74.5059 231.563 66.632 231.563 56.9191L231.563 37.2529L231.563 17.5868Z" fill="#7656FF"/>
</g>
<g opacity="0.5">
<path opacity="0.5" d="M274.657 522.37C286.566 522.37 292.074 515.974 292.074 507.402C292.074 492.434 280.018 481.682 265.058 481.682C257.917 481.776 251.1 484.68 246.084 489.766C241.067 494.852 238.254 501.71 238.254 508.855C238.254 516 241.067 522.858 246.084 527.944C251.1 533.03 257.917 535.934 265.058 536.028C270.58 535.98 275.951 534.222 280.432 530.994C280.654 530.836 280.843 530.636 280.987 530.404C281.131 530.173 281.227 529.915 281.27 529.647C281.314 529.419 281.299 529.184 281.226 528.965C281.152 528.745 281.023 528.549 280.851 528.394C280.673 528.242 280.465 528.128 280.241 528.06C280.016 527.992 279.78 527.971 279.547 527.998C279.315 528.026 279.09 528.101 278.887 528.219C278.685 528.338 278.509 528.496 278.371 528.686C277.382 529.986 274.431 532.185 265.698 532.383C252.485 532.684 241.427 522.158 241.385 508.933C241.342 495.816 252.108 485.459 265.058 485.313C278.008 485.167 288.44 494.323 288.44 507.11C288.44 515.249 282.791 519.026 275.951 518.885C273.772 519.031 273.338 518.159 273.626 515.117C273.866 512.611 276.257 502.165 277.104 498.51C277.178 498.207 277.18 497.891 277.112 497.586C277.043 497.282 276.904 496.998 276.707 496.756C276.51 496.515 276.26 496.322 275.976 496.193C275.692 496.064 275.382 496.003 275.071 496.014H274.925C274.476 496.068 274.058 496.271 273.739 496.592C273.419 496.912 273.217 497.33 273.164 497.78C273.089 498.367 273.049 498.959 273.042 499.551C271.733 496.937 268.683 494.902 265.039 494.756C257.343 494.902 250.663 501.877 250.371 512.051C250.371 518.88 254.001 522.803 260.257 522.803C264.616 522.803 267.788 520.189 269.554 517.717C269.563 517.721 269.417 522.078 274.657 522.37ZM260.859 519.318C256.938 519.318 254.612 516.412 254.612 511.782C254.612 503.775 259.988 498.703 265.068 498.703C269.568 498.703 271.314 501.755 271.46 505.824C271.451 512.357 267.238 519.318 260.85 519.318H260.859Z" fill="white"/>
</g>
<path d="M274.331 521.826C285.729 521.826 291.008 515.654 291.008 507.407C291.008 492.987 279.474 482.626 265.158 482.626C258.265 482.626 251.654 485.385 246.78 490.295C241.906 495.204 239.167 501.864 239.167 508.807C239.167 515.751 241.906 522.41 246.78 527.32C251.654 532.23 258.265 534.988 265.158 534.988C270.442 534.943 275.581 533.249 279.869 530.14C280.083 529.989 280.264 529.796 280.402 529.574C280.54 529.351 280.633 529.103 280.676 528.844C280.718 528.625 280.703 528.399 280.633 528.188C280.563 527.976 280.439 527.787 280.275 527.638C280.104 527.494 279.907 527.387 279.694 527.323C279.481 527.259 279.257 527.24 279.036 527.266C278.816 527.292 278.603 527.363 278.41 527.476C278.218 527.588 278.05 527.738 277.918 527.918C276.975 529.167 274.147 531.289 265.79 531.479C253.143 531.769 242.566 521.627 242.523 508.883C242.481 496.249 252.785 486.268 265.177 486.131C277.569 485.993 287.553 494.81 287.553 507.131C287.553 514.97 282.132 518.612 275.599 518.469C273.515 518.607 273.096 517.771 273.374 514.828C273.6 512.411 275.891 502.35 276.707 498.832C276.777 498.54 276.779 498.235 276.712 497.943C276.646 497.65 276.514 497.376 276.325 497.144C276.137 496.911 275.897 496.725 275.626 496.601C275.354 496.477 275.058 496.418 274.76 496.429H274.618C274.189 496.482 273.789 496.678 273.484 496.988C273.179 497.297 272.985 497.7 272.936 498.134C272.864 498.701 272.824 499.271 272.818 499.843C271.569 497.322 268.646 495.361 265.172 495.223C257.805 495.361 251.413 502.084 251.135 511.884C251.135 518.465 254.609 522.244 260.586 522.244C264.758 522.244 267.812 519.723 269.481 517.344C269.466 517.339 269.33 521.541 274.331 521.826ZM261.133 518.887C257.362 518.887 255.156 516.086 255.156 511.609C255.156 503.907 260.298 499.007 265.163 499.007C269.471 499.007 271.14 501.946 271.291 505.868C271.277 512.159 267.228 518.883 261.128 518.883L261.133 518.887Z" fill="white"/>
<g opacity="0.5">
<path opacity="0.5" d="M322.323 475.893C329.318 475.893 332.557 472.125 332.557 467.104C332.557 458.316 325.496 452 316.693 452C312.463 452 308.407 453.681 305.416 456.674C302.425 459.666 300.745 463.725 300.745 467.957C300.745 472.189 302.425 476.248 305.416 479.24C308.407 482.233 312.463 483.914 316.693 483.914C319.936 483.885 323.09 482.852 325.722 480.956C325.977 480.765 326.147 480.48 326.193 480.165C326.219 480.032 326.21 479.894 326.167 479.765C326.124 479.636 326.049 479.521 325.948 479.43C325.843 479.34 325.721 479.274 325.589 479.233C325.457 479.193 325.318 479.181 325.181 479.197C325.044 479.212 324.912 479.257 324.793 479.326C324.674 479.395 324.57 479.488 324.489 479.6C323.91 480.363 322.173 481.653 317.046 481.771C315.201 481.82 313.364 481.502 311.643 480.834C309.922 480.165 308.352 479.161 307.023 477.879C305.694 476.597 304.633 475.063 303.903 473.367C303.172 471.671 302.787 469.846 302.769 467.999C302.745 460.299 309.067 454.214 316.67 454.129C324.272 454.044 330.401 459.418 330.401 466.93C330.401 471.711 327.073 473.929 323.067 473.844C321.787 473.929 321.532 473.416 321.702 471.626C321.843 470.156 323.246 464.019 323.745 461.877C323.788 461.698 323.789 461.513 323.748 461.334C323.708 461.156 323.626 460.989 323.511 460.847C323.395 460.705 323.248 460.592 323.081 460.517C322.914 460.441 322.732 460.405 322.549 460.412H322.464C322.201 460.444 321.957 460.563 321.77 460.751C321.583 460.939 321.464 461.185 321.434 461.448C321.39 461.793 321.366 462.141 321.363 462.489C320.896 461.645 320.215 460.94 319.388 460.443C318.562 459.947 317.619 459.678 316.656 459.663C312.136 459.748 308.211 463.845 308.041 469.817C308.041 473.83 310.174 476.133 313.841 476.133C314.923 476.109 315.984 475.825 316.934 475.306C317.885 474.786 318.696 474.046 319.301 473.147C319.301 473.147 319.249 475.723 322.323 475.893ZM314.198 474.103C311.896 474.103 310.531 472.398 310.531 469.667C310.531 464.957 313.685 461.985 316.651 461.985C319.296 461.985 320.318 463.775 320.417 466.167C320.445 470.006 317.964 474.103 314.198 474.103Z" fill="white"/>
</g>
<path d="M321.805 475.053C328.423 475.053 331.493 471.507 331.493 466.752C331.493 458.452 324.79 452.494 316.473 452.494C312.469 452.494 308.629 454.081 305.798 456.907C302.966 459.732 301.376 463.565 301.376 467.56C301.376 471.556 302.966 475.388 305.798 478.214C308.629 481.039 312.469 482.627 316.473 482.627C319.545 482.595 322.531 481.613 325.02 479.816C325.144 479.729 325.249 479.619 325.33 479.491C325.41 479.363 325.465 479.22 325.489 479.071C325.514 478.946 325.506 478.816 325.465 478.695C325.425 478.573 325.354 478.464 325.259 478.378C325.161 478.293 325.045 478.229 324.92 478.19C324.795 478.152 324.663 478.14 324.533 478.155C324.403 478.171 324.278 478.213 324.165 478.28C324.053 478.346 323.955 478.436 323.88 478.542C323.33 479.264 321.688 480.481 316.839 480.594C315.092 480.643 313.352 480.344 311.722 479.714C310.092 479.084 308.604 478.136 307.346 476.925C306.087 475.714 305.084 474.265 304.393 472.662C303.703 471.059 303.34 469.335 303.326 467.591C303.302 460.321 309.287 454.579 316.468 454.475C323.65 454.372 329.479 459.501 329.479 466.593C329.479 471.104 326.33 473.198 322.537 473.118C321.326 473.198 321.082 472.715 321.246 471.024C321.378 469.619 322.711 463.844 323.18 461.82C323.225 461.651 323.23 461.473 323.193 461.301C323.157 461.13 323.08 460.969 322.97 460.832C322.86 460.696 322.72 460.587 322.559 460.514C322.399 460.442 322.225 460.408 322.049 460.415H321.969C321.72 460.445 321.488 460.558 321.311 460.735C321.134 460.913 321.022 461.145 320.993 461.394C320.95 461.72 320.927 462.049 320.923 462.377C320.482 461.583 319.839 460.919 319.058 460.453C318.277 459.987 317.387 459.734 316.478 459.722C312.197 459.801 308.498 463.67 308.325 469.31C308.325 473.095 310.343 475.273 313.816 475.273C314.839 475.25 315.842 474.983 316.74 474.494C317.639 474.005 318.406 473.308 318.979 472.462C318.979 472.462 318.9 474.889 321.805 475.053ZM314.135 473.362C311.958 473.362 310.662 471.75 310.662 469.174C310.662 464.743 313.647 461.923 316.473 461.923C318.975 461.923 319.946 463.614 320.026 465.872C320.031 469.493 317.689 473.362 314.135 473.362Z" fill="white"/>
<path opacity="0.5" d="M226.91 538.416C231.574 538.416 233.736 535.857 233.736 532.433C233.736 526.449 229.013 522.145 223.155 522.145C220.419 522.275 217.837 523.477 215.946 525.501C214.055 527.524 213 530.214 213 533.012C213 535.81 214.055 538.5 215.946 540.523C217.837 542.547 220.419 543.749 223.155 543.879C225.317 543.859 227.42 543.156 229.175 541.864C229.262 541.801 229.336 541.721 229.393 541.629C229.449 541.536 229.487 541.433 229.504 541.325C229.521 541.234 229.516 541.141 229.487 541.053C229.459 540.965 229.409 540.886 229.341 540.824C229.272 540.763 229.19 540.717 229.102 540.69C229.014 540.663 228.921 540.655 228.83 540.666C228.739 540.677 228.65 540.707 228.571 540.755C228.492 540.802 228.423 540.866 228.369 540.942C227.985 541.462 226.827 542.361 223.405 542.423C222.194 542.439 220.993 542.212 219.869 541.755C218.744 541.297 217.719 540.618 216.852 539.756C215.984 538.894 215.292 537.865 214.813 536.73C214.335 535.594 214.081 534.373 214.064 533.137C214.048 531.901 214.27 530.674 214.718 529.525C215.166 528.377 215.831 527.33 216.675 526.444C217.519 525.558 218.526 524.851 219.638 524.362C220.749 523.874 221.944 523.613 223.155 523.597C228.216 523.54 232.315 527.201 232.315 532.314C232.315 535.569 230.096 537.078 227.42 537.044C226.568 537.101 226.396 536.756 226.493 535.536C226.586 534.533 227.526 530.356 227.855 528.913C227.884 528.792 227.884 528.666 227.857 528.544C227.83 528.423 227.776 528.309 227.699 528.213C227.622 528.116 227.524 528.039 227.413 527.987C227.302 527.936 227.18 527.911 227.058 527.915H227.003C226.827 527.936 226.663 528.017 226.538 528.145C226.413 528.273 226.334 528.44 226.313 528.62C226.284 528.855 226.269 529.092 226.267 529.33C225.955 528.758 225.502 528.28 224.952 527.944C224.403 527.608 223.776 527.425 223.136 527.414C220.121 527.471 217.505 530.252 217.389 534.329C217.389 537.059 218.811 538.629 221.256 538.629C221.978 538.612 222.685 538.419 223.318 538.065C223.952 537.711 224.493 537.207 224.896 536.595C224.896 536.595 224.863 538.298 226.91 538.416ZM221.506 537.196C219.969 537.196 219.061 536.032 219.061 534.173C219.061 530.976 221.168 528.942 223.159 528.942C224.924 528.942 225.604 530.162 225.665 531.78C225.66 534.405 224.007 537.196 221.506 537.196Z" fill="white"/>
<path opacity="0.3" d="M297.348 529.911C300.098 529.911 301.376 528.472 301.376 526.509C301.376 523.106 298.591 520.663 295.134 520.663C293.5 520.707 291.949 521.378 290.81 522.531C289.67 523.684 289.033 525.229 289.033 526.837C289.033 528.446 289.67 529.991 290.81 531.144C291.949 532.297 293.5 532.967 295.134 533.012C296.409 533.001 297.649 532.602 298.684 531.87C298.787 531.796 298.857 531.686 298.879 531.563C298.889 531.511 298.885 531.458 298.868 531.408C298.851 531.359 298.821 531.314 298.781 531.279C298.74 531.245 298.692 531.219 298.64 531.203C298.588 531.188 298.533 531.183 298.479 531.189C298.425 531.196 298.373 531.213 298.326 531.24C298.279 531.267 298.238 531.303 298.206 531.347C297.977 531.639 297.294 532.143 295.28 532.186C294.554 532.215 293.83 532.101 293.15 531.849C292.47 531.598 291.849 531.215 291.321 530.724C290.794 530.232 290.372 529.641 290.081 528.986C289.79 528.332 289.635 527.626 289.625 526.911C289.615 526.196 289.751 525.487 290.024 524.825C290.298 524.163 290.703 523.561 291.216 523.055C291.73 522.55 292.341 522.151 293.014 521.882C293.687 521.612 294.408 521.479 295.134 521.488C298.118 521.455 300.537 523.538 300.537 526.441C300.537 528.289 299.23 529.148 297.65 529.115C297.162 529.148 297.045 528.952 297.114 528.256C297.167 527.684 297.723 525.313 297.918 524.483C297.931 524.413 297.928 524.341 297.91 524.273C297.891 524.204 297.857 524.141 297.811 524.086C297.764 524.032 297.706 523.989 297.64 523.96C297.574 523.93 297.503 523.916 297.431 523.917H297.396C297.294 523.933 297.2 523.981 297.127 524.053C297.054 524.126 297.007 524.219 296.992 524.32C296.974 524.454 296.964 524.588 296.962 524.723C296.779 524.399 296.512 524.127 296.189 523.936C295.865 523.745 295.496 523.64 295.119 523.634C293.339 523.667 291.798 525.251 291.73 527.564C291.73 529.115 292.569 530.007 294.012 530.007C294.438 529.997 294.855 529.887 295.228 529.686C295.601 529.485 295.92 529.198 296.158 528.851C296.159 528.999 296.191 529.146 296.252 529.282C296.314 529.418 296.403 529.539 296.515 529.639C296.627 529.739 296.759 529.815 296.902 529.862C297.046 529.908 297.197 529.925 297.348 529.911ZM294.159 529.22C293.251 529.22 292.696 528.558 292.696 527.502C292.696 525.688 293.939 524.531 295.134 524.531C296.172 524.531 296.597 525.222 296.597 526.149C296.606 527.632 295.636 529.216 294.159 529.216V529.22Z" fill="white"/>
<path opacity="0.5" d="M329.773 509.396C334.658 509.396 336.924 506.895 336.924 503.548C336.924 497.701 331.975 493.494 325.838 493.494C322.972 493.622 320.267 494.796 318.286 496.774C316.305 498.752 315.2 501.381 315.2 504.115C315.2 506.849 316.305 509.478 318.286 511.455C320.267 513.433 322.972 514.608 325.838 514.735C328.103 514.716 330.307 514.028 332.145 512.766C332.236 512.704 332.314 512.626 332.373 512.536C332.432 512.445 332.472 512.344 332.489 512.239C332.508 512.15 332.502 512.058 332.472 511.973C332.443 511.887 332.39 511.81 332.32 511.749C332.246 511.689 332.161 511.645 332.069 511.618C331.976 511.592 331.879 511.584 331.784 511.594C331.688 511.605 331.596 511.635 331.513 511.681C331.43 511.728 331.357 511.79 331.301 511.864C330.898 512.373 329.685 513.251 326.1 513.311C324.832 513.328 323.573 513.106 322.396 512.659C321.218 512.212 320.144 511.548 319.235 510.705C318.326 509.863 317.601 508.858 317.1 507.748C316.599 506.638 316.332 505.445 316.315 504.237C316.298 503.029 316.53 501.83 317 500.707C317.469 499.585 318.166 498.562 319.05 497.696C319.934 496.83 320.989 496.139 322.154 495.661C323.318 495.184 324.57 494.93 325.838 494.913C331.141 494.858 335.434 498.436 335.434 503.433C335.434 506.613 333.11 508.088 330.306 508.055C329.414 508.111 329.234 507.773 329.336 506.581C329.433 505.601 330.418 501.519 330.762 500.109C330.792 499.991 330.793 499.867 330.765 499.748C330.736 499.63 330.68 499.519 330.599 499.424C330.518 499.33 330.415 499.255 330.299 499.204C330.183 499.154 330.056 499.13 329.928 499.134H329.87C329.685 499.154 329.514 499.234 329.383 499.359C329.252 499.484 329.168 499.647 329.147 499.823C329.117 500.053 329.1 500.284 329.098 500.516C328.772 499.957 328.297 499.49 327.721 499.162C327.146 498.833 326.49 498.655 325.819 498.644C322.66 498.699 319.919 501.417 319.798 505.402C319.798 508.069 321.287 509.604 323.849 509.604C324.605 509.588 325.346 509.399 326.01 509.053C326.673 508.707 327.24 508.214 327.662 507.616C327.662 507.616 327.628 509.28 329.773 509.396ZM324.111 508.203C322.5 508.203 321.549 507.066 321.549 505.249C321.549 502.125 323.757 500.137 325.843 500.137C327.691 500.137 328.404 501.329 328.468 502.91C328.463 505.476 326.736 508.203 324.111 508.203V508.203Z" fill="white"/>
<defs>
<filter id="filter0_d" x="0" y="0" width="352.275" height="595" filterUnits="userSpaceOnUse" color-interpolation-filters="sRGB">
<feFlood flood-opacity="0" result="BackgroundImageFix"/>
<feColorMatrix in="SourceAlpha" type="matrix" values="0 0 0 0 0 0 0 0 0 0 0 0 0 0 0 0 0 0 127 0"/>
<feOffset dy="4"/>
<feGaussianBlur stdDeviation="2"/>
<feColorMatrix type="matrix" values="0 0 0 0 0 0 0 0 0 0 0 0 0 0 0 0 0 0 0.25 0"/>
<feBlend mode="normal" in2="BackgroundImageFix" result="effect1_dropShadow"/>
<feBlend mode="normal" in="SourceGraphic" in2="effect1_dropShadow" result="shape"/>
</filter>
</defs>
</svg>
