<svg width="1111" height="676" viewBox="0 0 1111 676" fill="none" xmlns="http://www.w3.org/2000/svg">
<g filter="url(#filter0_d)">
<path fill-rule="evenodd" clip-rule="evenodd" d="M74 82C74 48.8629 100.863 22 134 22H977C1010.14 22 1037 48.8629 1037 82V412H1074C1092.23 412 1107 426.775 1107 445C1107 463.225 1092.23 478 1074 478H1037H1000C981.775 478 967 492.775 967 511C967 529.225 981.775 544 1000 544H1037H1074C1092.23 544 1107 558.775 1107 577C1107 595.225 1092.23 610 1074 610H1036.97C1035.91 642.211 1009.47 668 977 668H134C100.863 668 74 641.137 74 608V307H37C18.7746 307 4 292.225 4 274C4 255.775 18.7746 241 37 241H74H111C129.225 241 144 226.225 144 208C144 189.775 129.225 175 111 175H74H37C18.7746 175 4 160.225 4 142C4 123.775 18.7746 109 37 109H74V82Z" fill="#7656FF"/>
</g>
<g opacity="0.5">
<path opacity="0.5" d="M181.882 142.456C206.004 142.456 217.159 129.508 217.159 112.155C217.159 81.8543 192.741 60.0869 162.441 60.0869C147.977 60.2773 134.17 66.1568 124.009 76.4524C113.848 86.7479 108.151 100.631 108.151 115.096C108.151 129.562 113.848 143.445 124.009 153.74C134.17 164.036 147.977 169.915 162.441 170.106C173.625 170.009 184.504 166.448 193.58 159.913C194.03 159.594 194.412 159.189 194.703 158.721C194.994 158.252 195.19 157.731 195.278 157.187C195.367 156.727 195.336 156.251 195.187 155.807C195.038 155.362 194.777 154.964 194.429 154.65C194.067 154.342 193.646 154.112 193.192 153.975C192.737 153.837 192.259 153.795 191.788 153.85C191.316 153.906 190.861 154.058 190.451 154.297C190.041 154.537 189.684 154.858 189.404 155.242C187.402 157.873 181.424 162.326 163.737 162.726C136.974 163.336 114.577 142.027 114.491 115.254C114.406 88.7 136.211 67.7336 162.441 67.438C188.67 67.1425 209.799 85.6776 209.799 111.564C209.799 128.039 198.357 135.686 184.504 135.4C180.089 135.696 179.212 133.932 179.793 127.773C180.28 122.7 185.123 101.553 186.839 94.1538C186.989 93.5402 186.993 92.9004 186.854 92.2845C186.714 91.6686 186.434 91.0934 186.035 90.604C185.636 90.1145 185.129 89.7241 184.554 89.4632C183.979 89.2024 183.352 89.0782 182.721 89.1005H182.425C181.516 89.2098 180.669 89.6219 180.023 90.2704C179.376 90.9189 178.966 91.7662 178.859 92.6759C178.707 93.8651 178.625 95.0621 178.611 96.2609C175.961 90.9692 169.782 86.8503 162.402 86.5548C146.814 86.8503 133.284 100.971 132.693 121.566C132.693 135.391 140.044 143.333 152.715 143.333C161.544 143.333 167.971 138.041 171.546 133.036C171.565 133.045 171.27 141.865 181.882 142.456ZM153.936 136.277C145.994 136.277 141.283 130.395 141.283 121.022C141.283 104.813 152.172 94.5447 162.46 94.5447C171.575 94.5447 175.112 100.723 175.408 108.961C175.389 122.185 166.855 136.277 153.917 136.277H153.936Z" fill="white"/>
</g>
<path d="M181.222 141.356C204.307 141.356 215 128.86 215 112.164C215 82.9732 191.638 62 162.643 62C148.681 62 135.291 67.5839 125.419 77.5233C115.546 87.4628 110 100.944 110 115C110 129.056 115.546 142.537 125.419 152.477C135.291 162.416 148.681 168 162.643 168C173.344 167.908 183.754 164.48 192.44 158.186C192.872 157.88 193.238 157.49 193.519 157.04C193.799 156.589 193.987 156.087 194.073 155.562C194.158 155.119 194.128 154.662 193.986 154.234C193.844 153.806 193.594 153.423 193.261 153.121C192.916 152.83 192.516 152.613 192.084 152.483C191.653 152.354 191.2 152.314 190.753 152.367C190.306 152.421 189.874 152.565 189.485 152.792C189.095 153.019 188.756 153.324 188.487 153.688C186.578 156.216 180.85 160.512 163.923 160.897C138.307 161.483 116.884 140.952 116.798 115.154C116.712 89.5765 137.582 69.3723 162.681 69.0936C187.781 68.8148 208.002 86.6641 208.002 111.607C208.002 127.476 197.023 134.849 183.79 134.56C179.57 134.839 178.721 133.147 179.284 127.188C179.742 122.295 184.382 101.928 186.034 94.8054C186.176 94.2144 186.18 93.5984 186.046 93.0056C185.912 92.4128 185.643 91.8593 185.261 91.3883C184.88 90.9173 184.395 90.5417 183.845 90.2907C183.295 90.0398 182.694 89.9204 182.091 89.9418H181.804C180.934 90.0482 180.124 90.4464 179.506 91.0724C178.888 91.6983 178.497 92.5155 178.396 93.3925C178.25 94.5403 178.171 95.6956 178.157 96.8527C175.627 91.7488 169.708 87.7791 162.672 87.5004C147.75 87.7791 134.804 101.39 134.24 121.229C134.24 134.551 141.277 142.202 153.382 142.202C161.832 142.202 168.018 137.098 171.398 132.282C171.369 132.273 171.092 140.779 181.222 141.356ZM154.49 135.406C146.852 135.406 142.384 129.735 142.384 120.671C142.384 105.081 152.8 95.161 162.653 95.161C171.379 95.161 174.759 101.111 175.064 109.05C175.035 121.786 166.834 135.396 154.48 135.396L154.49 135.406Z" fill="white"/>
<g opacity="0.5">
<path opacity="0.5" d="M278.428 48.3686C292.596 48.3686 299.156 40.741 299.156 30.5772C299.156 12.7858 284.854 0 267.025 0C258.457 0 250.241 3.40334 244.183 9.46132C238.125 15.5193 234.722 23.7357 234.722 32.303C234.722 40.8703 238.125 49.0866 244.183 55.1446C250.241 61.2026 258.457 64.6059 267.025 64.6059C273.593 64.5485 279.982 62.4567 285.312 58.6183C285.829 58.2315 286.172 57.6555 286.265 57.0165C286.318 56.7468 286.3 56.4682 286.213 56.2075C286.126 55.9469 285.974 55.7132 285.77 55.5291C285.557 55.3478 285.31 55.2123 285.043 55.1309C284.775 55.0496 284.494 55.0243 284.217 55.0565C283.94 55.0887 283.672 55.1778 283.43 55.3182C283.189 55.4586 282.979 55.6472 282.814 55.8723C281.641 57.4169 278.123 60.0294 267.74 60.2677C264.002 60.3679 260.282 59.7229 256.796 58.3703C253.31 57.0177 250.129 54.9846 247.437 52.3895C244.745 49.7945 242.597 46.6895 241.118 43.2556C239.639 39.8216 238.858 36.1276 238.822 32.3888C238.774 16.7998 251.579 4.48122 266.977 4.3096C282.375 4.13797 294.789 15.0169 294.789 30.2244C294.789 39.902 288.048 44.3928 279.934 44.2211C277.341 44.3928 276.826 43.3535 277.169 39.7304C277.455 36.7556 280.297 24.3321 281.307 19.9939C281.394 19.6335 281.397 19.2578 281.315 18.8962C281.232 18.5347 281.067 18.1971 280.833 17.91C280.598 17.6228 280.3 17.3938 279.963 17.2409C279.625 17.088 279.256 17.0154 278.886 17.0287H278.714C278.181 17.0935 277.686 17.3355 277.307 17.716C276.928 18.0964 276.688 18.5931 276.626 19.1263C276.538 19.8253 276.49 20.5288 276.483 21.2334C275.537 19.5255 274.158 18.0973 272.484 17.0929C270.81 16.0885 268.9 15.5434 266.948 15.5127C257.795 15.6843 249.843 23.9793 249.5 36.0691C249.5 44.1925 253.819 48.8549 261.247 48.8549C263.44 48.8062 265.589 48.2317 267.513 47.1798C269.438 46.1279 271.082 44.6293 272.307 42.81C272.307 42.81 272.202 48.0254 278.428 48.3686ZM261.971 44.7455C257.309 44.7455 254.544 41.294 254.544 35.764C254.544 26.2295 260.932 20.2132 266.939 20.2132C272.297 20.2132 274.366 23.8363 274.567 28.6798C274.624 36.4505 269.599 44.7455 261.971 44.7455Z" fill="white"/>
</g>
<path d="M277.378 46.667C290.783 46.667 297 39.4889 297 29.8643C297 13.0616 283.424 1 266.578 1C258.469 1 250.691 4.21337 244.956 9.93323C239.222 15.6531 236 23.4109 236 31.5C236 39.5891 239.222 47.3469 244.956 53.0668C250.691 58.7866 258.469 62 266.578 62C272.8 61.9357 278.849 59.9479 283.89 56.3106C284.141 56.1348 284.354 55.9109 284.518 55.6521C284.681 55.3932 284.791 55.1045 284.841 54.8029C284.891 54.5488 284.874 54.2862 284.792 54.0404C284.711 53.7946 284.567 53.5738 284.375 53.3995C284.175 53.2262 283.941 53.0966 283.687 53.0189C283.434 52.9412 283.167 52.9173 282.904 52.9485C282.641 52.9798 282.387 53.0656 282.159 53.2004C281.931 53.3352 281.734 53.5161 281.58 53.7314C280.468 55.1917 277.14 57.6571 267.32 57.8847C263.781 57.9844 260.257 57.3789 256.955 56.1036C253.654 54.8283 250.64 52.9088 248.092 50.4576C245.543 48.0063 243.51 45.0724 242.112 41.8278C240.714 38.5832 239.979 35.093 239.95 31.5616C239.903 16.845 252.024 5.21965 266.569 5.01103C281.114 4.80242 292.922 15.1856 292.922 29.5419C292.922 38.6734 286.543 42.912 278.861 42.7508C276.408 42.912 275.914 41.9353 276.247 38.5122C276.513 35.6675 279.213 23.9757 280.164 19.8794C280.255 19.5361 280.264 19.1763 280.19 18.829C280.116 18.4816 279.962 18.1565 279.739 17.8796C279.516 17.6028 279.231 17.3821 278.906 17.2354C278.582 17.0886 278.228 17.0198 277.872 17.0347H277.711C277.206 17.0953 276.736 17.3238 276.377 17.6833C276.019 18.0429 275.792 18.5125 275.733 19.0165C275.647 19.6769 275.6 20.3418 275.591 21.0078C274.698 19.3999 273.395 18.0559 271.814 17.1117C270.233 16.1676 268.43 15.6568 266.588 15.6313C257.918 15.7925 250.426 23.6249 250.075 35.0417C250.075 42.7034 254.163 47.1127 261.198 47.1127C263.27 47.067 265.301 46.5265 267.12 45.5366C268.94 44.5467 270.495 43.1362 271.655 41.4233C271.655 41.4233 271.493 46.3352 277.378 46.667ZM261.844 43.2439C257.433 43.2439 254.809 39.982 254.809 34.7667C254.809 25.7964 260.855 20.088 266.578 20.088C271.646 20.088 273.613 23.5111 273.775 28.0816C273.785 35.4115 269.041 43.2439 261.844 43.2439Z" fill="white"/>
<g opacity="0.5">
<path opacity="0.5" d="M379.847 116.807C394.415 116.807 401.175 108.989 401.175 98.501C401.175 80.1948 386.426 67.0371 368.119 67.0371C359.403 67.1848 351.093 70.751 344.982 76.9672C338.87 83.1835 335.445 91.5521 335.445 100.27C335.445 108.987 338.87 117.356 344.982 123.572C351.093 129.788 359.403 133.355 368.119 133.502C374.876 133.443 381.448 131.291 386.931 127.343C387.204 127.15 387.435 126.905 387.612 126.622C387.789 126.339 387.907 126.023 387.961 125.694C388.015 125.415 387.996 125.127 387.906 124.858C387.816 124.589 387.657 124.348 387.446 124.158C387.227 123.974 386.972 123.836 386.698 123.754C386.424 123.672 386.135 123.647 385.851 123.681C385.567 123.715 385.292 123.807 385.045 123.951C384.798 124.096 384.583 124.29 384.414 124.521C383.203 126.104 379.589 128.802 368.901 129.04C365.055 129.144 361.228 128.481 357.641 127.09C354.054 125.699 350.78 123.608 348.01 120.938C345.24 118.269 343.03 115.074 341.507 111.541C339.985 108.008 339.182 104.207 339.144 100.36C339.087 84.3232 352.263 71.6518 368.11 71.4707C383.956 71.2895 396.713 82.4926 396.713 98.1673C396.713 108.121 389.782 112.736 381.458 112.564C378.788 112.746 378.254 111.678 378.598 107.94C378.893 104.88 381.82 92.1034 382.86 87.6317C382.95 87.2611 382.953 86.8746 382.868 86.5026C382.784 86.1306 382.615 85.7832 382.374 85.4877C382.133 85.1921 381.826 84.9564 381.479 84.799C381.131 84.6416 380.752 84.5669 380.371 84.5806H380.19C379.639 84.6458 379.127 84.895 378.736 85.2879C378.345 85.6807 378.098 86.1942 378.035 86.745C377.943 87.4629 377.892 88.1855 377.883 88.9093C376.908 87.1631 375.493 85.7028 373.778 84.674C372.063 83.6451 370.109 83.0837 368.11 83.0456C358.69 83.2267 350.518 91.7506 350.156 104.193C350.156 112.545 354.599 117.341 362.246 117.341C364.501 117.291 366.711 116.7 368.691 115.619C370.67 114.537 372.361 112.996 373.621 111.125C373.621 111.125 373.449 116.464 379.847 116.807ZM362.961 113.079C358.194 113.079 355.333 109.523 355.333 103.84C355.333 94.0675 361.912 87.8415 368.129 87.8415C373.64 87.8415 375.756 91.5694 375.947 96.5465C375.938 104.546 370.789 113.079 362.961 113.079Z" fill="white"/>
</g>
<path d="M378.378 116.164C391.783 116.164 398 108.751 398 98.8107C398 81.457 384.424 69 367.578 69C359.469 69 351.691 72.3188 345.956 78.2262C340.222 84.1335 337 92.1457 337 100.5C337 108.854 340.222 116.866 345.956 122.774C351.691 128.681 359.469 132 367.578 132C373.8 131.934 379.849 129.881 384.89 126.124C385.141 125.942 385.354 125.711 385.517 125.444C385.681 125.177 385.791 124.878 385.841 124.567C385.891 124.304 385.874 124.033 385.792 123.779C385.711 123.525 385.567 123.298 385.375 123.118C385.175 122.939 384.941 122.805 384.687 122.724C384.434 122.644 384.167 122.619 383.904 122.652C383.641 122.684 383.387 122.773 383.159 122.912C382.931 123.051 382.734 123.238 382.58 123.46C381.468 124.968 378.14 127.515 368.32 127.75C364.781 127.853 361.257 127.227 357.955 125.91C354.654 124.593 351.64 122.611 349.092 120.079C346.543 117.547 344.51 114.517 343.112 111.166C341.714 107.815 340.979 104.211 340.95 100.564C340.902 85.3645 353.024 73.358 367.569 73.1426C382.114 72.9271 393.893 83.6801 393.893 98.5364C393.893 107.967 387.514 112.345 379.833 112.178C377.38 112.345 376.886 111.336 377.218 107.801C377.484 104.863 380.184 92.7878 381.135 88.5571C381.226 88.2026 381.235 87.8311 381.161 87.4723C381.088 87.1136 380.933 86.7777 380.71 86.4918C380.487 86.206 380.202 85.978 379.878 85.8264C379.554 85.6749 379.2 85.6038 378.844 85.6191H378.682C378.177 85.6817 377.708 85.9177 377.349 86.2891C376.99 86.6604 376.763 87.1455 376.705 87.6659C376.619 88.348 376.571 89.0347 376.562 89.7225C375.672 88.0615 374.371 86.6724 372.792 85.6956C371.212 84.7188 369.411 84.1891 367.569 84.16C358.899 84.3264 351.407 92.4157 351.056 104.207C351.056 112.12 355.144 116.674 362.179 116.674C364.251 116.626 366.282 116.068 368.101 115.046C369.921 114.023 371.476 112.567 372.636 110.798C372.636 110.798 372.493 115.851 378.378 116.164ZM362.844 112.629C358.433 112.629 355.809 109.26 355.809 103.874C355.809 94.6094 361.855 88.7138 367.578 88.7138C372.646 88.7138 374.613 92.2492 374.775 96.9695C374.785 104.569 370.041 112.649 362.844 112.649V112.629Z" fill="white"/>
<g opacity="0.5">
<path opacity="0.5" d="M288.668 215.394C302.56 215.394 308.996 207.938 308.996 197.946C308.996 180.498 294.932 167.96 277.484 167.96C269.081 167.96 261.022 171.298 255.081 177.24C249.139 183.182 245.801 191.24 245.801 199.643C245.801 208.046 249.139 216.105 255.081 222.047C261.022 227.988 269.081 231.326 277.484 231.326C283.926 231.27 290.191 229.218 295.419 225.453C295.673 225.267 295.889 225.032 296.052 224.762C296.216 224.492 296.325 224.192 296.372 223.88C296.423 223.616 296.406 223.342 296.321 223.087C296.235 222.831 296.086 222.602 295.886 222.421C295.678 222.25 295.437 222.123 295.179 222.047C294.921 221.972 294.649 221.949 294.382 221.981C294.115 222.014 293.857 222.099 293.624 222.234C293.39 222.369 293.187 222.549 293.025 222.764C291.872 224.28 288.43 226.845 278.237 227.074C274.572 227.169 270.924 226.534 267.507 225.206C264.089 223.878 260.97 221.884 258.33 219.339C255.691 216.795 253.583 213.751 252.131 210.384C250.679 207.017 249.911 203.395 249.872 199.729C249.824 184.474 262.381 172.355 277.522 172.193C292.663 172.031 304.8 182.681 304.8 197.612C304.8 207.147 298.193 211.504 290.232 211.333C287.686 211.504 287.181 210.484 287.524 206.928C287.715 204 290.575 191.787 291.528 187.563C291.614 187.21 291.617 186.841 291.536 186.486C291.455 186.132 291.294 185.801 291.064 185.519C290.834 185.237 290.542 185.013 290.211 184.863C289.879 184.713 289.518 184.642 289.154 184.655H288.983C288.459 184.718 287.972 184.955 287.6 185.329C287.228 185.703 286.993 186.191 286.933 186.714C286.845 187.401 286.797 188.092 286.79 188.783C285.863 187.118 284.514 185.725 282.879 184.744C281.244 183.763 279.381 183.23 277.475 183.196C268.493 183.368 260.703 191.501 260.36 203.362C260.36 211.323 264.593 215.9 271.878 215.9C274.027 215.851 276.134 215.287 278.02 214.255C279.907 213.223 281.518 211.753 282.719 209.969C282.719 209.969 282.566 215.051 288.668 215.394ZM272.564 211.809C267.988 211.809 265.28 208.424 265.28 202.999C265.28 193.684 271.554 187.744 277.475 187.744C282.728 187.744 284.759 191.3 284.931 196.049C284.94 203.705 280.02 211.809 272.564 211.809Z" fill="white"/>
</g>
<path d="M288.056 215.416C301.681 215.416 308 208.12 308 198.337C308 181.259 294.202 169 277.08 169C268.837 169 260.932 172.266 255.103 178.08C249.275 183.893 246 191.778 246 200C246 208.222 249.275 216.107 255.103 221.92C260.932 227.734 268.837 231 277.08 231C283.403 230.935 289.551 228.914 294.675 225.217C294.93 225.039 295.147 224.811 295.313 224.548C295.479 224.285 295.59 223.992 295.642 223.685C295.692 223.427 295.675 223.16 295.592 222.91C295.509 222.66 295.363 222.436 295.168 222.259C294.965 222.082 294.727 221.951 294.469 221.872C294.212 221.793 293.94 221.768 293.673 221.8C293.405 221.832 293.147 221.919 292.916 222.056C292.684 222.193 292.484 222.377 292.327 222.596C291.197 224.08 287.815 226.586 277.833 226.817C274.236 226.919 270.655 226.303 267.299 225.007C263.943 223.711 260.88 221.76 258.29 219.268C255.699 216.777 253.633 213.795 252.212 210.497C250.791 207.199 250.044 203.652 250.015 200.063C249.967 185.105 262.286 173.289 277.07 173.077C291.854 172.865 303.884 183.389 303.884 198.01C303.884 207.291 297.4 211.599 289.593 211.435C287.1 211.599 286.597 210.606 286.936 207.127C287.206 204.236 289.95 192.352 290.917 188.189C291.009 187.84 291.018 187.474 290.943 187.121C290.868 186.768 290.711 186.438 290.485 186.156C290.258 185.875 289.968 185.651 289.639 185.502C289.309 185.352 288.949 185.282 288.588 185.298H288.424C287.91 185.359 287.433 185.591 287.068 185.957C286.704 186.322 286.473 186.8 286.414 187.312C286.326 187.983 286.278 188.659 286.269 189.336C285.364 187.701 284.042 186.334 282.436 185.373C280.831 184.411 279 183.89 277.128 183.861C268.316 184.025 260.702 191.986 260.344 203.59C260.344 211.377 264.499 215.859 271.649 215.859C273.755 215.813 275.82 215.263 277.669 214.257C279.518 213.251 281.099 211.817 282.278 210.076C282.278 210.076 282.075 215.078 288.056 215.416ZM272.268 211.936C267.784 211.936 265.117 208.621 265.117 203.32C265.117 194.203 271.263 188.401 277.08 188.401C282.23 188.401 284.23 191.88 284.394 196.526C284.404 203.976 279.582 211.927 272.268 211.927V211.936Z" fill="white"/>
<g opacity="0.5">
<path opacity="0.5" d="M204.583 241.309C219.038 241.309 225.74 233.548 225.74 223.194C225.74 205.078 211.105 191.987 192.942 191.987C184.197 191.987 175.811 195.461 169.628 201.644C163.445 207.827 159.971 216.213 159.971 224.958C159.971 233.702 163.445 242.088 169.628 248.271C175.811 254.454 184.197 257.928 192.942 257.928C199.643 257.869 206.162 255.734 211.601 251.816C211.87 251.626 212.099 251.384 212.275 251.104C212.45 250.824 212.567 250.512 212.621 250.186C212.674 249.911 212.655 249.627 212.567 249.362C212.478 249.096 212.323 248.858 212.116 248.67C211.899 248.485 211.646 248.347 211.374 248.264C211.102 248.182 210.815 248.156 210.532 248.189C210.249 248.222 209.976 248.313 209.73 248.457C209.484 248.6 209.271 248.793 209.103 249.023C207.901 250.596 204.335 253.266 193.714 253.504C189.896 253.612 186.095 252.958 182.532 251.58C178.97 250.202 175.718 248.128 172.966 245.48C170.215 242.831 168.018 239.66 166.506 236.153C164.993 232.646 164.195 228.872 164.157 225.053C164.109 209.14 177.171 196.573 192.894 196.392C208.616 196.211 221.278 207.328 221.278 222.841C221.278 232.719 214.404 237.295 206.118 237.143C203.477 237.314 202.943 236.266 203.258 232.557C203.544 229.515 206.452 216.844 207.482 212.41C207.572 212.042 207.576 211.658 207.492 211.288C207.409 210.919 207.241 210.573 207.002 210.28C206.762 209.986 206.458 209.751 206.113 209.595C205.768 209.439 205.391 209.364 205.012 209.378H204.831C204.286 209.443 203.778 209.691 203.391 210.08C203.003 210.469 202.758 210.978 202.695 211.524C202.603 212.238 202.552 212.958 202.543 213.678C201.578 211.944 200.174 210.495 198.472 209.474C196.77 208.453 194.83 207.897 192.846 207.862C183.502 208.034 175.389 216.501 175.036 228.838C175.036 237.124 179.441 241.882 187.021 241.882C189.282 241.841 191.501 241.252 193.485 240.166C195.47 239.08 197.161 237.529 198.414 235.646C198.414 235.646 198.233 240.957 204.583 241.309ZM187.831 237.61C183.064 237.61 180.203 234.082 180.203 228.438C180.203 218.741 186.725 212.572 192.894 212.572C198.357 212.572 200.522 216.272 200.655 221.211C200.703 229.143 195.592 237.6 187.831 237.6V237.61Z" fill="white"/>
</g>
<path d="M204.056 239.667C217.681 239.667 224 232.489 224 222.864C224 206.062 210.202 194 193.08 194C184.837 194 176.932 197.213 171.103 202.933C165.275 208.653 162 216.411 162 224.5C162 232.589 165.275 240.347 171.103 246.067C176.932 251.787 184.837 255 193.08 255C199.403 254.936 205.551 252.948 210.675 249.311C210.93 249.135 211.147 248.911 211.313 248.652C211.479 248.393 211.59 248.105 211.642 247.803C211.692 247.549 211.675 247.286 211.592 247.04C211.509 246.795 211.363 246.574 211.168 246.399C210.965 246.226 210.727 246.097 210.469 246.019C210.212 245.941 209.94 245.917 209.673 245.949C209.405 245.98 209.147 246.066 208.916 246.2C208.684 246.335 208.484 246.516 208.327 246.731C207.197 248.192 203.815 250.657 193.833 250.885C190.236 250.984 186.655 250.379 183.299 249.104C179.943 247.828 176.88 245.909 174.29 243.458C171.699 241.006 169.633 238.072 168.212 234.828C166.791 231.583 166.044 228.093 166.015 224.562C165.967 209.845 178.286 198.22 193.07 198.011C207.854 197.802 219.826 208.119 219.826 222.476C219.826 231.607 213.342 235.846 205.535 235.684C203.042 235.846 202.539 234.869 202.878 231.446C203.148 228.601 205.892 216.909 206.859 212.813C206.951 212.47 206.96 212.11 206.885 211.763C206.81 211.415 206.653 211.09 206.427 210.813C206.2 210.536 205.91 210.316 205.581 210.169C205.251 210.022 204.891 209.953 204.53 209.968H204.366C203.852 210.029 203.375 210.257 203.01 210.617C202.646 210.977 202.415 211.446 202.356 211.95C202.268 212.611 202.22 213.275 202.211 213.941C201.306 212.333 199.984 210.988 198.378 210.042C196.773 209.097 194.942 208.584 193.07 208.555C184.258 208.717 176.644 216.549 176.286 227.966C176.286 235.628 180.441 240.037 187.591 240.037C189.697 239.991 191.762 239.451 193.611 238.461C195.46 237.471 197.041 236.06 198.22 234.347C198.22 234.347 198.027 239.345 204.056 239.667ZM188.268 236.244C183.784 236.244 181.117 232.982 181.117 227.767C181.117 218.796 187.263 213.088 193.08 213.088C198.23 213.088 200.23 216.511 200.394 221.082C200.356 228.421 195.534 236.244 188.229 236.244H188.268Z" fill="white"/>
<g opacity="0.5">
<path opacity="0.5" d="M204.583 343.271C219.038 343.271 225.74 335.51 225.74 325.156C225.74 307.04 211.105 293.949 192.942 293.949C184.197 293.949 175.811 297.423 169.628 303.606C163.445 309.789 159.971 318.175 159.971 326.92C159.971 335.664 163.445 344.05 169.628 350.233C175.811 356.416 184.197 359.89 192.942 359.89C199.643 359.831 206.162 357.695 211.601 353.778C211.87 353.588 212.099 353.346 212.275 353.066C212.45 352.786 212.567 352.474 212.621 352.148C212.674 351.873 212.655 351.589 212.567 351.324C212.478 351.058 212.323 350.82 212.116 350.632C211.899 350.447 211.646 350.309 211.374 350.226C211.102 350.144 210.815 350.118 210.532 350.151C210.249 350.184 209.976 350.275 209.73 350.419C209.484 350.562 209.271 350.755 209.103 350.985C207.901 352.558 204.335 355.228 193.714 355.466C189.896 355.574 186.095 354.92 182.532 353.542C178.97 352.164 175.718 350.09 172.966 347.442C170.215 344.793 168.018 341.622 166.506 338.115C164.993 334.608 164.195 330.834 164.157 327.015C164.109 311.102 177.171 298.535 192.894 298.354C208.616 298.173 221.278 309.29 221.278 324.803C221.278 334.681 214.404 339.257 206.118 339.105C203.477 339.276 202.943 338.228 203.258 334.519C203.544 331.477 206.452 318.806 207.482 314.372C207.572 314.004 207.576 313.62 207.492 313.25C207.409 312.881 207.241 312.535 207.002 312.241C206.762 311.948 206.458 311.713 206.113 311.557C205.768 311.401 205.391 311.326 205.012 311.34H204.831C204.286 311.405 203.778 311.652 203.391 312.042C203.003 312.431 202.758 312.94 202.695 313.485C202.603 314.2 202.552 314.92 202.543 315.64C201.578 313.906 200.174 312.456 198.472 311.436C196.77 310.415 194.83 309.859 192.846 309.824C183.502 309.996 175.389 318.462 175.036 330.8C175.036 339.086 179.441 343.843 187.021 343.843C189.277 343.809 191.492 343.229 193.476 342.154C195.46 341.078 197.155 339.538 198.414 337.665C198.414 337.665 198.233 342.919 204.583 343.271ZM187.831 339.572C183.064 339.572 180.203 336.044 180.203 330.4C180.203 320.703 186.725 314.534 192.894 314.534C198.357 314.534 200.522 318.234 200.655 323.173C200.703 331.105 195.592 339.572 187.831 339.572Z" fill="white"/>
</g>
<path d="M204.056 342.416C217.681 342.416 224 335.12 224 325.338C224 308.259 210.202 296 193.08 296C184.837 296 176.932 299.266 171.103 305.08C165.275 310.893 162 318.778 162 327C162 335.222 165.275 343.107 171.103 348.92C176.932 354.734 184.837 358 193.08 358C199.403 357.935 205.551 355.914 210.675 352.217C210.93 352.039 211.147 351.811 211.313 351.548C211.479 351.285 211.59 350.992 211.642 350.685C211.692 350.427 211.675 350.16 211.592 349.91C211.509 349.66 211.363 349.436 211.168 349.259C210.965 349.082 210.727 348.951 210.469 348.872C210.212 348.793 209.94 348.768 209.673 348.8C209.405 348.832 209.147 348.919 208.916 349.056C208.684 349.193 208.484 349.377 208.327 349.596C207.197 351.08 203.815 353.586 193.833 353.817C190.236 353.919 186.655 353.303 183.299 352.007C179.943 350.711 176.88 348.76 174.29 346.268C171.699 343.777 169.633 340.795 168.212 337.497C166.791 334.199 166.044 330.652 166.015 327.063C165.967 312.105 178.286 300.289 193.07 300.077C207.854 299.865 219.826 310.351 219.826 324.942C219.826 334.224 213.342 338.532 205.535 338.368C203.042 338.532 202.539 337.539 202.878 334.06C203.148 331.168 205.892 319.285 206.859 315.121C206.951 314.773 206.96 314.407 206.885 314.054C206.81 313.701 206.653 313.37 206.427 313.089C206.2 312.808 205.91 312.583 205.581 312.434C205.251 312.285 204.891 312.215 204.53 312.23H204.366C203.852 312.292 203.375 312.524 203.01 312.889C202.646 313.255 202.415 313.732 202.356 314.244C202.268 314.916 202.22 315.591 202.211 316.268C201.287 314.653 199.953 313.308 198.344 312.369C196.734 311.43 194.906 310.93 193.041 310.919C184.229 311.083 176.615 319.044 176.257 330.648C176.257 338.435 180.412 342.917 187.562 342.917C189.668 342.87 191.733 342.321 193.582 341.315C195.431 340.309 197.012 338.875 198.191 337.134C198.191 337.134 198.027 342.078 204.056 342.416ZM188.268 338.936C183.784 338.936 181.117 335.621 181.117 330.32C181.117 321.203 187.263 315.401 193.08 315.401C198.23 315.401 200.23 318.88 200.394 323.526C200.356 330.976 195.534 338.936 188.229 338.936H188.268Z" fill="white"/>
<g opacity="0.5">
<path opacity="0.5" d="M349.346 398.305C363.914 398.305 370.665 390.487 370.665 380.008C370.665 361.712 355.915 348.544 337.618 348.544C328.806 348.544 320.354 352.045 314.123 358.277C307.891 364.508 304.39 372.96 304.39 381.772C304.39 390.585 307.891 399.036 314.123 405.268C320.354 411.499 328.806 415 337.618 415C344.375 414.941 350.947 412.79 356.43 408.841C356.703 408.648 356.934 408.403 357.111 408.12C357.288 407.837 357.406 407.521 357.46 407.191C357.514 406.913 357.495 406.625 357.405 406.356C357.315 406.087 357.156 405.846 356.945 405.656C356.726 405.472 356.471 405.334 356.197 405.252C355.923 405.169 355.634 405.145 355.35 405.179C355.066 405.212 354.791 405.305 354.544 405.449C354.297 405.594 354.082 405.787 353.913 406.019C352.702 407.601 349.088 410.3 338.41 410.538C334.569 410.637 330.746 409.971 327.165 408.579C323.584 407.186 320.316 405.096 317.55 402.429C314.785 399.762 312.577 396.571 311.056 393.043C309.535 389.515 308.731 385.719 308.69 381.877C308.633 365.84 321.81 353.178 337.656 352.997C353.503 352.816 366.26 364.009 366.26 379.694C366.26 389.648 359.328 394.263 351.005 394.081C348.335 394.263 347.811 393.195 348.144 389.457C348.44 386.397 351.367 373.62 352.406 369.158C352.496 368.788 352.499 368.401 352.415 368.029C352.331 367.657 352.161 367.31 351.92 367.014C351.679 366.719 351.373 366.483 351.026 366.325C350.678 366.168 350.299 366.093 349.918 366.107H349.737C349.186 366.172 348.674 366.421 348.283 366.814C347.891 367.207 347.645 367.721 347.582 368.271C347.489 368.989 347.438 369.712 347.429 370.436C346.455 368.69 345.04 367.229 343.325 366.2C341.61 365.172 339.656 364.61 337.656 364.572C328.236 364.753 320.065 373.277 319.712 385.72C319.712 394.072 324.155 398.868 331.793 398.868C334.048 398.817 336.258 398.227 338.237 397.145C340.217 396.063 341.907 394.522 343.167 392.651C343.167 392.651 342.948 397.952 349.346 398.305ZM332.47 394.577C327.702 394.577 324.842 391.021 324.842 385.338C324.842 375.565 331.421 369.349 337.637 369.349C343.148 369.349 345.265 373.077 345.456 378.054C345.437 386.044 340.278 394.577 332.46 394.577H332.47Z" fill="white"/>
</g>
<path d="M348.7 396.667C361.885 396.667 368 389.489 368 379.864C368 363.062 354.647 351 338.077 351C330.1 351 322.45 354.213 316.809 359.933C311.169 365.653 308 373.411 308 381.5C308 389.589 311.169 397.347 316.809 403.067C322.45 408.787 330.1 412 338.077 412C344.197 411.936 350.146 409.948 355.105 406.311C355.352 406.135 355.562 405.911 355.722 405.652C355.883 405.393 355.991 405.105 356.04 404.803C356.089 404.549 356.073 404.286 355.992 404.04C355.912 403.795 355.771 403.574 355.582 403.399C355.385 403.226 355.155 403.097 354.906 403.019C354.656 402.941 354.394 402.917 354.135 402.949C353.876 402.98 353.627 403.066 353.402 403.2C353.178 403.335 352.984 403.516 352.833 403.731C351.739 405.192 348.466 407.657 338.807 407.885C335.325 407.984 331.86 407.379 328.612 406.104C325.364 404.828 322.4 402.909 319.893 400.458C317.386 398.006 315.387 395.072 314.012 391.828C312.637 388.583 311.914 385.093 311.885 381.562C311.839 366.845 323.761 355.22 338.068 355.011C352.375 354.802 363.951 365.195 363.951 379.542C363.951 388.673 357.677 392.912 350.121 392.751C347.709 392.912 347.222 391.935 347.55 388.512C347.811 385.667 350.467 373.976 351.402 369.879C351.492 369.536 351.501 369.176 351.428 368.829C351.355 368.482 351.203 368.156 350.984 367.88C350.765 367.603 350.484 367.382 350.166 367.235C349.847 367.089 349.498 367.02 349.149 367.035H348.99C348.493 367.095 348.031 367.324 347.678 367.683C347.325 368.043 347.102 368.513 347.045 369.016C346.96 369.677 346.913 370.342 346.904 371.008C346.028 369.4 344.749 368.054 343.196 367.109C341.642 366.163 339.87 365.65 338.058 365.622C329.53 365.783 322.162 373.615 321.816 385.032C321.816 392.694 325.837 397.103 332.757 397.103C334.795 397.057 336.792 396.517 338.582 395.527C340.372 394.537 341.901 393.127 343.042 391.414C343.042 391.414 342.912 396.345 348.7 396.667ZM333.42 393.244C329.082 393.244 326.501 389.982 326.501 384.767C326.501 375.796 332.448 370.088 338.077 370.088C343.061 370.088 344.997 373.511 345.156 378.082C345.165 385.421 340.499 393.244 333.42 393.244Z" fill="white"/>
<path opacity="0.5" d="M293.516 301.94C303.411 301.94 308 296.76 308 289.827C308 277.714 297.977 269 285.547 269C279.742 269.264 274.264 271.697 270.251 275.794C266.239 279.891 264 285.337 264 291C264 296.663 266.239 302.109 270.251 306.206C274.264 310.303 279.742 312.736 285.547 313C290.135 312.96 294.598 311.534 298.321 308.921C298.506 308.793 298.663 308.631 298.783 308.444C298.903 308.256 298.983 308.047 299.019 307.829C299.057 307.645 299.045 307.455 298.984 307.277C298.924 307.099 298.817 306.94 298.675 306.814C298.526 306.691 298.353 306.599 298.166 306.543C297.98 306.488 297.783 306.472 297.589 306.494C297.396 306.517 297.209 306.578 297.04 306.674C296.872 306.77 296.726 306.9 296.611 307.054C295.796 308.107 293.339 309.926 286.078 310.051C283.51 310.085 280.96 309.625 278.574 308.699C276.189 307.773 274.013 306.398 272.173 304.652C268.456 301.127 266.328 296.308 266.258 291.254C266.188 286.2 268.18 281.326 271.798 277.704C275.415 274.082 280.361 272.008 285.547 271.94C296.287 271.825 304.983 279.236 304.983 289.588C304.983 296.176 300.277 299.23 294.597 299.163C292.789 299.278 292.425 298.579 292.632 296.109C292.828 294.079 294.823 285.623 295.521 282.703C295.581 282.457 295.583 282.202 295.526 281.956C295.468 281.71 295.353 281.48 295.19 281.284C295.026 281.089 294.818 280.932 294.582 280.828C294.347 280.724 294.089 280.674 293.83 280.682H293.713C293.339 280.725 292.992 280.889 292.726 281.148C292.461 281.407 292.292 281.745 292.248 282.109C292.187 282.586 292.155 283.065 292.15 283.545C291.489 282.388 290.527 281.421 289.361 280.74C288.195 280.06 286.867 279.69 285.508 279.667C279.111 279.782 273.559 285.413 273.313 293.667C273.313 299.192 276.33 302.371 281.518 302.371C283.05 302.337 284.551 301.946 285.895 301.229C287.239 300.513 288.386 299.492 289.242 298.254C289.242 298.254 289.173 301.701 293.516 301.94ZM282.049 299.47C278.786 299.47 276.861 297.114 276.861 293.351C276.861 286.878 281.331 282.76 285.557 282.76C289.301 282.76 290.745 285.231 290.873 288.506C290.863 293.82 287.365 299.47 282.049 299.47V299.47Z" fill="white"/>
<path opacity="0.5" d="M109.174 337.689C118.62 337.689 123 332.391 123 325.3C123 312.912 113.433 304 101.568 304C96.0261 304.27 90.7973 306.758 86.9671 310.948C83.137 315.138 81 320.708 81 326.5C81 332.292 83.137 337.862 86.9671 342.052C90.7973 346.242 96.0261 348.73 101.568 349C105.947 348.959 110.207 347.501 113.761 344.828C113.938 344.698 114.088 344.532 114.202 344.34C114.316 344.148 114.393 343.935 114.427 343.712C114.463 343.524 114.452 343.329 114.394 343.147C114.337 342.965 114.235 342.802 114.099 342.674C113.957 342.547 113.792 342.453 113.613 342.397C113.435 342.34 113.248 342.323 113.063 342.346C112.878 342.369 112.699 342.432 112.538 342.53C112.378 342.629 112.238 342.761 112.129 342.918C111.35 343.996 109.006 345.856 102.074 345.984C99.6229 346.018 97.1892 345.549 94.9118 344.601C92.6345 343.654 90.5582 342.248 88.8014 340.463C85.2534 336.857 83.2225 331.928 83.1554 326.76C83.0882 321.591 84.9903 316.606 88.4432 312.902C91.8962 309.197 96.6172 307.077 101.568 307.007C111.82 306.889 120.12 314.469 120.12 325.056C120.12 331.793 115.628 334.917 110.206 334.849C108.48 334.966 108.133 334.251 108.33 331.725C108.518 329.649 110.422 321.001 111.088 318.014C111.146 317.763 111.147 317.502 111.093 317.25C111.038 316.998 110.928 316.763 110.772 316.563C110.616 316.363 110.417 316.204 110.192 316.097C109.967 315.99 109.722 315.939 109.475 315.948H109.362C109.006 315.991 108.674 316.159 108.421 316.424C108.167 316.689 108.006 317.035 107.964 317.407C107.906 317.894 107.875 318.385 107.871 318.876C107.239 317.693 106.321 316.703 105.209 316.007C104.096 315.311 102.827 314.933 101.53 314.91C95.4239 315.027 90.1244 320.786 89.8899 329.227C89.8899 334.878 92.7694 338.129 97.7219 338.129C99.1838 338.095 100.616 337.694 101.899 336.962C103.182 336.229 104.278 335.185 105.094 333.918C105.094 333.918 105.029 337.444 109.174 337.689ZM98.2284 335.162C95.1144 335.162 93.276 332.753 93.276 328.904C93.276 322.284 97.5437 318.073 101.577 318.073C105.151 318.073 106.529 320.6 106.651 323.949C106.642 329.384 103.303 335.162 98.2284 335.162V335.162Z" fill="white"/>
<path opacity="0.5" d="M85.1744 174.94C94.6197 174.94 99 169.76 99 162.827C99 150.714 89.4328 142 77.5676 142C72.0261 142.264 66.7973 144.697 62.9671 148.794C59.137 152.891 57 158.337 57 164C57 169.663 59.137 175.109 62.9671 179.206C66.7973 183.303 72.0261 185.736 77.5676 186C81.9474 185.96 86.2073 184.534 89.7611 181.921C89.9378 181.793 90.0877 181.631 90.2021 181.444C90.3164 181.256 90.3929 181.047 90.427 180.829C90.4631 180.645 90.4517 180.455 90.3942 180.277C90.3367 180.099 90.2349 179.94 90.0987 179.814C89.957 179.691 89.7918 179.599 89.6134 179.543C89.4351 179.488 89.2476 179.472 89.0626 179.494C88.8776 179.517 88.6991 179.578 88.5385 179.674C88.3778 179.77 88.2384 179.9 88.129 180.054C87.3505 181.107 85.0056 182.926 78.0741 183.051C75.6229 183.085 73.1892 182.625 70.9118 181.699C68.6345 180.773 66.5582 179.398 64.8014 177.652C63.0446 175.907 61.6418 173.825 60.6731 171.526C59.7043 169.227 59.1886 166.756 59.1554 164.254C59.1221 161.751 59.5719 159.267 60.4792 156.942C61.3865 154.617 62.7335 152.497 64.4432 150.704C66.153 148.91 68.192 147.478 70.4439 146.489C72.6958 145.5 75.1164 144.974 77.5676 144.94C87.8195 144.825 96.1204 152.236 96.1204 162.588C96.1204 169.176 91.6276 172.23 86.2062 172.163C84.4803 172.278 84.1333 171.579 84.3302 169.109C84.5178 167.079 86.4219 158.623 87.0879 155.703C87.1458 155.457 87.1475 155.202 87.0927 154.956C87.0379 154.71 86.9281 154.48 86.7719 154.284C86.6157 154.089 86.4174 153.932 86.1923 153.828C85.9673 153.724 85.7216 153.674 85.4746 153.682H85.362C85.0059 153.725 84.6742 153.889 84.4206 154.148C84.167 154.407 84.0063 154.745 83.9645 155.109C83.9061 155.586 83.8748 156.065 83.8707 156.545C83.2395 155.388 82.3214 154.421 81.2086 153.74C80.0957 153.06 78.8271 152.69 77.53 152.667C71.4239 152.782 66.1244 158.413 65.8899 166.667C65.8899 172.192 68.7694 175.371 73.7219 175.371C75.1838 175.337 76.6165 174.946 77.8994 174.229C79.1823 173.513 80.278 172.492 81.0943 171.254C81.0943 171.254 81.0286 174.701 85.1744 174.94ZM74.2284 172.47C71.1144 172.47 69.276 170.114 69.276 166.351C69.276 159.878 73.5437 155.76 77.577 155.76C81.1506 155.76 82.5294 158.231 82.6513 161.506C82.6419 166.82 79.2934 172.47 74.2284 172.47Z" fill="white"/>
<path opacity="0.5" d="M451.174 180.689C460.62 180.689 465 175.391 465 168.3C465 155.912 455.433 147 443.568 147C438.026 147.27 432.797 149.758 428.967 153.948C425.137 158.138 423 163.708 423 169.5C423 175.292 425.137 180.862 428.967 185.052C432.797 189.242 438.026 191.73 443.568 192C447.947 191.959 452.207 190.501 455.761 187.828C455.938 187.698 456.088 187.532 456.202 187.34C456.316 187.148 456.393 186.935 456.427 186.712C456.463 186.524 456.452 186.329 456.394 186.147C456.337 185.965 456.235 185.802 456.099 185.674C455.957 185.547 455.792 185.453 455.614 185.397C455.435 185.34 455.248 185.323 455.063 185.346C454.878 185.369 454.699 185.432 454.538 185.53C454.378 185.629 454.238 185.761 454.129 185.918C453.351 186.996 451.006 188.856 444.074 188.984C439.124 189.054 434.349 187.068 430.801 183.463C427.253 179.857 425.223 174.928 425.155 169.76C425.088 164.591 426.99 159.606 430.443 155.902C433.896 152.197 438.617 150.077 443.568 150.007C453.82 149.889 462.121 157.469 462.121 168.056C462.121 174.793 457.628 177.917 452.206 177.849C450.48 177.966 450.133 177.251 450.33 174.725C450.518 172.649 452.422 164.001 453.088 161.014C453.146 160.763 453.147 160.502 453.093 160.25C453.038 159.998 452.928 159.763 452.772 159.563C452.616 159.363 452.417 159.204 452.192 159.097C451.967 158.99 451.722 158.939 451.475 158.948H451.362C451.006 158.991 450.674 159.159 450.421 159.424C450.167 159.689 450.006 160.035 449.964 160.407C449.906 160.894 449.875 161.385 449.871 161.876C449.239 160.693 448.321 159.703 447.209 159.007C446.096 158.311 444.827 157.933 443.53 157.91C437.424 158.027 432.124 163.786 431.89 172.227C431.89 177.878 434.769 181.129 439.722 181.129C441.184 181.095 442.616 180.694 443.899 179.962C445.182 179.229 446.278 178.185 447.094 176.918C447.094 176.918 446.991 180.454 451.174 180.689ZM440.228 178.162C437.114 178.162 435.276 175.753 435.276 171.904C435.276 165.284 439.544 161.073 443.577 161.073C447.151 161.073 448.529 163.6 448.651 166.949C448.604 172.394 445.256 178.162 440.191 178.162H440.228Z" fill="white"/>
<path opacity="0.3" d="M104.494 222.974C109.619 222.974 112 220.176 112 216.361C112 209.748 106.811 205 100.369 205C97.3248 205.087 94.434 206.39 92.3109 208.631C90.1878 210.871 89 213.874 89 217C89 220.126 90.1878 223.129 92.3109 225.369C94.434 227.61 97.3248 228.913 100.369 229C102.744 228.979 105.055 228.204 106.984 226.78C107.177 226.637 107.307 226.423 107.348 226.183C107.366 226.083 107.359 225.98 107.328 225.883C107.296 225.787 107.24 225.7 107.166 225.633C107.089 225.565 106.999 225.515 106.902 225.485C106.805 225.455 106.703 225.445 106.602 225.458C106.501 225.47 106.404 225.503 106.317 225.556C106.229 225.609 106.153 225.679 106.094 225.763C105.666 226.332 104.394 227.312 100.641 227.396C99.2892 227.451 97.9397 227.229 96.6727 226.74C95.4058 226.252 94.2469 225.508 93.2646 224.553C92.2823 223.597 91.4965 222.449 90.9535 221.177C90.4105 219.904 90.1214 218.533 90.1032 217.144C90.085 215.755 90.3381 214.376 90.8475 213.089C91.3569 211.802 92.1123 210.633 93.0692 209.65C94.0261 208.668 95.1651 207.892 96.4188 207.369C97.6725 206.846 99.0156 206.586 100.369 206.604C105.93 206.539 110.437 210.587 110.437 216.23C110.437 219.822 108.002 221.491 105.058 221.426C104.149 221.491 103.931 221.109 104.058 219.756C104.158 218.646 105.194 214.038 105.557 212.425C105.582 212.289 105.576 212.149 105.542 212.016C105.507 211.883 105.444 211.759 105.357 211.654C105.27 211.548 105.161 211.464 105.039 211.407C104.916 211.35 104.783 211.322 104.649 211.324H104.585C104.395 211.356 104.219 211.449 104.083 211.589C103.948 211.73 103.859 211.912 103.831 212.108C103.798 212.368 103.78 212.629 103.776 212.891C103.435 212.261 102.937 211.733 102.335 211.361C101.732 210.99 101.045 210.787 100.342 210.774C97.0249 210.839 94.1534 213.917 94.0262 218.413C94.0262 221.426 95.5892 223.161 98.2789 223.161C99.0718 223.142 99.8487 222.927 100.544 222.536C101.24 222.145 101.834 221.588 102.277 220.913C102.278 221.202 102.338 221.487 102.453 221.751C102.568 222.015 102.735 222.251 102.943 222.445C103.152 222.639 103.397 222.786 103.664 222.877C103.931 222.969 104.214 223.002 104.494 222.974ZM98.5515 221.631C96.8613 221.631 95.8254 220.344 95.8254 218.292C95.8254 214.766 98.1426 212.518 100.369 212.518C102.304 212.518 103.095 213.861 103.095 215.661C103.122 218.544 101.305 221.631 98.5606 221.631H98.5515Z" fill="white"/>
<path opacity="0.3" d="M167.168 274.974C172.516 274.974 175 272.176 175 268.361C175 261.748 169.586 257 162.863 257C159.687 257.087 156.67 258.39 154.455 260.631C152.239 262.871 151 265.874 151 269C151 272.126 152.239 275.128 154.455 277.369C156.67 279.61 159.687 280.913 162.863 281C165.342 280.979 167.754 280.204 169.766 278.78C169.967 278.637 170.103 278.423 170.145 278.183C170.165 278.083 170.158 277.98 170.124 277.883C170.091 277.787 170.033 277.7 169.956 277.633C169.875 277.565 169.781 277.515 169.68 277.485C169.579 277.455 169.472 277.445 169.367 277.458C169.262 277.47 169.161 277.503 169.07 277.556C168.978 277.609 168.899 277.679 168.837 277.763C168.391 278.332 167.064 279.312 163.148 279.396C161.737 279.452 160.328 279.229 159.006 278.74C157.684 278.252 156.475 277.508 155.45 276.553C154.425 275.597 153.605 274.449 153.038 273.177C152.472 271.904 152.17 270.533 152.151 269.144C152.132 267.755 152.396 266.376 152.928 265.089C153.459 263.802 154.248 262.633 155.246 261.65C156.245 260.668 157.433 259.892 158.741 259.369C160.05 258.846 161.451 258.586 162.863 258.604C168.666 258.539 173.369 262.587 173.369 268.23C173.369 271.822 170.828 273.491 167.756 273.426C166.808 273.491 166.58 273.109 166.713 271.756C166.817 270.646 167.898 266.038 168.277 264.425C168.303 264.289 168.297 264.149 168.261 264.016C168.225 263.883 168.159 263.759 168.068 263.654C167.977 263.548 167.864 263.464 167.736 263.407C167.608 263.35 167.469 263.322 167.329 263.324H167.263C167.064 263.356 166.881 263.449 166.739 263.589C166.598 263.73 166.505 263.912 166.476 264.108C166.441 264.368 166.422 264.629 166.419 264.891C166.062 264.261 165.543 263.733 164.914 263.361C164.285 262.99 163.568 262.787 162.835 262.774C159.374 262.839 156.378 265.917 156.245 270.413C156.245 273.426 157.876 275.161 160.682 275.161C161.51 275.142 162.32 274.927 163.046 274.536C163.772 274.145 164.392 273.588 164.854 272.913C164.856 273.202 164.918 273.487 165.038 273.751C165.157 274.015 165.332 274.251 165.549 274.445C165.767 274.639 166.023 274.786 166.302 274.877C166.581 274.969 166.876 275.002 167.168 274.974ZM160.967 273.631C159.203 273.631 158.122 272.344 158.122 270.292C158.122 266.766 160.54 264.518 162.863 264.518C164.883 264.518 165.708 265.861 165.708 267.661C165.736 270.544 163.849 273.622 160.976 273.622L160.967 273.631Z" fill="white"/>
<path opacity="0.3" d="M353.494 212.723C358.619 212.723 361 209.808 361 205.834C361 198.946 355.811 194 349.369 194C346.325 194.091 343.434 195.448 341.311 197.782C339.188 200.116 338 203.244 338 206.5C338 209.756 339.188 212.884 341.311 215.218C343.434 217.552 346.325 218.909 349.369 219C351.744 218.979 354.055 218.171 355.984 216.688C356.177 216.539 356.307 216.316 356.348 216.066C356.366 215.961 356.359 215.854 356.328 215.753C356.296 215.653 356.24 215.563 356.166 215.492C356.089 215.422 355.999 215.37 355.902 215.338C355.805 215.307 355.703 215.297 355.602 215.31C355.501 215.323 355.404 215.358 355.317 215.413C355.229 215.467 355.153 215.541 355.094 215.628C354.666 216.221 353.394 217.241 349.641 217.329C348.289 217.387 346.94 217.155 345.673 216.646C344.406 216.138 343.247 215.363 342.265 214.367C341.282 213.372 340.497 212.176 339.954 210.851C339.411 209.525 339.121 208.097 339.103 206.65C339.085 205.203 339.338 203.767 339.847 202.426C340.357 201.085 341.112 199.867 342.069 198.844C343.026 197.821 344.165 197.013 345.419 196.468C346.672 195.923 348.016 195.652 349.369 195.671C354.93 195.603 359.437 199.82 359.437 205.698C359.437 209.439 357.002 211.178 354.058 211.11C353.149 211.178 352.931 210.78 353.058 209.371C353.158 208.215 354.194 203.415 354.557 201.734C354.582 201.593 354.576 201.447 354.542 201.308C354.507 201.17 354.444 201.041 354.357 200.931C354.27 200.821 354.161 200.734 354.039 200.674C353.916 200.615 353.783 200.585 353.649 200.588H353.585C353.395 200.62 353.219 200.717 353.083 200.864C352.948 201.011 352.859 201.2 352.831 201.404C352.798 201.675 352.78 201.947 352.776 202.22C352.435 201.563 351.937 201.014 351.335 200.626C350.732 200.239 350.045 200.028 349.342 200.014C346.025 200.082 343.153 203.289 343.026 207.972C343.026 211.11 344.589 212.918 347.279 212.918C348.072 212.897 348.849 212.674 349.544 212.267C350.24 211.859 350.834 211.28 351.277 210.576C351.278 210.877 351.338 211.174 351.453 211.449C351.568 211.724 351.735 211.97 351.943 212.172C352.152 212.374 352.397 212.527 352.664 212.622C352.931 212.717 353.214 212.752 353.494 212.723ZM347.551 211.324C345.861 211.324 344.825 209.983 344.825 207.846C344.825 204.173 347.143 201.831 349.369 201.831C351.304 201.831 352.095 203.23 352.095 205.106C352.122 208.137 350.314 211.344 347.561 211.344L347.551 211.324Z" fill="white"/>
<path opacity="0.3" d="M227.842 157.723C233.412 157.723 236 154.808 236 150.834C236 143.946 230.36 139 223.357 139C220.049 139.091 216.906 140.448 214.599 142.782C212.291 145.116 211 148.244 211 151.5C211 154.756 212.291 157.884 214.599 160.218C216.906 162.552 220.049 163.909 223.357 164C225.94 163.979 228.452 163.171 230.548 161.688C230.757 161.539 230.899 161.316 230.943 161.066C230.963 160.961 230.956 160.854 230.921 160.753C230.887 160.653 230.826 160.563 230.745 160.492C230.662 160.422 230.564 160.37 230.458 160.338C230.353 160.307 230.242 160.297 230.132 160.31C230.023 160.323 229.917 160.358 229.822 160.413C229.727 160.467 229.645 160.541 229.58 160.628C229.116 161.221 227.733 162.241 223.654 162.329C222.184 162.387 220.717 162.155 219.34 161.646C217.963 161.138 216.703 160.363 215.636 159.367C214.568 158.372 213.714 157.176 213.123 155.851C212.533 154.525 212.219 153.097 212.199 151.65C212.179 150.203 212.454 148.767 213.008 147.426C213.562 146.085 214.383 144.867 215.423 143.844C216.463 142.821 217.701 142.013 219.064 141.468C220.427 140.923 221.887 140.652 223.357 140.671C229.402 140.603 234.301 144.82 234.301 150.698C234.301 154.439 231.654 156.178 228.454 156.11C227.466 156.178 227.229 155.78 227.367 154.371C227.476 153.215 228.602 148.415 228.997 146.734C229.024 146.593 229.018 146.447 228.98 146.308C228.942 146.17 228.874 146.041 228.779 145.931C228.685 145.821 228.567 145.734 228.434 145.674C228.3 145.615 228.156 145.585 228.009 145.588H227.94C227.733 145.62 227.542 145.717 227.395 145.864C227.247 146.011 227.151 146.2 227.121 146.404C227.085 146.675 227.065 146.947 227.061 147.22C226.69 146.563 226.149 146.014 225.494 145.627C224.839 145.239 224.092 145.028 223.328 145.014C219.723 145.082 216.602 148.289 216.463 152.972C216.463 156.11 218.162 157.918 221.086 157.918C221.948 157.897 222.792 157.674 223.548 157.267C224.304 156.859 224.95 156.28 225.432 155.576C225.433 155.877 225.498 156.174 225.623 156.449C225.747 156.724 225.929 156.97 226.156 157.172C226.382 157.374 226.649 157.527 226.94 157.622C227.23 157.717 227.537 157.752 227.842 157.723ZM221.382 156.324C219.545 156.324 218.419 154.983 218.419 152.846C218.419 149.173 220.938 146.831 223.357 146.831C225.461 146.831 226.32 148.23 226.32 150.106C226.34 153.108 224.375 156.314 221.382 156.314V156.324Z" fill="white"/>
<path opacity="0.5" d="M293.516 116.192C303.411 116.192 308 111.129 308 104.354C308 92.5158 297.977 84 285.547 84C279.742 84.258 274.264 86.6358 270.251 90.6396C266.239 94.6434 264 99.9653 264 105.5C264 111.035 266.239 116.357 270.251 120.36C274.264 124.364 279.742 126.742 285.547 127C290.135 126.96 294.598 125.568 298.321 123.014C298.506 122.889 298.663 122.73 298.783 122.547C298.903 122.364 298.983 122.16 299.019 121.947C299.057 121.767 299.045 121.581 298.984 121.407C298.924 121.234 298.817 121.078 298.675 120.955C298.526 120.834 298.353 120.744 298.166 120.69C297.98 120.636 297.783 120.62 297.589 120.642C297.396 120.664 297.209 120.724 297.04 120.818C296.872 120.912 296.726 121.038 296.611 121.189C295.796 122.218 293.339 123.996 286.078 124.118C283.51 124.151 280.96 123.702 278.574 122.797C276.189 121.892 274.013 120.548 272.173 118.842C270.333 117.136 268.863 115.102 267.848 112.855C266.833 110.609 266.293 108.194 266.258 105.748C266.223 103.302 266.694 100.874 267.645 98.6023C268.595 96.3302 270.007 94.2586 271.798 92.5059C273.589 90.7532 275.725 89.3537 278.084 88.3871C280.443 87.4206 282.979 86.9061 285.547 86.8729C296.287 86.7606 304.983 94.0037 304.983 104.12C304.983 110.558 300.277 113.543 294.597 113.478C292.789 113.59 292.425 112.907 292.632 110.492C292.828 108.509 294.823 100.245 295.521 97.3913C295.581 97.1516 295.583 96.9017 295.526 96.6612C295.468 96.4207 295.353 96.1961 295.19 96.005C295.026 95.8138 294.818 95.6613 294.582 95.5593C294.347 95.4572 294.089 95.4084 293.83 95.4167H293.713C293.339 95.4585 292.992 95.6188 292.726 95.8719C292.461 96.1249 292.292 96.4558 292.248 96.8111C292.187 97.2768 292.155 97.7455 292.15 98.2148C291.489 97.084 290.527 96.1387 289.361 95.4735C288.195 94.8083 286.867 94.4466 285.508 94.4248C279.111 94.5371 273.559 100.04 273.313 108.106C273.313 113.506 276.33 116.613 281.518 116.613C283.05 116.58 284.551 116.197 285.895 115.497C287.239 114.796 288.386 113.799 289.242 112.589C289.242 112.589 289.173 115.958 293.516 116.192ZM282.049 113.777C278.786 113.777 276.861 111.475 276.861 107.797C276.861 101.471 281.331 97.4474 285.557 97.4474C289.301 97.4474 290.745 99.8618 290.873 103.062C290.863 108.256 287.365 113.777 282.049 113.777V113.777Z" fill="white"/>
<g opacity="0.5">
<path opacity="0.5" d="M453.043 313.515C482.753 313.515 496.521 297.573 496.521 276.196C496.521 238.878 466.449 212.058 429.121 212.058C391.794 212.058 361.722 242.492 361.722 279.82C361.722 317.147 391.794 347.581 429.121 347.581C442.898 347.462 456.298 343.075 467.479 335.024C468.034 334.632 468.505 334.133 468.865 333.557C469.225 332.981 469.467 332.339 469.576 331.668C469.686 331.103 469.648 330.519 469.466 329.973C469.284 329.427 468.964 328.937 468.537 328.55C468.091 328.172 467.572 327.889 467.012 327.72C466.452 327.551 465.864 327.5 465.283 327.569C464.702 327.638 464.142 327.826 463.637 328.121C463.132 328.416 462.694 328.812 462.349 329.285C459.889 332.517 452.519 338.009 430.733 338.505C397.762 339.248 370.179 313 370.074 280.029C369.969 247.326 396.828 221.497 429.14 221.134C461.453 220.772 487.482 243.598 487.482 275.481C487.482 295.771 473.352 305.191 456.323 304.829C450.889 305.191 449.802 303.017 450.526 295.408C451.117 289.163 457.096 263.115 459.212 254C459.395 253.244 459.4 252.456 459.228 251.698C459.056 250.94 458.711 250.232 458.22 249.629C457.729 249.026 457.105 248.545 456.397 248.223C455.69 247.902 454.917 247.748 454.14 247.774H453.778C452.658 247.91 451.617 248.418 450.822 249.217C450.026 250.016 449.523 251.059 449.392 252.179C449.205 253.643 449.103 255.117 449.087 256.593C445.826 250.072 438.217 244.999 429.159 244.637C409.957 244.999 393.29 262.39 392.566 287.752C392.566 304.781 401.624 314.563 417.203 314.563C428.072 314.563 436.043 308.042 440.391 301.882C440.353 301.921 439.991 312.79 453.043 313.515ZM418.624 305.887C408.841 305.887 403.044 298.641 403.044 287.047C403.044 267.119 416.45 254.439 429.131 254.439C440.362 254.439 444.71 262.066 445.072 272.192C445.034 288.505 434.546 305.906 418.614 305.906L418.624 305.887Z" fill="white"/>
</g>
<path d="M452.058 312.083C480.712 312.083 494 296.67 494 276.003C494 239.923 464.994 214 429 214C393.006 214 364 243.42 364 279.5C364 315.58 393.006 345 429 345C442.283 344.884 455.204 340.644 465.985 332.865C466.52 332.485 466.974 332.002 467.321 331.445C467.668 330.887 467.901 330.265 468.006 329.616C468.113 329.069 468.077 328.504 467.902 327.974C467.727 327.445 467.417 326.971 467.005 326.597C466.575 326.231 466.075 325.957 465.535 325.793C464.995 325.63 464.427 325.579 463.867 325.646C463.307 325.712 462.767 325.894 462.28 326.179C461.793 326.464 461.37 326.847 461.038 327.304C458.664 330.428 451.553 335.741 430.535 336.219C398.735 336.945 372.14 311.567 372.036 279.691C371.931 248.073 397.83 223.106 429 222.752C460.17 222.399 485.24 244.471 485.24 275.305C485.24 294.922 471.609 304.028 455.185 303.674C449.942 304.028 448.894 301.926 449.59 294.568C450.161 288.53 455.919 263.352 457.959 254.542C458.134 253.812 458.139 253.052 457.972 252.32C457.806 251.588 457.473 250.904 457 250.322C456.526 249.741 455.925 249.276 455.243 248.966C454.562 248.655 453.817 248.507 453.069 248.532H452.716C451.635 248.662 450.63 249.154 449.862 249.927C449.094 250.7 448.609 251.71 448.484 252.794C448.303 254.21 448.205 255.636 448.188 257.065C445.043 250.758 437.703 245.857 428.971 245.503C410.45 245.857 394.379 262.702 393.702 287.192C393.702 303.655 402.434 313.115 417.466 313.115C427.951 313.115 435.634 306.808 439.829 300.856C439.829 300.875 439.476 311.376 452.058 312.083ZM418.858 304.725C409.421 304.725 403.835 297.721 403.835 286.513C403.835 267.25 416.761 254.982 429 254.982C439.829 254.982 444.023 262.339 444.375 272.181C444.366 287.908 434.233 304.725 418.858 304.725V304.725Z" fill="white"/>
<defs>
<filter id="filter0_d" x="0" y="22" width="1111" height="654" filterUnits="userSpaceOnUse" color-interpolation-filters="sRGB">
<feFlood flood-opacity="0" result="BackgroundImageFix"/>
<feColorMatrix in="SourceAlpha" type="matrix" values="0 0 0 0 0 0 0 0 0 0 0 0 0 0 0 0 0 0 127 0"/>
<feOffset dy="4"/>
<feGaussianBlur stdDeviation="2"/>
<feColorMatrix type="matrix" values="0 0 0 0 0 0 0 0 0 0 0 0 0 0 0 0 0 0 0.25 0"/>
<feBlend mode="normal" in2="BackgroundImageFix" result="effect1_dropShadow"/>
<feBlend mode="normal" in="SourceGraphic" in2="effect1_dropShadow" result="shape"/>
</filter>
</defs>
</svg>
