<svg width="1440" height="394" viewBox="0 0 1440 394" fill="none" xmlns="http://www.w3.org/2000/svg">
<rect width="1440" height="394" fill="white"/>
<rect x="195" width="1055" height="300" rx="10" fill="#3F3D56"/>
<path d="M0 394V190.672C585.797 424.515 1231.36 46.207 1440 90.6752V394H0Z" fill="#7656FF"/>
<path d="M787.707 232.325C787.707 232.325 814.612 214.74 813.989 202.659C813.367 190.578 797.147 152.486 797.147 152.486C797.147 152.486 784.459 125.673 779.415 136.631C774.371 147.589 786.045 159.253 786.045 159.253L793.579 196.62L773.102 216.475L787.707 232.325Z" fill="#FAD3BD"/>
<path d="M719.34 207.909C732.274 207.909 742.758 197.864 742.758 185.472C742.758 173.081 732.274 163.036 719.34 163.036C706.407 163.036 695.923 173.081 695.923 185.472C695.923 197.864 706.407 207.909 719.34 207.909Z" fill="#FAD3BD"/>
<path d="M707.137 199.483L711.016 223.746L739.46 218.638C739.46 218.638 738.167 194.375 738.167 191.821C738.167 189.267 707.137 199.483 707.137 199.483Z" fill="#FAD3BD"/>
<path d="M705.874 222.648C705.874 222.648 737.076 215.161 740.82 217.657C744.564 220.152 763.285 222.648 763.285 222.648L784.503 255.092L778.262 296.27C778.262 296.27 777.014 362.406 779.51 373.636C782.007 384.867 795.736 386.115 767.03 388.61C738.324 391.106 733.331 387.363 713.362 392.354C693.393 397.345 677.168 389.858 682.16 384.867C687.152 379.876 695.889 300.014 685.904 292.527C675.92 285.04 672.175 246.357 672.175 246.357C672.175 246.357 705.874 228.887 705.874 222.648Z" fill="#393939"/>
<path d="M759.909 226.367L763.718 222.634L771.335 215.167C771.335 215.167 796.093 225.745 794.823 229.478C793.553 233.211 785.301 254.988 785.301 254.988L773.875 258.721L759.909 226.367Z" fill="#2F2F2F"/>
<path d="M727.109 156.952L726.874 155.155C725.317 155.146 723.769 155.384 722.29 155.86C722.139 154.777 722.235 153.673 722.573 152.631C721.07 153.009 719.637 153.619 718.33 154.438L717.404 151.157L704.682 157.298C700.116 159.503 695.301 161.925 692.69 166.206C689.78 170.979 690.287 177.113 692.276 182.319C694.266 187.526 697.571 192.133 700.221 197.05C701.227 199.164 702.436 201.179 703.832 203.069C708.634 208.932 717.981 210.117 724.752 206.578C727.251 205.272 729.521 203.32 730.549 200.735C731.163 199.19 731.304 197.508 731.707 195.897C732.544 192.546 733.516 185.63 736.295 183.51C737.518 182.578 739.942 185.67 740.955 184.521C743.558 181.569 743.012 177.017 741.395 173.453C739.843 169.872 738.029 166.407 735.967 163.082C735.093 161.746 727.081 156.737 727.109 156.952Z" fill="#212121"/>
<path d="M652.697 275.878C652.697 275.878 622.559 304.901 626.326 320.044C630.093 335.186 660.231 379.351 660.231 379.351C660.231 379.351 689.114 394.494 692.881 379.351C696.648 364.209 672.789 367.994 672.789 367.994L653.952 322.567L675.3 292.282L652.697 275.878Z" fill="#FAD3BD"/>
<path d="M688.221 248.04L673.031 245.523C673.031 245.523 661.639 258.107 657.841 263.141C654.044 268.174 646.449 280.758 646.449 280.758L673.031 299.635L693.284 278.242L688.221 248.04Z" fill="#2F2F2F"/>
</svg>
