<svg width="1440" height="299" viewBox="0 0 1440 299" fill="none" xmlns="http://www.w3.org/2000/svg">
<rect width="1440" height="299" fill="white"/>
<path d="M195 10C195 4.47716 199.477 0 205 0H1240C1245.52 0 1250 4.47715 1250 10V205C1250 210.523 1245.52 215 1240 215H205C199.477 215 195 210.523 195 205V10Z" fill="#3F3D56"/>
<path d="M0 299V164.552C585.797 319.178 1231.36 69.0261 1440 98.4302V299H0Z" fill="#7656FF"/>
<path d="M747.84 179.475C747.84 179.475 767.446 166.692 766.992 157.91C766.539 149.128 754.719 121.438 754.719 121.438C754.719 121.438 745.473 101.947 741.797 109.913C738.121 117.878 746.628 126.357 746.628 126.357L752.119 153.52L737.197 167.953L747.84 179.475Z" fill="#FAD3BD"/>
<path d="M698.019 161.726C707.444 161.726 715.084 154.424 715.084 145.416C715.084 136.409 707.444 129.107 698.019 129.107C688.595 129.107 680.954 136.409 680.954 145.416C680.954 154.424 688.595 161.726 698.019 161.726Z" fill="#FAD3BD"/>
<path d="M689.126 155.601L691.953 173.238L712.681 169.525C712.681 169.525 711.739 151.888 711.739 150.031C711.739 148.175 689.126 155.601 689.126 155.601Z" fill="#FAD3BD"/>
<path d="M688.206 172.44C688.206 172.44 710.944 166.998 713.672 168.812C716.401 170.626 730.043 172.44 730.043 172.44L745.505 196.024L740.957 225.958C740.957 225.958 740.048 274.033 741.867 282.197C743.686 290.361 753.69 291.268 732.772 293.082C711.853 294.896 708.215 292.175 693.663 295.803C679.111 299.432 667.287 293.989 670.925 290.361C674.563 286.733 680.93 228.679 673.654 223.237C666.378 217.794 663.649 189.675 663.649 189.675C663.649 189.675 688.206 176.976 688.206 172.44Z" fill="#393939"/>
<path d="M727.582 175.144L730.358 172.43L735.909 167.002C735.909 167.002 753.95 174.691 753.025 177.405C752.1 180.119 746.086 195.949 746.086 195.949L737.76 198.662L727.582 175.144Z" fill="#2F2F2F"/>
<path d="M703.68 124.684L703.509 123.378C702.375 123.372 701.247 123.545 700.169 123.891C700.058 123.103 700.129 122.301 700.375 121.543C699.279 121.818 698.236 122.262 697.283 122.857L696.608 120.472L687.338 124.936C684.01 126.539 680.501 128.299 678.599 131.411C676.478 134.881 676.847 139.34 678.297 143.124C679.747 146.909 682.156 150.259 684.087 153.832C684.82 155.369 685.701 156.834 686.718 158.208C690.217 162.47 697.029 163.331 701.963 160.759C703.784 159.809 705.438 158.39 706.187 156.511C706.635 155.388 706.738 154.165 707.031 152.994C707.641 150.559 708.35 145.531 710.374 143.99C711.265 143.312 713.032 145.56 713.77 144.725C715.668 142.579 715.269 139.27 714.091 136.679C712.96 134.076 711.638 131.557 710.135 129.141C709.499 128.169 703.66 124.528 703.68 124.684Z" fill="#212121"/>
<path d="M649.455 211.135C649.455 211.135 627.492 232.232 630.237 243.239C632.983 254.247 654.945 286.351 654.945 286.351C654.945 286.351 675.992 297.359 678.738 286.351C681.483 275.344 664.096 278.096 664.096 278.096L650.37 245.074L665.926 223.059L649.455 211.135Z" fill="#FAD3BD"/>
<path d="M675.342 190.898L664.273 189.069C664.273 189.069 655.971 198.216 653.204 201.875C650.436 205.534 644.902 214.682 644.902 214.682L664.273 228.404L679.032 212.853L675.342 190.898Z" fill="#2F2F2F"/>
</svg>
