<svg width="64" height="64" viewBox="0 0 64 64" fill="none" xmlns="http://www.w3.org/2000/svg">
<path d="M32 0.79187C14.32 0.79187 0 15.1199 0 32.7919C0 46.9332 9.168 58.9252 21.88 63.1519C23.48 63.4532 24.0667 62.4639 24.0667 61.6132C24.0667 60.8532 24.04 58.8399 24.0267 56.1732C15.1253 58.1039 13.248 51.8799 13.248 51.8799C11.792 48.1865 9.688 47.1999 9.688 47.1999C6.78933 45.2159 9.912 45.2559 9.912 45.2559C13.1253 45.4799 14.8133 48.5519 14.8133 48.5519C17.6667 53.4452 22.304 52.0319 24.1333 51.2132C24.4213 49.1439 25.2453 47.7332 26.16 46.9332C19.0533 46.1332 11.584 43.3812 11.584 31.1199C11.584 27.6265 12.824 24.7732 14.8773 22.5332C14.5173 21.7252 13.4373 18.4719 15.1573 14.0639C15.1573 14.0639 17.8373 13.2052 23.9573 17.3439C26.5173 16.6319 29.2373 16.2799 31.9573 16.2639C34.6773 16.2799 37.3973 16.6319 39.9573 17.3439C46.0373 13.2052 48.7173 14.0639 48.7173 14.0639C50.4373 18.4719 49.3573 21.7252 49.0373 22.5332C51.0773 24.7732 52.3173 27.6265 52.3173 31.1199C52.3173 43.4132 44.8373 46.1199 37.7173 46.9065C38.8373 47.8665 39.8773 49.8292 39.8773 52.8265C39.8773 57.1092 39.8373 60.5492 39.8373 61.5892C39.8373 62.4292 40.3973 63.4292 42.0373 63.1092C54.84 58.9119 64 46.9119 64 32.7919C64 15.1199 49.672 0.79187 32 0.79187" fill="white"/>
</svg>
