<svg width="1440" height="898" viewBox="0 0 1440 898" fill="none" xmlns="http://www.w3.org/2000/svg">
<rect width="1440" height="898" fill="white"/>
<rect width="1440" height="898" fill="white"/>
<rect width="1440" height="898" fill="white"/>
<path d="M1190.07 725.151C1190.07 757.655 1114.73 783.846 1021.84 783.846C928.948 783.846 853.605 757.422 853.605 725.151C853.605 692.646 928.948 666.455 1021.84 666.455C1114.73 666.455 1190.07 692.646 1190.07 725.151Z" fill="#9EDCF2"/>
<path d="M1190.07 725.151C1190.07 757.655 1114.73 783.846 1021.84 783.846C928.948 783.846 853.605 757.422 853.605 725.151C853.605 692.646 928.948 666.455 1021.84 666.455C1114.73 666.455 1190.07 692.646 1190.07 725.151Z" fill="#7DBCE7"/>
<path d="M829.739 552.338L824.825 569.175C824.825 569.175 823.655 575.255 829.271 576.424C835.355 576.191 834.887 570.578 834.419 568.941L829.739 552.338Z" fill="#9EDCF2"/>
<path d="M1318.53 481.483L1319 479.378C1269.63 469.557 1219.09 469.323 1188.44 470.726C1193.35 452.72 1194.99 431.674 1194.99 408.523C1194.99 375.083 1182.35 348.424 1162.23 328.314C1165.74 316.855 1170.42 291.366 1157.55 258.861C1157.55 258.861 1134.62 251.612 1082.44 286.455C1062.09 281.311 1040.32 278.738 1018.56 278.738C994.698 278.738 970.597 281.778 947.901 287.858C894.084 251.144 870.452 258.628 870.452 258.628C855.009 297.212 864.602 325.975 867.41 332.991C849.159 352.634 838.162 377.655 838.162 408.289C838.162 431.44 840.736 452.252 847.288 470.258C816.402 469.089 767.733 469.557 720 479.144L720.468 481.249C768.201 471.661 817.338 471.428 847.989 472.597C849.393 476.338 851.031 480.08 852.669 483.588C822.251 484.523 770.541 488.498 720.936 502.529L721.638 504.634C771.711 490.603 823.889 486.861 854.073 485.926C872.324 519.6 907.889 541.581 971.533 548.363C962.408 554.443 953.282 564.732 949.539 582.271C937.137 588.117 898.296 602.615 874.898 562.394C874.898 562.394 861.795 538.541 836.758 536.671C836.758 536.671 812.424 536.203 835.12 551.871C835.12 551.871 851.265 559.588 862.496 588.351C862.496 588.351 877.238 637.458 947.667 621.557V671.834C947.667 671.834 946.263 689.84 929.65 695.686C929.65 695.686 919.823 702.468 930.352 706.209C930.352 706.209 975.979 709.951 975.979 672.535V617.348C975.979 617.348 974.107 595.366 984.87 587.883V678.615C984.87 678.615 984.168 700.363 972.937 708.548C972.937 708.548 965.45 721.877 981.829 718.369C981.829 718.369 1013.18 713.926 1014.59 677.212L1015.29 585.311H1022.78L1023.48 677.212C1024.88 713.692 1056.24 718.369 1056.24 718.369C1072.61 722.111 1065.13 708.548 1065.13 708.548C1053.9 700.363 1053.19 678.615 1053.19 678.615V588.584C1063.96 597.003 1062.09 617.348 1062.09 617.348V672.535C1062.09 709.951 1107.71 706.209 1107.71 706.209C1118.24 702.468 1108.41 695.686 1108.41 695.686C1092.04 689.606 1090.4 671.834 1090.4 671.834V599.341C1090.4 571.046 1078.46 556.08 1066.76 548.363C1134.62 541.581 1167.14 519.834 1182.12 485.692C1211.84 486.394 1265.42 490.135 1316.43 504.634L1317.13 502.529C1266.35 488.264 1213.24 484.523 1183.06 483.588C1184.46 480.08 1185.63 476.572 1186.8 472.831C1218.15 471.661 1268.93 471.661 1318.53 481.483Z" fill="#010101"/>
<path d="M1128.54 406.886C1143.04 420.215 1151.7 436.117 1151.7 453.187C1151.7 533.631 1091.8 535.735 1017.86 535.735C943.923 535.735 884.023 524.511 884.023 453.187C884.023 436.117 892.446 420.215 906.953 407.12C931.054 385.138 971.767 396.83 1017.86 396.83C1063.96 396.83 1104.44 384.904 1128.54 406.886Z" fill="#F5CCB3"/>
<path d="M973.405 457.397C973.405 479.612 961.004 497.385 945.561 497.385C930.118 497.385 917.717 479.378 917.717 457.397C917.717 435.182 930.118 417.409 945.561 417.409C961.004 417.175 973.405 435.182 973.405 457.397Z" fill="white"/>
<path d="M964.514 457.865C964.514 472.597 956.091 484.523 946.029 484.523C935.734 484.523 927.544 472.597 927.544 457.865C927.544 443.132 935.968 431.206 946.029 431.206C956.091 431.206 964.514 443.132 964.514 457.865Z" fill="#AF5C51"/>
<path d="M1122.92 457.397C1122.92 479.612 1110.52 497.385 1095.08 497.385C1079.63 497.385 1067.23 479.378 1067.23 457.397C1067.23 435.182 1079.63 417.409 1095.08 417.409C1110.29 417.175 1122.92 435.182 1122.92 457.397Z" fill="white"/>
<path d="M1113.8 457.865C1113.8 472.597 1105.37 484.523 1095.31 484.523C1085.02 484.523 1076.83 472.597 1076.83 457.865C1076.83 443.132 1085.25 431.206 1095.31 431.206C1105.61 431.206 1113.8 443.132 1113.8 457.865Z" fill="#AF5C51"/>
<path d="M1025.35 492.941C1025.35 496.683 1022.31 499.957 1018.33 499.957C1014.59 499.957 1011.31 496.917 1011.31 492.941C1011.31 488.966 1014.35 485.926 1018.33 485.926C1022.07 485.926 1025.35 488.966 1025.35 492.941Z" fill="#AF5C51"/>
<path d="M1002.18 510.48C1001.72 509.311 1002.42 508.142 1003.59 507.674C1004.76 507.206 1005.93 507.908 1006.4 509.077C1008.27 514.222 1012.95 517.495 1018.33 517.495C1023.71 517.495 1028.39 513.988 1030.26 509.077C1030.73 507.908 1031.9 507.206 1033.07 507.674C1034.24 508.142 1034.94 509.311 1034.47 510.48C1032.13 517.262 1025.58 521.938 1018.33 521.938C1011.08 521.938 1004.52 517.262 1002.18 510.48Z" fill="#AF5C51"/>
<path d="M847.521 542.283C847.521 544.154 845.415 545.557 842.608 545.557C840.034 545.557 837.694 544.154 837.694 542.283C837.694 540.412 839.8 539.009 842.608 539.009C845.415 539.009 847.521 540.412 847.521 542.283Z" fill="#C4E5D9"/>
<path d="M861.092 549.766C861.092 551.637 858.987 553.04 856.179 553.04C853.605 553.04 851.265 551.637 851.265 549.766C851.265 547.895 853.371 546.492 856.179 546.492C858.987 546.492 861.092 547.895 861.092 549.766Z" fill="#C4E5D9"/>
<path d="M869.282 559.588C869.282 561.458 867.176 562.862 864.368 562.862C861.794 562.862 859.455 561.458 859.455 559.588C859.455 557.717 861.56 556.314 864.368 556.314C867.176 556.08 869.282 557.717 869.282 559.588Z" fill="#C4E5D9"/>
<path d="M876.769 570.812C876.769 572.683 874.663 574.086 871.856 574.086C869.282 574.086 866.942 572.683 866.942 570.812C866.942 568.942 869.048 567.538 871.856 567.538C874.663 567.305 876.769 568.942 876.769 570.812Z" fill="#C4E5D9"/>
<path d="M884.959 581.101C884.959 582.972 882.853 584.375 880.045 584.375C877.471 584.375 875.131 582.972 875.131 581.101C875.131 579.23 877.237 577.827 880.045 577.827C882.853 577.827 884.959 579.23 884.959 581.101Z" fill="#C4E5D9"/>
<path d="M896.19 590.222C896.19 592.092 894.084 593.495 891.276 593.495C888.703 593.495 886.363 592.092 886.363 590.222C886.363 588.351 888.469 586.948 891.276 586.948C894.084 586.714 896.19 588.351 896.19 590.222Z" fill="#C4E5D9"/>
<path d="M911.867 596.068C911.867 597.938 909.761 599.341 906.953 599.341C904.379 599.341 902.04 597.938 902.04 596.068C902.04 594.197 904.145 592.794 906.953 592.794C909.761 592.794 911.867 594.197 911.867 596.068Z" fill="#C4E5D9"/>
<path d="M927.544 596.068C927.544 597.938 925.438 599.341 922.63 599.341C920.057 599.341 917.717 597.938 917.717 596.068C917.717 594.197 919.823 592.794 922.63 592.794C925.438 592.794 927.544 594.197 927.544 596.068Z" fill="#C4E5D9"/>
<path d="M943.455 593.495C943.455 595.366 941.349 596.769 938.541 596.769C935.967 596.769 933.627 595.366 933.627 593.495C933.627 591.624 935.733 590.221 938.541 590.221C941.115 590.221 943.455 591.624 943.455 593.495Z" fill="#C4E5D9"/>
<path d="M183.12 232.648C181.032 232.648 179.34 232 178.044 230.704C176.82 229.408 176.208 227.716 176.208 225.628V162.448C176.208 160.36 176.784 158.74 177.936 157.588C179.16 156.436 180.816 155.86 182.904 155.86H220.812C225.204 155.86 227.4 157.732 227.4 161.476C227.4 165.148 225.204 166.984 220.812 166.984H189.924V187.72H218.652C223.044 187.72 225.24 189.592 225.24 193.336C225.24 197.008 223.044 198.844 218.652 198.844H189.924V225.628C189.924 227.716 189.312 229.408 188.088 230.704C186.864 232 185.208 232.648 183.12 232.648ZM518.47 379.648C516.166 379.648 514.258 378.892 512.746 377.38C511.234 375.796 510.478 373.852 510.478 371.548C510.478 369.244 511.234 367.336 512.746 365.824C514.258 364.24 516.166 363.448 518.47 363.448C520.774 363.448 522.682 364.24 524.194 365.824C525.706 367.336 526.462 369.244 526.462 371.548C526.462 373.852 525.706 375.796 524.194 377.38C522.682 378.892 520.774 379.648 518.47 379.648Z" fill="#5F3AFF"/>
<path d="M242.888 232.648C240.944 232.648 239.324 232.108 238.028 231.028C236.804 229.876 236.192 228.256 236.192 226.168V184.48C236.192 182.392 236.804 180.808 238.028 179.728C239.324 178.648 240.944 178.108 242.888 178.108C244.832 178.108 246.452 178.648 247.748 179.728C249.044 180.808 249.692 182.392 249.692 184.48V226.168C249.692 228.256 249.044 229.876 247.748 231.028C246.452 232.108 244.832 232.648 242.888 232.648ZM242.888 168.496C240.44 168.496 238.496 167.848 237.056 166.552C235.616 165.184 234.896 163.42 234.896 161.26C234.896 159.1 235.616 157.372 237.056 156.076C238.496 154.78 240.44 154.132 242.888 154.132C245.264 154.132 247.172 154.78 248.612 156.076C250.124 157.372 250.88 159.1 250.88 161.26C250.88 163.42 250.16 165.184 248.72 166.552C247.28 167.848 245.336 168.496 242.888 168.496ZM294.286 177.892C300.622 177.892 305.338 179.692 308.434 183.292C311.53 186.892 313.078 192.328 313.078 199.6V226.168C313.078 228.184 312.466 229.768 311.242 230.92C310.09 232.072 308.47 232.648 306.382 232.648C304.294 232.648 302.638 232.072 301.414 230.92C300.19 229.768 299.578 228.184 299.578 226.168V200.356C299.578 196.252 298.786 193.264 297.202 191.392C295.69 189.52 293.278 188.584 289.966 188.584C286.078 188.584 282.946 189.808 280.57 192.256C278.266 194.704 277.114 197.98 277.114 202.084V226.168C277.114 228.184 276.502 229.768 275.278 230.92C274.054 232.072 272.398 232.648 270.31 232.648C268.222 232.648 266.566 232.072 265.342 230.92C264.19 229.768 263.614 228.184 263.614 226.168V184.372C263.614 182.5 264.226 180.988 265.45 179.836C266.674 178.684 268.33 178.108 270.418 178.108C272.29 178.108 273.802 178.684 274.954 179.836C276.178 180.916 276.79 182.356 276.79 184.156V187.072C278.59 184.12 281.002 181.852 284.026 180.268C287.05 178.684 290.47 177.892 294.286 177.892ZM370.854 155.32C372.87 155.32 374.526 155.896 375.822 157.048C377.118 158.2 377.766 159.712 377.766 161.584V226.168C377.766 228.112 377.154 229.66 375.93 230.812C374.706 231.964 373.086 232.54 371.07 232.54C369.054 232.54 367.434 231.964 366.21 230.812C364.986 229.66 364.374 228.112 364.374 226.168V223.468C362.79 226.42 360.486 228.724 357.462 230.38C354.51 232.036 351.126 232.864 347.31 232.864C342.774 232.864 338.706 231.712 335.106 229.408C331.578 227.104 328.806 223.864 326.79 219.688C324.846 215.44 323.874 210.58 323.874 205.108C323.874 199.636 324.846 194.848 326.79 190.744C328.806 186.64 331.578 183.472 335.106 181.24C338.634 179.008 342.702 177.892 347.31 177.892C351.126 177.892 354.51 178.684 357.462 180.268C360.414 181.852 362.682 184.084 364.266 186.964V161.368C364.266 159.568 364.842 158.128 365.994 157.048C367.218 155.896 368.838 155.32 370.854 155.32ZM350.874 222.388C355.194 222.388 358.506 220.912 360.81 217.96C363.186 215.008 364.374 210.796 364.374 205.324C364.374 199.852 363.186 195.676 360.81 192.796C358.506 189.844 355.23 188.368 350.982 188.368C346.662 188.368 343.314 189.808 340.938 192.688C338.562 195.568 337.374 199.708 337.374 205.108C337.374 210.58 338.562 214.828 340.938 217.852C343.314 220.876 346.626 222.388 350.874 222.388ZM483.721 177.892C489.481 177.892 493.873 179.62 496.897 183.076C499.993 186.46 501.541 191.968 501.541 199.6V226.168C501.541 228.256 500.893 229.876 499.597 231.028C498.373 232.108 496.753 232.648 494.737 232.648C492.793 232.648 491.173 232.108 489.877 231.028C488.653 229.876 488.041 228.256 488.041 226.168V199.6C488.041 195.64 487.321 192.832 485.881 191.176C484.513 189.448 482.389 188.584 479.509 188.584C475.981 188.584 473.173 189.808 471.085 192.256C468.997 194.632 467.953 197.908 467.953 202.084V226.168C467.953 228.256 467.305 229.876 466.009 231.028C464.785 232.108 463.201 232.648 461.257 232.648C459.313 232.648 457.693 232.108 456.397 231.028C455.101 229.876 454.453 228.256 454.453 226.168V199.6C454.453 195.64 453.733 192.832 452.293 191.176C450.925 189.448 448.801 188.584 445.921 188.584C442.393 188.584 439.585 189.808 437.497 192.256C435.481 194.632 434.473 197.908 434.473 202.084V226.168C434.473 228.256 433.825 229.876 432.529 231.028C431.233 232.108 429.613 232.648 427.669 232.648C425.725 232.648 424.105 232.108 422.809 231.028C421.585 229.876 420.973 228.256 420.973 226.168V184.372C420.973 182.356 421.621 180.808 422.917 179.728C424.213 178.648 425.833 178.108 427.777 178.108C429.649 178.108 431.161 178.648 432.313 179.728C433.537 180.736 434.149 182.212 434.149 184.156V186.748C435.805 183.868 438.001 181.672 440.737 180.16C443.545 178.648 446.749 177.892 450.349 177.892C458.269 177.892 463.561 181.204 466.225 187.828C467.809 184.804 470.149 182.392 473.245 180.592C476.341 178.792 479.833 177.892 483.721 177.892ZM557.058 217.528C558.282 217.528 559.254 217.996 559.974 218.932C560.766 219.868 561.162 221.128 561.162 222.712C561.162 224.944 559.83 226.816 557.166 228.328C554.718 229.696 551.946 230.812 548.85 231.676C545.754 232.468 542.802 232.864 539.994 232.864C531.498 232.864 524.766 230.416 519.798 225.52C514.83 220.624 512.346 213.928 512.346 205.432C512.346 200.032 513.426 195.244 515.586 191.068C517.746 186.892 520.77 183.652 524.658 181.348C528.618 179.044 533.082 177.892 538.05 177.892C542.802 177.892 546.942 178.936 550.47 181.024C553.998 183.112 556.734 186.064 558.678 189.88C560.622 193.696 561.594 198.196 561.594 203.38C561.594 206.476 560.226 208.024 557.49 208.024H525.63C526.062 212.992 527.466 216.664 529.842 219.04C532.218 221.344 535.674 222.496 540.21 222.496C542.514 222.496 544.53 222.208 546.258 221.632C548.058 221.056 550.074 220.264 552.306 219.256C554.466 218.104 556.05 217.528 557.058 217.528ZM538.374 187.396C534.702 187.396 531.75 188.548 529.518 190.852C527.358 193.156 526.062 196.468 525.63 200.788H550.038C549.894 196.396 548.814 193.084 546.798 190.852C544.782 188.548 541.974 187.396 538.374 187.396ZM626.042 232.864C620.642 232.864 615.89 231.748 611.786 229.516C607.754 227.284 604.622 224.08 602.39 219.904C600.158 215.728 599.042 210.868 599.042 205.324C599.042 199.78 600.158 194.956 602.39 190.852C604.622 186.676 607.754 183.472 611.786 181.24C615.89 179.008 620.642 177.892 626.042 177.892C631.442 177.892 636.158 179.008 640.19 181.24C644.294 183.472 647.426 186.676 649.586 190.852C651.818 194.956 652.934 199.78 652.934 205.324C652.934 210.868 651.818 215.728 649.586 219.904C647.426 224.08 644.294 227.284 640.19 229.516C636.158 231.748 631.442 232.864 626.042 232.864ZM625.934 222.388C630.326 222.388 633.674 220.948 635.978 218.068C638.282 215.188 639.434 210.94 639.434 205.324C639.434 199.78 638.282 195.568 635.978 192.688C633.674 189.736 630.362 188.26 626.042 188.26C621.722 188.26 618.374 189.736 615.998 192.688C613.694 195.568 612.542 199.78 612.542 205.324C612.542 210.94 613.694 215.188 615.998 218.068C618.302 220.948 621.614 222.388 625.934 222.388ZM694.751 177.892C701.087 177.892 705.803 179.692 708.899 183.292C711.995 186.892 713.543 192.328 713.543 199.6V226.168C713.543 228.184 712.931 229.768 711.707 230.92C710.555 232.072 708.935 232.648 706.847 232.648C704.759 232.648 703.103 232.072 701.879 230.92C700.655 229.768 700.043 228.184 700.043 226.168V200.356C700.043 196.252 699.251 193.264 697.667 191.392C696.155 189.52 693.743 188.584 690.431 188.584C686.543 188.584 683.411 189.808 681.035 192.256C678.731 194.704 677.579 197.98 677.579 202.084V226.168C677.579 228.184 676.967 229.768 675.743 230.92C674.519 232.072 672.863 232.648 670.775 232.648C668.687 232.648 667.031 232.072 665.807 230.92C664.655 229.768 664.079 228.184 664.079 226.168V184.372C664.079 182.5 664.691 180.988 665.915 179.836C667.139 178.684 668.795 178.108 670.883 178.108C672.755 178.108 674.267 178.684 675.419 179.836C676.643 180.916 677.255 182.356 677.255 184.156V187.072C679.055 184.12 681.467 181.852 684.491 180.268C687.515 178.684 690.935 177.892 694.751 177.892ZM234.204 337.852C235.86 337.852 237.192 338.356 238.2 339.364C239.208 340.3 239.712 341.56 239.712 343.144V366.364C239.712 369.676 239.28 372.016 238.416 373.384C237.552 374.752 235.788 375.868 233.124 376.732C230.244 377.74 226.896 378.532 223.08 379.108C219.264 379.684 215.592 379.972 212.064 379.972C204.216 379.972 197.412 378.424 191.652 375.328C185.892 372.232 181.464 367.768 178.368 361.936C175.344 356.032 173.832 349.012 173.832 340.876C173.832 332.884 175.344 325.972 178.368 320.14C181.464 314.236 185.82 309.736 191.436 306.64C197.052 303.472 203.676 301.888 211.308 301.888C221.46 301.888 229.776 304.624 236.256 310.096C237.12 310.888 237.732 311.68 238.092 312.472C238.524 313.264 238.74 314.2 238.74 315.28C238.74 316.864 238.308 318.196 237.444 319.276C236.58 320.356 235.536 320.896 234.312 320.896C233.52 320.896 232.8 320.788 232.152 320.572C231.504 320.284 230.748 319.852 229.884 319.276C226.716 317.044 223.764 315.496 221.028 314.632C218.292 313.696 215.196 313.228 211.74 313.228C203.892 313.228 197.952 315.568 193.92 320.248C189.96 324.856 187.98 331.732 187.98 340.876C187.98 359.596 196.188 368.956 212.604 368.956C217.5 368.956 222.396 368.272 227.292 366.904V347.788H215.088C213.36 347.788 211.992 347.356 210.984 346.492C210.048 345.628 209.58 344.404 209.58 342.82C209.58 341.236 210.048 340.012 210.984 339.148C211.992 338.284 213.36 337.852 215.088 337.852H234.204ZM260.923 379.648C258.979 379.648 257.359 379.108 256.063 378.028C254.839 376.876 254.227 375.256 254.227 373.168V331.48C254.227 329.392 254.839 327.808 256.063 326.728C257.359 325.648 258.979 325.108 260.923 325.108C262.867 325.108 264.487 325.648 265.783 326.728C267.079 327.808 267.727 329.392 267.727 331.48V373.168C267.727 375.256 267.079 376.876 265.783 378.028C264.487 379.108 262.867 379.648 260.923 379.648ZM260.923 315.496C258.475 315.496 256.531 314.848 255.091 313.552C253.651 312.184 252.931 310.42 252.931 308.26C252.931 306.1 253.651 304.372 255.091 303.076C256.531 301.78 258.475 301.132 260.923 301.132C263.299 301.132 265.207 301.78 266.647 303.076C268.159 304.372 268.915 306.1 268.915 308.26C268.915 310.42 268.195 312.184 266.755 313.552C265.315 314.848 263.371 315.496 260.923 315.496ZM309.081 369.604C312.681 369.82 314.481 371.44 314.481 374.464C314.481 376.192 313.761 377.524 312.321 378.46C310.953 379.324 308.973 379.684 306.381 379.54L303.465 379.324C291.369 378.46 285.321 371.98 285.321 359.884V336.34H279.921C277.977 336.34 276.465 335.908 275.385 335.044C274.377 334.18 273.873 332.92 273.873 331.264C273.873 329.608 274.377 328.348 275.385 327.484C276.465 326.62 277.977 326.188 279.921 326.188H285.321V316.252C285.321 314.308 285.933 312.76 287.157 311.608C288.381 310.456 290.037 309.88 292.125 309.88C294.141 309.88 295.761 310.456 296.985 311.608C298.209 312.76 298.821 314.308 298.821 316.252V326.188H308.001C309.945 326.188 311.421 326.62 312.429 327.484C313.509 328.348 314.049 329.608 314.049 331.264C314.049 332.92 313.509 334.18 312.429 335.044C311.421 335.908 309.945 336.34 308.001 336.34H298.821V360.856C298.821 366.184 301.269 369.028 306.165 369.388L309.081 369.604ZM352.404 324.892C364.788 324.892 370.98 332.128 370.98 346.6V373.168C370.98 375.184 370.368 376.768 369.144 377.92C367.992 379.072 366.372 379.648 364.284 379.648C362.196 379.648 360.54 379.072 359.316 377.92C358.092 376.768 357.48 375.184 357.48 373.168V346.6C357.48 342.784 356.688 340.012 355.104 338.284C353.592 336.484 351.18 335.584 347.868 335.584C343.98 335.584 340.848 336.808 338.472 339.256C336.168 341.704 335.016 344.98 335.016 349.084V373.168C335.016 375.184 334.404 376.768 333.18 377.92C331.956 379.072 330.3 379.648 328.212 379.648C326.124 379.648 324.468 379.072 323.244 377.92C322.092 376.768 321.516 375.184 321.516 373.168V308.584C321.516 306.712 322.128 305.2 323.352 304.048C324.648 302.896 326.304 302.32 328.32 302.32C330.336 302.32 331.956 302.86 333.18 303.94C334.404 305.02 335.016 306.496 335.016 308.368V333.532C336.816 330.724 339.192 328.6 342.144 327.16C345.168 325.648 348.588 324.892 352.404 324.892ZM426.38 325.108C428.468 325.108 430.124 325.684 431.348 326.836C432.572 327.988 433.184 329.536 433.184 331.48V373.384C433.184 375.256 432.536 376.768 431.24 377.92C430.016 379.072 428.396 379.648 426.38 379.648C424.436 379.648 422.888 379.108 421.736 378.028C420.584 376.948 420.008 375.472 420.008 373.6V370.9C418.352 373.78 416.12 376.012 413.312 377.596C410.504 379.108 407.336 379.864 403.808 379.864C390.848 379.864 384.368 372.592 384.368 358.048V331.48C384.368 329.536 384.98 327.988 386.204 326.836C387.428 325.684 389.048 325.108 391.064 325.108C393.152 325.108 394.808 325.684 396.032 326.836C397.256 327.988 397.868 329.536 397.868 331.48V358.156C397.868 361.9 398.624 364.672 400.136 366.472C401.648 368.272 404.024 369.172 407.264 369.172C411.008 369.172 413.996 367.948 416.228 365.5C418.532 362.98 419.684 359.668 419.684 355.564V331.48C419.684 329.536 420.296 327.988 421.52 326.836C422.744 325.684 424.364 325.108 426.38 325.108ZM477.583 324.892C482.191 324.892 486.259 326.008 489.787 328.24C493.315 330.472 496.051 333.64 497.995 337.744C500.011 341.848 501.019 346.636 501.019 352.108C501.019 357.58 500.011 362.44 497.995 366.688C496.051 370.864 493.279 374.104 489.679 376.408C486.151 378.712 482.119 379.864 477.583 379.864C473.767 379.864 470.347 379.036 467.323 377.38C464.371 375.724 462.103 373.42 460.519 370.468V373.168C460.519 375.112 459.907 376.66 458.683 377.812C457.459 378.964 455.839 379.54 453.823 379.54C451.807 379.54 450.187 378.964 448.963 377.812C447.811 376.66 447.235 375.112 447.235 373.168V308.584C447.235 306.712 447.847 305.2 449.071 304.048C450.367 302.896 452.023 302.32 454.039 302.32C456.055 302.32 457.675 302.86 458.899 303.94C460.123 305.02 460.735 306.496 460.735 308.368V333.856C462.319 330.976 464.587 328.78 467.539 327.268C470.491 325.684 473.839 324.892 477.583 324.892ZM474.019 369.388C478.267 369.388 481.579 367.876 483.955 364.852C486.331 361.828 487.519 357.58 487.519 352.108C487.519 346.708 486.331 342.568 483.955 339.688C481.651 336.808 478.339 335.368 474.019 335.368C469.699 335.368 466.351 336.844 463.975 339.796C461.671 342.676 460.519 346.852 460.519 352.324C460.519 357.796 461.671 362.008 463.975 364.96C466.351 367.912 469.699 369.388 474.019 369.388Z" fill="#383838"/>
<rect x="168" y="449" width="585" height="113" rx="56.5" fill="url(#paint0_linear)"/>
<path d="M260.641 481.949C263.721 481.949 266.335 482.362 268.484 483.189C270.654 483.995 272.638 485.142 274.436 486.63L269.445 492.644C268.267 491.673 266.965 490.908 265.539 490.35C264.113 489.771 262.563 489.482 260.889 489.482C259.091 489.482 257.448 489.999 255.96 491.032C254.472 492.045 253.284 493.657 252.395 495.868C251.507 498.059 251.062 500.911 251.062 504.424C251.062 509.591 251.992 513.352 253.852 515.708C255.733 518.043 258.141 519.211 261.075 519.211C263.225 519.211 265.012 518.808 266.438 518.002C267.864 517.196 269.177 516.318 270.375 515.367L274.994 521.257C273.382 522.848 271.398 524.212 269.042 525.349C266.686 526.486 263.845 527.054 260.517 527.054C256.632 527.054 253.181 526.196 250.163 524.481C247.167 522.745 244.811 520.203 243.095 516.855C241.401 513.486 240.553 509.343 240.553 504.424C240.553 499.629 241.432 495.558 243.188 492.21C244.966 488.862 247.373 486.32 250.411 484.584C253.449 482.827 256.859 481.949 260.641 481.949ZM289.757 479.035V496.333C292.506 493.44 295.73 491.993 299.429 491.993C302.364 491.993 304.606 492.851 306.156 494.566C307.706 496.281 308.481 498.699 308.481 501.82V526H298.685V504.548C298.685 502.564 298.458 501.179 298.003 500.394C297.569 499.609 296.742 499.216 295.523 499.216C294.49 499.216 293.498 499.578 292.547 500.301C291.617 501.004 290.687 501.975 289.757 503.215V526H279.961V479.996L289.757 479.035ZM325.631 512.391C325.962 515.078 326.84 517.01 328.266 518.188C329.692 519.345 331.449 519.924 333.536 519.924C335.045 519.924 336.502 519.676 337.907 519.18C339.312 518.684 340.666 518.023 341.968 517.196L345.905 522.528C344.355 523.851 342.474 524.936 340.263 525.783C338.072 526.63 335.572 527.054 332.761 527.054C329 527.054 325.848 526.31 323.306 524.822C320.764 523.313 318.852 521.247 317.571 518.622C316.29 515.997 315.649 512.98 315.649 509.57C315.649 506.325 316.269 503.38 317.509 500.735C318.749 498.069 320.557 495.951 322.934 494.38C325.331 492.789 328.256 491.993 331.707 491.993C334.848 491.993 337.566 492.665 339.86 494.008C342.175 495.351 343.962 497.284 345.223 499.805C346.504 502.326 347.145 505.354 347.145 508.888C347.145 509.446 347.124 510.045 347.083 510.686C347.062 511.327 347.021 511.895 346.959 512.391H325.631ZM331.707 498.565C329.95 498.565 328.535 499.195 327.46 500.456C326.385 501.717 325.734 503.732 325.507 506.501H337.597C337.576 504.104 337.111 502.182 336.202 500.735C335.293 499.288 333.794 498.565 331.707 498.565ZM371.766 519.335C373.109 519.335 374.37 519.077 375.548 518.56C376.746 518.023 377.935 517.341 379.113 516.514L383.484 522.714C382.037 523.954 380.27 524.987 378.183 525.814C376.116 526.641 373.801 527.054 371.239 527.054C367.705 527.054 364.667 526.331 362.125 524.884C359.583 523.417 357.63 521.391 356.266 518.808C354.902 516.204 354.22 513.187 354.22 509.756C354.22 506.325 354.912 503.277 356.297 500.611C357.702 497.924 359.686 495.816 362.249 494.287C364.832 492.758 367.891 491.993 371.425 491.993C373.925 491.993 376.147 492.344 378.09 493.047C380.053 493.729 381.851 494.752 383.484 496.116L379.237 502.006C378.121 501.221 376.943 500.611 375.703 500.177C374.463 499.743 373.171 499.526 371.828 499.526C369.616 499.526 367.829 500.311 366.465 501.882C365.121 503.432 364.45 506.057 364.45 509.756C364.45 512.174 364.77 514.086 365.411 515.491C366.051 516.876 366.919 517.868 368.015 518.467C369.131 519.046 370.381 519.335 371.766 519.335ZM401.284 478.973V526H391.488V479.996L401.284 478.973ZM422.736 493.078L411.917 507.648L423.635 526H412.475L401.656 507.958L412.475 493.078H422.736ZM480.038 475.842C481.733 475.842 483.117 476.369 484.192 477.423C485.267 478.477 485.804 479.789 485.804 481.36C485.804 482.931 485.267 484.253 484.192 485.328C483.117 486.382 481.733 486.909 480.038 486.909C478.323 486.909 476.917 486.382 475.822 485.328C474.747 484.253 474.21 482.931 474.21 481.36C474.21 479.789 474.747 478.477 475.822 477.423C476.917 476.369 478.323 475.842 480.038 475.842ZM485.959 493.078V519.304H494.329V526H466.832V519.304H476.163V499.774H467.142V493.078H485.959ZM532.652 524.078C531.37 524.905 529.82 525.607 528.002 526.186C526.183 526.765 524.137 527.054 521.864 527.054C517.565 527.054 514.372 525.959 512.285 523.768C510.197 521.557 509.154 518.56 509.154 514.778V499.836H502.241V493.078H509.154V485.948L518.95 484.77V493.078H529.552L528.591 499.836H518.95V514.778C518.95 516.411 519.322 517.578 520.066 518.281C520.81 518.984 521.998 519.335 523.631 519.335C524.788 519.335 525.842 519.201 526.793 518.932C527.764 518.643 528.632 518.281 529.397 517.847L532.652 524.078ZM591.627 491.993C595.017 491.993 597.9 492.716 600.276 494.163C602.653 495.61 604.472 497.645 605.732 500.27C606.993 502.874 607.623 505.933 607.623 509.446C607.623 514.943 606.218 519.252 603.407 522.373C600.597 525.494 596.67 527.054 591.627 527.054C586.585 527.054 582.658 525.514 579.847 522.435C577.037 519.356 575.631 515.047 575.631 509.508C575.631 506.015 576.262 502.957 577.522 500.332C578.804 497.707 580.633 495.661 583.009 494.194C585.407 492.727 588.279 491.993 591.627 491.993ZM591.627 499.216C589.623 499.216 588.135 500.043 587.163 501.696C586.213 503.329 585.737 505.933 585.737 509.508C585.737 513.145 586.213 515.78 587.163 517.413C588.135 519.046 589.623 519.862 591.627 519.862C593.632 519.862 595.11 519.046 596.06 517.413C597.032 515.78 597.517 513.125 597.517 509.446C597.517 505.891 597.032 503.298 596.06 501.665C595.11 500.032 593.632 499.216 591.627 499.216ZM624.339 493.078V515.615C624.339 517.206 624.628 518.302 625.207 518.901C625.806 519.5 626.633 519.8 627.687 519.8C628.7 519.8 629.712 519.48 630.725 518.839C631.738 518.198 632.585 517.33 633.267 516.235V493.078H643.063V526H634.507L634.073 522.156C632.957 523.768 631.49 524.987 629.671 525.814C627.852 526.641 625.951 527.054 623.967 527.054C620.784 527.054 618.418 526.134 616.868 524.295C615.318 522.435 614.543 519.945 614.543 516.824V493.078H624.339ZM681.355 524.078C680.074 524.905 678.524 525.607 676.705 526.186C674.886 526.765 672.84 527.054 670.567 527.054C666.268 527.054 663.075 525.959 660.988 523.768C658.901 521.557 657.857 518.56 657.857 514.778V499.836H650.944V493.078H657.857V485.948L667.653 484.77V493.078H678.255L677.294 499.836H667.653V514.778C667.653 516.411 668.025 517.578 668.769 518.281C669.513 518.984 670.701 519.335 672.334 519.335C673.491 519.335 674.545 519.201 675.496 518.932C676.467 518.643 677.335 518.281 678.1 517.847L681.355 524.078Z" fill="white"/>
<defs>
<linearGradient id="paint0_linear" x1="168" y1="505.5" x2="753" y2="505.5" gradientUnits="userSpaceOnUse">
<stop stop-color="#5F3AFF"/>
<stop offset="1" stop-color="#3000FF"/>
</linearGradient>
</defs>
</svg>
