<svg width="375" height="650" viewBox="0 0 375 650" fill="none" xmlns="http://www.w3.org/2000/svg">
<rect width="375" height="650" fill="#FEFEFE"/>
<path d="M268.697 545.318C268.697 560.648 233.164 573 189.354 573C145.544 573 110.011 560.537 110.011 545.318C110.011 529.988 145.544 517.636 189.354 517.636C233.164 517.636 268.697 529.988 268.697 545.318Z" fill="#9EDCF2"/>
<path d="M268.697 545.318C268.697 560.648 233.164 573 189.354 573C145.544 573 110.011 560.537 110.011 545.318C110.011 529.988 145.544 517.636 189.354 517.636C233.164 517.636 268.697 529.988 268.697 545.318Z" fill="#7DBCE7"/>
<path d="M98.7553 463.816L96.4379 471.757C96.4379 471.757 95.8861 474.624 98.5346 475.175C101.404 475.065 101.183 472.418 100.962 471.646L98.7553 463.816Z" fill="#9EDCF2"/>
<path d="M329.28 430.399L329.501 429.407C306.217 424.775 282.381 424.664 267.925 425.326C270.242 416.834 271.014 406.908 271.014 395.99C271.014 380.219 265.055 367.646 255.565 358.161C257.22 352.757 259.427 340.736 253.358 325.406C253.358 325.406 242.544 321.987 217.935 338.42C208.335 335.994 198.072 334.781 187.809 334.781C176.553 334.781 165.187 336.214 154.483 339.082C129.102 321.767 117.956 325.296 117.956 325.296C110.673 343.493 115.197 357.059 116.522 360.367C107.914 369.631 102.728 381.432 102.728 395.879C102.728 406.798 103.942 416.613 107.031 425.105C92.465 424.554 69.5118 424.775 47 429.296L47.2207 430.289C69.7325 425.767 92.9064 425.657 107.363 426.208C108.025 427.973 108.797 429.738 109.57 431.392C95.2238 431.833 70.836 433.708 47.4414 440.325L47.7725 441.318C71.3878 434.7 95.9963 432.936 110.232 432.495C118.839 448.376 135.613 458.743 165.628 461.941C161.325 464.809 157.021 469.661 155.255 477.933C149.407 480.69 131.088 487.528 120.053 468.558C120.053 468.558 113.873 457.309 102.066 456.427C102.066 456.427 90.589 456.206 101.293 463.596C101.293 463.596 108.907 467.235 114.204 480.8C114.204 480.8 121.157 503.96 154.372 496.461V520.173C154.372 520.173 153.71 528.665 145.875 531.422C145.875 531.422 141.241 534.62 146.206 536.385C146.206 536.385 167.725 538.149 167.725 520.504V494.476C167.725 494.476 166.842 484.109 171.918 480.58V523.371C171.918 523.371 171.587 533.628 166.29 537.488C166.29 537.488 162.759 543.774 170.484 542.12C170.484 542.12 185.271 540.024 185.933 522.709L186.264 479.367H189.795L190.126 522.709C190.789 539.914 205.576 542.12 205.576 542.12C213.3 543.884 209.769 537.488 209.769 537.488C204.472 533.628 204.141 523.371 204.141 523.371V480.911C209.217 484.881 208.335 494.476 208.335 494.476V520.504C208.335 538.149 229.853 536.385 229.853 536.385C234.819 534.62 230.184 531.422 230.184 531.422C222.46 528.554 221.687 520.173 221.687 520.173V485.984C221.687 472.639 216.059 465.581 210.542 461.941C242.544 458.743 257.883 448.486 264.945 432.384C278.96 432.715 304.23 434.48 328.287 441.318L328.618 440.325C304.672 433.598 279.622 431.833 265.386 431.392C266.049 429.738 266.6 428.083 267.152 426.319C281.939 425.767 305.886 425.767 329.28 430.399Z" fill="#010101"/>
<path d="M239.674 395.218C246.516 401.504 250.599 409.004 250.599 417.055C250.599 454.993 222.349 455.986 187.478 455.986C152.607 455.986 124.357 450.692 124.357 417.055C124.357 409.004 128.329 401.504 135.171 395.328C146.537 384.961 165.739 390.475 187.478 390.475C209.217 390.475 228.308 384.851 239.674 395.218Z" fill="#F5CCB3"/>
<path d="M166.511 419.04C166.511 429.517 160.662 437.899 153.379 437.899C146.096 437.899 140.247 429.407 140.247 419.04C140.247 408.563 146.096 400.181 153.379 400.181C160.662 400.07 166.511 408.563 166.511 419.04Z" fill="white"/>
<path d="M162.318 419.26C162.318 426.208 158.345 431.833 153.6 431.833C148.745 431.833 144.882 426.208 144.882 419.26C144.882 412.312 148.855 406.688 153.6 406.688C158.345 406.688 162.318 412.312 162.318 419.26Z" fill="#AF5C51"/>
<path d="M237.026 419.04C237.026 429.517 231.177 437.899 223.894 437.899C216.611 437.899 210.762 429.407 210.762 419.04C210.762 408.563 216.611 400.181 223.894 400.181C231.067 400.07 237.026 408.563 237.026 419.04Z" fill="white"/>
<path d="M232.722 419.26C232.722 426.208 228.75 431.833 224.004 431.833C219.149 431.833 215.287 426.208 215.287 419.26C215.287 412.312 219.259 406.688 224.004 406.688C228.86 406.688 232.722 412.312 232.722 419.26Z" fill="#AF5C51"/>
<path d="M191.009 435.803C191.009 437.568 189.575 439.112 187.699 439.112C185.933 439.112 184.388 437.678 184.388 435.803C184.388 433.928 185.823 432.495 187.699 432.495C189.464 432.495 191.009 433.928 191.009 435.803Z" fill="#AF5C51"/>
<path d="M180.084 444.075C179.864 443.523 180.195 442.972 180.746 442.751C181.298 442.531 181.85 442.862 182.071 443.413C182.953 445.839 185.16 447.383 187.699 447.383C190.237 447.383 192.444 445.729 193.327 443.413C193.547 442.862 194.099 442.531 194.651 442.751C195.202 442.972 195.534 443.523 195.313 444.075C194.209 447.273 191.119 449.479 187.699 449.479C184.278 449.479 181.188 447.273 180.084 444.075Z" fill="#AF5C51"/>
<path d="M107.142 459.074C107.142 459.956 106.148 460.618 104.824 460.618C103.61 460.618 102.507 459.956 102.507 459.074C102.507 458.192 103.5 457.53 104.824 457.53C106.148 457.53 107.142 458.192 107.142 459.074Z" fill="#C4E5D9"/>
<path d="M113.542 462.603C113.542 463.485 112.549 464.147 111.225 464.147C110.011 464.147 108.907 463.485 108.907 462.603C108.907 461.721 109.901 461.059 111.225 461.059C112.549 461.059 113.542 461.721 113.542 462.603Z" fill="#C4E5D9"/>
<path d="M117.405 467.235C117.405 468.118 116.411 468.779 115.087 468.779C113.873 468.779 112.77 468.118 112.77 467.235C112.77 466.353 113.763 465.691 115.087 465.691C116.411 465.581 117.405 466.353 117.405 467.235Z" fill="#C4E5D9"/>
<path d="M120.936 472.529C120.936 473.411 119.942 474.073 118.618 474.073C117.404 474.073 116.301 473.411 116.301 472.529C116.301 471.646 117.294 470.985 118.618 470.985C119.942 470.874 120.936 471.646 120.936 472.529Z" fill="#C4E5D9"/>
<path d="M124.798 477.381C124.798 478.264 123.805 478.925 122.48 478.925C121.267 478.925 120.163 478.264 120.163 477.381C120.163 476.499 121.156 475.837 122.48 475.837C123.805 475.837 124.798 476.499 124.798 477.381Z" fill="#C4E5D9"/>
<path d="M130.095 481.682C130.095 482.565 129.102 483.227 127.778 483.227C126.564 483.227 125.46 482.565 125.46 481.682C125.46 480.8 126.453 480.138 127.778 480.138C129.102 480.028 130.095 480.8 130.095 481.682Z" fill="#C4E5D9"/>
<path d="M137.489 484.44C137.489 485.322 136.495 485.984 135.171 485.984C133.957 485.984 132.854 485.322 132.854 484.44C132.854 483.558 133.847 482.896 135.171 482.896C136.495 482.896 137.489 483.558 137.489 484.44Z" fill="#C4E5D9"/>
<path d="M144.882 484.44C144.882 485.322 143.889 485.984 142.565 485.984C141.351 485.984 140.247 485.322 140.247 484.44C140.247 483.558 141.24 482.896 142.565 482.896C143.889 482.896 144.882 483.558 144.882 484.44Z" fill="#C4E5D9"/>
<path d="M152.386 483.227C152.386 484.109 151.393 484.771 150.069 484.771C148.855 484.771 147.751 484.109 147.751 483.227C147.751 482.344 148.744 481.683 150.069 481.683C151.282 481.683 152.386 482.344 152.386 483.227Z" fill="#C4E5D9"/>
<path d="M54.56 119.324C53.516 119.324 52.67 119 52.022 118.352C51.41 117.704 51.104 116.858 51.104 115.814V84.224C51.104 83.18 51.392 82.37 51.968 81.794C52.58 81.218 53.408 80.93 54.452 80.93H73.406C75.602 80.93 76.7 81.866 76.7 83.738C76.7 85.574 75.602 86.492 73.406 86.492H57.962V96.86H72.326C74.522 96.86 75.62 97.796 75.62 99.668C75.62 101.504 74.522 102.422 72.326 102.422H57.962V115.814C57.962 116.858 57.656 117.704 57.044 118.352C56.432 119 55.604 119.324 54.56 119.324ZM222.235 193.324C221.083 193.324 220.129 192.946 219.373 192.19C218.617 191.398 218.239 190.426 218.239 189.274C218.239 188.122 218.617 187.168 219.373 186.412C220.129 185.62 221.083 185.224 222.235 185.224C223.387 185.224 224.341 185.62 225.097 186.412C225.853 187.168 226.231 188.122 226.231 189.274C226.231 190.426 225.853 191.398 225.097 192.19C224.341 192.946 223.387 193.324 222.235 193.324Z" fill="#5F3AFF"/>
<path d="M84.4439 119.324C83.4719 119.324 82.6619 119.054 82.0139 118.514C81.4019 117.938 81.0959 117.128 81.0959 116.084V95.24C81.0959 94.196 81.4019 93.404 82.0139 92.864C82.6619 92.324 83.4719 92.054 84.4439 92.054C85.4159 92.054 86.2259 92.324 86.8739 92.864C87.5219 93.404 87.8459 94.196 87.8459 95.24V116.084C87.8459 117.128 87.5219 117.938 86.8739 118.514C86.2259 119.054 85.4159 119.324 84.4439 119.324ZM84.4439 87.248C83.2199 87.248 82.2479 86.924 81.5279 86.276C80.8079 85.592 80.4479 84.71 80.4479 83.63C80.4479 82.55 80.8079 81.686 81.5279 81.038C82.2479 80.39 83.2199 80.066 84.4439 80.066C85.6319 80.066 86.5859 80.39 87.3059 81.038C88.0619 81.686 88.4399 82.55 88.4399 83.63C88.4399 84.71 88.0799 85.592 87.3599 86.276C86.6399 86.924 85.6679 87.248 84.4439 87.248ZM110.143 91.946C113.311 91.946 115.669 92.846 117.217 94.646C118.765 96.446 119.539 99.164 119.539 102.8V116.084C119.539 117.092 119.233 117.884 118.621 118.46C118.045 119.036 117.235 119.324 116.191 119.324C115.147 119.324 114.319 119.036 113.707 118.46C113.095 117.884 112.789 117.092 112.789 116.084V103.178C112.789 101.126 112.393 99.632 111.601 98.696C110.845 97.76 109.639 97.292 107.983 97.292C106.039 97.292 104.473 97.904 103.285 99.128C102.133 100.352 101.557 101.99 101.557 104.042V116.084C101.557 117.092 101.251 117.884 100.639 118.46C100.027 119.036 99.1989 119.324 98.1549 119.324C97.1109 119.324 96.2829 119.036 95.6709 118.46C95.0949 117.884 94.8069 117.092 94.8069 116.084V95.186C94.8069 94.25 95.1129 93.494 95.7249 92.918C96.3369 92.342 97.1649 92.054 98.2089 92.054C99.1449 92.054 99.9009 92.342 100.477 92.918C101.089 93.458 101.395 94.178 101.395 95.078V96.536C102.295 95.06 103.501 93.926 105.013 93.134C106.525 92.342 108.235 91.946 110.143 91.946ZM148.427 80.66C149.435 80.66 150.263 80.948 150.911 81.524C151.559 82.1 151.883 82.856 151.883 83.792V116.084C151.883 117.056 151.577 117.83 150.965 118.406C150.353 118.982 149.543 119.27 148.535 119.27C147.527 119.27 146.717 118.982 146.105 118.406C145.493 117.83 145.187 117.056 145.187 116.084V114.734C144.395 116.21 143.243 117.362 141.731 118.19C140.255 119.018 138.563 119.432 136.655 119.432C134.387 119.432 132.353 118.856 130.553 117.704C128.789 116.552 127.403 114.932 126.395 112.844C125.423 110.72 124.937 108.29 124.937 105.554C124.937 102.818 125.423 100.424 126.395 98.372C127.403 96.32 128.789 94.736 130.553 93.62C132.317 92.504 134.351 91.946 136.655 91.946C138.563 91.946 140.255 92.342 141.731 93.134C143.207 93.926 144.341 95.042 145.133 96.482V83.684C145.133 82.784 145.421 82.064 145.997 81.524C146.609 80.948 147.419 80.66 148.427 80.66ZM138.437 114.194C140.597 114.194 142.253 113.456 143.405 111.98C144.593 110.504 145.187 108.398 145.187 105.662C145.187 102.926 144.593 100.838 143.405 99.398C142.253 97.922 140.615 97.184 138.491 97.184C136.331 97.184 134.657 97.904 133.469 99.344C132.281 100.784 131.687 102.854 131.687 105.554C131.687 108.29 132.281 110.414 133.469 111.926C134.657 113.438 136.313 114.194 138.437 114.194ZM204.861 91.946C207.741 91.946 209.937 92.81 211.449 94.538C212.997 96.23 213.771 98.984 213.771 102.8V116.084C213.771 117.128 213.447 117.938 212.799 118.514C212.187 119.054 211.377 119.324 210.369 119.324C209.397 119.324 208.587 119.054 207.939 118.514C207.327 117.938 207.021 117.128 207.021 116.084V102.8C207.021 100.82 206.661 99.416 205.941 98.588C205.257 97.724 204.195 97.292 202.755 97.292C200.991 97.292 199.587 97.904 198.543 99.128C197.499 100.316 196.977 101.954 196.977 104.042V116.084C196.977 117.128 196.653 117.938 196.005 118.514C195.393 119.054 194.601 119.324 193.629 119.324C192.657 119.324 191.847 119.054 191.199 118.514C190.551 117.938 190.227 117.128 190.227 116.084V102.8C190.227 100.82 189.867 99.416 189.147 98.588C188.463 97.724 187.401 97.292 185.961 97.292C184.197 97.292 182.793 97.904 181.749 99.128C180.741 100.316 180.237 101.954 180.237 104.042V116.084C180.237 117.128 179.913 117.938 179.265 118.514C178.617 119.054 177.807 119.324 176.835 119.324C175.863 119.324 175.053 119.054 174.405 118.514C173.793 117.938 173.487 117.128 173.487 116.084V95.186C173.487 94.178 173.811 93.404 174.459 92.864C175.107 92.324 175.917 92.054 176.889 92.054C177.825 92.054 178.581 92.324 179.157 92.864C179.769 93.368 180.075 94.106 180.075 95.078V96.374C180.903 94.934 182.001 93.836 183.369 93.08C184.773 92.324 186.375 91.946 188.175 91.946C192.135 91.946 194.781 93.602 196.113 96.914C196.905 95.402 198.075 94.196 199.623 93.296C201.171 92.396 202.917 91.946 204.861 91.946ZM241.529 111.764C242.141 111.764 242.627 111.998 242.987 112.466C243.383 112.934 243.581 113.564 243.581 114.356C243.581 115.472 242.915 116.408 241.583 117.164C240.359 117.848 238.973 118.406 237.425 118.838C235.877 119.234 234.401 119.432 232.997 119.432C228.749 119.432 225.383 118.208 222.899 115.76C220.415 113.312 219.173 109.964 219.173 105.716C219.173 103.016 219.713 100.622 220.793 98.534C221.873 96.446 223.385 94.826 225.329 93.674C227.309 92.522 229.541 91.946 232.025 91.946C234.401 91.946 236.471 92.468 238.235 93.512C239.999 94.556 241.367 96.032 242.339 97.94C243.311 99.848 243.797 102.098 243.797 104.69C243.797 106.238 243.113 107.012 241.745 107.012H225.815C226.031 109.496 226.733 111.332 227.921 112.52C229.109 113.672 230.837 114.248 233.105 114.248C234.257 114.248 235.265 114.104 236.129 113.816C237.029 113.528 238.037 113.132 239.153 112.628C240.233 112.052 241.025 111.764 241.529 111.764ZM232.187 96.698C230.351 96.698 228.875 97.274 227.759 98.426C226.679 99.578 226.031 101.234 225.815 103.394H238.019C237.947 101.198 237.407 99.542 236.399 98.426C235.391 97.274 233.987 96.698 232.187 96.698ZM276.021 119.432C273.321 119.432 270.945 118.874 268.893 117.758C266.877 116.642 265.311 115.04 264.195 112.952C263.079 110.864 262.521 108.434 262.521 105.662C262.521 102.89 263.079 100.478 264.195 98.426C265.311 96.338 266.877 94.736 268.893 93.62C270.945 92.504 273.321 91.946 276.021 91.946C278.721 91.946 281.079 92.504 283.095 93.62C285.147 94.736 286.713 96.338 287.793 98.426C288.909 100.478 289.467 102.89 289.467 105.662C289.467 108.434 288.909 110.864 287.793 112.952C286.713 115.04 285.147 116.642 283.095 117.758C281.079 118.874 278.721 119.432 276.021 119.432ZM275.967 114.194C278.163 114.194 279.837 113.474 280.989 112.034C282.141 110.594 282.717 108.47 282.717 105.662C282.717 102.89 282.141 100.784 280.989 99.344C279.837 97.868 278.181 97.13 276.021 97.13C273.861 97.13 272.187 97.868 270.999 99.344C269.847 100.784 269.271 102.89 269.271 105.662C269.271 108.47 269.847 110.594 270.999 112.034C272.151 113.474 273.807 114.194 275.967 114.194ZM310.375 91.946C313.543 91.946 315.901 92.846 317.449 94.646C318.997 96.446 319.771 99.164 319.771 102.8V116.084C319.771 117.092 319.465 117.884 318.853 118.46C318.277 119.036 317.467 119.324 316.423 119.324C315.379 119.324 314.551 119.036 313.939 118.46C313.327 117.884 313.021 117.092 313.021 116.084V103.178C313.021 101.126 312.625 99.632 311.833 98.696C311.077 97.76 309.871 97.292 308.215 97.292C306.271 97.292 304.705 97.904 303.517 99.128C302.365 100.352 301.789 101.99 301.789 104.042V116.084C301.789 117.092 301.483 117.884 300.871 118.46C300.259 119.036 299.431 119.324 298.387 119.324C297.343 119.324 296.515 119.036 295.903 118.46C295.327 117.884 295.039 117.092 295.039 116.084V95.186C295.039 94.25 295.345 93.494 295.957 92.918C296.569 92.342 297.397 92.054 298.441 92.054C299.377 92.054 300.133 92.342 300.709 92.918C301.321 93.458 301.627 94.178 301.627 95.078V96.536C302.527 95.06 303.733 93.926 305.245 93.134C306.757 92.342 308.467 91.946 310.375 91.946ZM80.102 172.426C80.93 172.426 81.596 172.678 82.1 173.182C82.604 173.65 82.856 174.28 82.856 175.072V186.682C82.856 188.338 82.64 189.508 82.208 190.192C81.776 190.876 80.894 191.434 79.562 191.866C78.122 192.37 76.448 192.766 74.54 193.054C72.632 193.342 70.796 193.486 69.032 193.486C65.108 193.486 61.706 192.712 58.826 191.164C55.946 189.616 53.732 187.384 52.184 184.468C50.672 181.516 49.916 178.006 49.916 173.938C49.916 169.942 50.672 166.486 52.184 163.57C53.732 160.618 55.91 158.368 58.718 156.82C61.526 155.236 64.838 154.444 68.654 154.444C73.73 154.444 77.888 155.812 81.128 158.548C81.56 158.944 81.866 159.34 82.046 159.736C82.262 160.132 82.37 160.6 82.37 161.14C82.37 161.932 82.154 162.598 81.722 163.138C81.29 163.678 80.768 163.948 80.156 163.948C79.76 163.948 79.4 163.894 79.076 163.786C78.752 163.642 78.374 163.426 77.942 163.138C76.358 162.022 74.882 161.248 73.514 160.816C72.146 160.348 70.598 160.114 68.87 160.114C64.946 160.114 61.976 161.284 59.96 163.624C57.98 165.928 56.99 169.366 56.99 173.938C56.99 183.298 61.094 187.978 69.302 187.978C71.75 187.978 74.198 187.636 76.646 186.952V177.394H70.544C69.68 177.394 68.996 177.178 68.492 176.746C68.024 176.314 67.79 175.702 67.79 174.91C67.79 174.118 68.024 173.506 68.492 173.074C68.996 172.642 69.68 172.426 70.544 172.426H80.102ZM93.4615 193.324C92.4895 193.324 91.6795 193.054 91.0315 192.514C90.4195 191.938 90.1135 191.128 90.1135 190.084V169.24C90.1135 168.196 90.4195 167.404 91.0315 166.864C91.6795 166.324 92.4895 166.054 93.4615 166.054C94.4335 166.054 95.2435 166.324 95.8915 166.864C96.5395 167.404 96.8635 168.196 96.8635 169.24V190.084C96.8635 191.128 96.5395 191.938 95.8915 192.514C95.2435 193.054 94.4335 193.324 93.4615 193.324ZM93.4615 161.248C92.2375 161.248 91.2655 160.924 90.5455 160.276C89.8255 159.592 89.4655 158.71 89.4655 157.63C89.4655 156.55 89.8255 155.686 90.5455 155.038C91.2655 154.39 92.2375 154.066 93.4615 154.066C94.6495 154.066 95.6035 154.39 96.3235 155.038C97.0795 155.686 97.4575 156.55 97.4575 157.63C97.4575 158.71 97.0975 159.592 96.3775 160.276C95.6575 160.924 94.6855 161.248 93.4615 161.248ZM117.54 188.302C119.34 188.41 120.24 189.22 120.24 190.732C120.24 191.596 119.88 192.262 119.16 192.73C118.476 193.162 117.486 193.342 116.19 193.27L114.732 193.162C108.684 192.73 105.66 189.49 105.66 183.442V171.67H102.96C101.988 171.67 101.232 171.454 100.692 171.022C100.188 170.59 99.9365 169.96 99.9365 169.132C99.9365 168.304 100.188 167.674 100.692 167.242C101.232 166.81 101.988 166.594 102.96 166.594H105.66V161.626C105.66 160.654 105.966 159.88 106.578 159.304C107.19 158.728 108.018 158.44 109.062 158.44C110.07 158.44 110.88 158.728 111.492 159.304C112.104 159.88 112.41 160.654 112.41 161.626V166.594H117C117.972 166.594 118.71 166.81 119.214 167.242C119.754 167.674 120.024 168.304 120.024 169.132C120.024 169.96 119.754 170.59 119.214 171.022C118.71 171.454 117.972 171.67 117 171.67H112.41V183.928C112.41 186.592 113.634 188.014 116.082 188.194L117.54 188.302ZM139.202 165.946C145.394 165.946 148.49 169.564 148.49 176.8V190.084C148.49 191.092 148.184 191.884 147.572 192.46C146.996 193.036 146.186 193.324 145.142 193.324C144.098 193.324 143.27 193.036 142.658 192.46C142.046 191.884 141.74 191.092 141.74 190.084V176.8C141.74 174.892 141.344 173.506 140.552 172.642C139.796 171.742 138.59 171.292 136.934 171.292C134.99 171.292 133.424 171.904 132.236 173.128C131.084 174.352 130.508 175.99 130.508 178.042V190.084C130.508 191.092 130.202 191.884 129.59 192.46C128.978 193.036 128.15 193.324 127.106 193.324C126.062 193.324 125.234 193.036 124.622 192.46C124.046 191.884 123.758 191.092 123.758 190.084V157.792C123.758 156.856 124.064 156.1 124.676 155.524C125.324 154.948 126.152 154.66 127.16 154.66C128.168 154.66 128.978 154.93 129.59 155.47C130.202 156.01 130.508 156.748 130.508 157.684V170.266C131.408 168.862 132.596 167.8 134.072 167.08C135.584 166.324 137.294 165.946 139.202 165.946ZM176.19 166.054C177.234 166.054 178.062 166.342 178.674 166.918C179.286 167.494 179.592 168.268 179.592 169.24V190.192C179.592 191.128 179.268 191.884 178.62 192.46C178.008 193.036 177.198 193.324 176.19 193.324C175.218 193.324 174.444 193.054 173.868 192.514C173.292 191.974 173.004 191.236 173.004 190.3V188.95C172.176 190.39 171.06 191.506 169.656 192.298C168.252 193.054 166.668 193.432 164.904 193.432C158.424 193.432 155.184 189.796 155.184 182.524V169.24C155.184 168.268 155.49 167.494 156.102 166.918C156.714 166.342 157.524 166.054 158.532 166.054C159.576 166.054 160.404 166.342 161.016 166.918C161.628 167.494 161.934 168.268 161.934 169.24V182.578C161.934 184.45 162.312 185.836 163.068 186.736C163.824 187.636 165.012 188.086 166.632 188.086C168.504 188.086 169.998 187.474 171.114 186.25C172.266 184.99 172.842 183.334 172.842 181.282V169.24C172.842 168.268 173.148 167.494 173.76 166.918C174.372 166.342 175.182 166.054 176.19 166.054ZM201.791 165.946C204.095 165.946 206.129 166.504 207.893 167.62C209.657 168.736 211.025 170.32 211.997 172.372C213.005 174.424 213.509 176.818 213.509 179.554C213.509 182.29 213.005 184.72 211.997 186.844C211.025 188.932 209.639 190.552 207.839 191.704C206.075 192.856 204.059 193.432 201.791 193.432C199.883 193.432 198.173 193.018 196.661 192.19C195.185 191.362 194.051 190.21 193.259 188.734V190.084C193.259 191.056 192.953 191.83 192.341 192.406C191.729 192.982 190.919 193.27 189.911 193.27C188.903 193.27 188.093 192.982 187.481 192.406C186.905 191.83 186.617 191.056 186.617 190.084V157.792C186.617 156.856 186.923 156.1 187.535 155.524C188.183 154.948 189.011 154.66 190.019 154.66C191.027 154.66 191.837 154.93 192.449 155.47C193.061 156.01 193.367 156.748 193.367 157.684V170.428C194.159 168.988 195.293 167.89 196.769 167.134C198.245 166.342 199.919 165.946 201.791 165.946ZM200.009 188.194C202.133 188.194 203.789 187.438 204.977 185.926C206.165 184.414 206.759 182.29 206.759 179.554C206.759 176.854 206.165 174.784 204.977 173.344C203.825 171.904 202.169 171.184 200.009 171.184C197.849 171.184 196.175 171.922 194.987 173.398C193.835 174.838 193.259 176.926 193.259 179.662C193.259 182.398 193.835 184.504 194.987 185.98C196.175 187.456 197.849 188.194 200.009 188.194Z" fill="#383838"/>
<rect x="44" y="225" width="287" height="55" rx="27.5" fill="url(#paint0_linear)"/>
<path d="M87.5707 240.974C89.1103 240.974 90.4175 241.181 91.4922 241.594C92.5772 241.997 93.5692 242.571 94.4682 243.315L91.9727 246.322C91.3837 245.836 90.7327 245.454 90.0197 245.175C89.3067 244.886 88.5317 244.741 87.6947 244.741C86.7957 244.741 85.9742 244.999 85.2302 245.516C84.4862 246.022 83.892 246.828 83.4477 247.934C83.0033 249.029 82.7812 250.455 82.7812 252.212C82.7812 254.795 83.2462 256.676 84.1762 257.854C85.1165 259.022 86.3203 259.605 87.7877 259.605C88.8623 259.605 89.7562 259.404 90.4692 259.001C91.1822 258.598 91.8383 258.159 92.4377 257.683L94.7472 260.628C93.9412 261.424 92.9492 262.106 91.7712 262.674C90.5932 263.243 89.1723 263.527 87.5087 263.527C85.566 263.527 83.8403 263.098 82.3317 262.24C80.8333 261.372 79.6553 260.101 78.7977 258.427C77.9503 256.743 77.5267 254.671 77.5267 252.212C77.5267 249.815 77.9658 247.779 78.8442 246.105C79.7328 244.431 80.9367 243.16 82.4557 242.292C83.9747 241.414 85.6797 240.974 87.5707 240.974ZM102.129 239.517V248.166C103.503 246.72 105.115 245.996 106.965 245.996C108.432 245.996 109.553 246.425 110.328 247.283C111.103 248.141 111.491 249.35 111.491 250.91V263H106.593V252.274C106.593 251.282 106.479 250.59 106.252 250.197C106.035 249.804 105.621 249.608 105.012 249.608C104.495 249.608 103.999 249.789 103.524 250.15C103.059 250.502 102.594 250.987 102.129 251.607V263H97.2305V239.998L102.129 239.517ZM120.065 256.195C120.231 257.539 120.67 258.505 121.383 259.094C122.096 259.673 122.974 259.962 124.018 259.962C124.772 259.962 125.501 259.838 126.203 259.59C126.906 259.342 127.583 259.011 128.234 258.598L130.202 261.264C129.427 261.925 128.487 262.468 127.381 262.891C126.286 263.315 125.036 263.527 123.63 263.527C121.75 263.527 120.174 263.155 118.903 262.411C117.632 261.657 116.676 260.623 116.035 259.311C115.395 257.999 115.074 256.49 115.074 254.785C115.074 253.163 115.384 251.69 116.004 250.367C116.624 249.034 117.529 247.975 118.717 247.19C119.916 246.394 121.378 245.996 123.103 245.996C124.674 245.996 126.033 246.332 127.18 247.004C128.337 247.676 129.231 248.642 129.861 249.902C130.502 251.163 130.822 252.677 130.822 254.444C130.822 254.723 130.812 255.023 130.791 255.343C130.781 255.663 130.76 255.947 130.729 256.195H120.065ZM123.103 249.282C122.225 249.282 121.517 249.598 120.98 250.228C120.443 250.858 120.117 251.866 120.003 253.25H126.048C126.038 252.052 125.806 251.091 125.351 250.367C124.896 249.644 124.147 249.282 123.103 249.282ZM143.133 259.667C143.804 259.667 144.435 259.538 145.024 259.28C145.623 259.011 146.217 258.67 146.806 258.257L148.992 261.357C148.268 261.977 147.385 262.494 146.341 262.907C145.308 263.32 144.151 263.527 142.869 263.527C141.102 263.527 139.583 263.165 138.312 262.442C137.041 261.708 136.065 260.696 135.383 259.404C134.701 258.102 134.36 256.593 134.36 254.878C134.36 253.163 134.706 251.638 135.398 250.305C136.101 248.962 137.093 247.908 138.374 247.143C139.666 246.379 141.195 245.996 142.962 245.996C144.213 245.996 145.323 246.172 146.295 246.523C147.276 246.864 148.175 247.376 148.992 248.058L146.868 251.003C146.31 250.61 145.721 250.305 145.101 250.088C144.481 249.871 143.835 249.763 143.164 249.763C142.058 249.763 141.164 250.156 140.482 250.941C139.811 251.716 139.475 253.028 139.475 254.878C139.475 256.087 139.635 257.043 139.955 257.745C140.276 258.438 140.71 258.934 141.257 259.233C141.815 259.523 142.44 259.667 143.133 259.667ZM157.892 239.486V263H152.994V239.998L157.892 239.486ZM168.618 246.539L163.209 253.824L169.068 263H163.488L158.078 253.979L163.488 246.539H168.618ZM197.269 237.921C198.116 237.921 198.809 238.184 199.346 238.711C199.883 239.238 200.152 239.895 200.152 240.68C200.152 241.465 199.883 242.127 199.346 242.664C198.809 243.191 198.116 243.454 197.269 243.454C196.411 243.454 195.709 243.191 195.161 242.664C194.624 242.127 194.355 241.465 194.355 240.68C194.355 239.895 194.624 239.238 195.161 238.711C195.709 238.184 196.411 237.921 197.269 237.921ZM200.23 246.539V259.652H204.415V263H190.666V259.652H195.332V249.887H190.821V246.539H200.23ZM223.576 262.039C222.935 262.452 222.16 262.804 221.251 263.093C220.342 263.382 219.319 263.527 218.182 263.527C216.033 263.527 214.436 262.979 213.392 261.884C212.349 260.778 211.827 259.28 211.827 257.389V249.918H208.37V246.539H211.827V242.974L216.725 242.385V246.539H222.026L221.545 249.918H216.725V257.389C216.725 258.205 216.911 258.789 217.283 259.14C217.655 259.492 218.249 259.667 219.065 259.667C219.644 259.667 220.171 259.6 220.646 259.466C221.132 259.321 221.566 259.14 221.948 258.923L223.576 262.039ZM253.064 245.996C254.758 245.996 256.2 246.358 257.388 247.081C258.577 247.805 259.486 248.823 260.116 250.135C260.747 251.437 261.062 252.966 261.062 254.723C261.062 257.472 260.359 259.626 258.954 261.186C257.548 262.747 255.585 263.527 253.064 263.527C250.542 263.527 248.579 262.757 247.174 261.217C245.768 259.678 245.066 257.523 245.066 254.754C245.066 253.008 245.381 251.478 246.011 250.166C246.652 248.854 247.566 247.831 248.755 247.097C249.953 246.363 251.39 245.996 253.064 245.996ZM253.064 249.608C252.061 249.608 251.317 250.021 250.832 250.848C250.356 251.664 250.119 252.966 250.119 254.754C250.119 256.573 250.356 257.89 250.832 258.706C251.317 259.523 252.061 259.931 253.064 259.931C254.066 259.931 254.805 259.523 255.28 258.706C255.766 257.89 256.009 256.562 256.009 254.723C256.009 252.946 255.766 251.649 255.28 250.832C254.805 250.016 254.066 249.608 253.064 249.608ZM269.42 246.539V257.807C269.42 258.603 269.564 259.151 269.854 259.45C270.153 259.75 270.567 259.9 271.094 259.9C271.6 259.9 272.106 259.74 272.613 259.419C273.119 259.099 273.543 258.665 273.884 258.117V246.539H278.782V263H274.504L274.287 261.078C273.729 261.884 272.995 262.494 272.086 262.907C271.176 263.32 270.226 263.527 269.234 263.527C267.642 263.527 266.459 263.067 265.684 262.147C264.909 261.217 264.522 259.972 264.522 258.412V246.539H269.42ZM297.927 262.039C297.287 262.452 296.512 262.804 295.602 263.093C294.693 263.382 293.67 263.527 292.533 263.527C290.384 263.527 288.788 262.979 287.744 261.884C286.7 260.778 286.178 259.28 286.178 257.389V249.918H282.722V246.539H286.178V242.974L291.076 242.385V246.539H296.377L295.897 249.918H291.076V257.389C291.076 258.205 291.262 258.789 291.634 259.14C292.006 259.492 292.601 259.667 293.417 259.667C293.996 259.667 294.523 259.6 294.998 259.466C295.484 259.321 295.918 259.14 296.3 258.923L297.927 262.039Z" fill="white"/>
<defs>
<linearGradient id="paint0_linear" x1="44" y1="252.5" x2="331" y2="252.5" gradientUnits="userSpaceOnUse">
<stop stop-color="#5F3AFF"/>
<stop offset="1" stop-color="#3000FF"/>
</linearGradient>
</defs>
</svg>
