<svg width="345" height="223" viewBox="0 0 345 223" fill="none" xmlns="http://www.w3.org/2000/svg">
<g clip-path="url(#clip0)">
<rect width="345" height="223" fill="url(#paint0_linear)"/>
<path d="M146.146 208L138 203.147L228.854 41L237 45.8534L146.146 208Z" fill="white"/>
<path d="M136 190H320V199H136V190Z" fill="white"/>
<path d="M231.206 250L138 196.3L142.83 187.964L236.036 241.664L231.206 250ZM312.178 110.029L218.964 56.3361L223.794 48L317 101.7L312.178 110.029Z" fill="white"/>
<path d="M142.824 110L138 101.671L231.176 48L236 56.3293L142.824 110Z" fill="white"/>
<path d="M308.746 208L216.676 45.853L224.93 41L317 203.147L308.746 208ZM142 93.9248H151.545V202.064H142V93.9248ZM302.038 93.9248H311.582V202.064H302.038V93.9248Z" fill="white"/>
<path d="M231.151 246L227 238.439L306.849 190L311 197.561L231.151 246Z" fill="white"/>
<path d="M326.246 204.499C323.557 209.122 319.138 212.496 313.956 213.881C308.774 215.266 303.252 214.55 298.6 211.889C293.957 209.212 290.568 204.812 289.177 199.653C287.786 194.493 288.505 188.995 291.177 184.362C293.866 179.739 298.285 176.365 303.467 174.98C308.649 173.595 314.171 174.311 318.823 176.972C328.561 182.569 331.867 194.864 326.238 204.499H326.246ZM164.765 111.642C162.077 116.265 157.657 119.638 152.476 121.024C147.294 122.409 141.772 121.693 137.119 119.032C132.474 116.355 129.084 111.953 127.693 106.792C126.302 101.631 127.022 96.1304 129.697 91.4972C132.386 86.874 136.805 83.5004 141.987 82.1152C147.169 80.73 152.691 81.4461 157.343 84.1068C161.986 86.7839 165.374 91.1841 166.766 96.3437C168.157 101.503 167.438 107.002 164.765 111.634V111.642ZM129.758 204.499C127.085 199.866 126.366 194.368 127.757 189.209C129.149 184.049 132.537 179.649 137.18 176.972C141.832 174.311 147.354 173.595 152.536 174.98C157.718 176.365 162.137 179.739 164.826 184.362C167.498 188.995 168.217 194.493 166.826 199.653C165.435 204.812 162.047 209.212 157.404 211.889C147.666 217.426 135.311 214.149 129.758 204.507V204.499ZM291.238 111.649C288.566 107.017 287.846 101.518 289.238 96.3588C290.629 91.1992 294.017 86.799 298.66 84.1219C303.313 81.4612 308.835 80.745 314.017 82.1302C319.198 83.5154 323.618 86.8891 326.306 91.5122C328.978 96.1448 329.698 101.643 328.306 106.803C326.915 111.962 323.527 116.362 318.884 119.04C314.231 121.7 308.709 122.416 303.528 121.031C298.346 119.646 293.927 116.272 291.238 111.649V111.649ZM228.002 261C224 261 220.088 259.818 216.761 257.605C213.434 255.391 210.841 252.244 209.31 248.563C207.779 244.881 207.378 240.831 208.16 236.923C208.941 233.015 210.868 229.426 213.699 226.609C216.529 223.792 220.134 221.874 224.059 221.097C227.984 220.321 232.052 220.721 235.749 222.247C239.446 223.772 242.605 226.356 244.827 229.669C247.049 232.983 248.235 236.879 248.233 240.863C248.219 246.201 246.083 251.316 242.291 255.089C238.5 258.863 233.362 260.988 228.002 261V261ZM228.002 75.2852C225.344 75.2891 222.711 74.7708 220.255 73.7598C217.798 72.7489 215.566 71.2652 213.687 69.3938C211.808 67.5225 210.317 65.3002 209.302 62.8543C208.287 60.4085 207.766 57.7872 207.77 55.1407C207.77 49.7991 209.901 44.6762 213.695 40.8991C217.488 37.122 222.633 35 227.998 35C233.363 35 238.508 37.122 242.301 40.8991C246.094 44.6762 248.225 49.7991 248.225 55.1407C248.228 57.786 247.707 60.4058 246.692 62.8503C245.677 65.2948 244.187 67.5158 242.309 69.3863C240.43 71.2568 238.2 72.7399 235.744 73.7509C233.289 74.7618 230.658 75.2806 228.002 75.2776" fill="white"/>
</g>
<defs>
<linearGradient id="paint0_linear" x1="345" y1="223" x2="5.64154e-06" y2="-8.72794e-06" gradientUnits="userSpaceOnUse">
<stop stop-color="#EF3AFF"/>
<stop offset="1" stop-color="#5A0C3B"/>
</linearGradient>
<clipPath id="clip0">
<rect width="345" height="223" fill="white"/>
</clipPath>
</defs>
</svg>
