<svg width="63" height="63" viewBox="0 0 63 63" fill="none" xmlns="http://www.w3.org/2000/svg">
<path d="M49.875 0H13.125C5.87738 0 0 5.87738 0 13.125V49.875C0 57.1226 5.87738 63 13.125 63H49.875C57.1253 63 63 57.1226 63 49.875V13.125C63 5.87738 57.1253 0 49.875 0ZM21 49.875H13.125V21H21V49.875ZM17.0625 17.6715C14.5267 17.6715 12.4688 15.5977 12.4688 13.041C12.4688 10.4842 14.5267 8.4105 17.0625 8.4105C19.5983 8.4105 21.6562 10.4842 21.6562 13.041C21.6562 15.5977 19.6009 17.6715 17.0625 17.6715ZM52.5 49.875H44.625V35.1645C44.625 26.3235 34.125 26.9929 34.125 35.1645V49.875H26.25V21H34.125V25.6331C37.7895 18.8449 52.5 18.3435 52.5 32.1326V49.875Z" fill="white"/>
</svg>
