<svg width="159" height="141" viewBox="0 0 159 141" fill="none" xmlns="http://www.w3.org/2000/svg">
<rect y="8" width="95" height="90" rx="10" fill="#373737"/>
<rect x="63" y="49" width="96" height="92" rx="10" fill="#5F3AFF"/>
<path d="M29.56 59.522C26.5827 59.522 23.76 59.1353 21.092 58.362C18.4627 57.55 16.3167 56.4673 14.654 55.114C13.7647 54.4567 13.32 53.5287 13.32 52.33C13.32 51.518 13.552 50.822 14.016 50.242C14.5187 49.6233 15.0987 49.314 15.756 49.314C16.452 49.314 17.2447 49.5847 18.134 50.126C19.7967 51.3247 21.5367 52.1947 23.354 52.736C25.1713 53.2773 27.182 53.548 29.386 53.548C32.2087 53.548 34.374 53.0647 35.882 52.098C37.39 51.0927 38.144 49.6427 38.144 47.748C38.144 46.2787 37.4287 45.1573 35.998 44.384C34.606 43.572 32.2667 42.7987 28.98 42.064C25.5773 41.3293 22.8127 40.4787 20.686 39.512C18.5593 38.5453 16.9547 37.308 15.872 35.8C14.7893 34.292 14.248 32.378 14.248 30.058C14.248 27.6607 14.9247 25.5147 16.278 23.62C17.6313 21.7253 19.5067 20.256 21.904 19.212C24.34 18.1293 27.066 17.588 30.082 17.588C35.6113 17.588 40.116 19.0573 43.596 21.996C44.0987 22.4213 44.4467 22.8467 44.64 23.272C44.872 23.6587 44.988 24.1613 44.988 24.78C44.988 25.592 44.7367 26.3073 44.234 26.926C43.77 27.506 43.2093 27.796 42.552 27.796C42.1653 27.796 41.798 27.738 41.45 27.622C41.1407 27.506 40.7153 27.2933 40.174 26.984C38.5887 25.824 37.042 24.9733 35.534 24.432C34.0647 23.852 32.2473 23.562 30.082 23.562C27.4527 23.562 25.3647 24.1033 23.818 25.186C22.31 26.23 21.556 27.6993 21.556 29.594C21.556 31.1793 22.2327 32.3973 23.586 33.248C24.9393 34.0987 27.24 34.8913 30.488 35.626C33.9293 36.3993 36.7133 37.2693 38.84 38.236C41.0053 39.164 42.6487 40.3627 43.77 41.832C44.93 43.3013 45.51 45.138 45.51 47.342C45.51 49.7393 44.8333 51.866 43.48 53.722C42.1653 55.5393 40.29 56.97 37.854 58.014C35.4567 59.0193 32.692 59.522 29.56 59.522Z" fill="#FAFAFA"/>
<path d="M129.56 127.522C126.583 127.522 123.76 127.135 121.092 126.362C118.463 125.55 116.317 124.467 114.654 123.114C113.765 122.457 113.32 121.529 113.32 120.33C113.32 119.518 113.552 118.822 114.016 118.242C114.519 117.623 115.099 117.314 115.756 117.314C116.452 117.314 117.245 117.585 118.134 118.126C119.797 119.325 121.537 120.195 123.354 120.736C125.171 121.277 127.182 121.548 129.386 121.548C132.209 121.548 134.374 121.065 135.882 120.098C137.39 119.093 138.144 117.643 138.144 115.748C138.144 114.279 137.429 113.157 135.998 112.384C134.606 111.572 132.267 110.799 128.98 110.064C125.577 109.329 122.813 108.479 120.686 107.512C118.559 106.545 116.955 105.308 115.872 103.8C114.789 102.292 114.248 100.378 114.248 98.058C114.248 95.6607 114.925 93.5147 116.278 91.62C117.631 89.7253 119.507 88.256 121.904 87.212C124.34 86.1293 127.066 85.588 130.082 85.588C135.611 85.588 140.116 87.0573 143.596 89.996C144.099 90.4213 144.447 90.8467 144.64 91.272C144.872 91.6587 144.988 92.1613 144.988 92.78C144.988 93.592 144.737 94.3073 144.234 94.926C143.77 95.506 143.209 95.796 142.552 95.796C142.165 95.796 141.798 95.738 141.45 95.622C141.141 95.506 140.715 95.2933 140.174 94.984C138.589 93.824 137.042 92.9733 135.534 92.432C134.065 91.852 132.247 91.562 130.082 91.562C127.453 91.562 125.365 92.1033 123.818 93.186C122.31 94.23 121.556 95.6993 121.556 97.594C121.556 99.1793 122.233 100.397 123.586 101.248C124.939 102.099 127.24 102.891 130.488 103.626C133.929 104.399 136.713 105.269 138.84 106.236C141.005 107.164 142.649 108.363 143.77 109.832C144.93 111.301 145.51 113.138 145.51 115.342C145.51 117.739 144.833 119.866 143.48 121.722C142.165 123.539 140.29 124.97 137.854 126.014C135.457 127.019 132.692 127.522 129.56 127.522Z" fill="#FAFAFA"/>
</svg>
