<svg width="512" height="512" viewBox="0 0 512 512" fill="none" xmlns="http://www.w3.org/2000/svg">
<circle cx="256" cy="256" r="256" fill="#FBF3FF"/>
<path fill-rule="evenodd" clip-rule="evenodd" d="M107.368 113C95.567 113 86 122.551 86 134.333V283.667C86 295.449 95.567 305 107.368 305H267.632C279.433 305 289 295.449 289 283.667V134.333C289 122.551 279.433 113 267.632 113H107.368ZM131.07 220.439C136.771 222.089 142.803 222.914 149.165 222.914C155.858 222.914 161.765 221.841 166.888 219.697C172.093 217.469 176.101 214.417 178.91 210.54C181.802 206.581 183.248 202.044 183.248 196.93C183.248 192.228 182.008 188.31 179.53 185.175C177.133 182.04 173.622 179.483 168.995 177.503C164.451 175.441 158.502 173.585 151.148 171.935C144.208 170.368 139.291 168.677 136.4 166.862C133.508 165.048 132.062 162.449 132.062 159.067C132.062 155.025 133.673 151.891 136.895 149.663C140.2 147.354 144.662 146.199 150.28 146.199C154.907 146.199 158.791 146.818 161.931 148.055C165.153 149.21 168.458 151.025 171.845 153.499C173.002 154.159 173.911 154.613 174.572 154.86C175.316 155.108 176.101 155.231 176.927 155.231C178.332 155.231 179.53 154.613 180.521 153.375C181.595 152.056 182.132 150.53 182.132 148.797C182.132 147.478 181.884 146.405 181.389 145.58C180.976 144.673 180.232 143.766 179.158 142.858C171.722 136.589 162.096 133.454 150.28 133.454C143.836 133.454 138.011 134.609 132.805 136.919C127.683 139.146 123.675 142.281 120.784 146.323C117.892 150.365 116.446 154.943 116.446 160.057C116.446 165.006 117.602 169.09 119.916 172.307C122.229 175.524 125.658 178.163 130.203 180.226C134.747 182.288 140.655 184.103 147.926 185.67C154.949 187.237 159.948 188.887 162.922 190.619C165.979 192.269 167.508 194.661 167.508 197.796C167.508 201.838 165.897 204.931 162.674 207.076C159.452 209.138 154.825 210.169 148.793 210.169C144.084 210.169 139.787 209.592 135.904 208.437C132.02 207.282 128.302 205.426 124.749 202.869C122.849 201.714 121.155 201.137 119.668 201.137C118.263 201.137 117.024 201.796 115.95 203.116C114.958 204.354 114.463 205.838 114.463 207.571C114.463 210.128 115.413 212.108 117.313 213.51C120.866 216.397 125.452 218.707 131.07 220.439Z" fill="#373737"/>
<path fill-rule="evenodd" clip-rule="evenodd" d="M239.562 201C227.654 201 218 210.587 218 222.413V376.587C218 388.413 227.654 398 239.563 398H403.438C415.346 398 425 388.413 425 376.587V222.413C425 210.587 415.346 201 403.438 201H239.562ZM343.261 366.656C349.014 368.312 355.1 369.139 361.52 369.139C368.273 369.139 374.235 368.063 379.404 365.91C384.657 363.675 388.7 360.611 391.535 356.72C394.453 352.746 395.912 348.192 395.912 343.058C395.912 338.339 394.662 334.406 392.16 331.26C389.742 328.114 386.199 325.547 381.53 323.56C376.944 321.49 370.941 319.627 363.521 317.971C356.518 316.398 351.557 314.7 348.639 312.879C345.72 311.057 344.261 308.449 344.261 305.055C344.261 300.997 345.887 297.851 349.139 295.616C352.474 293.297 356.976 292.138 362.646 292.138C367.315 292.138 371.233 292.759 374.401 294.001C377.653 295.16 380.988 296.982 384.406 299.466C385.574 300.128 386.491 300.583 387.158 300.832C387.908 301.08 388.7 301.204 389.534 301.204C390.951 301.204 392.16 300.583 393.161 299.342C394.245 298.017 394.787 296.485 394.787 294.746C394.787 293.422 394.536 292.345 394.036 291.517C393.619 290.606 392.869 289.696 391.785 288.785C384.281 282.492 374.568 279.346 362.646 279.346C356.142 279.346 350.264 280.505 345.012 282.824C339.843 285.059 335.799 288.205 332.881 292.262C329.963 296.319 328.504 300.915 328.504 306.048C328.504 311.016 329.671 315.114 332.005 318.343C334.34 321.573 337.8 324.222 342.385 326.292C346.971 328.362 352.932 330.183 360.269 331.757C367.356 333.33 372.4 334.986 375.402 336.724C378.487 338.38 380.029 340.781 380.029 343.928C380.029 347.985 378.403 351.09 375.152 353.242C371.9 355.312 367.231 356.347 361.145 356.347C356.392 356.347 352.057 355.768 348.138 354.609C344.22 353.449 340.468 351.587 336.883 349.02C334.965 347.861 333.256 347.281 331.755 347.281C330.338 347.281 329.087 347.943 328.003 349.268C327.003 350.51 326.503 352 326.503 353.739C326.503 356.306 327.461 358.293 329.379 359.701C332.964 362.599 337.591 364.917 343.261 366.656Z" fill="#5F3AFF"/>
</svg>
