<svg width="375" height="650" viewBox="0 0 375 650" fill="none" xmlns="http://www.w3.org/2000/svg">
<g clip-path="url(#clip0)">
<rect width="375" height="650" fill="#FEFEFE"/>
<g clip-path="url(#clip1)">
<path d="M293.286 503.625H278.222V511.482H293.286V503.625Z" fill="#5200FF"/>
<path d="M294.445 513.227H279.38V521.084H294.445V513.227Z" fill="#C6ABFF"/>
<path d="M281.988 446.593H266.923V454.45H281.988V446.593Z" fill="#5200FF"/>
<path d="M292.707 455.614H277.643V463.47H292.707V455.614Z" fill="#C6ABFF"/>
<path d="M263.737 447.175H248.673V455.032H263.737V447.175Z" fill="#C6ABFF"/>
<path d="M312.117 464.634H297.052V472.49H312.117V464.634Z" fill="black"/>
<path d="M293.866 465.216H278.801V473.072H293.866V465.216Z" fill="#5200FF"/>
<path d="M274.456 456.196H259.392V464.052H274.456V456.196Z" fill="black"/>
<path d="M311.247 525.158H296.183V533.014H311.247V525.158Z" fill="black"/>
<path d="M292.996 525.739H277.932V533.596H292.996V525.739Z" fill="#5200FF"/>
<path d="M94.8777 501.588C94.8777 501.588 116.11 522.914 104.125 554.546C92.1401 586.179 124.667 638.825 124.667 638.825C124.667 638.825 124.32 638.773 123.674 638.659C80.0684 630.928 58.4019 580.836 82.6612 543.635C91.665 529.787 99.0639 513.559 94.8777 501.588Z" fill="#5F3AFF"/>
<path d="M94.8779 501.588C94.8779 501.588 106.863 527.73 94.8779 549.053C82.8931 570.376 92.8239 630.236 124.67 638.825" stroke="#535461" stroke-width="2" stroke-miterlimit="10"/>
<path d="M57.061 587.84C57.061 587.84 81.2884 583.964 83.4959 605.773C85.7034 627.582 130.085 630.605 130.085 630.605C130.085 630.605 129.795 630.803 129.254 631.161C92.6098 655.312 57.5825 646.551 62.8637 614.47C64.8249 602.543 64.6627 590.564 57.061 587.84Z" fill="#5F3AFF"/>
<path opacity="0.2" d="M57.061 587.84C57.061 587.84 81.2884 583.964 83.4959 605.773C85.7034 627.582 130.085 630.605 130.085 630.605C130.085 630.605 129.795 630.803 129.254 631.161C92.6098 655.312 57.5825 646.551 62.8637 614.47C64.8249 602.543 64.6627 590.564 57.061 587.84Z" fill="#F5F5F5"/>
<path d="M57.061 587.84C57.061 587.84 75.8653 591.987 74.3212 609.16C72.7771 626.334 102.248 646.932 130.085 630.605" stroke="#535461" stroke-width="2" stroke-miterlimit="10"/>
<path d="M72.2469 503.916H57.1826V511.772H72.2469V503.916Z" fill="black"/>
<path d="M82.9656 512.936H67.9014V520.793H82.9656V512.936Z" fill="#C6ABFF"/>
<path d="M164.37 421.278H149.306V429.135H164.37V421.278Z" fill="#5200FF"/>
<path d="M283.147 566.186H268.083V574.042H283.147V566.186Z" fill="#C6ABFF"/>
<path d="M84.1243 522.539H69.0601V530.395H84.1243V522.539Z" fill="#5200FF"/>
<path d="M175.09 430.299H160.025V438.155H175.09V430.299Z" fill="#C6ABFF"/>
<path d="M120.047 483.548H104.982V491.404H120.047V483.548Z" fill="black"/>
<path d="M130.766 492.568H115.702V500.424H130.766V492.568Z" fill="#5200FF"/>
<path d="M159.446 487.621H144.381V495.478H159.446V487.621Z" fill="#5200FF"/>
<path d="M131.925 502.17H116.86V510.027H131.925V502.17Z" fill="#C6ABFF"/>
<path d="M303.426 566.186H288.361V574.042H303.426V566.186Z" fill="#5200FF"/>
<path d="M265.77 535.083C264.795 529.63 264.197 524.117 263.98 518.581C263.788 514.023 262.196 509.635 259.423 506.021C256.65 502.407 252.832 499.742 248.493 498.393C246.911 497.904 245.17 497.448 243.246 497.037C226.386 493.441 221.264 496.581 220.682 496.994C220.189 496.093 219.76 495.159 219.399 494.197C219.37 494.098 219.344 494 219.315 493.906C222.651 490.332 224.685 485.728 225.082 480.844C227.895 477.981 229.538 474.524 229.538 470.803C229.538 467.602 228.321 464.599 226.192 462.001V456.943C226.192 451.112 223.885 445.518 219.78 441.395C215.674 437.271 210.106 434.954 204.3 434.954H202.524C199.649 434.954 196.802 435.523 194.146 436.628C191.49 437.733 189.076 439.353 187.043 441.395C185.01 443.437 183.398 445.861 182.298 448.529C181.197 451.196 180.631 454.056 180.631 456.943V462.393C178.699 464.899 177.604 467.759 177.604 470.797C177.604 474.44 179.18 477.827 181.886 480.655C182.255 485.718 184.382 490.489 187.894 494.139C188.013 494.966 188.134 495.853 188.253 496.79L158.096 503.189C158.096 503.189 146.467 503.669 138.976 519.192C132.64 532.342 120.032 566.124 116.298 576.181C115.623 578.002 115.241 579.047 115.241 579.047C115.241 579.047 115.365 578.922 115.6 578.706L115.241 579.687C115.241 579.687 115.423 579.501 115.771 579.195C115.244 583.403 115.168 590.628 120.655 591.527C125.256 592.28 137.11 592.592 146.065 592.717H146.684C152.62 592.795 157.137 592.795 157.137 592.795V592.717H253.444V591.725C253.445 590.825 253.265 589.934 252.914 589.106L253.047 588.943C253.562 589.626 253.905 590.425 254.046 591.271C254.035 591.353 254.02 591.435 254 591.515L254.058 591.367C254.081 591.631 254.061 591.897 254 592.155C254 592.155 266.356 560.18 266.222 541.086C266.258 539.075 266.106 537.065 265.77 535.083V535.083ZM188.754 501.111C188.595 500.199 188.492 499.278 188.447 498.353C188.447 498.353 188.447 498.335 188.447 498.326C188.554 499.226 188.659 500.157 188.754 501.111ZM151.32 569.794V577.414L146.569 578.436L151.32 569.794Z" fill="url(#paint0_linear)"/>
<path d="M202.923 438.03C208.729 438.03 214.298 440.347 218.403 444.47C222.509 448.594 224.816 454.187 224.816 460.019V469.4H181.031V460.019C181.031 454.187 183.337 448.594 187.443 444.47C191.549 440.347 197.117 438.03 202.923 438.03V438.03Z" fill="#565656"/>
<path d="M203.077 489.699C216.859 489.699 228.032 481.988 228.032 472.476C228.032 462.964 216.859 455.253 203.077 455.253C189.295 455.253 178.123 462.964 178.123 472.476C178.123 481.988 189.295 489.699 203.077 489.699Z" fill="#4F4F4F"/>
<path d="M187.08 489.161C187.08 489.161 192.295 516.533 187.08 523.915C181.865 531.297 203.013 534.219 203.013 534.219L224.903 526.222L227.965 506.538C227.965 506.538 214.639 499.001 217.4 483.777L187.08 489.161Z" fill="#FAD3BD"/>
<path d="M251.688 581.43C251.688 581.43 253.067 587.427 245.564 588.504C241.134 589.158 236.628 589.104 232.215 588.344L230.561 573.28H248.015L251.688 581.43Z" fill="#F7C4A7"/>
<path d="M119.198 573.754C119.198 573.754 115.884 587.281 123.387 588.504C130.89 589.726 158.44 589.734 158.44 589.734V573.731L145.966 576.408L134.256 565.129L119.198 573.754Z" fill="#FAD3BD"/>
<path opacity="0.1" d="M188.691 498.003L159.37 504.23C159.37 504.23 148.194 504.693 140.998 519.609C133.802 534.524 118.184 577.123 118.184 577.123C118.184 577.123 131.51 563.59 147.122 578.046L157.534 559.132L155.236 589.12H235.911V574.97C235.911 574.97 252.751 584.043 251.529 589.117C251.529 589.117 265.941 551.82 262.827 534.87C261.89 529.631 261.315 524.332 261.106 519.012V519.012C260.922 514.631 259.393 510.414 256.728 506.941C254.063 503.467 250.393 500.907 246.222 499.612C244.704 499.144 243.035 498.705 241.181 498.312C223.88 494.622 219.454 498.312 219.454 498.312C219.454 498.312 216.102 509.264 216.163 514.228C216.238 520.61 207.13 524.84 207.13 524.84C207.13 524.84 193.656 521.61 193.045 518.997C192.434 516.384 187.613 501.079 188.691 498.003Z" fill="black"/>
<path d="M188.691 497.389L159.37 503.616C159.37 503.616 148.194 504.079 140.998 518.995C133.802 533.91 118.181 576.515 118.181 576.515C118.181 576.515 131.507 562.982 147.119 577.438L157.531 558.524L155.233 588.504H235.911V574.356C235.911 574.356 252.751 583.429 251.529 588.504C251.529 588.504 265.941 551.206 262.827 534.256C261.89 529.017 261.315 523.718 261.106 518.398V518.398C260.922 514.017 259.393 509.8 256.728 506.327C254.063 502.853 250.393 500.293 246.222 498.999C244.704 498.53 243.035 498.091 241.181 497.698C223.88 494.008 219.454 497.698 219.454 497.698C219.454 497.698 216.102 508.65 216.163 513.614C216.238 519.996 207.13 524.226 207.13 524.226C207.13 524.226 193.656 520.997 193.045 518.384C192.434 515.771 187.613 500.465 188.691 497.389Z" fill="url(#paint1_linear)"/>
<path opacity="0.1" d="M218.651 496.083C217.419 492.581 217.143 488.811 217.851 485.165L187.532 490.546C187.532 490.546 187.969 492.847 188.465 496.295C190.424 498.337 192.776 499.957 195.378 501.058C197.98 502.158 200.777 502.715 203.6 502.695C206.423 502.675 209.213 502.079 211.799 500.942C214.386 499.805 216.715 498.152 218.645 496.083H218.651Z" fill="black"/>
<path d="M223.822 480.396C223.799 485.884 221.629 491.142 217.78 495.037C213.932 498.933 208.714 501.153 203.251 501.219C197.788 501.286 192.518 499.193 188.577 495.392C184.636 491.592 182.34 486.388 182.184 480.903C182.184 480.734 182.184 480.565 182.184 480.396C182.183 476.48 183.277 472.643 185.34 469.32C187.404 465.997 190.354 463.323 193.856 461.602C194.48 461.296 195.121 461.02 195.78 460.776C199.205 459.511 202.9 459.166 206.498 459.775V459.775C211.111 460.564 215.324 462.891 218.457 466.381C221.59 469.87 223.461 474.319 223.767 479.008C223.804 479.468 223.822 479.931 223.822 480.396Z" fill="#FAD3BD"/>
<g opacity="0.1">
<path opacity="0.1" d="M195.748 461.267L195.777 461.25C195.118 461.494 194.477 461.77 193.853 462.076C190.351 463.798 187.401 466.472 185.337 469.794C183.274 473.117 182.18 476.955 182.181 480.871C182.181 481.039 182.181 481.208 182.181 481.377C182.829 481.359 183.465 481.206 184.05 480.926C189.125 478.546 192.161 471.266 193.366 466.188C193.801 464.369 194.209 462.321 195.748 461.267Z" fill="black"/>
<path opacity="0.1" d="M211.684 461.852C210.036 461.092 208.295 460.553 206.507 460.249C207.974 460.588 209.283 461.414 210.224 462.594C210.685 463.224 211.067 463.908 211.362 464.631C208.591 463.414 205.59 462.816 202.566 462.879C199.543 462.942 196.569 463.664 193.85 464.995C195.157 467.873 199.21 469.441 201.915 470.491C204.878 471.64 207.871 472.69 210.896 473.643L208.219 471.46L214.265 472.426C214.33 471.218 214.187 470.007 213.842 468.847C215.001 469.784 216.536 470.099 217.794 470.884C220.149 472.377 221.131 475.249 222.414 477.737C222.753 478.394 223.153 479.067 223.764 479.483C223.517 475.724 222.264 472.102 220.138 468.999C218.012 465.896 215.091 463.427 211.684 461.852V461.852Z" fill="black"/>
</g>
<path d="M195.748 460.793L195.777 460.776C195.118 461.02 194.477 461.296 193.853 461.602C190.351 463.323 187.401 465.997 185.337 469.32C183.274 472.643 182.18 476.48 182.181 480.396C182.181 480.565 182.181 480.734 182.181 480.903C182.829 480.885 183.465 480.731 184.05 480.452C189.125 478.071 192.161 470.791 193.366 465.714C193.801 463.907 194.209 461.849 195.748 460.793Z" fill="#212121"/>
<path d="M211.684 461.381C210.036 460.62 208.295 460.081 206.507 459.778C207.974 460.117 209.283 460.943 210.224 462.123C210.685 462.753 211.067 463.437 211.362 464.16C208.591 462.943 205.59 462.345 202.566 462.408C199.543 462.471 196.569 463.192 193.85 464.523C195.157 467.401 199.21 468.97 201.915 470.02C204.878 471.168 207.871 472.219 210.896 473.171L208.219 470.989L214.265 471.955C214.33 470.746 214.187 469.536 213.842 468.376C215.001 469.313 216.536 469.627 217.794 470.413C220.149 471.906 221.131 474.777 222.414 477.265C222.753 477.923 223.153 478.595 223.764 479.011C223.517 475.252 222.264 471.63 220.138 468.527C218.012 465.424 215.091 462.955 211.684 461.381V461.381Z" fill="#212121"/>
<path opacity="0.1" d="M179.806 476.948C179.806 476.948 201.243 450.178 226.044 476.948L223.9 470.951C223.9 470.951 212.263 453.882 203.998 457.566C195.733 461.25 187.616 463.872 187.616 463.872L179.806 476.948Z" fill="black"/>
<path d="M179.806 476.474C179.806 476.474 201.243 449.704 226.044 476.474L223.9 470.477C223.9 470.477 212.263 453.408 203.998 457.092C195.733 460.776 187.616 463.397 187.616 463.397L179.806 476.474Z" fill="#4F4F4F"/>
<path opacity="0.1" d="M162.198 534.143C162.198 534.143 157.606 546.446 164.035 557.517C170.463 568.589 158.371 573.204 158.371 573.204" fill="black"/>
<path opacity="0.1" d="M236.607 523.071C236.607 523.071 244.568 533.221 239.362 542.293C234.156 551.366 234.463 573.204 234.463 573.204" fill="black"/>
<path d="M155.155 582.277H243.649C245.598 582.277 247.468 583.054 248.846 584.439C250.224 585.823 250.999 587.701 250.999 589.659V589.659H147.809C147.809 587.701 148.583 585.824 149.96 584.44C151.338 583.055 153.207 582.277 155.155 582.277V582.277Z" fill="#535461"/>
<path d="M164.159 531.527H234.648C236.132 531.527 237.601 531.821 238.972 532.391C240.343 532.961 241.588 533.797 242.637 534.851C243.686 535.905 244.519 537.156 245.086 538.532C245.654 539.909 245.946 541.385 245.946 542.875V583.967H152.861V542.875C152.861 539.865 154.051 536.979 156.17 534.851C158.289 532.723 161.163 531.527 164.159 531.527V531.527Z" fill="#535461"/>
<path d="M199.325 565.592C202.37 565.592 204.838 563.113 204.838 560.055C204.838 556.996 202.37 554.517 199.325 554.517C196.281 554.517 193.812 556.996 193.812 560.055C193.812 563.113 196.281 565.592 199.325 565.592Z" fill="white"/>
<path opacity="0.1" d="M181.031 464.401C181.031 464.401 202.098 443.253 224.819 464.014" stroke="black" stroke-miterlimit="10"/>
<path d="M230.141 463.054H228.026V475.098H230.141V463.054Z" fill="#CDCDCD"/>
<path d="M225.204 470.846C227.137 470.846 228.991 471.618 230.358 472.991C231.725 474.364 232.493 476.226 232.493 478.167V478.639C232.493 480.58 231.725 482.443 230.358 483.816C228.991 485.189 227.137 485.96 225.204 485.96V485.96V470.846Z" fill="#474747"/>
<path d="M227.084 471.792C227.084 470.879 226.348 470.139 225.439 470.139C224.53 470.139 223.793 470.879 223.793 471.792V485.017C223.793 485.93 224.53 486.67 225.439 486.67C226.348 486.67 227.084 485.93 227.084 485.017V471.792Z" fill="#CDCDCD"/>
<path d="M175.492 475.333H177.607V463.29H175.492V475.333Z" fill="#CDCDCD"/>
<path d="M180.429 486.196C178.496 486.196 176.642 485.424 175.275 484.051C173.908 482.678 173.14 480.816 173.14 478.875V478.403C173.14 477.442 173.328 476.49 173.695 475.601C174.061 474.713 174.598 473.906 175.275 473.226C175.952 472.547 176.755 472.007 177.639 471.639C178.524 471.271 179.472 471.082 180.429 471.082V471.082V486.196Z" fill="#474747"/>
<path d="M178.548 485.25C178.548 486.163 179.285 486.903 180.194 486.903C181.103 486.903 181.839 486.163 181.839 485.25V472.025C181.839 471.112 181.103 470.372 180.194 470.372C179.285 470.372 178.548 471.112 178.548 472.025V485.25Z" fill="#CDCDCD"/>
<path d="M227.777 450.181C224.911 444.199 218.671 436.965 205.221 436.386V436.368H205.058L200.293 436.595V436.619C186.932 437.235 180.721 444.443 177.865 450.405C175.962 454.447 174.952 458.854 174.904 463.325L176.549 463.284L178.195 463.246C178.266 459.266 179.177 455.346 180.869 451.747C184.496 444.263 191.17 440.285 200.704 439.915L204.919 439.68C214.459 440.046 221.137 444.03 224.761 451.511C226.455 455.112 227.368 459.034 227.44 463.016L229.086 463.054L230.731 463.095C230.684 458.627 229.676 454.222 227.777 450.181V450.181Z" fill="#363636"/>
<path d="M302.95 589.755H78.5186V650.278H302.95V589.755Z" fill="#373737"/>
<path d="M302.95 593.828H78.5186V601.685H302.95V593.828Z" fill="#6B71FF"/>
<path d="M318 588.882H63.4629V596.738H318V588.882Z" fill="#373737"/>
</g>
<ellipse cx="262.5" cy="422.778" rx="25.5" ry="16.5" fill="#5F3AFF"/>
<path d="M240.744 445.127L246.222 418.254L263.099 429.24L240.744 445.127Z" fill="#5F3AFF"/>
<path d="M265.048 415.238C265.512 415.238 265.88 415.382 266.152 415.67C266.424 415.942 266.56 416.31 266.56 416.774V430.862C266.56 431.326 266.416 431.702 266.128 431.99C265.856 432.278 265.496 432.422 265.048 432.422C264.584 432.422 264.216 432.278 263.944 431.99C263.672 431.702 263.536 431.326 263.536 430.862V424.934H254.872V430.862C254.872 431.326 254.728 431.702 254.44 431.99C254.168 432.278 253.8 432.422 253.336 432.422C252.888 432.422 252.52 432.278 252.232 431.99C251.96 431.702 251.824 431.326 251.824 430.862V416.774C251.824 416.31 251.96 415.942 252.232 415.67C252.504 415.382 252.872 415.238 253.336 415.238C253.8 415.238 254.168 415.382 254.44 415.67C254.728 415.942 254.872 416.31 254.872 416.774V422.438H263.536V416.774C263.536 416.31 263.672 415.942 263.944 415.67C264.216 415.382 264.584 415.238 265.048 415.238ZM271.423 432.422C270.991 432.422 270.631 432.302 270.343 432.062C270.071 431.806 269.935 431.446 269.935 430.982V421.718C269.935 421.254 270.071 420.902 270.343 420.662C270.631 420.422 270.991 420.302 271.423 420.302C271.855 420.302 272.215 420.422 272.503 420.662C272.791 420.902 272.935 421.254 272.935 421.718V430.982C272.935 431.446 272.791 431.806 272.503 432.062C272.215 432.302 271.855 432.422 271.423 432.422ZM271.423 418.166C270.879 418.166 270.447 418.022 270.127 417.734C269.807 417.43 269.647 417.038 269.647 416.558C269.647 416.078 269.807 415.694 270.127 415.406C270.447 415.118 270.879 414.974 271.423 414.974C271.951 414.974 272.375 415.118 272.695 415.406C273.031 415.694 273.199 416.078 273.199 416.558C273.199 417.038 273.039 417.43 272.719 417.734C272.399 418.022 271.967 418.166 271.423 418.166Z" fill="#E5E5E5"/>
<path d="M52.12 198.647C50.0153 198.647 48.02 198.374 46.134 197.827C44.2753 197.253 42.7583 196.488 41.583 195.531C40.9543 195.067 40.64 194.411 40.64 193.563C40.64 192.989 40.804 192.497 41.132 192.087C41.4873 191.65 41.8973 191.431 42.362 191.431C42.854 191.431 43.4143 191.623 44.043 192.005C45.2183 192.853 46.4483 193.468 47.733 193.85C49.0177 194.233 50.439 194.424 51.997 194.424C53.9923 194.424 55.523 194.083 56.589 193.399C57.655 192.689 58.188 191.664 58.188 190.324C58.188 189.286 57.6823 188.493 56.671 187.946C55.687 187.372 54.0333 186.826 51.71 186.306C49.3047 185.787 47.3503 185.186 45.847 184.502C44.3437 183.819 43.2093 182.944 42.444 181.878C41.6787 180.812 41.296 179.459 41.296 177.819C41.296 176.125 41.7743 174.608 42.731 173.268C43.6877 171.929 45.0133 170.89 46.708 170.152C48.43 169.387 50.357 169.004 52.489 169.004C56.3977 169.004 59.582 170.043 62.042 172.12C62.3973 172.421 62.6433 172.722 62.78 173.022C62.944 173.296 63.026 173.651 63.026 174.088C63.026 174.662 62.8483 175.168 62.493 175.605C62.165 176.015 61.7687 176.22 61.304 176.22C61.0307 176.22 60.771 176.179 60.525 176.097C60.3063 176.015 60.0057 175.865 59.623 175.646C58.5023 174.826 57.409 174.225 56.343 173.842C55.3043 173.432 54.0197 173.227 52.489 173.227C50.6303 173.227 49.1543 173.61 48.061 174.375C46.995 175.113 46.462 176.152 46.462 177.491C46.462 178.612 46.9403 179.473 47.897 180.074C48.8537 180.676 50.48 181.236 52.776 181.755C55.2087 182.302 57.1767 182.917 58.68 183.6C60.2107 184.256 61.3723 185.104 62.165 186.142C62.985 187.181 63.395 188.479 63.395 190.037C63.395 191.732 62.9167 193.235 61.96 194.547C61.0307 195.832 59.705 196.843 57.983 197.581C56.2883 198.292 54.334 198.647 52.12 198.647ZM230.374 198.647C228.269 198.647 226.274 198.374 224.388 197.827C222.529 197.253 221.012 196.488 219.837 195.531C219.208 195.067 218.894 194.411 218.894 193.563C218.894 192.989 219.058 192.497 219.386 192.087C219.741 191.65 220.151 191.431 220.616 191.431C221.108 191.431 221.668 191.623 222.297 192.005C223.472 192.853 224.702 193.468 225.987 193.85C227.272 194.233 228.693 194.424 230.251 194.424C232.246 194.424 233.777 194.083 234.843 193.399C235.909 192.689 236.442 191.664 236.442 190.324C236.442 189.286 235.936 188.493 234.925 187.946C233.941 187.372 232.287 186.826 229.964 186.306C227.559 185.787 225.604 185.186 224.101 184.502C222.598 183.819 221.463 182.944 220.698 181.878C219.933 180.812 219.55 179.459 219.55 177.819C219.55 176.125 220.028 174.608 220.985 173.268C221.942 171.929 223.267 170.89 224.962 170.152C226.684 169.387 228.611 169.004 230.743 169.004C234.652 169.004 237.836 170.043 240.296 172.12C240.651 172.421 240.897 172.722 241.034 173.022C241.198 173.296 241.28 173.651 241.28 174.088C241.28 174.662 241.102 175.168 240.747 175.605C240.419 176.015 240.023 176.22 239.558 176.22C239.285 176.22 239.025 176.179 238.779 176.097C238.56 176.015 238.26 175.865 237.877 175.646C236.756 174.826 235.663 174.225 234.597 173.842C233.558 173.432 232.274 173.227 230.743 173.227C228.884 173.227 227.408 173.61 226.315 174.375C225.249 175.113 224.716 176.152 224.716 177.491C224.716 178.612 225.194 179.473 226.151 180.074C227.108 180.676 228.734 181.236 231.03 181.755C233.463 182.302 235.431 182.917 236.934 183.6C238.465 184.256 239.626 185.104 240.419 186.142C241.239 187.181 241.649 188.479 241.649 190.037C241.649 191.732 241.171 193.235 240.214 194.547C239.285 195.832 237.959 196.843 236.237 197.581C234.542 198.292 232.588 198.647 230.374 198.647Z" fill="#5F3AFF"/>
<path d="M83.6365 177.819C84.4292 177.819 85.0578 178.038 85.5225 178.475C85.9872 178.913 86.2195 179.5 86.2195 180.238V196.146C86.2195 196.857 85.9735 197.431 85.4815 197.868C85.0168 198.306 84.4018 198.524 83.6365 198.524C82.8985 198.524 82.3108 198.319 81.8735 197.909C81.4362 197.499 81.2175 196.939 81.2175 196.228V195.203C80.5888 196.297 79.7415 197.144 78.6755 197.745C77.6095 198.319 76.4068 198.606 75.0675 198.606C70.1475 198.606 67.6875 195.846 67.6875 190.324V180.238C67.6875 179.5 67.9198 178.913 68.3845 178.475C68.8492 178.038 69.4642 177.819 70.2295 177.819C71.0222 177.819 71.6508 178.038 72.1155 178.475C72.5802 178.913 72.8125 179.5 72.8125 180.238V190.365C72.8125 191.787 73.0995 192.839 73.6735 193.522C74.2475 194.206 75.1495 194.547 76.3795 194.547C77.8008 194.547 78.9352 194.083 79.7825 193.153C80.6572 192.197 81.0945 190.939 81.0945 189.381V180.238C81.0945 179.5 81.3268 178.913 81.7915 178.475C82.2562 178.038 82.8712 177.819 83.6365 177.819ZM109.389 194.301C109.935 194.821 110.209 195.408 110.209 196.064C110.209 196.693 109.976 197.253 109.512 197.745C109.074 198.237 108.555 198.483 107.954 198.483C107.352 198.483 106.792 198.237 106.273 197.745L96.6787 189.053V196.064C96.6787 196.857 96.4327 197.458 95.9407 197.868C95.4487 198.278 94.8337 198.483 94.0957 198.483C93.3577 198.483 92.7427 198.278 92.2507 197.868C91.786 197.458 91.5537 196.857 91.5537 196.064V171.587C91.5537 170.795 91.786 170.193 92.2507 169.783C92.7427 169.373 93.3577 169.168 94.0957 169.168C94.8337 169.168 95.4487 169.373 95.9407 169.783C96.4327 170.193 96.6787 170.795 96.6787 171.587V187.003L105.453 178.598C105.945 178.106 106.505 177.86 107.134 177.86C107.762 177.86 108.309 178.093 108.774 178.557C109.238 179.022 109.471 179.569 109.471 180.197C109.471 180.826 109.211 181.4 108.692 181.919L102.255 187.905L109.389 194.301ZM116.077 198.524C115.339 198.524 114.724 198.319 114.232 197.909C113.767 197.472 113.535 196.857 113.535 196.064V180.238C113.535 179.446 113.767 178.844 114.232 178.434C114.724 178.024 115.339 177.819 116.077 177.819C116.815 177.819 117.43 178.024 117.922 178.434C118.414 178.844 118.66 179.446 118.66 180.238V196.064C118.66 196.857 118.414 197.472 117.922 197.909C117.43 198.319 116.815 198.524 116.077 198.524ZM116.077 174.17C115.148 174.17 114.41 173.924 113.863 173.432C113.316 172.913 113.043 172.243 113.043 171.423C113.043 170.603 113.316 169.947 113.863 169.455C114.41 168.963 115.148 168.717 116.077 168.717C116.979 168.717 117.703 168.963 118.25 169.455C118.824 169.947 119.111 170.603 119.111 171.423C119.111 172.243 118.838 172.913 118.291 173.432C117.744 173.924 117.006 174.17 116.077 174.17ZM132.637 177.737C135.425 177.737 137.489 178.434 138.828 179.828C140.195 181.195 140.878 183.286 140.878 186.101V196.105C140.878 196.843 140.66 197.431 140.222 197.868C139.785 198.278 139.184 198.483 138.418 198.483C137.708 198.483 137.12 198.265 136.655 197.827C136.218 197.39 135.999 196.816 135.999 196.105V195.203C135.535 196.269 134.797 197.103 133.785 197.704C132.801 198.306 131.653 198.606 130.341 198.606C129.002 198.606 127.786 198.333 126.692 197.786C125.599 197.24 124.738 196.488 124.109 195.531C123.481 194.575 123.166 193.509 123.166 192.333C123.166 190.857 123.535 189.696 124.273 188.848C125.039 188.001 126.269 187.386 127.963 187.003C129.658 186.621 131.995 186.429 134.974 186.429H135.999V185.486C135.999 184.147 135.712 183.177 135.138 182.575C134.564 181.947 133.635 181.632 132.35 181.632C131.558 181.632 130.751 181.755 129.931 182.001C129.111 182.22 128.141 182.548 127.02 182.985C126.31 183.341 125.79 183.518 125.462 183.518C124.97 183.518 124.56 183.341 124.232 182.985C123.932 182.63 123.781 182.165 123.781 181.591C123.781 181.127 123.891 180.73 124.109 180.402C124.355 180.047 124.752 179.719 125.298 179.418C126.255 178.899 127.389 178.489 128.701 178.188C130.041 177.888 131.353 177.737 132.637 177.737ZM131.366 194.916C132.733 194.916 133.84 194.465 134.687 193.563C135.562 192.634 135.999 191.445 135.999 189.996V189.135H135.261C133.43 189.135 132.009 189.217 130.997 189.381C129.986 189.545 129.262 189.832 128.824 190.242C128.387 190.652 128.168 191.213 128.168 191.923C128.168 192.798 128.469 193.522 129.07 194.096C129.699 194.643 130.464 194.916 131.366 194.916ZM157.731 177.737C160.136 177.737 161.927 178.421 163.102 179.787C164.277 181.154 164.865 183.218 164.865 185.978V196.064C164.865 196.83 164.633 197.431 164.168 197.868C163.731 198.306 163.116 198.524 162.323 198.524C161.53 198.524 160.902 198.306 160.437 197.868C159.972 197.431 159.74 196.83 159.74 196.064V186.265C159.74 184.707 159.439 183.573 158.838 182.862C158.264 182.152 157.348 181.796 156.091 181.796C154.615 181.796 153.426 182.261 152.524 183.19C151.649 184.12 151.212 185.363 151.212 186.921V196.064C151.212 196.83 150.98 197.431 150.515 197.868C150.05 198.306 149.422 198.524 148.629 198.524C147.836 198.524 147.208 198.306 146.743 197.868C146.306 197.431 146.087 196.83 146.087 196.064V180.197C146.087 179.487 146.319 178.913 146.784 178.475C147.249 178.038 147.877 177.819 148.67 177.819C149.381 177.819 149.955 178.038 150.392 178.475C150.857 178.885 151.089 179.432 151.089 180.115V181.222C151.772 180.102 152.688 179.241 153.836 178.639C154.984 178.038 156.282 177.737 157.731 177.737ZM180.484 194.711C181.851 194.793 182.534 195.408 182.534 196.556C182.534 197.212 182.261 197.718 181.714 198.073C181.195 198.401 180.443 198.538 179.459 198.483L178.352 198.401C173.76 198.073 171.464 195.613 171.464 191.021V182.083H169.414C168.676 182.083 168.102 181.919 167.692 181.591C167.31 181.263 167.118 180.785 167.118 180.156C167.118 179.528 167.31 179.049 167.692 178.721C168.102 178.393 168.676 178.229 169.414 178.229H171.464V174.457C171.464 173.719 171.697 173.132 172.161 172.694C172.626 172.257 173.255 172.038 174.047 172.038C174.813 172.038 175.428 172.257 175.892 172.694C176.357 173.132 176.589 173.719 176.589 174.457V178.229H180.074C180.812 178.229 181.373 178.393 181.755 178.721C182.165 179.049 182.37 179.528 182.37 180.156C182.37 180.785 182.165 181.263 181.755 181.591C181.373 181.919 180.812 182.083 180.074 182.083H176.589V191.39C176.589 193.413 177.519 194.493 179.377 194.629L180.484 194.711ZM194.348 198.606C192.298 198.606 190.494 198.183 188.936 197.335C187.405 196.488 186.216 195.272 185.369 193.686C184.522 192.101 184.098 190.256 184.098 188.151C184.098 186.047 184.522 184.215 185.369 182.657C186.216 181.072 187.405 179.856 188.936 179.008C190.494 178.161 192.298 177.737 194.348 177.737C196.398 177.737 198.188 178.161 199.719 179.008C201.277 179.856 202.466 181.072 203.286 182.657C204.133 184.215 204.557 186.047 204.557 188.151C204.557 190.256 204.133 192.101 203.286 193.686C202.466 195.272 201.277 196.488 199.719 197.335C198.188 198.183 196.398 198.606 194.348 198.606ZM194.307 194.629C195.974 194.629 197.245 194.083 198.12 192.989C198.995 191.896 199.432 190.283 199.432 188.151C199.432 186.047 198.995 184.448 198.12 183.354C197.245 182.234 195.988 181.673 194.348 181.673C192.708 181.673 191.437 182.234 190.535 183.354C189.66 184.448 189.223 186.047 189.223 188.151C189.223 190.283 189.66 191.896 190.535 192.989C191.41 194.083 192.667 194.629 194.307 194.629ZM261.89 177.819C262.683 177.819 263.312 178.038 263.776 178.475C264.241 178.913 264.473 179.5 264.473 180.238V196.146C264.473 196.857 264.227 197.431 263.735 197.868C263.271 198.306 262.656 198.524 261.89 198.524C261.152 198.524 260.565 198.319 260.127 197.909C259.69 197.499 259.471 196.939 259.471 196.228V195.203C258.843 196.297 257.995 197.144 256.929 197.745C255.863 198.319 254.661 198.606 253.321 198.606C248.401 198.606 245.941 195.846 245.941 190.324V180.238C245.941 179.5 246.174 178.913 246.638 178.475C247.103 178.038 247.718 177.819 248.483 177.819C249.276 177.819 249.905 178.038 250.369 178.475C250.834 178.913 251.066 179.5 251.066 180.238V190.365C251.066 191.787 251.353 192.839 251.927 193.522C252.501 194.206 253.403 194.547 254.633 194.547C256.055 194.547 257.189 194.083 258.036 193.153C258.911 192.197 259.348 190.939 259.348 189.381V180.238C259.348 179.5 259.581 178.913 260.045 178.475C260.51 178.038 261.125 177.819 261.89 177.819ZM280.222 194.711C281.588 194.793 282.272 195.408 282.272 196.556C282.272 197.212 281.998 197.718 281.452 198.073C280.932 198.401 280.181 198.538 279.197 198.483L278.09 198.401C273.498 198.073 271.202 195.613 271.202 191.021V182.083H269.152C268.414 182.083 267.84 181.919 267.43 181.591C267.047 181.263 266.856 180.785 266.856 180.156C266.856 179.528 267.047 179.049 267.43 178.721C267.84 178.393 268.414 178.229 269.152 178.229H271.202V174.457C271.202 173.719 271.434 173.132 271.899 172.694C272.363 172.257 272.992 172.038 273.785 172.038C274.55 172.038 275.165 172.257 275.63 172.694C276.094 173.132 276.327 173.719 276.327 174.457V178.229H279.812C280.55 178.229 281.11 178.393 281.493 178.721C281.903 179.049 282.108 179.528 282.108 180.156C282.108 180.785 281.903 181.263 281.493 181.591C281.11 181.919 280.55 182.083 279.812 182.083H276.327V191.39C276.327 193.413 277.256 194.493 279.115 194.629L280.222 194.711ZM300.809 192.784C301.274 192.784 301.643 192.962 301.916 193.317C302.217 193.673 302.367 194.151 302.367 194.752C302.367 195.6 301.862 196.31 300.85 196.884C299.921 197.404 298.869 197.827 297.693 198.155C296.518 198.456 295.397 198.606 294.331 198.606C291.106 198.606 288.55 197.677 286.664 195.818C284.778 193.96 283.835 191.418 283.835 188.192C283.835 186.142 284.245 184.325 285.065 182.739C285.885 181.154 287.033 179.924 288.509 179.049C290.013 178.175 291.707 177.737 293.593 177.737C295.397 177.737 296.969 178.134 298.308 178.926C299.648 179.719 300.686 180.84 301.424 182.288C302.162 183.737 302.531 185.445 302.531 187.413C302.531 188.589 302.012 189.176 300.973 189.176H288.878C289.042 191.062 289.575 192.456 290.477 193.358C291.379 194.233 292.691 194.67 294.413 194.67C295.288 194.67 296.053 194.561 296.709 194.342C297.393 194.124 298.158 193.823 299.005 193.44C299.825 193.003 300.427 192.784 300.809 192.784ZM293.716 181.345C292.322 181.345 291.202 181.783 290.354 182.657C289.534 183.532 289.042 184.789 288.878 186.429H298.144C298.09 184.762 297.68 183.505 296.914 182.657C296.149 181.783 295.083 181.345 293.716 181.345ZM303.854 205.74C302.87 205.795 302.118 205.658 301.599 205.33C301.052 205.002 300.779 204.497 300.779 203.813C300.779 202.693 301.462 202.078 302.829 201.968L303.936 201.886C304.865 201.832 305.562 201.545 306.027 201.025C306.491 200.506 306.724 199.713 306.724 198.647V180.238C306.724 179.446 306.956 178.844 307.421 178.434C307.913 178.024 308.528 177.819 309.266 177.819C310.004 177.819 310.619 178.024 311.111 178.434C311.603 178.844 311.849 179.446 311.849 180.238V198.278C311.849 202.87 309.553 205.33 304.961 205.658L303.854 205.74ZM309.225 174.17C308.295 174.17 307.557 173.924 307.011 173.432C306.464 172.913 306.191 172.243 306.191 171.423C306.191 170.603 306.464 169.947 307.011 169.455C307.557 168.963 308.295 168.717 309.225 168.717C310.127 168.717 310.851 168.963 311.398 169.455C311.972 169.947 312.259 170.603 312.259 171.423C312.259 172.243 311.985 172.913 311.439 173.432C310.892 173.924 310.154 174.17 309.225 174.17ZM325.826 177.737C328.614 177.737 330.677 178.434 332.017 179.828C333.383 181.195 334.067 183.286 334.067 186.101V196.105C334.067 196.843 333.848 197.431 333.411 197.868C332.973 198.278 332.372 198.483 331.607 198.483C330.896 198.483 330.308 198.265 329.844 197.827C329.406 197.39 329.188 196.816 329.188 196.105V195.203C328.723 196.269 327.985 197.103 326.974 197.704C325.99 198.306 324.842 198.606 323.53 198.606C322.19 198.606 320.974 198.333 319.881 197.786C318.787 197.24 317.926 196.488 317.298 195.531C316.669 194.575 316.355 193.509 316.355 192.333C316.355 190.857 316.724 189.696 317.462 188.848C318.227 188.001 319.457 187.386 321.152 187.003C322.846 186.621 325.183 186.429 328.163 186.429H329.188V185.486C329.188 184.147 328.901 183.177 328.327 182.575C327.753 181.947 326.823 181.632 325.539 181.632C324.746 181.632 323.94 181.755 323.12 182.001C322.3 182.22 321.329 182.548 320.209 182.985C319.498 183.341 318.979 183.518 318.651 183.518C318.159 183.518 317.749 183.341 317.421 182.985C317.12 182.63 316.97 182.165 316.97 181.591C316.97 181.127 317.079 180.73 317.298 180.402C317.544 180.047 317.94 179.719 318.487 179.418C319.443 178.899 320.578 178.489 321.89 178.188C323.229 177.888 324.541 177.737 325.826 177.737ZM324.555 194.916C325.921 194.916 327.028 194.465 327.876 193.563C328.75 192.634 329.188 191.445 329.188 189.996V189.135H328.45C326.618 189.135 325.197 189.217 324.186 189.381C323.174 189.545 322.45 189.832 322.013 190.242C321.575 190.652 321.357 191.213 321.357 191.923C321.357 192.798 321.657 193.522 322.259 194.096C322.887 194.643 323.653 194.916 324.555 194.916Z" fill="black"/>
<rect x="95" y="213.278" width="186" height="36" rx="18" fill="url(#paint2_linear)"/>
<path d="M130.2 224.804L128.742 237.278H125.673L124.764 228.359L123.765 237.278H120.642L119.292 224.804H122.055L122.478 234.758L123.513 226.244H126.051L127.014 234.758L127.635 224.804H130.2ZM133.865 233.327C133.961 234.107 134.216 234.668 134.63 235.01C135.044 235.346 135.554 235.514 136.16 235.514C136.598 235.514 137.021 235.442 137.429 235.298C137.837 235.154 138.23 234.962 138.608 234.722L139.751 236.27C139.301 236.654 138.755 236.969 138.113 237.215C137.477 237.461 136.751 237.584 135.935 237.584C134.843 237.584 133.928 237.368 133.19 236.936C132.452 236.498 131.897 235.898 131.525 235.136C131.153 234.374 130.967 233.498 130.967 232.508C130.967 231.566 131.147 230.711 131.507 229.943C131.867 229.169 132.392 228.554 133.082 228.098C133.778 227.636 134.627 227.405 135.629 227.405C136.541 227.405 137.33 227.6 137.996 227.99C138.668 228.38 139.187 228.941 139.553 229.673C139.925 230.405 140.111 231.284 140.111 232.31C140.111 232.472 140.105 232.646 140.093 232.832C140.087 233.018 140.075 233.183 140.057 233.327H133.865ZM135.629 229.313C135.119 229.313 134.708 229.496 134.396 229.862C134.084 230.228 133.895 230.813 133.829 231.617H137.339C137.333 230.921 137.198 230.363 136.934 229.943C136.67 229.523 136.235 229.313 135.629 229.313ZM145.036 228.701C145.336 228.305 145.696 227.99 146.116 227.756C146.542 227.522 146.998 227.405 147.484 227.405C148.714 227.405 149.608 227.861 150.166 228.773C150.73 229.685 151.012 230.918 151.012 232.472C151.012 233.456 150.865 234.335 150.571 235.109C150.283 235.877 149.854 236.483 149.284 236.927C148.714 237.365 148.015 237.584 147.187 237.584C146.185 237.584 145.396 237.194 144.82 236.414L144.712 237.278H142.192V223.922L145.036 223.625V228.701ZM146.44 235.514C146.944 235.514 147.343 235.283 147.637 234.821C147.931 234.353 148.078 233.582 148.078 232.508C148.078 231.716 148.015 231.104 147.889 230.672C147.769 230.234 147.595 229.931 147.367 229.763C147.145 229.589 146.884 229.502 146.584 229.502C146.266 229.502 145.981 229.601 145.729 229.799C145.477 229.997 145.246 230.267 145.036 230.609V234.641C145.216 234.923 145.417 235.139 145.639 235.289C145.861 235.439 146.128 235.514 146.44 235.514ZM172.859 230.978C172.859 232.244 172.691 233.288 172.355 234.11C172.025 234.932 171.575 235.574 171.005 236.036C170.435 236.492 169.787 236.813 169.061 236.999C168.341 237.185 167.594 237.278 166.82 237.278H163.454V224.804H166.604C167.402 224.804 168.173 224.888 168.917 225.056C169.667 225.218 170.336 225.521 170.924 225.965C171.518 226.403 171.989 227.027 172.337 227.837C172.685 228.641 172.859 229.688 172.859 230.978ZM169.799 230.978C169.799 229.856 169.676 229.007 169.43 228.431C169.19 227.855 168.86 227.465 168.44 227.261C168.026 227.051 167.558 226.946 167.036 226.946H166.406V235.145H167.036C167.582 235.145 168.062 235.028 168.476 234.794C168.89 234.554 169.214 234.131 169.448 233.525C169.682 232.919 169.799 232.07 169.799 230.978ZM177.037 233.327C177.133 234.107 177.388 234.668 177.802 235.01C178.216 235.346 178.726 235.514 179.332 235.514C179.77 235.514 180.193 235.442 180.601 235.298C181.009 235.154 181.402 234.962 181.78 234.722L182.923 236.27C182.473 236.654 181.927 236.969 181.285 237.215C180.649 237.461 179.923 237.584 179.107 237.584C178.015 237.584 177.1 237.368 176.362 236.936C175.624 236.498 175.069 235.898 174.697 235.136C174.325 234.374 174.139 233.498 174.139 232.508C174.139 231.566 174.319 230.711 174.679 229.943C175.039 229.169 175.564 228.554 176.254 228.098C176.95 227.636 177.799 227.405 178.801 227.405C179.713 227.405 180.502 227.6 181.168 227.99C181.84 228.38 182.359 228.941 182.725 229.673C183.097 230.405 183.283 231.284 183.283 232.31C183.283 232.472 183.277 232.646 183.265 232.832C183.259 233.018 183.247 233.183 183.229 233.327H177.037ZM178.801 229.313C178.291 229.313 177.88 229.496 177.568 229.862C177.256 230.228 177.067 230.813 177.001 231.617H180.511C180.505 230.921 180.37 230.363 180.106 229.943C179.842 229.523 179.407 229.313 178.801 229.313ZM194.382 227.72L191.196 237.278H187.848L184.626 227.72H187.695L189.558 235.1L191.502 227.72H194.382ZM198.622 233.327C198.718 234.107 198.973 234.668 199.387 235.01C199.801 235.346 200.311 235.514 200.917 235.514C201.355 235.514 201.778 235.442 202.186 235.298C202.594 235.154 202.987 234.962 203.365 234.722L204.508 236.27C204.058 236.654 203.512 236.969 202.87 237.215C202.234 237.461 201.508 237.584 200.692 237.584C199.6 237.584 198.685 237.368 197.947 236.936C197.209 236.498 196.654 235.898 196.282 235.136C195.91 234.374 195.724 233.498 195.724 232.508C195.724 231.566 195.904 230.711 196.264 229.943C196.624 229.169 197.149 228.554 197.839 228.098C198.535 227.636 199.384 227.405 200.386 227.405C201.298 227.405 202.087 227.6 202.753 227.99C203.425 228.38 203.944 228.941 204.31 229.673C204.682 230.405 204.868 231.284 204.868 232.31C204.868 232.472 204.862 232.646 204.85 232.832C204.844 233.018 204.832 233.183 204.814 233.327H198.622ZM200.386 229.313C199.876 229.313 199.465 229.496 199.153 229.862C198.841 230.228 198.652 230.813 198.586 231.617H202.096C202.09 230.921 201.955 230.363 201.691 229.943C201.427 229.523 200.992 229.313 200.386 229.313ZM211.935 223.922V234.272C211.935 234.656 212.043 234.932 212.259 235.1C212.481 235.262 212.784 235.343 213.168 235.343C213.414 235.343 213.651 235.316 213.879 235.262C214.107 235.202 214.32 235.133 214.518 235.055L215.202 236.954C214.878 237.122 214.488 237.269 214.032 237.395C213.576 237.521 213.045 237.584 212.439 237.584C211.287 237.584 210.441 237.254 209.901 236.594C209.361 235.928 209.091 235.037 209.091 233.921V225.866H206.274V223.922H211.935ZM221.882 227.405C222.866 227.405 223.703 227.615 224.393 228.035C225.083 228.455 225.611 229.046 225.977 229.808C226.343 230.564 226.526 231.452 226.526 232.472C226.526 234.068 226.118 235.319 225.302 236.225C224.486 237.131 223.346 237.584 221.882 237.584C220.418 237.584 219.278 237.137 218.462 236.243C217.646 235.349 217.238 234.098 217.238 232.49C217.238 231.476 217.421 230.588 217.787 229.826C218.159 229.064 218.69 228.47 219.38 228.044C220.076 227.618 220.91 227.405 221.882 227.405ZM221.882 229.502C221.3 229.502 220.868 229.742 220.586 230.222C220.31 230.696 220.172 231.452 220.172 232.49C220.172 233.546 220.31 234.311 220.586 234.785C220.868 235.259 221.3 235.496 221.882 235.496C222.464 235.496 222.893 235.259 223.169 234.785C223.451 234.311 223.592 233.54 223.592 232.472C223.592 231.44 223.451 230.687 223.169 230.213C222.893 229.739 222.464 229.502 221.882 229.502ZM233.827 227.405C235.075 227.405 235.969 227.861 236.509 228.773C237.049 229.685 237.319 230.918 237.319 232.472C237.319 233.456 237.175 234.335 236.887 235.109C236.599 235.877 236.182 236.483 235.636 236.927C235.09 237.365 234.427 237.584 233.647 237.584C232.717 237.584 231.961 237.251 231.379 236.585V240.968L228.535 241.265V227.72H231.055L231.181 228.791C231.571 228.293 231.997 227.939 232.459 227.729C232.921 227.513 233.377 227.405 233.827 227.405ZM232.945 229.502C232.615 229.502 232.324 229.601 232.072 229.799C231.82 229.997 231.589 230.267 231.379 230.609V234.641C231.577 234.935 231.784 235.151 232 235.289C232.222 235.427 232.483 235.496 232.783 235.496C233.287 235.496 233.68 235.268 233.962 234.812C234.244 234.35 234.385 233.582 234.385 232.508C234.385 231.716 234.328 231.104 234.214 230.672C234.1 230.234 233.935 229.931 233.719 229.763C233.503 229.589 233.245 229.502 232.945 229.502ZM241.794 233.327C241.89 234.107 242.145 234.668 242.559 235.01C242.973 235.346 243.483 235.514 244.089 235.514C244.527 235.514 244.95 235.442 245.358 235.298C245.766 235.154 246.159 234.962 246.537 234.722L247.68 236.27C247.23 236.654 246.684 236.969 246.042 237.215C245.406 237.461 244.68 237.584 243.864 237.584C242.772 237.584 241.857 237.368 241.119 236.936C240.381 236.498 239.826 235.898 239.454 235.136C239.082 234.374 238.896 233.498 238.896 232.508C238.896 231.566 239.076 230.711 239.436 229.943C239.796 229.169 240.321 228.554 241.011 228.098C241.707 227.636 242.556 227.405 243.558 227.405C244.47 227.405 245.259 227.6 245.925 227.99C246.597 228.38 247.116 228.941 247.482 229.673C247.854 230.405 248.04 231.284 248.04 232.31C248.04 232.472 248.034 232.646 248.022 232.832C248.016 233.018 248.004 233.183 247.986 233.327H241.794ZM243.558 229.313C243.048 229.313 242.637 229.496 242.325 229.862C242.013 230.228 241.824 230.813 241.758 231.617H245.268C245.262 230.921 245.127 230.363 244.863 229.943C244.599 229.523 244.164 229.313 243.558 229.313ZM250.211 237.278V235.37H251.471V229.61H250.211V227.72H253.64L254.162 229.871C254.504 229.049 254.939 228.437 255.467 228.035C256.001 227.633 256.652 227.432 257.42 227.432C257.744 227.432 258.032 227.459 258.284 227.513C258.536 227.561 258.773 227.63 258.995 227.72L258.464 231.716H256.682V229.952C256.142 230.048 255.668 230.342 255.26 230.834C254.852 231.32 254.537 231.92 254.315 232.634V235.37H256.205V237.278H250.211Z" fill="white"/>
<path d="M309.064 100.278H294V108.135H309.064V100.278Z" fill="black"/>
<path d="M319.783 109.299H304.719V117.155H319.783V109.299Z" fill="#C6ABFF"/>
<path d="M320.942 118.901H305.877V126.757H320.942V118.901Z" fill="#5200FF"/>
<path d="M168.064 308.278H153V316.135H168.064V308.278Z" fill="black"/>
<path d="M178.783 317.299H163.719V325.155H178.783V317.299Z" fill="#C6ABFF"/>
<path d="M179.942 326.901H164.877V334.757H179.942V326.901Z" fill="#5200FF"/>
<path d="M95.3538 380.278H80.2896V388.135H95.3538V380.278Z" fill="#5200FF"/>
<path d="M96.5125 389.88H81.4482V397.737H96.5125V389.88Z" fill="#C6ABFF"/>
<path d="M113.315 401.811H98.251V409.667H113.315V401.811Z" fill="black"/>
<path d="M95.0643 402.392H80V410.249H95.0643V402.392Z" fill="#5200FF"/>
<path d="M189.315 93.2783H174.25V101.135H189.315V93.2783Z" fill="#5200FF"/>
<path d="M200.034 102.299H184.97V110.155H200.034V102.299Z" fill="#C6ABFF"/>
<path d="M171.064 93.8602H156V101.717H171.064V93.8602Z" fill="#C6ABFF"/>
<path d="M219.444 111.319H204.379V119.175H219.444V111.319Z" fill="black"/>
<path d="M201.193 111.901H186.128V119.757H201.193V111.901Z" fill="#5200FF"/>
<path d="M181.783 102.88H166.719V110.737H181.783V102.88Z" fill="black"/>
<path d="M72.3538 28.2783H57.2896V36.1347H72.3538V28.2783Z" fill="#5200FF"/>
<path d="M73.5125 37.8805H58.4482V45.7369H73.5125V37.8805Z" fill="#C6ABFF"/>
<path d="M90.3152 49.8106H75.251V57.667H90.3152V49.8106Z" fill="black"/>
<path d="M72.0643 50.3925H57V58.2489H72.0643V50.3925Z" fill="#5200FF"/>
<path d="M88.0643 308.278H73V316.135H88.0643V308.278Z" fill="#5200FF"/>
<path d="M98.7835 317.299H83.7192V325.155H98.7835V317.299Z" fill="#C6ABFF"/>
<path d="M118.064 77.2783H103V85.1347H118.064V77.2783Z" fill="#5200FF"/>
<path d="M128.784 86.2986H113.719V94.155H128.784V86.2986Z" fill="#C6ABFF"/>
<path d="M247.066 352.278H233V359.278H247.066V352.278Z" fill="#C6ABFF"/>
<path d="M266 352.278H251.935V359.278H266V352.278Z" fill="#5200FF"/>
<path d="M306.066 246.278H292V253.278H306.066V246.278Z" fill="#C6ABFF"/>
<path d="M325 246.278H310.935V253.278H325V246.278Z" fill="#5200FF"/>
<path d="M287.066 289.278H273V296.278H287.066V289.278Z" fill="#C6ABFF"/>
<path d="M306 289.278H291.935V296.278H306V289.278Z" fill="#5200FF"/>
<path d="M81.0656 139.278H67V146.278H81.0656V139.278Z" fill="#C6ABFF"/>
<path d="M100 139.278H85.9346V146.278H100V139.278Z" fill="#5200FF"/>
<path d="M282.709 53.2688L297.771 53.5223L297.903 45.667L282.841 45.4135L282.709 53.2688Z" fill="#5200FF"/>
<path d="M281.712 43.6484L296.774 43.902L296.906 36.0467L281.844 35.7931L281.712 43.6484Z" fill="#C6ABFF"/>
<path d="M265.113 31.4372L280.175 31.6907L280.307 23.8354L265.245 23.5819L265.113 31.4372Z" fill="black"/>
<path d="M283.37 31.1625L298.433 31.4161L298.565 23.5608L283.503 23.3072L283.37 31.1625Z" fill="#5200FF"/>
<path d="M65.9589 275.547L81.021 275.801L81.1532 267.945L66.0911 267.692L65.9589 275.547Z" fill="#5200FF"/>
<path d="M64.9618 265.927L80.0239 266.18L80.1562 258.325L65.094 258.071L64.9618 265.927Z" fill="#C6ABFF"/>
<path d="M48.3627 253.715L63.4248 253.969L63.557 246.114L48.4949 245.86L48.3627 253.715Z" fill="black"/>
<path d="M66.6205 253.441L81.6826 253.694L81.8149 245.839L66.7527 245.585L66.6205 253.441Z" fill="#5200FF"/>
<path d="M282.959 349.547L298.021 349.801L298.153 341.945L283.091 341.692L282.959 349.547Z" fill="#5200FF"/>
<path d="M281.962 339.927L297.024 340.18L297.156 332.325L282.094 332.071L281.962 339.927Z" fill="#C6ABFF"/>
<path d="M265.363 327.715L280.425 327.969L280.557 320.114L265.495 319.86L265.363 327.715Z" fill="black"/>
<path d="M283.62 327.441L298.683 327.694L298.815 319.839L283.753 319.585L283.62 327.441Z" fill="#5200FF"/>
<path d="M172.315 369.278H157.25V377.135H172.315V369.278Z" fill="#5200FF"/>
<path d="M183.034 378.299H167.97V386.155H183.034V378.299Z" fill="#C6ABFF"/>
<path d="M154.064 369.86H139V377.717H154.064V369.86Z" fill="#C6ABFF"/>
<path d="M202.444 387.319H187.379V395.175H202.444V387.319Z" fill="black"/>
<path d="M184.193 387.901H169.128V395.757H184.193V387.901Z" fill="#5200FF"/>
<path d="M164.783 378.88H149.719V386.737H164.783V378.88Z" fill="black"/>
</g>
<defs>
<linearGradient id="paint0_linear" x1="190.733" y1="592.81" x2="190.733" y2="434.954" gradientUnits="userSpaceOnUse">
<stop stop-color="#808080" stop-opacity="0.25"/>
<stop offset="0.54" stop-color="#808080" stop-opacity="0.12"/>
<stop offset="1" stop-color="#808080" stop-opacity="0.1"/>
</linearGradient>
<linearGradient id="paint1_linear" x1="190.724" y1="496.058" x2="190.724" y2="588.504" gradientUnits="userSpaceOnUse">
<stop stop-color="#4729FF"/>
<stop offset="1" stop-color="#100073"/>
</linearGradient>
<linearGradient id="paint2_linear" x1="95" y1="231.278" x2="281" y2="231.278" gradientUnits="userSpaceOnUse">
<stop stop-color="#5F3AFF"/>
<stop offset="1" stop-color="#3000FF"/>
</linearGradient>
<clipPath id="clip0">
<rect width="375" height="650" fill="white"/>
</clipPath>
<clipPath id="clip1">
<rect width="261" height="229" fill="white" transform="translate(57 421.278)"/>
</clipPath>
</defs>
</svg>
