<svg width="375" height="230" viewBox="0 0 375 230" fill="none" xmlns="http://www.w3.org/2000/svg">
<path d="M0 50C0 22.3858 22.3858 0 50 0H325C352.614 0 375 22.3858 375 50V127C375 154.614 352.614 177 325 177H50C22.3858 177 0 154.614 0 127V50Z" fill="#3F3D56"/>
<path d="M0 230V132.641C152.551 244.611 320.666 63.4672 375 84.7598V230H0Z" fill="#7656FF"/>
<path d="M213.036 138.591C213.036 138.591 228.348 128.649 227.994 121.819C227.64 114.988 218.408 93.4515 218.408 93.4515C218.408 93.4515 211.187 78.2923 208.316 84.4875C205.445 90.6828 212.089 97.2775 212.089 97.2775L216.378 118.404L204.723 129.63L213.036 138.591Z" fill="#FAD3BD"/>
<path d="M174.125 124.787C181.485 124.787 187.453 119.107 187.453 112.102C187.453 105.096 181.485 99.4163 174.125 99.4163C166.764 99.4163 160.797 105.096 160.797 112.102C160.797 119.107 166.764 124.787 174.125 124.787Z" fill="#FAD3BD"/>
<path d="M167.179 120.023L169.387 133.741L185.575 130.853C185.575 130.853 184.84 117.135 184.84 115.691C184.84 114.247 167.179 120.023 167.179 120.023Z" fill="#FAD3BD"/>
<path d="M166.46 133.12C166.46 133.12 184.219 128.887 186.35 130.298C188.481 131.709 199.136 133.12 199.136 133.12L211.212 151.463L207.66 174.745C207.66 174.745 206.95 212.137 208.37 218.487C209.791 224.836 217.605 225.542 201.267 226.953C184.929 228.364 182.088 226.247 170.722 229.069C159.357 231.891 150.122 227.658 152.964 224.836C155.805 222.014 160.777 176.862 155.095 172.629C149.412 168.396 147.281 146.525 147.281 146.525C147.281 146.525 166.46 136.648 166.46 133.12Z" fill="#393939"/>
<path d="M197.214 135.223L199.382 133.112L203.717 128.891C203.717 128.891 217.808 134.871 217.085 136.982C216.363 139.092 211.666 151.405 211.666 151.405L205.163 153.515L197.214 135.223Z" fill="#2F2F2F"/>
<path d="M178.546 95.9767L178.412 94.9605C177.526 94.9556 176.645 95.0904 175.803 95.3595C175.717 94.7467 175.772 94.123 175.964 93.5334C175.109 93.7475 174.294 94.0923 173.549 94.555L173.023 92.7005L165.782 96.1725C163.183 97.4188 160.443 98.7884 158.957 101.209C157.3 103.907 157.589 107.375 158.721 110.319C159.853 113.263 161.735 115.868 163.243 118.647C163.816 119.842 164.504 120.982 165.298 122.05C168.031 125.365 173.351 126.035 177.205 124.034C178.627 123.296 179.919 122.192 180.504 120.731C180.854 119.857 180.934 118.906 181.163 117.995C181.64 116.101 182.193 112.191 183.774 110.992C184.47 110.465 185.85 112.213 186.426 111.564C187.908 109.895 187.597 107.321 186.677 105.306C185.794 103.282 184.761 101.322 183.587 99.4427C183.09 98.6871 178.53 95.8548 178.546 95.9767Z" fill="#212121"/>
<path d="M136.194 163.216C136.194 163.216 119.041 179.625 121.185 188.186C123.33 196.747 140.483 221.718 140.483 221.718C140.483 221.718 156.921 230.279 159.065 221.718C161.209 213.157 147.63 215.297 147.63 215.297L136.909 189.613L149.059 172.49L136.194 163.216Z" fill="#FAD3BD"/>
<path d="M156.413 147.476L147.768 146.053C147.768 146.053 141.284 153.168 139.122 156.014C136.961 158.86 132.639 165.975 132.639 165.975L147.768 176.647L159.295 164.552L156.413 147.476Z" fill="#2F2F2F"/>
</svg>
