<svg width="1440" height="898" viewBox="0 0 1440 898" fill="none" xmlns="http://www.w3.org/2000/svg">
<rect width="1440" height="898" fill="white"/>
<rect width="1440" height="898" fill="#5F3AFF"/>
<path d="M341.6 499.8C348.267 502.733 351.6 507.667 351.6 514.6C351.6 519.933 349.733 524.333 346 527.8C342.533 531 338.133 532.6 332.8 532.6C329.067 532.6 325.733 531.933 322.8 530.6L174.4 467.4C168.8 465 164.4 461.533 161.2 457C158 452.2 156.4 446.733 156.4 440.6C156.4 434.733 158 429.4 161.2 424.6C164.4 419.8 168.8 416.333 174.4 414.2L322.8 350.6C326.267 349.267 329.6 348.6 332.8 348.6C338.133 348.6 342.533 350.333 346 353.8C349.733 357 351.6 361.267 351.6 366.6C351.6 373.533 348.267 378.467 341.6 381.4L200.4 440.6L341.6 499.8ZM698.834 414.2C704.434 416.333 708.834 419.8 712.034 424.6C715.234 429.4 716.834 434.733 716.834 440.6C716.834 446.733 715.234 452.2 712.034 457C708.834 461.533 704.434 465 698.834 467.4L550.434 530.6C547.501 531.933 544.168 532.6 540.434 532.6C535.101 532.6 530.568 531 526.834 527.8C523.368 524.333 521.634 519.933 521.634 514.6C521.634 507.667 524.968 502.733 531.634 499.8L672.834 440.6L531.634 381.4C524.968 378.467 521.634 373.533 521.634 366.6C521.634 361.267 523.368 357 526.834 353.8C530.568 350.333 535.101 348.6 540.434 348.6C543.634 348.6 546.968 349.267 550.434 350.6L698.834 414.2Z" fill="white"/>
<path d="M409.044 568.6C407.444 573.667 404.91 577.4 401.444 579.8C397.977 582.2 394.11 583.4 389.844 583.4C384.51 583.4 379.71 581.533 375.444 577.8C371.444 574.333 369.444 569.8 369.444 564.2C369.444 561.8 369.844 559.4 370.644 557L463.444 266.2C465.044 261.133 467.577 257.4 471.044 255C474.51 252.6 478.377 251.4 482.644 251.4C487.977 251.4 492.644 253.267 496.644 257C500.91 260.467 503.044 265 503.044 270.6C503.044 273 502.644 275.4 501.844 277.8L409.044 568.6Z" fill="#383838"/>
<g clip-path="url(#clip0)">
<path d="M1163.55 596.127C1163.55 596.127 1174.76 672.867 1240.34 698.365L1107.57 698.547L974.795 698.728C1040.31 673.055 1051.32 596.26 1051.32 596.26L1163.55 596.127Z" fill="#E0E0E0"/>
<path d="M1241.52 698.355L973.474 698.729L973.497 714.942L1241.54 714.568L1241.52 698.355Z" fill="url(#paint0_linear)"/>
<path d="M1240.35 698.356L974.806 698.727L974.824 711.232L1240.36 710.861L1240.35 698.356Z" fill="#F5F5F5"/>
<path d="M1322.99 320L891.151 320.593C886.373 320.593 882.501 324.656 882.508 329.654L882.843 581.426V589.791C882.843 608.918 897.722 624.407 916.012 624.379L1298.92 623.849C1317.22 623.849 1332.03 608.298 1332 589.171V580.806L1331.67 329.034C1331.66 324.036 1327.77 319.993 1322.99 320Z" fill="url(#paint1_linear)"/>
<path d="M895.273 328.225H1318.58C1320.57 328.225 1322.48 329.015 1323.88 330.42C1325.29 331.825 1326.08 333.731 1326.08 335.719V576.4H887.768V335.719C887.768 333.731 888.558 331.825 889.964 330.42C891.37 329.015 893.278 328.225 895.266 328.225H895.273Z" fill="white"/>
<path d="M1297.91 616.412L917.044 616.935C913.272 616.945 909.534 616.212 906.046 614.777C902.557 613.343 899.385 611.235 896.712 608.575C894.039 605.915 891.917 602.754 890.467 599.274C889.017 595.794 888.268 592.062 888.263 588.292V576.045L1326.57 575.438V587.693C1326.58 595.299 1323.57 602.598 1318.19 607.983C1312.82 613.369 1305.52 616.401 1297.91 616.412Z" fill="#F5F5F5"/>
<path d="M1306.26 347.377L909.618 347.93L909.898 548.273L1306.54 547.719L1306.26 347.377Z" fill="#D4CAFF"/>
<path d="M1026.83 423.335L844.307 423.59C837.692 423.599 832.337 428.965 832.346 435.575L832.76 731.478C832.769 738.088 838.139 743.439 844.754 743.43L1027.28 743.175C1033.89 743.166 1039.25 737.8 1039.24 731.19L1038.82 435.287C1038.81 428.677 1033.44 423.326 1026.83 423.335Z" fill="url(#paint2_linear)"/>
<path d="M1025.13 447.77L846.817 448.019L847.192 716.276L1025.5 716.027L1025.13 447.77Z" fill="url(#paint3_linear)"/>
<path d="M1020.56 428.182L850.598 428.419C843.984 428.428 838.629 433.794 838.638 440.404L839.031 721.578C839.04 728.188 844.41 733.539 851.025 733.53L1020.98 733.292C1027.6 733.283 1032.95 727.917 1032.94 721.307L1032.55 440.134C1032.54 433.523 1027.17 428.172 1020.56 428.182Z" fill="white"/>
<path d="M1019.36 452.038H851.906V707.943H1019.36V452.038Z" fill="#D4CAFF"/>
<path d="M936.08 727.712C939.891 727.712 942.979 724.55 942.979 720.651C942.979 716.751 939.891 713.589 936.08 713.589C932.27 713.589 929.182 716.751 929.182 720.651C929.182 724.55 932.27 727.712 936.08 727.712Z" fill="#DBDBDB"/>
<path d="M906.967 442.937C908.239 442.935 909.268 441.879 909.266 440.578C909.264 439.276 908.232 438.223 906.961 438.225C905.69 438.227 904.66 439.283 904.662 440.584C904.664 441.885 905.696 442.939 906.967 442.937Z" fill="#DBDBDB"/>
<path d="M947.365 439.109L919.456 439.148C918.905 439.149 918.459 439.596 918.459 440.146L918.46 440.509C918.461 441.059 918.908 441.505 919.459 441.504L947.368 441.465C947.919 441.465 948.365 441.018 948.364 440.467L948.364 440.105C948.363 439.554 947.916 439.109 947.365 439.109Z" fill="#DBDBDB"/>
<path d="M893.703 500.051L770.961 500.223C767.109 500.228 763.99 503.353 763.995 507.203L764.323 742.036C764.329 745.886 767.456 749.002 771.309 748.997L894.051 748.826C897.903 748.82 901.022 745.695 901.017 741.845L900.689 507.012C900.683 503.163 897.556 500.046 893.703 500.051Z" fill="url(#paint4_linear)"/>
<path d="M890.57 504.154L774.12 504.317C770.267 504.322 767.149 507.448 767.154 511.297L767.468 736.267C767.474 740.117 770.601 743.233 774.454 743.228L890.904 743.065C894.756 743.06 897.875 739.935 897.87 736.085L897.555 511.115C897.55 507.266 894.422 504.149 890.57 504.154Z" fill="white"/>
<path d="M882.844 521.055L781.886 521.196L782.158 715.62L883.115 715.48L882.844 521.055Z" fill="#D4CAFF"/>
<path d="M831.935 738.077C836.381 738.077 839.985 734.388 839.985 729.838C839.985 725.287 836.381 721.598 831.935 721.598C827.489 721.598 823.885 725.287 823.885 729.838C823.885 734.388 827.489 738.077 831.935 738.077Z" fill="#DBDBDB"/>
<path d="M817.068 513.73C817.958 513.729 818.678 512.992 818.677 512.083C818.675 511.175 817.953 510.439 817.063 510.44C816.173 510.442 815.453 511.179 815.454 512.088C815.455 512.996 816.178 513.732 817.068 513.73Z" fill="#DBDBDB"/>
<path d="M848.209 510.801L825.351 510.833C824.773 510.834 824.305 511.303 824.306 511.88L824.306 512.263C824.307 512.841 824.776 513.308 825.354 513.308L848.213 513.276C848.791 513.275 849.259 512.806 849.258 512.229L849.257 511.845C849.256 511.268 848.787 510.8 848.209 510.801Z" fill="#DBDBDB"/>
</g>
<path d="M190.052 205.096C191.852 205.888 192.752 207.22 192.752 209.092C192.752 210.532 192.248 211.72 191.24 212.656C190.304 213.52 189.116 213.952 187.676 213.952C186.668 213.952 185.768 213.772 184.976 213.412L144.908 196.348C143.396 195.7 142.208 194.764 141.344 193.54C140.48 192.244 140.048 190.768 140.048 189.112C140.048 187.528 140.48 186.088 141.344 184.792C142.208 183.496 143.396 182.56 144.908 181.984L184.976 164.812C185.912 164.452 186.812 164.272 187.676 164.272C189.116 164.272 190.304 164.74 191.24 165.676C192.248 166.54 192.752 167.692 192.752 169.132C192.752 171.004 191.852 172.336 190.052 173.128L151.928 189.112L190.052 205.096ZM274.574 143.32C276.59 143.32 278.21 143.968 279.434 145.264C280.658 146.488 281.27 148.144 281.27 150.232V214.168C281.27 216.184 280.694 217.768 279.542 218.92C278.39 220.072 276.878 220.648 275.006 220.648C273.134 220.648 271.658 220.072 270.578 218.92C269.498 217.768 268.958 216.184 268.958 214.168V169.672L250.598 204.448C249.734 206.032 248.798 207.22 247.79 208.012C246.782 208.732 245.594 209.092 244.226 209.092C242.858 209.092 241.67 208.732 240.662 208.012C239.654 207.292 238.718 206.104 237.854 204.448L219.386 170.212V214.168C219.386 216.112 218.81 217.696 217.658 218.92C216.578 220.072 215.102 220.648 213.23 220.648C211.358 220.648 209.882 220.072 208.802 218.92C207.722 217.768 207.182 216.184 207.182 214.168V150.232C207.182 148.144 207.758 146.488 208.91 145.264C210.134 143.968 211.754 143.32 213.77 143.32C216.578 143.32 218.774 144.868 220.358 147.964L244.334 193.648L268.202 147.964C269.786 144.868 271.91 143.32 274.574 143.32ZM320.67 220.864C315.27 220.864 310.518 219.748 306.414 217.516C302.382 215.284 299.25 212.08 297.018 207.904C294.786 203.728 293.67 198.868 293.67 193.324C293.67 187.78 294.786 182.956 297.018 178.852C299.25 174.676 302.382 171.472 306.414 169.24C310.518 167.008 315.27 165.892 320.67 165.892C326.07 165.892 330.786 167.008 334.818 169.24C338.922 171.472 342.054 174.676 344.214 178.852C346.446 182.956 347.562 187.78 347.562 193.324C347.562 198.868 346.446 203.728 344.214 207.904C342.054 212.08 338.922 215.284 334.818 217.516C330.786 219.748 326.07 220.864 320.67 220.864ZM320.562 210.388C324.954 210.388 328.302 208.948 330.606 206.068C332.91 203.188 334.062 198.94 334.062 193.324C334.062 187.78 332.91 183.568 330.606 180.688C328.302 177.736 324.99 176.26 320.67 176.26C316.35 176.26 313.002 177.736 310.626 180.688C308.322 183.568 307.17 187.78 307.17 193.324C307.17 198.94 308.322 203.188 310.626 206.068C312.93 208.948 316.242 210.388 320.562 210.388ZM389.056 165.892C393.664 165.892 397.732 167.008 401.26 169.24C404.788 171.472 407.524 174.64 409.468 178.744C411.484 182.848 412.492 187.636 412.492 193.108C412.492 198.58 411.484 203.44 409.468 207.688C407.524 211.864 404.752 215.104 401.152 217.408C397.624 219.712 393.592 220.864 389.056 220.864C385.24 220.864 381.82 220.036 378.796 218.38C375.844 216.724 373.576 214.42 371.992 211.468V214.168C371.992 216.112 371.38 217.66 370.156 218.812C368.932 219.964 367.312 220.54 365.296 220.54C363.28 220.54 361.66 219.964 360.436 218.812C359.284 217.66 358.708 216.112 358.708 214.168V149.584C358.708 147.712 359.32 146.2 360.544 145.048C361.84 143.896 363.496 143.32 365.512 143.32C367.528 143.32 369.148 143.86 370.372 144.94C371.596 146.02 372.208 147.496 372.208 149.368V174.856C373.792 171.976 376.06 169.78 379.012 168.268C381.964 166.684 385.312 165.892 389.056 165.892ZM385.492 210.388C389.74 210.388 393.052 208.876 395.428 205.852C397.804 202.828 398.992 198.58 398.992 193.108C398.992 187.708 397.804 183.568 395.428 180.688C393.124 177.808 389.812 176.368 385.492 176.368C381.172 176.368 377.824 177.844 375.448 180.796C373.144 183.676 371.992 187.852 371.992 193.324C371.992 198.796 373.144 203.008 375.448 205.96C377.824 208.912 381.172 210.388 385.492 210.388ZM430.267 220.648C428.323 220.648 426.703 220.108 425.407 219.028C424.183 217.876 423.571 216.256 423.571 214.168V172.48C423.571 170.392 424.183 168.808 425.407 167.728C426.703 166.648 428.323 166.108 430.267 166.108C432.211 166.108 433.831 166.648 435.127 167.728C436.423 168.808 437.071 170.392 437.071 172.48V214.168C437.071 216.256 436.423 217.876 435.127 219.028C433.831 220.108 432.211 220.648 430.267 220.648ZM430.267 156.496C427.819 156.496 425.875 155.848 424.435 154.552C422.995 153.184 422.275 151.42 422.275 149.26C422.275 147.1 422.995 145.372 424.435 144.076C425.875 142.78 427.819 142.132 430.267 142.132C432.643 142.132 434.551 142.78 435.991 144.076C437.503 145.372 438.259 147.1 438.259 149.26C438.259 151.42 437.539 153.184 436.099 154.552C434.659 155.848 432.715 156.496 430.267 156.496ZM457.689 220.648C455.745 220.648 454.125 220.108 452.829 219.028C451.605 217.876 450.993 216.256 450.993 214.168V149.692C450.993 147.604 451.605 146.02 452.829 144.94C454.125 143.86 455.745 143.32 457.689 143.32C459.633 143.32 461.253 143.86 462.549 144.94C463.845 146.02 464.493 147.604 464.493 149.692V214.168C464.493 216.256 463.845 217.876 462.549 219.028C461.253 220.108 459.633 220.648 457.689 220.648ZM520.211 205.528C521.435 205.528 522.407 205.996 523.127 206.932C523.919 207.868 524.315 209.128 524.315 210.712C524.315 212.944 522.983 214.816 520.319 216.328C517.871 217.696 515.099 218.812 512.003 219.676C508.907 220.468 505.955 220.864 503.147 220.864C494.651 220.864 487.919 218.416 482.951 213.52C477.983 208.624 475.499 201.928 475.499 193.432C475.499 188.032 476.579 183.244 478.739 179.068C480.899 174.892 483.923 171.652 487.811 169.348C491.771 167.044 496.235 165.892 501.203 165.892C505.955 165.892 510.095 166.936 513.623 169.024C517.151 171.112 519.887 174.064 521.831 177.88C523.775 181.696 524.747 186.196 524.747 191.38C524.747 194.476 523.379 196.024 520.643 196.024H488.783C489.215 200.992 490.619 204.664 492.995 207.04C495.371 209.344 498.827 210.496 503.363 210.496C505.667 210.496 507.683 210.208 509.411 209.632C511.211 209.056 513.227 208.264 515.459 207.256C517.619 206.104 519.203 205.528 520.211 205.528ZM501.527 175.396C497.855 175.396 494.903 176.548 492.671 178.852C490.511 181.156 489.215 184.468 488.783 188.788H513.191C513.047 184.396 511.967 181.084 509.951 178.852C507.935 176.548 505.127 175.396 501.527 175.396ZM543.89 220.648C541.802 220.648 540.11 220 538.814 218.704C537.59 217.408 536.978 215.716 536.978 213.628V150.448C536.978 148.36 537.554 146.74 538.706 145.588C539.93 144.436 541.586 143.86 543.674 143.86H581.582C585.974 143.86 588.17 145.732 588.17 149.476C588.17 153.148 585.974 154.984 581.582 154.984H550.694V175.72H579.422C583.814 175.72 586.01 177.592 586.01 181.336C586.01 185.008 583.814 186.844 579.422 186.844H550.694V213.628C550.694 215.716 550.082 217.408 548.858 218.704C547.634 220 545.978 220.648 543.89 220.648ZM625.391 166.108C627.263 165.964 628.739 166.36 629.819 167.296C630.899 168.232 631.439 169.636 631.439 171.508C631.439 173.452 630.971 174.892 630.035 175.828C629.099 176.764 627.407 177.376 624.959 177.664L621.719 177.988C617.471 178.42 614.339 179.86 612.323 182.308C610.379 184.756 609.407 187.816 609.407 191.488V214.168C609.407 216.256 608.759 217.876 607.463 219.028C606.167 220.108 604.547 220.648 602.603 220.648C600.659 220.648 599.039 220.108 597.743 219.028C596.519 217.876 595.907 216.256 595.907 214.168V172.372C595.907 170.356 596.519 168.808 597.743 167.728C599.039 166.648 600.623 166.108 602.495 166.108C604.367 166.108 605.879 166.648 607.031 167.728C608.183 168.736 608.759 170.212 608.759 172.156V176.476C610.127 173.308 612.143 170.86 614.807 169.132C617.543 167.404 620.567 166.432 623.879 166.216L625.391 166.108ZM643.946 220.648C642.002 220.648 640.382 220.108 639.086 219.028C637.862 217.876 637.25 216.256 637.25 214.168V172.48C637.25 170.392 637.862 168.808 639.086 167.728C640.382 166.648 642.002 166.108 643.946 166.108C645.89 166.108 647.51 166.648 648.806 167.728C650.102 168.808 650.75 170.392 650.75 172.48V214.168C650.75 216.256 650.102 217.876 648.806 219.028C647.51 220.108 645.89 220.648 643.946 220.648ZM643.946 156.496C641.498 156.496 639.554 155.848 638.114 154.552C636.674 153.184 635.954 151.42 635.954 149.26C635.954 147.1 636.674 145.372 638.114 144.076C639.554 142.78 641.498 142.132 643.946 142.132C646.322 142.132 648.23 142.78 649.67 144.076C651.182 145.372 651.938 147.1 651.938 149.26C651.938 151.42 651.218 153.184 649.778 154.552C648.338 155.848 646.394 156.496 643.946 156.496ZM706.468 205.528C707.692 205.528 708.664 205.996 709.384 206.932C710.176 207.868 710.572 209.128 710.572 210.712C710.572 212.944 709.24 214.816 706.576 216.328C704.128 217.696 701.356 218.812 698.26 219.676C695.164 220.468 692.212 220.864 689.404 220.864C680.908 220.864 674.176 218.416 669.208 213.52C664.24 208.624 661.756 201.928 661.756 193.432C661.756 188.032 662.836 183.244 664.996 179.068C667.156 174.892 670.18 171.652 674.068 169.348C678.028 167.044 682.492 165.892 687.46 165.892C692.212 165.892 696.352 166.936 699.88 169.024C703.408 171.112 706.144 174.064 708.088 177.88C710.032 181.696 711.004 186.196 711.004 191.38C711.004 194.476 709.636 196.024 706.9 196.024H675.04C675.472 200.992 676.876 204.664 679.252 207.04C681.628 209.344 685.084 210.496 689.62 210.496C691.924 210.496 693.94 210.208 695.668 209.632C697.468 209.056 699.484 208.264 701.716 207.256C703.876 206.104 705.46 205.528 706.468 205.528ZM687.784 175.396C684.112 175.396 681.16 176.548 678.928 178.852C676.768 181.156 675.472 184.468 675.04 188.788H699.448C699.304 184.396 698.224 181.084 696.208 178.852C694.192 176.548 691.384 175.396 687.784 175.396ZM752.719 165.892C759.055 165.892 763.771 167.692 766.867 171.292C769.963 174.892 771.511 180.328 771.511 187.6V214.168C771.511 216.184 770.899 217.768 769.675 218.92C768.523 220.072 766.903 220.648 764.815 220.648C762.727 220.648 761.071 220.072 759.847 218.92C758.623 217.768 758.011 216.184 758.011 214.168V188.356C758.011 184.252 757.219 181.264 755.635 179.392C754.123 177.52 751.711 176.584 748.399 176.584C744.511 176.584 741.379 177.808 739.003 180.256C736.699 182.704 735.547 185.98 735.547 190.084V214.168C735.547 216.184 734.935 217.768 733.711 218.92C732.487 220.072 730.831 220.648 728.743 220.648C726.655 220.648 724.999 220.072 723.775 218.92C722.623 217.768 722.047 216.184 722.047 214.168V172.372C722.047 170.5 722.659 168.988 723.883 167.836C725.107 166.684 726.763 166.108 728.851 166.108C730.723 166.108 732.235 166.684 733.387 167.836C734.611 168.916 735.223 170.356 735.223 172.156V175.072C737.023 172.12 739.435 169.852 742.459 168.268C745.483 166.684 748.903 165.892 752.719 165.892ZM829.287 143.32C831.303 143.32 832.959 143.896 834.255 145.048C835.551 146.2 836.199 147.712 836.199 149.584V214.168C836.199 216.112 835.587 217.66 834.363 218.812C833.139 219.964 831.519 220.54 829.503 220.54C827.487 220.54 825.867 219.964 824.643 218.812C823.419 217.66 822.807 216.112 822.807 214.168V211.468C821.223 214.42 818.919 216.724 815.895 218.38C812.943 220.036 809.559 220.864 805.743 220.864C801.207 220.864 797.139 219.712 793.539 217.408C790.011 215.104 787.239 211.864 785.223 207.688C783.279 203.44 782.307 198.58 782.307 193.108C782.307 187.636 783.279 182.848 785.223 178.744C787.239 174.64 790.011 171.472 793.539 169.24C797.067 167.008 801.135 165.892 805.743 165.892C809.559 165.892 812.943 166.684 815.895 168.268C818.847 169.852 821.115 172.084 822.699 174.964V149.368C822.699 147.568 823.275 146.128 824.427 145.048C825.651 143.896 827.271 143.32 829.287 143.32ZM809.307 210.388C813.627 210.388 816.939 208.912 819.243 205.96C821.619 203.008 822.807 198.796 822.807 193.324C822.807 187.852 821.619 183.676 819.243 180.796C816.939 177.844 813.663 176.368 809.415 176.368C805.095 176.368 801.747 177.808 799.371 180.688C796.995 183.568 795.807 187.708 795.807 193.108C795.807 198.58 796.995 202.828 799.371 205.852C801.747 208.876 805.059 210.388 809.307 210.388ZM856.782 220.648C854.838 220.648 853.218 220.108 851.922 219.028C850.698 217.876 850.086 216.256 850.086 214.168V149.692C850.086 147.604 850.698 146.02 851.922 144.94C853.218 143.86 854.838 143.32 856.782 143.32C858.726 143.32 860.346 143.86 861.642 144.94C862.938 146.02 863.586 147.604 863.586 149.692V214.168C863.586 216.256 862.938 217.876 861.642 219.028C860.346 220.108 858.726 220.648 856.782 220.648ZM914.336 169.996C914.912 168.7 915.668 167.764 916.604 167.188C917.612 166.54 918.692 166.216 919.844 166.216C921.5 166.216 922.976 166.792 924.272 167.944C925.64 169.024 926.324 170.392 926.324 172.048C926.324 172.84 926.108 173.668 925.676 174.532L896.192 236.308C894.968 238.756 893.06 239.98 890.468 239.98C888.812 239.98 887.336 239.44 886.04 238.36C884.816 237.352 884.204 236.056 884.204 234.472C884.204 233.68 884.42 232.78 884.852 231.772L892.196 216.328L872.108 174.532C871.748 173.812 871.568 172.984 871.568 172.048C871.568 170.392 872.252 168.988 873.62 167.836C875.06 166.684 876.68 166.108 878.48 166.108C879.704 166.108 880.82 166.432 881.828 167.08C882.836 167.656 883.628 168.592 884.204 169.888L899.324 203.26L914.336 169.996ZM1015.08 181.984C1016.6 182.56 1017.78 183.496 1018.65 184.792C1019.51 186.088 1019.94 187.528 1019.94 189.112C1019.94 190.768 1019.51 192.244 1018.65 193.54C1017.78 194.764 1016.6 195.7 1015.08 196.348L975.015 213.412C974.223 213.772 973.323 213.952 972.315 213.952C970.875 213.952 969.651 213.52 968.643 212.656C967.707 211.72 967.239 210.532 967.239 209.092C967.239 207.22 968.139 205.888 969.939 205.096L1008.06 189.112L969.939 173.128C968.139 172.336 967.239 171.004 967.239 169.132C967.239 167.692 967.707 166.54 968.643 165.676C969.651 164.74 970.875 164.272 972.315 164.272C973.179 164.272 974.079 164.452 975.015 164.812L1015.08 181.984Z" fill="white"/>
<path d="M936.84 223.672C936.408 225.04 935.724 226.048 934.788 226.696C933.852 227.344 932.808 227.668 931.656 227.668C930.216 227.668 928.92 227.164 927.768 226.156C926.688 225.22 926.148 223.996 926.148 222.484C926.148 221.836 926.256 221.188 926.472 220.54L951.528 142.024C951.96 140.656 952.644 139.648 953.58 139C954.516 138.352 955.56 138.028 956.712 138.028C958.152 138.028 959.412 138.532 960.492 139.54C961.644 140.476 962.22 141.7 962.22 143.212C962.22 143.86 962.112 144.508 961.896 145.156L936.84 223.672Z" fill="#383838"/>
<defs>
<linearGradient id="paint0_linear" x1="1107.54" y1="714.741" x2="1107.52" y2="698.521" gradientUnits="userSpaceOnUse">
<stop stop-color="#808080" stop-opacity="0.25"/>
<stop offset="0.54" stop-color="#808080" stop-opacity="0.12"/>
<stop offset="1" stop-color="#808080" stop-opacity="0.1"/>
</linearGradient>
<linearGradient id="paint1_linear" x1="308825" y1="183459" x2="308825" y2="50265.6" gradientUnits="userSpaceOnUse">
<stop stop-color="#808080" stop-opacity="0.25"/>
<stop offset="0.54" stop-color="#808080" stop-opacity="0.12"/>
<stop offset="1" stop-color="#808080" stop-opacity="0.1"/>
</linearGradient>
<linearGradient id="paint2_linear" x1="91825.5" y1="244739" x2="91619.8" y2="97312.8" gradientUnits="userSpaceOnUse">
<stop stop-color="#808080" stop-opacity="0.25"/>
<stop offset="0.54" stop-color="#808080" stop-opacity="0.12"/>
<stop offset="1" stop-color="#808080" stop-opacity="0.1"/>
</linearGradient>
<linearGradient id="paint3_linear" x1="936.357" y1="718.437" x2="935.981" y2="448.945" gradientUnits="userSpaceOnUse">
<stop stop-opacity="0.09"/>
<stop offset="0.55" stop-opacity="0.07"/>
<stop offset="1" stop-opacity="0.02"/>
</linearGradient>
<linearGradient id="paint4_linear" x1="40795.2" y1="192566" x2="40671" y2="103495" gradientUnits="userSpaceOnUse">
<stop stop-color="#808080" stop-opacity="0.25"/>
<stop offset="0.54" stop-color="#808080" stop-opacity="0.12"/>
<stop offset="1" stop-color="#808080" stop-opacity="0.1"/>
</linearGradient>
<clipPath id="clip0">
<rect width="568" height="429" fill="white" transform="translate(764 320)"/>
</clipPath>
</defs>
</svg>
