<svg width="298" height="508" viewBox="0 0 298 508" fill="none" xmlns="http://www.w3.org/2000/svg">
<g clip-path="url(#clip0)">
<path d="M254.286 361.347H239.222V369.203H254.286V361.347Z" fill="#5200FF"/>
<path d="M255.445 370.949H240.381V378.806H255.445V370.949Z" fill="#C6ABFF"/>
<path d="M242.988 304.315H227.924V312.171H242.988V304.315Z" fill="#5200FF"/>
<path d="M253.707 313.335H238.642V321.192H253.707V313.335Z" fill="#C6ABFF"/>
<path d="M224.737 304.897H209.673V312.753H224.737V304.897Z" fill="#C6ABFF"/>
<path d="M273.116 322.356H258.052V330.212H273.116V322.356Z" fill="black"/>
<path d="M254.865 322.938H239.801V330.794H254.865V322.938Z" fill="#5200FF"/>
<path d="M235.456 313.917H220.391V321.774H235.456V313.917Z" fill="black"/>
<path d="M272.247 382.879H257.183V390.736H272.247V382.879Z" fill="black"/>
<path d="M253.996 383.461H238.932V391.318H253.996V383.461Z" fill="#5200FF"/>
<path d="M55.878 359.31C55.878 359.31 77.1099 380.636 65.1251 412.268C53.1403 443.9 85.6676 496.547 85.6676 496.547C85.6676 496.547 85.3199 496.495 84.6739 496.381C41.0686 488.65 19.4022 438.558 43.6614 401.356C52.6652 387.509 60.0641 371.281 55.878 359.31Z" fill="#5F3AFF"/>
<path d="M55.8779 359.31C55.8779 359.31 67.8627 385.452 55.8779 406.774C43.8931 428.097 53.8239 487.957 85.6704 496.547" stroke="#535461" stroke-width="2" stroke-miterlimit="10"/>
<path d="M18.0608 445.562C18.0608 445.562 42.2882 441.686 44.4957 463.495C46.7032 485.304 91.0848 488.327 91.0848 488.327C91.0848 488.327 90.7951 488.525 90.2534 488.883C53.6096 513.034 18.5822 504.273 23.8634 472.192C25.8247 460.265 25.6625 448.285 18.0608 445.562Z" fill="#5F3AFF"/>
<path opacity="0.2" d="M18.0608 445.562C18.0608 445.562 42.2882 441.686 44.4957 463.495C46.7032 485.304 91.0848 488.327 91.0848 488.327C91.0848 488.327 90.7951 488.525 90.2534 488.883C53.6096 513.034 18.5822 504.273 23.8634 472.192C25.8247 460.265 25.6625 448.285 18.0608 445.562Z" fill="#F5F5F5"/>
<path d="M18.0608 445.562C18.0608 445.562 36.8651 449.708 35.321 466.882C33.7769 484.056 63.2478 504.654 91.0848 488.327" stroke="#535461" stroke-width="2" stroke-miterlimit="10"/>
<path d="M33.2469 361.638H18.1826V369.494H33.2469V361.638Z" fill="black"/>
<path d="M43.9656 370.658H28.9014V378.515H43.9656V370.658Z" fill="#C6ABFF"/>
<path d="M125.371 279H110.306V286.856H125.371V279Z" fill="#5200FF"/>
<path d="M244.147 423.907H229.082V431.764H244.147V423.907Z" fill="#C6ABFF"/>
<path d="M45.1246 380.26H30.0603V388.117H45.1246V380.26Z" fill="#5200FF"/>
<path d="M136.089 288.021H121.025V295.877H136.089V288.021Z" fill="#C6ABFF"/>
<path d="M81.0469 341.27H65.9827V349.126H81.0469V341.27Z" fill="black"/>
<path d="M91.7657 350.29H76.7014V358.146H91.7657V350.29Z" fill="#5200FF"/>
<path d="M120.446 345.343H105.382V353.2H120.446V345.343Z" fill="#5200FF"/>
<path d="M92.9246 359.892H77.8604V367.749H92.9246V359.892Z" fill="#C6ABFF"/>
<path d="M264.425 423.907H249.361V431.764H264.425V423.907Z" fill="#5200FF"/>
<path d="M226.77 392.804C225.795 387.352 225.197 381.838 224.98 376.303C224.788 371.744 223.196 367.357 220.423 363.743C217.65 360.128 213.832 357.464 209.493 356.115C207.911 355.626 206.17 355.169 204.246 354.759C187.386 351.162 182.264 354.302 181.682 354.715C181.189 353.815 180.76 352.88 180.399 351.919C180.37 351.82 180.344 351.721 180.315 351.628C183.651 348.054 185.685 343.45 186.082 338.566C188.895 335.703 190.538 332.246 190.538 328.524C190.538 325.324 189.321 322.321 187.192 319.722V314.665C187.192 308.833 184.885 303.24 180.78 299.116C176.674 294.992 171.106 292.676 165.3 292.676H163.524C160.649 292.676 157.802 293.245 155.146 294.35C152.49 295.455 150.076 297.074 148.043 299.116C146.01 301.158 144.398 303.582 143.298 306.25C142.197 308.918 141.631 311.777 141.631 314.665V320.115C139.699 322.62 138.604 325.481 138.604 328.518C138.604 332.162 140.18 335.549 142.886 338.377C143.255 343.439 145.382 348.211 148.894 351.861C149.013 352.687 149.134 353.575 149.253 354.512L119.096 360.91C119.096 360.91 107.467 361.39 99.9756 376.914C93.64 390.063 81.0323 423.846 77.2981 433.902C76.6231 435.724 76.2407 436.768 76.2407 436.768C76.2407 436.768 76.3653 436.643 76.6 436.428L76.2407 437.408C76.2407 437.408 76.4232 437.222 76.7709 436.917C76.2436 441.124 76.1683 448.349 81.6552 449.248C86.2556 450.002 98.11 450.313 107.065 450.438H107.684C113.62 450.517 118.137 450.517 118.137 450.517V450.438H214.444V449.446C214.445 448.546 214.265 447.655 213.914 446.827L214.047 446.664C214.562 447.348 214.905 448.147 215.046 448.992C215.035 449.075 215.02 449.156 215 449.237L215.058 449.088C215.081 449.353 215.061 449.619 215 449.877C215 449.877 227.356 417.901 227.222 398.807C227.258 396.797 227.106 394.787 226.77 392.804V392.804ZM149.754 358.833C149.595 357.92 149.492 356.999 149.447 356.074C149.447 356.074 149.447 356.057 149.447 356.048C149.554 356.947 149.659 357.878 149.754 358.833ZM112.32 427.515V435.136L107.569 436.157L112.32 427.515Z" fill="url(#paint0_linear)"/>
<path d="M163.923 295.751C169.73 295.751 175.298 298.068 179.404 302.192C183.509 306.316 185.816 311.909 185.816 317.741V327.122H142.031V317.741C142.031 311.909 144.338 306.316 148.443 302.192C152.549 298.068 158.117 295.751 163.923 295.751V295.751Z" fill="#565656"/>
<path d="M164.077 347.421C177.859 347.421 189.032 339.71 189.032 330.198C189.032 320.686 177.859 312.975 164.077 312.975C150.295 312.975 139.123 320.686 139.123 330.198C139.123 339.71 150.295 347.421 164.077 347.421Z" fill="#4F4F4F"/>
<path d="M148.08 346.882C148.08 346.882 153.295 374.254 148.08 381.637C142.865 389.019 164.013 391.94 164.013 391.94L185.903 383.944L188.965 364.259C188.965 364.259 175.639 356.723 178.4 341.499L148.08 346.882Z" fill="#FAD3BD"/>
<path d="M212.688 439.152C212.688 439.152 214.067 445.149 206.564 446.225C202.134 446.88 197.628 446.826 193.215 446.065L191.561 431.001H209.015L212.688 439.152Z" fill="#F7C4A7"/>
<path d="M80.1981 431.476C80.1981 431.476 76.884 445.003 84.3871 446.225C91.8903 447.447 119.441 447.456 119.441 447.456V431.452L106.966 434.129L95.2566 422.851L80.1981 431.476Z" fill="#FAD3BD"/>
<path opacity="0.1" d="M149.691 355.725L120.37 361.952C120.37 361.952 109.194 362.415 101.998 377.33C94.8017 392.246 79.1841 434.845 79.1841 434.845C79.1841 434.845 92.5102 421.311 108.122 435.767L118.534 416.854L116.236 446.842H196.911V432.692C196.911 432.692 213.751 441.764 212.529 446.839C212.529 446.839 226.941 409.541 223.827 392.592C222.89 387.352 222.315 382.053 222.106 376.734V376.734C221.922 372.352 220.393 368.136 217.728 364.662C215.063 361.189 211.393 358.629 207.222 357.334C205.704 356.866 204.035 356.426 202.181 356.033C184.88 352.344 180.454 356.033 180.454 356.033C180.454 356.033 177.102 366.986 177.163 371.95C177.238 378.331 168.13 382.562 168.13 382.562C168.13 382.562 154.656 379.332 154.045 376.719C153.434 374.106 148.613 358.801 149.691 355.725Z" fill="black"/>
<path d="M149.691 355.111L120.37 361.338C120.37 361.338 109.194 361.801 101.998 376.716C94.8016 391.632 79.1812 434.237 79.1812 434.237C79.1812 434.237 92.5072 420.704 108.119 435.159L118.531 416.246L116.233 446.225H196.911V432.078C196.911 432.078 213.751 441.151 212.529 446.225C212.529 446.225 226.941 408.928 223.827 391.978C222.89 386.738 222.315 381.439 222.106 376.12V376.12C221.922 371.739 220.393 367.522 217.728 364.048C215.063 360.575 211.393 358.015 207.222 356.72C205.704 356.252 204.035 355.812 202.181 355.42C184.88 351.73 180.454 355.42 180.454 355.42C180.454 355.42 177.102 366.372 177.163 371.336C177.238 377.717 168.13 381.948 168.13 381.948C168.13 381.948 154.656 378.718 154.045 376.105C153.434 373.492 148.613 358.187 149.691 355.111Z" fill="url(#paint1_linear)"/>
<path opacity="0.1" d="M179.651 353.805C178.419 350.302 178.143 346.533 178.851 342.887L148.532 348.267C148.532 348.267 148.969 350.569 149.465 354.017C151.424 356.059 153.776 357.679 156.378 358.779C158.98 359.879 161.777 360.437 164.6 360.417C167.423 360.397 170.213 359.8 172.799 358.664C175.386 357.527 177.715 355.874 179.645 353.805H179.651Z" fill="black"/>
<path d="M184.822 338.118C184.799 343.606 182.629 348.864 178.78 352.759C174.932 356.655 169.714 358.875 164.251 358.941C158.788 359.008 153.518 356.915 149.577 353.114C145.636 349.314 143.34 344.11 143.184 338.625C143.184 338.456 143.184 338.287 143.184 338.118C143.183 334.202 144.277 330.365 146.34 327.042C148.404 323.719 151.354 321.045 154.856 319.324C155.48 319.018 156.121 318.742 156.78 318.498C160.205 317.233 163.9 316.888 167.498 317.497V317.497C172.111 318.286 176.324 320.613 179.457 324.103C182.59 327.592 184.461 332.041 184.767 336.73C184.804 337.19 184.822 337.653 184.822 338.118Z" fill="#FAD3BD"/>
<g opacity="0.1">
<path opacity="0.1" d="M156.748 318.989L156.777 318.972C156.118 319.216 155.477 319.492 154.853 319.798C151.351 321.519 148.401 324.193 146.337 327.516C144.274 330.839 143.18 334.676 143.181 338.592C143.181 338.761 143.181 338.93 143.181 339.099C143.829 339.081 144.465 338.927 145.05 338.648C150.125 336.267 153.161 328.987 154.366 323.91C154.801 322.091 155.209 320.042 156.748 318.989Z" fill="black"/>
<path opacity="0.1" d="M172.684 319.574C171.036 318.814 169.295 318.274 167.507 317.971C168.974 318.31 170.283 319.136 171.224 320.316C171.685 320.946 172.067 321.63 172.362 322.353C169.591 321.136 166.59 320.538 163.566 320.601C160.543 320.664 157.569 321.386 154.85 322.717C156.157 325.594 160.21 327.163 162.915 328.213C165.878 329.362 168.871 330.412 171.896 331.364L169.219 329.182L175.265 330.148C175.33 328.94 175.187 327.729 174.842 326.569C176.001 327.506 177.536 327.82 178.794 328.606C181.149 330.099 182.131 332.971 183.414 335.459C183.753 336.116 184.153 336.788 184.764 337.204C184.517 333.446 183.264 329.824 181.138 326.72C179.012 323.617 176.091 321.148 172.684 319.574V319.574Z" fill="black"/>
</g>
<path d="M156.748 318.515L156.777 318.498C156.118 318.742 155.477 319.017 154.853 319.324C151.351 321.045 148.401 323.719 146.337 327.042C144.274 330.365 143.18 334.202 143.181 338.118C143.181 338.287 143.181 338.456 143.181 338.625C143.829 338.607 144.465 338.453 145.05 338.174C150.125 335.793 153.161 328.513 154.366 323.435C154.801 321.628 155.209 319.571 156.748 318.515Z" fill="#212121"/>
<path d="M172.684 319.103C171.036 318.342 169.295 317.803 167.507 317.5C168.974 317.838 170.283 318.665 171.224 319.845C171.685 320.474 172.067 321.159 172.362 321.882C169.591 320.665 166.59 320.067 163.566 320.13C160.543 320.193 157.569 320.914 154.85 322.245C156.157 325.123 160.21 326.692 162.915 327.742C165.878 328.89 168.871 329.941 171.896 330.893L169.219 328.711L175.265 329.677C175.33 328.468 175.187 327.258 174.842 326.098C176.001 327.035 177.536 327.349 178.794 328.135C181.149 329.627 182.131 332.499 183.414 334.987C183.753 335.645 184.153 336.317 184.764 336.733C184.517 332.974 183.264 329.352 181.138 326.249C179.012 323.146 176.091 320.677 172.684 319.103V319.103Z" fill="#212121"/>
<path opacity="0.1" d="M140.806 334.67C140.806 334.67 162.243 307.9 187.044 334.67L184.9 328.673C184.9 328.673 173.263 311.604 164.998 315.288C156.733 318.972 148.616 321.593 148.616 321.593L140.806 334.67Z" fill="black"/>
<path d="M140.806 334.196C140.806 334.196 162.243 307.426 187.044 334.196L184.9 328.199C184.9 328.199 173.263 311.13 164.998 314.814C156.733 318.497 148.616 321.119 148.616 321.119L140.806 334.196Z" fill="#4F4F4F"/>
<path opacity="0.1" d="M123.198 391.865C123.198 391.865 118.606 404.167 125.034 415.239C131.463 426.311 119.371 430.926 119.371 430.926" fill="black"/>
<path opacity="0.1" d="M197.607 380.793C197.607 380.793 205.568 390.942 200.362 400.015C195.156 409.088 195.463 430.926 195.463 430.926" fill="black"/>
<path d="M116.155 439.998H204.649C206.598 439.998 208.468 440.776 209.846 442.16C211.224 443.545 211.999 445.422 211.999 447.38V447.38H108.809C108.809 445.423 109.583 443.546 110.96 442.161C112.338 440.777 114.207 439.999 116.155 439.998V439.998Z" fill="#535461"/>
<path d="M125.159 389.249H195.648C197.132 389.249 198.601 389.543 199.972 390.113C201.343 390.683 202.588 391.519 203.637 392.573C204.686 393.627 205.519 394.878 206.086 396.254C206.654 397.631 206.946 399.107 206.946 400.597V441.689H113.861V400.597C113.861 397.587 115.051 394.701 117.17 392.573C119.289 390.445 122.163 389.249 125.159 389.249V389.249Z" fill="#535461"/>
<path d="M160.325 423.313C163.37 423.313 165.838 420.834 165.838 417.776C165.838 414.718 163.37 412.239 160.325 412.239C157.281 412.239 154.812 414.718 154.812 417.776C154.812 420.834 157.281 423.313 160.325 423.313Z" fill="white"/>
<path opacity="0.1" d="M142.031 322.123C142.031 322.123 163.098 300.975 185.819 321.736" stroke="black" stroke-miterlimit="10"/>
<path d="M191.141 320.776H189.026V332.819H191.141V320.776Z" fill="#CDCDCD"/>
<path d="M186.204 328.568C188.137 328.568 189.991 329.34 191.358 330.713C192.725 332.086 193.493 333.948 193.493 335.889V336.361C193.493 338.302 192.725 340.165 191.358 341.537C189.991 342.91 188.137 343.682 186.204 343.682V343.682V328.568Z" fill="#474747"/>
<path d="M188.084 329.514C188.084 328.601 187.347 327.861 186.439 327.861C185.53 327.861 184.793 328.601 184.793 329.514V342.739C184.793 343.651 185.53 344.391 186.439 344.391C187.347 344.391 188.084 343.651 188.084 342.739V329.514Z" fill="#CDCDCD"/>
<path d="M136.492 333.055H138.607V321.012H136.492V333.055Z" fill="#CDCDCD"/>
<path d="M141.428 343.917C139.495 343.917 137.641 343.146 136.275 341.773C134.908 340.4 134.14 338.538 134.14 336.596V336.125C134.14 335.164 134.328 334.212 134.695 333.323C135.061 332.435 135.598 331.628 136.275 330.948C136.951 330.269 137.755 329.729 138.639 329.361C139.523 328.993 140.471 328.804 141.428 328.804V328.804V343.917Z" fill="#474747"/>
<path d="M139.548 342.972C139.548 343.885 140.285 344.625 141.194 344.625C142.103 344.625 142.839 343.885 142.839 342.972V329.747C142.839 328.834 142.103 328.094 141.194 328.094C140.285 328.094 139.548 328.834 139.548 329.747V342.972Z" fill="#CDCDCD"/>
<path d="M188.777 307.903C185.912 301.921 179.672 294.687 166.221 294.108V294.09H166.059L161.293 294.317V294.341C147.932 294.957 141.721 302.165 138.865 308.127C136.962 312.169 135.952 316.576 135.904 321.047L137.55 321.006L139.195 320.968C139.266 316.988 140.177 313.068 141.869 309.469C145.496 301.985 152.171 298.007 161.705 297.637L165.92 297.402C175.459 297.768 182.137 301.752 185.761 309.233C187.455 312.834 188.369 316.756 188.441 320.738L190.086 320.776L191.732 320.817C191.684 316.349 190.676 311.944 188.777 307.903V307.903Z" fill="#363636"/>
<path d="M263.95 447.477H39.5188V508H263.95V447.477Z" fill="#373737"/>
<path d="M263.95 451.55H39.5188V459.407H263.95V451.55Z" fill="#6B71FF"/>
<path d="M279 446.604H24.4631V454.46H279V446.604Z" fill="#373737"/>
</g>
<ellipse cx="223.5" cy="280.5" rx="25.5" ry="16.5" fill="#5F3AFF"/>
<path d="M201.744 302.848L207.222 275.976L224.099 286.962L201.744 302.848Z" fill="#5F3AFF"/>
<path d="M226.048 272.96C226.512 272.96 226.88 273.104 227.152 273.392C227.424 273.664 227.56 274.032 227.56 274.496V288.584C227.56 289.048 227.416 289.424 227.128 289.712C226.856 290 226.496 290.144 226.048 290.144C225.584 290.144 225.216 290 224.944 289.712C224.672 289.424 224.536 289.048 224.536 288.584V282.656H215.872V288.584C215.872 289.048 215.728 289.424 215.44 289.712C215.168 290 214.8 290.144 214.336 290.144C213.888 290.144 213.52 290 213.232 289.712C212.96 289.424 212.824 289.048 212.824 288.584V274.496C212.824 274.032 212.96 273.664 213.232 273.392C213.504 273.104 213.872 272.96 214.336 272.96C214.8 272.96 215.168 273.104 215.44 273.392C215.728 273.664 215.872 274.032 215.872 274.496V280.16H224.536V274.496C224.536 274.032 224.672 273.664 224.944 273.392C225.216 273.104 225.584 272.96 226.048 272.96ZM232.423 290.144C231.991 290.144 231.631 290.024 231.343 289.784C231.071 289.528 230.935 289.168 230.935 288.704V279.44C230.935 278.976 231.071 278.624 231.343 278.384C231.631 278.144 231.991 278.024 232.423 278.024C232.855 278.024 233.215 278.144 233.503 278.384C233.791 278.624 233.935 278.976 233.935 279.44V288.704C233.935 289.168 233.791 289.528 233.503 289.784C233.215 290.024 232.855 290.144 232.423 290.144ZM232.423 275.888C231.879 275.888 231.447 275.744 231.127 275.456C230.807 275.152 230.647 274.76 230.647 274.28C230.647 273.8 230.807 273.416 231.127 273.128C231.447 272.84 231.879 272.696 232.423 272.696C232.951 272.696 233.375 272.84 233.695 273.128C234.031 273.416 234.199 273.8 234.199 274.28C234.199 274.76 234.039 275.152 233.719 275.456C233.399 275.744 232.967 275.888 232.423 275.888Z" fill="#E5E5E5"/>
<path d="M13.12 175.369C11.0153 175.369 9.02 175.096 7.134 174.549C5.27533 173.975 3.75833 173.21 2.583 172.253C1.95433 171.788 1.64 171.132 1.64 170.285C1.64 169.711 1.804 169.219 2.132 168.809C2.48733 168.372 2.89733 168.153 3.362 168.153C3.854 168.153 4.41433 168.344 5.043 168.727C6.21833 169.574 7.44833 170.189 8.733 170.572C10.0177 170.955 11.439 171.146 12.997 171.146C14.9923 171.146 16.523 170.804 17.589 170.121C18.655 169.41 19.188 168.385 19.188 167.046C19.188 166.007 18.6823 165.215 17.671 164.668C16.687 164.094 15.0333 163.547 12.71 163.028C10.3047 162.509 8.35033 161.907 6.847 161.224C5.34367 160.541 4.20933 159.666 3.444 158.6C2.67867 157.534 2.296 156.181 2.296 154.541C2.296 152.846 2.77433 151.329 3.731 149.99C4.68767 148.651 6.01333 147.612 7.708 146.874C9.43 146.109 11.357 145.726 13.489 145.726C17.3977 145.726 20.582 146.765 23.042 148.842C23.3973 149.143 23.6433 149.443 23.78 149.744C23.944 150.017 24.026 150.373 24.026 150.81C24.026 151.384 23.8483 151.89 23.493 152.327C23.165 152.737 22.7687 152.942 22.304 152.942C22.0307 152.942 21.771 152.901 21.525 152.819C21.3063 152.737 21.0057 152.587 20.623 152.368C19.5023 151.548 18.409 150.947 17.343 150.564C16.3043 150.154 15.0197 149.949 13.489 149.949C11.6303 149.949 10.1543 150.332 9.061 151.097C7.995 151.835 7.462 152.874 7.462 154.213C7.462 155.334 7.94033 156.195 8.897 156.796C9.85367 157.397 11.48 157.958 13.776 158.477C16.2087 159.024 18.1767 159.639 19.68 160.322C21.2107 160.978 22.3723 161.825 23.165 162.864C23.985 163.903 24.395 165.201 24.395 166.759C24.395 168.454 23.9167 169.957 22.96 171.269C22.0307 172.554 20.705 173.565 18.983 174.303C17.2883 175.014 15.334 175.369 13.12 175.369ZM191.374 175.369C189.269 175.369 187.274 175.096 185.388 174.549C183.529 173.975 182.012 173.21 180.837 172.253C180.208 171.788 179.894 171.132 179.894 170.285C179.894 169.711 180.058 169.219 180.386 168.809C180.741 168.372 181.151 168.153 181.616 168.153C182.108 168.153 182.668 168.344 183.297 168.727C184.472 169.574 185.702 170.189 186.987 170.572C188.272 170.955 189.693 171.146 191.251 171.146C193.246 171.146 194.777 170.804 195.843 170.121C196.909 169.41 197.442 168.385 197.442 167.046C197.442 166.007 196.936 165.215 195.925 164.668C194.941 164.094 193.287 163.547 190.964 163.028C188.559 162.509 186.604 161.907 185.101 161.224C183.598 160.541 182.463 159.666 181.698 158.6C180.933 157.534 180.55 156.181 180.55 154.541C180.55 152.846 181.028 151.329 181.985 149.99C182.942 148.651 184.267 147.612 185.962 146.874C187.684 146.109 189.611 145.726 191.743 145.726C195.652 145.726 198.836 146.765 201.296 148.842C201.651 149.143 201.897 149.443 202.034 149.744C202.198 150.017 202.28 150.373 202.28 150.81C202.28 151.384 202.102 151.89 201.747 152.327C201.419 152.737 201.023 152.942 200.558 152.942C200.285 152.942 200.025 152.901 199.779 152.819C199.56 152.737 199.26 152.587 198.877 152.368C197.756 151.548 196.663 150.947 195.597 150.564C194.558 150.154 193.274 149.949 191.743 149.949C189.884 149.949 188.408 150.332 187.315 151.097C186.249 151.835 185.716 152.874 185.716 154.213C185.716 155.334 186.194 156.195 187.151 156.796C188.108 157.397 189.734 157.958 192.03 158.477C194.463 159.024 196.431 159.639 197.934 160.322C199.465 160.978 200.626 161.825 201.419 162.864C202.239 163.903 202.649 165.201 202.649 166.759C202.649 168.454 202.171 169.957 201.214 171.269C200.285 172.554 198.959 173.565 197.237 174.303C195.542 175.014 193.588 175.369 191.374 175.369Z" fill="#5F3AFF"/>
<path d="M44.6365 154.541C45.4292 154.541 46.0578 154.76 46.5225 155.197C46.9872 155.634 47.2195 156.222 47.2195 156.96V172.868C47.2195 173.579 46.9735 174.153 46.4815 174.59C46.0168 175.027 45.4018 175.246 44.6365 175.246C43.8985 175.246 43.3108 175.041 42.8735 174.631C42.4362 174.221 42.2175 173.661 42.2175 172.95V171.925C41.5888 173.018 40.7415 173.866 39.6755 174.467C38.6095 175.041 37.4068 175.328 36.0675 175.328C31.1475 175.328 28.6875 172.567 28.6875 167.046V156.96C28.6875 156.222 28.9198 155.634 29.3845 155.197C29.8492 154.76 30.4642 154.541 31.2295 154.541C32.0222 154.541 32.6508 154.76 33.1155 155.197C33.5802 155.634 33.8125 156.222 33.8125 156.96V167.087C33.8125 168.508 34.0995 169.561 34.6735 170.244C35.2475 170.927 36.1495 171.269 37.3795 171.269C38.8008 171.269 39.9352 170.804 40.7825 169.875C41.6572 168.918 42.0945 167.661 42.0945 166.103V156.96C42.0945 156.222 42.3268 155.634 42.7915 155.197C43.2562 154.76 43.8712 154.541 44.6365 154.541ZM70.3887 171.023C70.9353 171.542 71.2087 172.13 71.2087 172.786C71.2087 173.415 70.9763 173.975 70.5117 174.467C70.0743 174.959 69.555 175.205 68.9537 175.205C68.3523 175.205 67.792 174.959 67.2727 174.467L57.6787 165.775V172.786C57.6787 173.579 57.4327 174.18 56.9407 174.59C56.4487 175 55.8337 175.205 55.0957 175.205C54.3577 175.205 53.7427 175 53.2507 174.59C52.786 174.18 52.5537 173.579 52.5537 172.786V148.309C52.5537 147.516 52.786 146.915 53.2507 146.505C53.7427 146.095 54.3577 145.89 55.0957 145.89C55.8337 145.89 56.4487 146.095 56.9407 146.505C57.4327 146.915 57.6787 147.516 57.6787 148.309V163.725L66.4527 155.32C66.9447 154.828 67.505 154.582 68.1337 154.582C68.7623 154.582 69.309 154.814 69.7737 155.279C70.2383 155.744 70.4707 156.29 70.4707 156.919C70.4707 157.548 70.211 158.122 69.6917 158.641L63.2547 164.627L70.3887 171.023ZM77.0771 175.246C76.3391 175.246 75.7241 175.041 75.2321 174.631C74.7675 174.194 74.5351 173.579 74.5351 172.786V156.96C74.5351 156.167 74.7675 155.566 75.2321 155.156C75.7241 154.746 76.3391 154.541 77.0771 154.541C77.8151 154.541 78.4301 154.746 78.9221 155.156C79.4141 155.566 79.6601 156.167 79.6601 156.96V172.786C79.6601 173.579 79.4141 174.194 78.9221 174.631C78.4301 175.041 77.8151 175.246 77.0771 175.246ZM77.0771 150.892C76.1478 150.892 75.4098 150.646 74.8631 150.154C74.3165 149.635 74.0431 148.965 74.0431 148.145C74.0431 147.325 74.3165 146.669 74.8631 146.177C75.4098 145.685 76.1478 145.439 77.0771 145.439C77.9791 145.439 78.7035 145.685 79.2501 146.177C79.8241 146.669 80.1111 147.325 80.1111 148.145C80.1111 148.965 79.8378 149.635 79.2911 150.154C78.7445 150.646 78.0065 150.892 77.0771 150.892ZM93.6373 154.459C96.4253 154.459 98.4889 155.156 99.8283 156.55C101.195 157.917 101.878 160.008 101.878 162.823V172.827C101.878 173.565 101.66 174.153 101.222 174.59C100.785 175 100.184 175.205 99.4183 175.205C98.7076 175.205 98.1199 174.986 97.6553 174.549C97.2179 174.112 96.9993 173.538 96.9993 172.827V171.925C96.5346 172.991 95.7966 173.825 94.7853 174.426C93.8013 175.027 92.6533 175.328 91.3413 175.328C90.0019 175.328 88.7856 175.055 87.6923 174.508C86.5989 173.961 85.7379 173.21 85.1093 172.253C84.4806 171.296 84.1663 170.23 84.1663 169.055C84.1663 167.579 84.5353 166.417 85.2733 165.57C86.0386 164.723 87.2686 164.108 88.9633 163.725C90.6579 163.342 92.9949 163.151 95.9743 163.151H96.9993V162.208C96.9993 160.869 96.7123 159.898 96.1383 159.297C95.5643 158.668 94.6349 158.354 93.3503 158.354C92.5576 158.354 91.7513 158.477 90.9313 158.723C90.1113 158.942 89.1409 159.27 88.0203 159.707C87.3096 160.062 86.7903 160.24 86.4623 160.24C85.9703 160.24 85.5603 160.062 85.2323 159.707C84.9316 159.352 84.7813 158.887 84.7813 158.313C84.7813 157.848 84.8906 157.452 85.1093 157.124C85.3553 156.769 85.7516 156.441 86.2983 156.14C87.2549 155.621 88.3893 155.211 89.7013 154.91C91.0406 154.609 92.3526 154.459 93.6373 154.459ZM92.3663 171.638C93.7329 171.638 94.8399 171.187 95.6873 170.285C96.5619 169.356 96.9993 168.167 96.9993 166.718V165.857H96.2613C94.4299 165.857 93.0086 165.939 91.9973 166.103C90.9859 166.267 90.2616 166.554 89.8243 166.964C89.3869 167.374 89.1683 167.934 89.1683 168.645C89.1683 169.52 89.4689 170.244 90.0703 170.818C90.6989 171.365 91.4643 171.638 92.3663 171.638ZM118.731 154.459C121.136 154.459 122.927 155.142 124.102 156.509C125.277 157.876 125.865 159.939 125.865 162.7V172.786C125.865 173.551 125.633 174.153 125.168 174.59C124.731 175.027 124.116 175.246 123.323 175.246C122.53 175.246 121.902 175.027 121.437 174.59C120.972 174.153 120.74 173.551 120.74 172.786V162.987C120.74 161.429 120.439 160.295 119.838 159.584C119.264 158.873 118.348 158.518 117.091 158.518C115.615 158.518 114.426 158.983 113.524 159.912C112.649 160.841 112.212 162.085 112.212 163.643V172.786C112.212 173.551 111.98 174.153 111.515 174.59C111.05 175.027 110.422 175.246 109.629 175.246C108.836 175.246 108.208 175.027 107.743 174.59C107.306 174.153 107.087 173.551 107.087 172.786V156.919C107.087 156.208 107.319 155.634 107.784 155.197C108.249 154.76 108.877 154.541 109.67 154.541C110.381 154.541 110.955 154.76 111.392 155.197C111.857 155.607 112.089 156.154 112.089 156.837V157.944C112.772 156.823 113.688 155.962 114.836 155.361C115.984 154.76 117.282 154.459 118.731 154.459ZM141.484 171.433C142.851 171.515 143.534 172.13 143.534 173.278C143.534 173.934 143.261 174.44 142.714 174.795C142.195 175.123 141.443 175.26 140.459 175.205L139.352 175.123C134.76 174.795 132.464 172.335 132.464 167.743V158.805H130.414C129.676 158.805 129.102 158.641 128.692 158.313C128.31 157.985 128.118 157.507 128.118 156.878C128.118 156.249 128.31 155.771 128.692 155.443C129.102 155.115 129.676 154.951 130.414 154.951H132.464V151.179C132.464 150.441 132.697 149.853 133.161 149.416C133.626 148.979 134.255 148.76 135.047 148.76C135.813 148.76 136.428 148.979 136.892 149.416C137.357 149.853 137.589 150.441 137.589 151.179V154.951H141.074C141.812 154.951 142.373 155.115 142.755 155.443C143.165 155.771 143.37 156.249 143.37 156.878C143.37 157.507 143.165 157.985 142.755 158.313C142.373 158.641 141.812 158.805 141.074 158.805H137.589V168.112C137.589 170.135 138.519 171.214 140.377 171.351L141.484 171.433ZM155.348 175.328C153.298 175.328 151.494 174.904 149.936 174.057C148.405 173.21 147.216 171.993 146.369 170.408C145.522 168.823 145.098 166.978 145.098 164.873C145.098 162.768 145.522 160.937 146.369 159.379C147.216 157.794 148.405 156.577 149.936 155.73C151.494 154.883 153.298 154.459 155.348 154.459C157.398 154.459 159.188 154.883 160.719 155.73C162.277 156.577 163.466 157.794 164.286 159.379C165.133 160.937 165.557 162.768 165.557 164.873C165.557 166.978 165.133 168.823 164.286 170.408C163.466 171.993 162.277 173.21 160.719 174.057C159.188 174.904 157.398 175.328 155.348 175.328ZM155.307 171.351C156.974 171.351 158.245 170.804 159.12 169.711C159.995 168.618 160.432 167.005 160.432 164.873C160.432 162.768 159.995 161.169 159.12 160.076C158.245 158.955 156.988 158.395 155.348 158.395C153.708 158.395 152.437 158.955 151.535 160.076C150.66 161.169 150.223 162.768 150.223 164.873C150.223 167.005 150.66 168.618 151.535 169.711C152.41 170.804 153.667 171.351 155.307 171.351ZM222.89 154.541C223.683 154.541 224.312 154.76 224.776 155.197C225.241 155.634 225.473 156.222 225.473 156.96V172.868C225.473 173.579 225.227 174.153 224.735 174.59C224.271 175.027 223.656 175.246 222.89 175.246C222.152 175.246 221.565 175.041 221.127 174.631C220.69 174.221 220.471 173.661 220.471 172.95V171.925C219.843 173.018 218.995 173.866 217.929 174.467C216.863 175.041 215.661 175.328 214.321 175.328C209.401 175.328 206.941 172.567 206.941 167.046V156.96C206.941 156.222 207.174 155.634 207.638 155.197C208.103 154.76 208.718 154.541 209.483 154.541C210.276 154.541 210.905 154.76 211.369 155.197C211.834 155.634 212.066 156.222 212.066 156.96V167.087C212.066 168.508 212.353 169.561 212.927 170.244C213.501 170.927 214.403 171.269 215.633 171.269C217.055 171.269 218.189 170.804 219.036 169.875C219.911 168.918 220.348 167.661 220.348 166.103V156.96C220.348 156.222 220.581 155.634 221.045 155.197C221.51 154.76 222.125 154.541 222.89 154.541ZM241.222 171.433C242.588 171.515 243.272 172.13 243.272 173.278C243.272 173.934 242.998 174.44 242.452 174.795C241.932 175.123 241.181 175.26 240.197 175.205L239.09 175.123C234.498 174.795 232.202 172.335 232.202 167.743V158.805H230.152C229.414 158.805 228.84 158.641 228.43 158.313C228.047 157.985 227.856 157.507 227.856 156.878C227.856 156.249 228.047 155.771 228.43 155.443C228.84 155.115 229.414 154.951 230.152 154.951H232.202V151.179C232.202 150.441 232.434 149.853 232.899 149.416C233.363 148.979 233.992 148.76 234.785 148.76C235.55 148.76 236.165 148.979 236.63 149.416C237.094 149.853 237.327 150.441 237.327 151.179V154.951H240.812C241.55 154.951 242.11 155.115 242.493 155.443C242.903 155.771 243.108 156.249 243.108 156.878C243.108 157.507 242.903 157.985 242.493 158.313C242.11 158.641 241.55 158.805 240.812 158.805H237.327V168.112C237.327 170.135 238.256 171.214 240.115 171.351L241.222 171.433ZM261.809 169.506C262.274 169.506 262.643 169.684 262.916 170.039C263.217 170.394 263.367 170.873 263.367 171.474C263.367 172.321 262.862 173.032 261.85 173.606C260.921 174.125 259.869 174.549 258.693 174.877C257.518 175.178 256.397 175.328 255.331 175.328C252.106 175.328 249.55 174.399 247.664 172.54C245.778 170.681 244.835 168.139 244.835 164.914C244.835 162.864 245.245 161.046 246.065 159.461C246.885 157.876 248.033 156.646 249.509 155.771C251.013 154.896 252.707 154.459 254.593 154.459C256.397 154.459 257.969 154.855 259.308 155.648C260.648 156.441 261.686 157.561 262.424 159.01C263.162 160.459 263.531 162.167 263.531 164.135C263.531 165.31 263.012 165.898 261.973 165.898H249.878C250.042 167.784 250.575 169.178 251.477 170.08C252.379 170.955 253.691 171.392 255.413 171.392C256.288 171.392 257.053 171.283 257.709 171.064C258.393 170.845 259.158 170.545 260.005 170.162C260.825 169.725 261.427 169.506 261.809 169.506ZM254.716 158.067C253.322 158.067 252.202 158.504 251.354 159.379C250.534 160.254 250.042 161.511 249.878 163.151H259.144C259.09 161.484 258.68 160.226 257.914 159.379C257.149 158.504 256.083 158.067 254.716 158.067ZM264.854 182.462C263.87 182.517 263.118 182.38 262.599 182.052C262.052 181.724 261.779 181.218 261.779 180.535C261.779 179.414 262.462 178.799 263.829 178.69L264.936 178.608C265.865 178.553 266.562 178.266 267.027 177.747C267.491 177.228 267.724 176.435 267.724 175.369V156.96C267.724 156.167 267.956 155.566 268.421 155.156C268.913 154.746 269.528 154.541 270.266 154.541C271.004 154.541 271.619 154.746 272.111 155.156C272.603 155.566 272.849 156.167 272.849 156.96V175C272.849 179.592 270.553 182.052 265.961 182.38L264.854 182.462ZM270.225 150.892C269.295 150.892 268.557 150.646 268.011 150.154C267.464 149.635 267.191 148.965 267.191 148.145C267.191 147.325 267.464 146.669 268.011 146.177C268.557 145.685 269.295 145.439 270.225 145.439C271.127 145.439 271.851 145.685 272.398 146.177C272.972 146.669 273.259 147.325 273.259 148.145C273.259 148.965 272.985 149.635 272.439 150.154C271.892 150.646 271.154 150.892 270.225 150.892ZM286.826 154.459C289.614 154.459 291.677 155.156 293.017 156.55C294.383 157.917 295.067 160.008 295.067 162.823V172.827C295.067 173.565 294.848 174.153 294.411 174.59C293.973 175 293.372 175.205 292.607 175.205C291.896 175.205 291.308 174.986 290.844 174.549C290.406 174.112 290.188 173.538 290.188 172.827V171.925C289.723 172.991 288.985 173.825 287.974 174.426C286.99 175.027 285.842 175.328 284.53 175.328C283.19 175.328 281.974 175.055 280.881 174.508C279.787 173.961 278.926 173.21 278.298 172.253C277.669 171.296 277.355 170.23 277.355 169.055C277.355 167.579 277.724 166.417 278.462 165.57C279.227 164.723 280.457 164.108 282.152 163.725C283.846 163.342 286.183 163.151 289.163 163.151H290.188V162.208C290.188 160.869 289.901 159.898 289.327 159.297C288.753 158.668 287.823 158.354 286.539 158.354C285.746 158.354 284.94 158.477 284.12 158.723C283.3 158.942 282.329 159.27 281.209 159.707C280.498 160.062 279.979 160.24 279.651 160.24C279.159 160.24 278.749 160.062 278.421 159.707C278.12 159.352 277.97 158.887 277.97 158.313C277.97 157.848 278.079 157.452 278.298 157.124C278.544 156.769 278.94 156.441 279.487 156.14C280.443 155.621 281.578 155.211 282.89 154.91C284.229 154.609 285.541 154.459 286.826 154.459ZM285.555 171.638C286.921 171.638 288.028 171.187 288.876 170.285C289.75 169.356 290.188 168.167 290.188 166.718V165.857H289.45C287.618 165.857 286.197 165.939 285.186 166.103C284.174 166.267 283.45 166.554 283.013 166.964C282.575 167.374 282.357 167.934 282.357 168.645C282.357 169.52 282.657 170.244 283.259 170.818C283.887 171.365 284.653 171.638 285.555 171.638Z" fill="black"/>
<path d="M91.1997 188.526L89.7417 201H86.6727L85.7637 192.081L84.7647 201H81.6417L80.2917 188.526H83.0547L83.4777 198.48L84.5127 189.966H87.0507L88.0137 198.48L88.6347 188.526H91.1997ZM94.8647 197.049C94.9607 197.829 95.2157 198.39 95.6297 198.732C96.0437 199.068 96.5537 199.236 97.1597 199.236C97.5977 199.236 98.0207 199.164 98.4287 199.02C98.8367 198.876 99.2297 198.684 99.6077 198.444L100.751 199.992C100.301 200.376 99.7547 200.691 99.1127 200.937C98.4767 201.183 97.7507 201.306 96.9347 201.306C95.8427 201.306 94.9277 201.09 94.1897 200.658C93.4517 200.22 92.8967 199.62 92.5247 198.858C92.1527 198.096 91.9667 197.22 91.9667 196.23C91.9667 195.288 92.1467 194.433 92.5067 193.665C92.8667 192.891 93.3917 192.276 94.0817 191.82C94.7777 191.358 95.6267 191.127 96.6287 191.127C97.5407 191.127 98.3297 191.322 98.9957 191.712C99.6677 192.102 100.187 192.663 100.553 193.395C100.925 194.127 101.111 195.006 101.111 196.032C101.111 196.194 101.105 196.368 101.093 196.554C101.087 196.74 101.075 196.905 101.057 197.049H94.8647ZM96.6287 193.035C96.1187 193.035 95.7077 193.218 95.3957 193.584C95.0837 193.95 94.8947 194.535 94.8287 195.339H98.3387C98.3327 194.643 98.1977 194.085 97.9337 193.665C97.6697 193.245 97.2347 193.035 96.6287 193.035ZM106.036 192.423C106.336 192.027 106.696 191.712 107.116 191.478C107.542 191.244 107.998 191.127 108.484 191.127C109.714 191.127 110.608 191.583 111.166 192.495C111.73 193.407 112.012 194.64 112.012 196.194C112.012 197.178 111.865 198.057 111.571 198.831C111.283 199.599 110.854 200.205 110.284 200.649C109.714 201.087 109.015 201.306 108.187 201.306C107.185 201.306 106.396 200.916 105.82 200.136L105.712 201H103.192V187.644L106.036 187.347V192.423ZM107.44 199.236C107.944 199.236 108.343 199.005 108.637 198.543C108.931 198.075 109.078 197.304 109.078 196.23C109.078 195.438 109.015 194.826 108.889 194.394C108.769 193.956 108.595 193.653 108.367 193.485C108.145 193.311 107.884 193.224 107.584 193.224C107.266 193.224 106.981 193.323 106.729 193.521C106.477 193.719 106.246 193.989 106.036 194.331V198.363C106.216 198.645 106.417 198.861 106.639 199.011C106.861 199.161 107.128 199.236 107.44 199.236ZM133.859 194.7C133.859 195.966 133.691 197.01 133.355 197.832C133.025 198.654 132.575 199.296 132.005 199.758C131.435 200.214 130.787 200.535 130.061 200.721C129.341 200.907 128.594 201 127.82 201H124.454V188.526H127.604C128.402 188.526 129.173 188.61 129.917 188.778C130.667 188.94 131.336 189.243 131.924 189.687C132.518 190.125 132.989 190.749 133.337 191.559C133.685 192.363 133.859 193.41 133.859 194.7ZM130.799 194.7C130.799 193.578 130.676 192.729 130.43 192.153C130.19 191.577 129.86 191.187 129.44 190.983C129.026 190.773 128.558 190.668 128.036 190.668H127.406V198.867H128.036C128.582 198.867 129.062 198.75 129.476 198.516C129.89 198.276 130.214 197.853 130.448 197.247C130.682 196.641 130.799 195.792 130.799 194.7ZM138.037 197.049C138.133 197.829 138.388 198.39 138.802 198.732C139.216 199.068 139.726 199.236 140.332 199.236C140.77 199.236 141.193 199.164 141.601 199.02C142.009 198.876 142.402 198.684 142.78 198.444L143.923 199.992C143.473 200.376 142.927 200.691 142.285 200.937C141.649 201.183 140.923 201.306 140.107 201.306C139.015 201.306 138.1 201.09 137.362 200.658C136.624 200.22 136.069 199.62 135.697 198.858C135.325 198.096 135.139 197.22 135.139 196.23C135.139 195.288 135.319 194.433 135.679 193.665C136.039 192.891 136.564 192.276 137.254 191.82C137.95 191.358 138.799 191.127 139.801 191.127C140.713 191.127 141.502 191.322 142.168 191.712C142.84 192.102 143.359 192.663 143.725 193.395C144.097 194.127 144.283 195.006 144.283 196.032C144.283 196.194 144.277 196.368 144.265 196.554C144.259 196.74 144.247 196.905 144.229 197.049H138.037ZM139.801 193.035C139.291 193.035 138.88 193.218 138.568 193.584C138.256 193.95 138.067 194.535 138.001 195.339H141.511C141.505 194.643 141.37 194.085 141.106 193.665C140.842 193.245 140.407 193.035 139.801 193.035ZM155.382 191.442L152.196 201H148.848L145.626 191.442H148.695L150.558 198.822L152.502 191.442H155.382ZM159.622 197.049C159.718 197.829 159.973 198.39 160.387 198.732C160.801 199.068 161.311 199.236 161.917 199.236C162.355 199.236 162.778 199.164 163.186 199.02C163.594 198.876 163.987 198.684 164.365 198.444L165.508 199.992C165.058 200.376 164.512 200.691 163.87 200.937C163.234 201.183 162.508 201.306 161.692 201.306C160.6 201.306 159.685 201.09 158.947 200.658C158.209 200.22 157.654 199.62 157.282 198.858C156.91 198.096 156.724 197.22 156.724 196.23C156.724 195.288 156.904 194.433 157.264 193.665C157.624 192.891 158.149 192.276 158.839 191.82C159.535 191.358 160.384 191.127 161.386 191.127C162.298 191.127 163.087 191.322 163.753 191.712C164.425 192.102 164.944 192.663 165.31 193.395C165.682 194.127 165.868 195.006 165.868 196.032C165.868 196.194 165.862 196.368 165.85 196.554C165.844 196.74 165.832 196.905 165.814 197.049H159.622ZM161.386 193.035C160.876 193.035 160.465 193.218 160.153 193.584C159.841 193.95 159.652 194.535 159.586 195.339H163.096C163.09 194.643 162.955 194.085 162.691 193.665C162.427 193.245 161.992 193.035 161.386 193.035ZM172.935 187.644V197.994C172.935 198.378 173.043 198.654 173.259 198.822C173.481 198.984 173.784 199.065 174.168 199.065C174.414 199.065 174.651 199.038 174.879 198.984C175.107 198.924 175.32 198.855 175.518 198.777L176.202 200.676C175.878 200.844 175.488 200.991 175.032 201.117C174.576 201.243 174.045 201.306 173.439 201.306C172.287 201.306 171.441 200.976 170.901 200.316C170.361 199.65 170.091 198.759 170.091 197.643V189.588H167.274V187.644H172.935ZM182.882 191.127C183.866 191.127 184.703 191.337 185.393 191.757C186.083 192.177 186.611 192.768 186.977 193.53C187.343 194.286 187.526 195.174 187.526 196.194C187.526 197.79 187.118 199.041 186.302 199.947C185.486 200.853 184.346 201.306 182.882 201.306C181.418 201.306 180.278 200.859 179.462 199.965C178.646 199.071 178.238 197.82 178.238 196.212C178.238 195.198 178.421 194.31 178.787 193.548C179.159 192.786 179.69 192.192 180.38 191.766C181.076 191.34 181.91 191.127 182.882 191.127ZM182.882 193.224C182.3 193.224 181.868 193.464 181.586 193.944C181.31 194.418 181.172 195.174 181.172 196.212C181.172 197.268 181.31 198.033 181.586 198.507C181.868 198.981 182.3 199.218 182.882 199.218C183.464 199.218 183.893 198.981 184.169 198.507C184.451 198.033 184.592 197.262 184.592 196.194C184.592 195.162 184.451 194.409 184.169 193.935C183.893 193.461 183.464 193.224 182.882 193.224ZM194.827 191.127C196.075 191.127 196.969 191.583 197.509 192.495C198.049 193.407 198.319 194.64 198.319 196.194C198.319 197.178 198.175 198.057 197.887 198.831C197.599 199.599 197.182 200.205 196.636 200.649C196.09 201.087 195.427 201.306 194.647 201.306C193.717 201.306 192.961 200.973 192.379 200.307V204.69L189.535 204.987V191.442H192.055L192.181 192.513C192.571 192.015 192.997 191.661 193.459 191.451C193.921 191.235 194.377 191.127 194.827 191.127ZM193.945 193.224C193.615 193.224 193.324 193.323 193.072 193.521C192.82 193.719 192.589 193.989 192.379 194.331V198.363C192.577 198.657 192.784 198.873 193 199.011C193.222 199.149 193.483 199.218 193.783 199.218C194.287 199.218 194.68 198.99 194.962 198.534C195.244 198.072 195.385 197.304 195.385 196.23C195.385 195.438 195.328 194.826 195.214 194.394C195.1 193.956 194.935 193.653 194.719 193.485C194.503 193.311 194.245 193.224 193.945 193.224ZM202.794 197.049C202.89 197.829 203.145 198.39 203.559 198.732C203.973 199.068 204.483 199.236 205.089 199.236C205.527 199.236 205.95 199.164 206.358 199.02C206.766 198.876 207.159 198.684 207.537 198.444L208.68 199.992C208.23 200.376 207.684 200.691 207.042 200.937C206.406 201.183 205.68 201.306 204.864 201.306C203.772 201.306 202.857 201.09 202.119 200.658C201.381 200.22 200.826 199.62 200.454 198.858C200.082 198.096 199.896 197.22 199.896 196.23C199.896 195.288 200.076 194.433 200.436 193.665C200.796 192.891 201.321 192.276 202.011 191.82C202.707 191.358 203.556 191.127 204.558 191.127C205.47 191.127 206.259 191.322 206.925 191.712C207.597 192.102 208.116 192.663 208.482 193.395C208.854 194.127 209.04 195.006 209.04 196.032C209.04 196.194 209.034 196.368 209.022 196.554C209.016 196.74 209.004 196.905 208.986 197.049H202.794ZM204.558 193.035C204.048 193.035 203.637 193.218 203.325 193.584C203.013 193.95 202.824 194.535 202.758 195.339H206.268C206.262 194.643 206.127 194.085 205.863 193.665C205.599 193.245 205.164 193.035 204.558 193.035ZM211.211 201V199.092H212.471V193.332H211.211V191.442H214.64L215.162 193.593C215.504 192.771 215.939 192.159 216.467 191.757C217.001 191.355 217.652 191.154 218.42 191.154C218.744 191.154 219.032 191.181 219.284 191.235C219.536 191.283 219.773 191.352 219.995 191.442L219.464 195.438H217.682V193.674C217.142 193.77 216.668 194.064 216.26 194.556C215.852 195.042 215.537 195.642 215.315 196.356V199.092H217.205V201H211.211Z" fill="#5F3AFF"/>
<path d="M270.064 77.2783H255V85.1347H270.064V77.2783Z" fill="black"/>
<path d="M280.783 86.2988H265.719V94.1553H280.783V86.2988Z" fill="#C6ABFF"/>
<path d="M281.942 95.9009H266.877V103.757H281.942V95.9009Z" fill="#5200FF"/>
<path d="M150.315 70.2783H135.25V78.1347H150.315V70.2783Z" fill="#5200FF"/>
<path d="M161.034 79.2988H145.97V87.1552H161.034V79.2988Z" fill="#C6ABFF"/>
<path d="M132.064 70.8604H117V78.7168H132.064V70.8604Z" fill="#C6ABFF"/>
<path d="M180.444 88.3188H165.379V96.1753H180.444V88.3188Z" fill="black"/>
<path d="M162.193 88.9009H147.128V96.7573H162.193V88.9009Z" fill="#5200FF"/>
<path d="M142.783 79.8804H127.719V87.7368H142.783V79.8804Z" fill="black"/>
<path d="M50.3148 242H35.2505V249.856H50.3148V242Z" fill="#5200FF"/>
<path d="M61.034 251.021H45.9697V258.877H61.034V251.021Z" fill="#C6ABFF"/>
<path d="M32.0643 242.582H17V250.438H32.0643V242.582Z" fill="#C6ABFF"/>
<path d="M80.4437 260.041H65.3794V267.897H80.4437V260.041Z" fill="black"/>
<path d="M62.1927 260.623H47.1284V268.479H62.1927V260.623Z" fill="#5200FF"/>
<path d="M42.783 251.602H27.7188V259.458H42.783V251.602Z" fill="black"/>
<path d="M33.3538 5.27832H18.2896V13.1347H33.3538V5.27832Z" fill="#5200FF"/>
<path d="M34.5125 14.8804H19.4482V22.7368H34.5125V14.8804Z" fill="#C6ABFF"/>
<path d="M51.3152 26.8105H36.251V34.667H51.3152V26.8105Z" fill="black"/>
<path d="M33.0643 27.3926H18V35.249H33.0643V27.3926Z" fill="#5200FF"/>
<path d="M79.0643 54.2783H64V62.1347H79.0643V54.2783Z" fill="#5200FF"/>
<path d="M89.7835 63.2988H74.7192V71.1552H89.7835V63.2988Z" fill="#C6ABFF"/>
<path d="M42.0656 116.278H28V123.278H42.0656V116.278Z" fill="#C6ABFF"/>
<path d="M60.9999 116.278H46.9343V123.278H60.9999V116.278Z" fill="#5200FF"/>
<path d="M243.709 30.2689L258.771 30.5225L258.903 22.6672L243.841 22.4136L243.709 30.2689Z" fill="#5200FF"/>
<path d="M242.712 20.6483L257.774 20.9019L257.906 13.0466L242.844 12.793L242.712 20.6483Z" fill="#C6ABFF"/>
<path d="M226.112 8.43736L241.175 8.69092L241.307 0.835609L226.245 0.582047L226.112 8.43736Z" fill="black"/>
<path d="M244.371 8.16245L259.433 8.41602L259.565 0.560706L244.503 0.307145L244.371 8.16245Z" fill="#5200FF"/>
<defs>
<linearGradient id="paint0_linear" x1="151.733" y1="450.532" x2="151.733" y2="292.676" gradientUnits="userSpaceOnUse">
<stop stop-color="#808080" stop-opacity="0.25"/>
<stop offset="0.54" stop-color="#808080" stop-opacity="0.12"/>
<stop offset="1" stop-color="#808080" stop-opacity="0.1"/>
</linearGradient>
<linearGradient id="paint1_linear" x1="151.724" y1="353.78" x2="151.724" y2="446.225" gradientUnits="userSpaceOnUse">
<stop stop-color="#4729FF"/>
<stop offset="1" stop-color="#100073"/>
</linearGradient>
<clipPath id="clip0">
<path d="M18 279H279V508H18V279Z" fill="white"/>
</clipPath>
</defs>
</svg>
