<svg width="375" height="650" viewBox="0 0 375 650" fill="none" xmlns="http://www.w3.org/2000/svg">
<rect width="375" height="650" fill="#FEFEFE"/>
<path d="M50.722 295.756C51.3553 296.035 51.672 296.503 51.672 297.162C51.672 297.669 51.4947 298.087 51.14 298.416C50.8107 298.72 50.3927 298.872 49.886 298.872C49.5313 298.872 49.2147 298.809 48.936 298.682L34.838 292.678C34.306 292.45 33.888 292.121 33.584 291.69C33.28 291.234 33.128 290.715 33.128 290.132C33.128 289.575 33.28 289.068 33.584 288.612C33.888 288.156 34.306 287.827 34.838 287.624L48.936 281.582C49.2653 281.455 49.582 281.392 49.886 281.392C50.3927 281.392 50.8107 281.557 51.14 281.886C51.4947 282.19 51.672 282.595 51.672 283.102C51.672 283.761 51.3553 284.229 50.722 284.508L37.308 290.132L50.722 295.756ZM341.011 287.624C341.543 287.827 341.961 288.156 342.265 288.612C342.569 289.068 342.721 289.575 342.721 290.132C342.721 290.715 342.569 291.234 342.265 291.69C341.961 292.121 341.543 292.45 341.011 292.678L326.913 298.682C326.634 298.809 326.317 298.872 325.963 298.872C325.456 298.872 325.025 298.72 324.671 298.416C324.341 298.087 324.177 297.669 324.177 297.162C324.177 296.503 324.493 296.035 325.127 295.756L338.541 290.132L325.127 284.508C324.493 284.229 324.177 283.761 324.177 283.102C324.177 282.595 324.341 282.19 324.671 281.886C325.025 281.557 325.456 281.392 325.963 281.392C326.267 281.392 326.583 281.455 326.913 281.582L341.011 287.624Z" fill="#C0C0C0"/>
<path d="M80.4612 274.02C81.1705 274.02 81.7405 274.248 82.1712 274.704C82.6018 275.135 82.8172 275.717 82.8172 276.452V298.948C82.8172 299.657 82.6145 300.215 82.2092 300.62C81.8038 301.025 81.2718 301.228 80.6132 301.228C79.9545 301.228 79.4352 301.025 79.0552 300.62C78.6752 300.215 78.4852 299.657 78.4852 298.948V283.292L72.0252 295.528C71.7212 296.085 71.3918 296.503 71.0372 296.782C70.6825 297.035 70.2645 297.162 69.7832 297.162C69.3018 297.162 68.8838 297.035 68.5292 296.782C68.1745 296.529 67.8452 296.111 67.5412 295.528L61.0432 283.482V298.948C61.0432 299.632 60.8405 300.189 60.4352 300.62C60.0552 301.025 59.5358 301.228 58.8772 301.228C58.2185 301.228 57.6992 301.025 57.3192 300.62C56.9392 300.215 56.7492 299.657 56.7492 298.948V276.452C56.7492 275.717 56.9518 275.135 57.3572 274.704C57.7878 274.248 58.3578 274.02 59.0672 274.02C60.0552 274.02 60.8278 274.565 61.3852 275.654L69.8212 291.728L78.2192 275.654C78.7765 274.565 79.5238 274.02 80.4612 274.02ZM96.6803 301.304C94.7803 301.304 93.1083 300.911 91.6643 300.126C90.2457 299.341 89.1437 298.213 88.3583 296.744C87.573 295.275 87.1803 293.565 87.1803 291.614C87.1803 289.663 87.573 287.966 88.3583 286.522C89.1437 285.053 90.2457 283.925 91.6643 283.14C93.1083 282.355 94.7803 281.962 96.6803 281.962C98.5803 281.962 100.24 282.355 101.658 283.14C103.102 283.925 104.204 285.053 104.964 286.522C105.75 287.966 106.142 289.663 106.142 291.614C106.142 293.565 105.75 295.275 104.964 296.744C104.204 298.213 103.102 299.341 101.658 300.126C100.24 300.911 98.5803 301.304 96.6803 301.304ZM96.6423 297.618C98.1877 297.618 99.3657 297.111 100.176 296.098C100.987 295.085 101.392 293.59 101.392 291.614C101.392 289.663 100.987 288.181 100.176 287.168C99.3657 286.129 98.2003 285.61 96.6803 285.61C95.1603 285.61 93.9823 286.129 93.1463 287.168C92.3357 288.181 91.9303 289.663 91.9303 291.614C91.9303 293.59 92.3357 295.085 93.1463 296.098C93.957 297.111 95.1223 297.618 96.6423 297.618ZM120.742 281.962C122.363 281.962 123.794 282.355 125.036 283.14C126.277 283.925 127.24 285.04 127.924 286.484C128.633 287.928 128.988 289.613 128.988 291.538C128.988 293.463 128.633 295.173 127.924 296.668C127.24 298.137 126.264 299.277 124.998 300.088C123.756 300.899 122.338 301.304 120.742 301.304C119.399 301.304 118.196 301.013 117.132 300.43C116.093 299.847 115.295 299.037 114.738 297.998V298.948C114.738 299.632 114.522 300.177 114.092 300.582C113.661 300.987 113.091 301.19 112.382 301.19C111.672 301.19 111.102 300.987 110.672 300.582C110.266 300.177 110.064 299.632 110.064 298.948V276.224C110.064 275.565 110.279 275.033 110.71 274.628C111.166 274.223 111.748 274.02 112.458 274.02C113.167 274.02 113.737 274.21 114.168 274.59C114.598 274.97 114.814 275.489 114.814 276.148V285.116C115.371 284.103 116.169 283.33 117.208 282.798C118.246 282.241 119.424 281.962 120.742 281.962ZM119.488 297.618C120.982 297.618 122.148 297.086 122.984 296.022C123.82 294.958 124.238 293.463 124.238 291.538C124.238 289.638 123.82 288.181 122.984 287.168C122.173 286.155 121.008 285.648 119.488 285.648C117.968 285.648 116.79 286.167 115.954 287.206C115.143 288.219 114.738 289.689 114.738 291.614C114.738 293.539 115.143 295.021 115.954 296.06C116.79 297.099 117.968 297.618 119.488 297.618ZM135.242 301.228C134.558 301.228 133.988 301.038 133.532 300.658C133.101 300.253 132.886 299.683 132.886 298.948V284.28C132.886 283.545 133.101 282.988 133.532 282.608C133.988 282.228 134.558 282.038 135.242 282.038C135.926 282.038 136.496 282.228 136.952 282.608C137.408 282.988 137.636 283.545 137.636 284.28V298.948C137.636 299.683 137.408 300.253 136.952 300.658C136.496 301.038 135.926 301.228 135.242 301.228ZM135.242 278.656C134.381 278.656 133.697 278.428 133.19 277.972C132.683 277.491 132.43 276.87 132.43 276.11C132.43 275.35 132.683 274.742 133.19 274.286C133.697 273.83 134.381 273.602 135.242 273.602C136.078 273.602 136.749 273.83 137.256 274.286C137.788 274.742 138.054 275.35 138.054 276.11C138.054 276.87 137.801 277.491 137.294 277.972C136.787 278.428 136.103 278.656 135.242 278.656ZM144.89 301.228C144.206 301.228 143.636 301.038 143.18 300.658C142.75 300.253 142.534 299.683 142.534 298.948V276.262C142.534 275.527 142.75 274.97 143.18 274.59C143.636 274.21 144.206 274.02 144.89 274.02C145.574 274.02 146.144 274.21 146.6 274.59C147.056 274.97 147.284 275.527 147.284 276.262V298.948C147.284 299.683 147.056 300.253 146.6 300.658C146.144 301.038 145.574 301.228 144.89 301.228ZM166.889 295.908C167.32 295.908 167.662 296.073 167.915 296.402C168.194 296.731 168.333 297.175 168.333 297.732C168.333 298.517 167.864 299.176 166.927 299.708C166.066 300.189 165.09 300.582 164.001 300.886C162.912 301.165 161.873 301.304 160.885 301.304C157.896 301.304 155.527 300.443 153.779 298.72C152.031 296.997 151.157 294.641 151.157 291.652C151.157 289.752 151.537 288.067 152.297 286.598C153.057 285.129 154.121 283.989 155.489 283.178C156.882 282.367 158.453 281.962 160.201 281.962C161.873 281.962 163.33 282.329 164.571 283.064C165.812 283.799 166.775 284.837 167.459 286.18C168.143 287.523 168.485 289.106 168.485 290.93C168.485 292.019 168.004 292.564 167.041 292.564H155.831C155.983 294.312 156.477 295.604 157.313 296.44C158.149 297.251 159.365 297.656 160.961 297.656C161.772 297.656 162.481 297.555 163.089 297.352C163.722 297.149 164.432 296.871 165.217 296.516C165.977 296.111 166.534 295.908 166.889 295.908ZM160.315 285.306C159.023 285.306 157.984 285.711 157.199 286.522C156.439 287.333 155.983 288.498 155.831 290.018H164.419C164.368 288.473 163.988 287.307 163.279 286.522C162.57 285.711 161.582 285.306 160.315 285.306ZM313.481 302.292C313.329 302.773 313.088 303.128 312.759 303.356C312.429 303.584 312.062 303.698 311.657 303.698C311.15 303.698 310.694 303.521 310.289 303.166C309.909 302.837 309.719 302.406 309.719 301.874C309.719 301.646 309.757 301.418 309.833 301.19L318.649 273.564C318.801 273.083 319.041 272.728 319.371 272.5C319.7 272.272 320.067 272.158 320.473 272.158C320.979 272.158 321.423 272.335 321.803 272.69C322.208 273.019 322.411 273.45 322.411 273.982C322.411 274.21 322.373 274.438 322.297 274.666L313.481 302.292Z" fill="#5F3AFF"/>
<path d="M175.22 301.228C174.486 301.228 173.89 301 173.434 300.544C173.004 300.088 172.788 299.493 172.788 298.758V276.528C172.788 275.793 172.991 275.223 173.396 274.818C173.827 274.413 174.41 274.21 175.144 274.21H188.482C190.028 274.21 190.8 274.869 190.8 276.186C190.8 277.478 190.028 278.124 188.482 278.124H177.614V285.42H187.722C189.268 285.42 190.04 286.079 190.04 287.396C190.04 288.688 189.268 289.334 187.722 289.334H177.614V298.758C177.614 299.493 177.399 300.088 176.968 300.544C176.538 301 175.955 301.228 175.22 301.228ZM203.897 282.038C204.555 281.987 205.075 282.127 205.455 282.456C205.835 282.785 206.025 283.279 206.025 283.938C206.025 284.622 205.86 285.129 205.531 285.458C205.201 285.787 204.606 286.003 203.745 286.104L202.605 286.218C201.11 286.37 200.008 286.877 199.299 287.738C198.615 288.599 198.273 289.676 198.273 290.968V298.948C198.273 299.683 198.045 300.253 197.589 300.658C197.133 301.038 196.563 301.228 195.879 301.228C195.195 301.228 194.625 301.038 194.169 300.658C193.738 300.253 193.523 299.683 193.523 298.948V284.242C193.523 283.533 193.738 282.988 194.169 282.608C194.625 282.228 195.182 282.038 195.841 282.038C196.499 282.038 197.031 282.228 197.437 282.608C197.842 282.963 198.045 283.482 198.045 284.166V285.686C198.526 284.571 199.235 283.71 200.173 283.102C201.135 282.494 202.199 282.152 203.365 282.076L203.897 282.038ZM210.426 301.228C209.742 301.228 209.172 301.038 208.716 300.658C208.285 300.253 208.07 299.683 208.07 298.948V284.28C208.07 283.545 208.285 282.988 208.716 282.608C209.172 282.228 209.742 282.038 210.426 282.038C211.11 282.038 211.68 282.228 212.136 282.608C212.592 282.988 212.82 283.545 212.82 284.28V298.948C212.82 299.683 212.592 300.253 212.136 300.658C211.68 301.038 211.11 301.228 210.426 301.228ZM210.426 278.656C209.564 278.656 208.88 278.428 208.374 277.972C207.867 277.491 207.614 276.87 207.614 276.11C207.614 275.35 207.867 274.742 208.374 274.286C208.88 273.83 209.564 273.602 210.426 273.602C211.262 273.602 211.933 273.83 212.44 274.286C212.972 274.742 213.238 275.35 213.238 276.11C213.238 276.87 212.984 277.491 212.478 277.972C211.971 278.428 211.287 278.656 210.426 278.656ZM232.424 295.908C232.855 295.908 233.197 296.073 233.45 296.402C233.729 296.731 233.868 297.175 233.868 297.732C233.868 298.517 233.399 299.176 232.462 299.708C231.601 300.189 230.625 300.582 229.536 300.886C228.447 301.165 227.408 301.304 226.42 301.304C223.431 301.304 221.062 300.443 219.314 298.72C217.566 296.997 216.692 294.641 216.692 291.652C216.692 289.752 217.072 288.067 217.832 286.598C218.592 285.129 219.656 283.989 221.024 283.178C222.417 282.367 223.988 281.962 225.736 281.962C227.408 281.962 228.865 282.329 230.106 283.064C231.347 283.799 232.31 284.837 232.994 286.18C233.678 287.523 234.02 289.106 234.02 290.93C234.02 292.019 233.539 292.564 232.576 292.564H221.366C221.518 294.312 222.012 295.604 222.848 296.44C223.684 297.251 224.9 297.656 226.496 297.656C227.307 297.656 228.016 297.555 228.624 297.352C229.257 297.149 229.967 296.871 230.752 296.516C231.512 296.111 232.069 295.908 232.424 295.908ZM225.85 285.306C224.558 285.306 223.519 285.711 222.734 286.522C221.974 287.333 221.518 288.498 221.366 290.018H229.954C229.903 288.473 229.523 287.307 228.814 286.522C228.105 285.711 227.117 285.306 225.85 285.306ZM248.698 281.962C250.927 281.962 252.586 282.595 253.676 283.862C254.765 285.129 255.31 287.041 255.31 289.6V298.948C255.31 299.657 255.094 300.215 254.664 300.62C254.258 301.025 253.688 301.228 252.954 301.228C252.219 301.228 251.636 301.025 251.206 300.62C250.775 300.215 250.56 299.657 250.56 298.948V289.866C250.56 288.422 250.281 287.371 249.724 286.712C249.192 286.053 248.343 285.724 247.178 285.724C245.81 285.724 244.708 286.155 243.872 287.016C243.061 287.877 242.656 289.03 242.656 290.474V298.948C242.656 299.657 242.44 300.215 242.01 300.62C241.579 301.025 240.996 301.228 240.262 301.228C239.527 301.228 238.944 301.025 238.514 300.62C238.108 300.215 237.906 299.657 237.906 298.948V284.242C237.906 283.583 238.121 283.051 238.552 282.646C238.982 282.241 239.565 282.038 240.3 282.038C240.958 282.038 241.49 282.241 241.896 282.646C242.326 283.026 242.542 283.533 242.542 284.166V285.192C243.175 284.153 244.024 283.355 245.088 282.798C246.152 282.241 247.355 281.962 248.698 281.962ZM275.638 274.02C276.347 274.02 276.93 274.223 277.386 274.628C277.842 275.033 278.07 275.565 278.07 276.224V298.948C278.07 299.632 277.855 300.177 277.424 300.582C276.993 300.987 276.423 301.19 275.714 301.19C275.005 301.19 274.435 300.987 274.004 300.582C273.573 300.177 273.358 299.632 273.358 298.948V297.998C272.801 299.037 271.99 299.847 270.926 300.43C269.887 301.013 268.697 301.304 267.354 301.304C265.758 301.304 264.327 300.899 263.06 300.088C261.819 299.277 260.843 298.137 260.134 296.668C259.45 295.173 259.108 293.463 259.108 291.538C259.108 289.613 259.45 287.928 260.134 286.484C260.843 285.04 261.819 283.925 263.06 283.14C264.301 282.355 265.733 281.962 267.354 281.962C268.697 281.962 269.887 282.241 270.926 282.798C271.965 283.355 272.763 284.141 273.32 285.154V276.148C273.32 275.515 273.523 275.008 273.928 274.628C274.359 274.223 274.929 274.02 275.638 274.02ZM268.608 297.618C270.128 297.618 271.293 297.099 272.104 296.06C272.94 295.021 273.358 293.539 273.358 291.614C273.358 289.689 272.94 288.219 272.104 287.206C271.293 286.167 270.141 285.648 268.646 285.648C267.126 285.648 265.948 286.155 265.112 287.168C264.276 288.181 263.858 289.638 263.858 291.538C263.858 293.463 264.276 294.958 265.112 296.022C265.948 297.086 267.113 297.618 268.608 297.618ZM285.312 301.228C284.628 301.228 284.058 301.038 283.602 300.658C283.172 300.253 282.956 299.683 282.956 298.948V276.262C282.956 275.527 283.172 274.97 283.602 274.59C284.058 274.21 284.628 274.02 285.312 274.02C285.996 274.02 286.566 274.21 287.022 274.59C287.478 274.97 287.706 275.527 287.706 276.262V298.948C287.706 299.683 287.478 300.253 287.022 300.658C286.566 301.038 285.996 301.228 285.312 301.228ZM305.563 283.406C305.765 282.95 306.031 282.621 306.361 282.418C306.715 282.19 307.095 282.076 307.501 282.076C308.083 282.076 308.603 282.279 309.059 282.684C309.54 283.064 309.781 283.545 309.781 284.128C309.781 284.407 309.705 284.698 309.553 285.002L299.179 306.738C298.748 307.599 298.077 308.03 297.165 308.03C296.582 308.03 296.063 307.84 295.607 307.46C295.176 307.105 294.961 306.649 294.961 306.092C294.961 305.813 295.037 305.497 295.189 305.142L297.773 299.708L290.705 285.002C290.578 284.749 290.515 284.457 290.515 284.128C290.515 283.545 290.755 283.051 291.237 282.646C291.743 282.241 292.313 282.038 292.947 282.038C293.377 282.038 293.77 282.152 294.125 282.38C294.479 282.583 294.758 282.912 294.961 283.368L300.281 295.11L305.563 283.406Z" fill="#383838"/>
<g clip-path="url(#clip0)">
<path d="M238.857 494.65C238.857 494.65 243.791 528.459 272.657 539.692L214.218 539.772L155.779 539.852C184.615 528.542 189.463 494.709 189.463 494.709L238.857 494.65Z" fill="#E0E0E0"/>
<path d="M273.175 539.688L155.198 539.853L155.208 546.996L273.185 546.831L273.175 539.688Z" fill="url(#paint0_linear)"/>
<path d="M272.659 539.688L155.784 539.852L155.792 545.361L272.667 545.198L272.659 539.688Z" fill="#F5F5F5"/>
<path d="M309.036 373L118.964 373.261C116.861 373.261 115.157 375.051 115.16 377.253L115.308 488.174V491.859C115.308 500.286 121.856 507.109 129.906 507.097L298.441 506.864C306.494 506.864 313.012 500.012 313 491.586V487.9L312.853 376.98C312.849 374.778 311.139 372.997 309.036 373Z" fill="url(#paint1_linear)"/>
<path d="M120.779 376.624H307.093C307.968 376.624 308.808 376.972 309.427 377.591C310.046 378.21 310.393 379.05 310.393 379.925V485.96H117.475V379.925C117.475 379.05 117.823 378.21 118.442 377.591C119.061 376.972 119.9 376.624 120.776 376.624H120.779Z" fill="#4A4A4A"/>
<path d="M297.996 503.587L130.361 503.817C128.7 503.822 127.055 503.499 125.52 502.867C123.984 502.235 122.588 501.306 121.412 500.134C120.235 498.962 119.301 497.57 118.663 496.037C118.025 494.503 117.696 492.859 117.693 491.199V485.803L310.611 485.536V490.934C310.615 494.285 309.289 497.501 306.923 499.874C304.557 502.246 301.346 503.582 297.996 503.587Z" fill="#F5F5F5"/>
<path d="M301.672 385.061L127.092 385.305L127.215 473.568L301.795 473.324L301.672 385.061Z" fill="#8C72FF"/>
<path d="M178.682 418.525L98.3463 418.638C95.4349 418.642 93.078 421.006 93.0821 423.918L93.264 554.281C93.2681 557.193 95.6316 559.55 98.543 559.546L178.879 559.434C181.79 559.43 184.147 557.066 184.143 554.154L183.961 423.791C183.957 420.879 181.593 418.521 178.682 418.525Z" fill="url(#paint2_linear)"/>
<path d="M177.932 429.29L99.4512 429.4L99.6161 547.583L178.097 547.474L177.932 429.29Z" fill="url(#paint3_linear)"/>
<path d="M175.922 420.66L101.116 420.765C98.2042 420.769 95.8473 423.133 95.8514 426.045L96.0243 549.919C96.0283 552.831 98.3918 555.188 101.303 555.184L176.109 555.08C179.021 555.076 181.378 552.711 181.374 549.799L181.201 425.926C181.197 423.014 178.833 420.656 175.922 420.66Z" fill="#4A4A4A"/>
<path d="M175.395 431.17H101.691V543.912H175.395V431.17Z" fill="#8C72FF"/>
<path d="M138.74 552.621C140.417 552.621 141.776 551.228 141.776 549.51C141.776 547.792 140.417 546.399 138.74 546.399C137.063 546.399 135.703 547.792 135.703 549.51C135.703 551.228 137.063 552.621 138.74 552.621Z" fill="white"/>
<path d="M125.926 427.161C126.486 427.16 126.939 426.695 126.938 426.122C126.937 425.548 126.483 425.084 125.923 425.085C125.364 425.086 124.911 425.551 124.911 426.124C124.912 426.698 125.366 427.162 125.926 427.161Z" fill="white"/>
<path d="M143.706 425.475L131.422 425.492C131.18 425.492 130.983 425.689 130.984 425.932L130.984 426.092C130.984 426.334 131.181 426.53 131.424 426.53L143.708 426.513C143.95 426.513 144.146 426.316 144.146 426.073L144.146 425.913C144.146 425.671 143.949 425.475 143.706 425.475Z" fill="white"/>
<path d="M120.088 452.324L66.0639 452.399C64.3682 452.401 62.9956 453.778 62.9979 455.474L63.1424 558.932C63.1447 560.628 64.5212 562.001 66.2169 561.999L120.241 561.923C121.936 561.921 123.309 560.544 123.307 558.848L123.162 455.39C123.16 453.694 121.783 452.321 120.088 452.324Z" fill="url(#paint4_linear)"/>
<path d="M118.708 454.131L67.454 454.203C65.7584 454.205 64.3857 455.582 64.3881 457.278L64.5264 556.391C64.5288 558.087 65.9053 559.46 67.6009 559.457L118.855 559.386C120.551 559.383 121.924 558.006 121.921 556.31L121.783 457.198C121.781 455.502 120.404 454.129 118.708 454.131Z" fill="#4A4A4A"/>
<path d="M115.308 461.577L70.8726 461.639L70.9921 547.294L115.428 547.232L115.308 461.577Z" fill="#8C72FF"/>
<path d="M92.901 557.188C94.8577 557.188 96.444 555.563 96.444 553.558C96.444 551.553 94.8577 549.928 92.901 549.928C90.9442 549.928 89.3579 551.553 89.3579 553.558C89.3579 555.563 90.9442 557.188 92.901 557.188Z" fill="white"/>
<path d="M86.3572 458.35C86.7489 458.349 87.066 458.024 87.0654 457.624C87.0649 457.224 86.7469 456.9 86.3552 456.9C85.9635 456.901 85.6464 457.226 85.647 457.626C85.6476 458.026 85.9655 458.35 86.3572 458.35Z" fill="white"/>
<path d="M100.064 457.059L90.003 457.073C89.7487 457.073 89.5428 457.28 89.5431 457.534L89.5434 457.703C89.5437 457.958 89.7502 458.164 90.0045 458.163L100.066 458.149C100.32 458.149 100.526 457.942 100.526 457.688L100.525 457.519C100.525 457.265 100.319 457.059 100.064 457.059Z" fill="white"/>
</g>
<path d="M151.85 178.3C154.35 179.4 155.6 181.25 155.6 183.85C155.6 185.85 154.9 187.5 153.5 188.8C152.2 190 150.55 190.6 148.55 190.6C147.15 190.6 145.9 190.35 144.8 189.85L89.15 166.15C87.05 165.25 85.4 163.95 84.2 162.25C83 160.45 82.4 158.4 82.4 156.1C82.4 153.9 83 151.9 84.2 150.1C85.4 148.3 87.05 147 89.15 146.2L144.8 122.35C146.1 121.85 147.35 121.6 148.55 121.6C150.55 121.6 152.2 122.25 153.5 123.55C154.9 124.75 155.6 126.35 155.6 128.35C155.6 130.95 154.35 132.8 151.85 133.9L98.9 156.1L151.85 178.3Z" fill="#5F3AFF"/>
<path d="M177.141 204.1C176.541 206 175.591 207.4 174.291 208.3C172.991 209.2 171.541 209.65 169.941 209.65C167.941 209.65 166.141 208.95 164.541 207.55C163.041 206.25 162.291 204.55 162.291 202.45C162.291 201.55 162.441 200.65 162.741 199.75L197.541 90.7C198.141 88.8 199.091 87.4 200.391 86.5C201.691 85.6 203.141 85.15 204.741 85.15C206.741 85.15 208.491 85.85 209.991 87.25C211.591 88.55 212.391 90.25 212.391 92.35C212.391 93.25 212.241 94.15 211.941 95.05L177.141 204.1Z" fill="#383838"/>
<path d="M285.813 146.2C287.913 147 289.563 148.3 290.763 150.1C291.963 151.9 292.563 153.9 292.563 156.1C292.563 158.4 291.963 160.45 290.763 162.25C289.563 163.95 287.913 165.25 285.813 166.15L230.163 189.85C229.063 190.35 227.813 190.6 226.413 190.6C224.413 190.6 222.713 190 221.313 188.8C220.013 187.5 219.363 185.85 219.363 183.85C219.363 181.25 220.613 179.4 223.113 178.3L276.063 156.1L223.113 133.9C220.613 132.8 219.363 130.95 219.363 128.35C219.363 126.35 220.013 124.75 221.313 123.55C222.713 122.25 224.413 121.6 226.413 121.6C227.613 121.6 228.863 121.85 230.163 122.35L285.813 146.2Z" fill="#C0C0C0"/>
<defs>
<linearGradient id="paint0_linear" x1="214.206" y1="546.907" x2="214.196" y2="539.761" gradientUnits="userSpaceOnUse">
<stop stop-color="#808080" stop-opacity="0.25"/>
<stop offset="0.54" stop-color="#808080" stop-opacity="0.12"/>
<stop offset="1" stop-color="#808080" stop-opacity="0.1"/>
</linearGradient>
<linearGradient id="paint1_linear" x1="135653" y1="81056.6" x2="135653" y2="22377" gradientUnits="userSpaceOnUse">
<stop stop-color="#808080" stop-opacity="0.25"/>
<stop offset="0.54" stop-color="#808080" stop-opacity="0.12"/>
<stop offset="1" stop-color="#808080" stop-opacity="0.1"/>
</linearGradient>
<linearGradient id="paint2_linear" x1="40142.9" y1="108054" x2="40052.2" y2="43104.1" gradientUnits="userSpaceOnUse">
<stop stop-color="#808080" stop-opacity="0.25"/>
<stop offset="0.54" stop-color="#808080" stop-opacity="0.12"/>
<stop offset="1" stop-color="#808080" stop-opacity="0.1"/>
</linearGradient>
<linearGradient id="paint3_linear" x1="138.861" y1="548.535" x2="138.695" y2="429.808" gradientUnits="userSpaceOnUse">
<stop stop-opacity="0.09"/>
<stop offset="0.55" stop-opacity="0.07"/>
<stop offset="1" stop-opacity="0.02"/>
</linearGradient>
<linearGradient id="paint4_linear" x1="17682.4" y1="85068.8" x2="17627.6" y2="45827.6" gradientUnits="userSpaceOnUse">
<stop stop-color="#808080" stop-opacity="0.25"/>
<stop offset="0.54" stop-color="#808080" stop-opacity="0.12"/>
<stop offset="1" stop-color="#808080" stop-opacity="0.1"/>
</linearGradient>
<clipPath id="clip0">
<rect width="250" height="189" fill="white" transform="translate(63 373)"/>
</clipPath>
</defs>
</svg>
