<svg width="345" height="223" viewBox="0 0 345 223" fill="none" xmlns="http://www.w3.org/2000/svg">
<g clip-path="url(#clip0)">
<rect width="345" height="223" fill="url(#paint0_linear)"/>
<path d="M223.339 62.8654C227.684 60.3838 233.344 60.3726 237.685 62.8654C259.527 75.1794 281.376 87.474 303.214 99.7954C307.321 102.104 310.069 106.665 310.027 111.387V185.473C310.058 190.39 307.039 195.06 302.705 197.316C280.935 209.562 259.176 221.823 237.41 234.07C232.975 236.6 227.201 236.405 222.905 233.667C216.378 229.892 209.84 226.136 203.313 222.365C201.979 221.571 200.476 220.94 199.534 219.649C200.366 218.53 201.855 218.39 203.065 217.901C205.789 217.037 208.291 215.65 210.794 214.303C211.427 213.871 212.2 214.037 212.806 214.423C218.387 217.616 223.919 220.902 229.519 224.064C230.714 224.752 231.923 223.839 232.944 223.271C254.307 211.224 275.697 199.223 297.056 187.172C297.848 186.792 298.285 185.954 298.221 185.089C298.236 160.65 298.225 136.206 298.228 111.767C298.319 110.785 297.75 109.883 296.86 109.481C275.166 97.2914 253.482 85.0827 231.791 72.8896C231.416 72.6318 230.97 72.4935 230.514 72.4928C230.058 72.4921 229.613 72.6292 229.236 72.8858C207.545 85.0827 185.866 97.3026 164.175 109.492C163.289 109.894 162.694 110.782 162.799 111.767C162.803 136.206 162.799 160.65 162.799 185.093C162.762 185.515 162.855 185.938 163.066 186.306C163.276 186.674 163.595 186.968 163.979 187.15C169.767 190.425 175.563 193.676 181.355 196.94C184.618 198.693 188.624 199.734 192.22 198.391C195.392 197.256 197.616 194.026 197.555 190.665C197.585 166.368 197.54 142.068 197.578 117.775C197.499 116.696 198.524 115.805 199.575 115.907C202.356 115.888 205.141 115.869 207.922 115.914C209.083 115.888 209.882 117.05 209.739 118.136C209.727 142.587 209.769 167.038 209.72 191.488C209.727 198.004 207.044 205.095 201.003 208.283C193.561 212.13 184.362 211.314 177.01 207.626C170.645 204.456 164.571 200.715 158.319 197.319C153.974 195.076 150.97 190.387 151.001 185.473V111.387C150.955 106.567 153.812 101.923 158.047 99.6485C179.813 87.3924 201.576 75.1271 223.339 62.8654Z" fill="white"/>
<path d="M242.328 114.185C251.821 113.575 261.984 113.824 270.526 118.49C277.14 122.066 280.807 129.57 280.924 136.902C280.739 137.891 279.703 138.436 278.757 138.368C276.003 138.365 273.248 138.406 270.493 138.35C269.325 138.395 268.646 137.32 268.499 136.289C267.708 132.781 265.79 129.307 262.481 127.615C257.401 125.077 251.511 125.205 245.972 125.258C241.928 125.472 237.58 125.822 234.154 128.194C231.524 129.991 230.725 133.619 231.663 136.541C232.549 138.639 234.976 139.316 236.962 139.94C248.402 142.926 260.526 142.628 271.748 146.557C276.394 148.159 280.939 151.273 282.529 156.126C284.61 162.631 283.698 170.407 279.059 175.629C275.297 179.927 269.819 182.266 264.354 183.536C257.085 185.153 249.541 185.194 242.158 184.476C235.217 183.687 227.993 181.867 222.634 177.148C218.052 173.178 215.813 166.992 216.036 161.022C216.089 160.014 217.095 159.311 218.063 159.394C220.836 159.371 223.61 159.364 226.384 159.397C227.492 159.318 228.313 160.274 228.37 161.316C228.882 164.658 230.141 168.166 233.062 170.147C238.699 173.776 245.772 173.527 252.227 173.629C257.575 173.392 263.578 173.321 267.942 169.794C270.244 167.783 270.926 164.417 270.304 161.522C269.63 159.078 267.067 157.939 264.867 157.194C253.573 153.63 241.314 154.923 230.129 150.892C225.589 149.291 221.198 146.264 219.453 141.61C217.019 135.022 218.135 126.875 223.259 121.829C228.256 116.809 235.47 114.876 242.328 114.184V114.185Z" fill="white"/>
</g>
<defs>
<linearGradient id="paint0_linear" x1="345" y1="223" x2="5.64154e-06" y2="-8.72794e-06" gradientUnits="userSpaceOnUse">
<stop stop-color="#CCFF3A"/>
<stop offset="1" stop-color="#335A0C"/>
</linearGradient>
<clipPath id="clip0">
<rect width="345" height="223" fill="white"/>
</clipPath>
</defs>
</svg>
