<svg width="345" height="223" viewBox="0 0 345 223" fill="none" xmlns="http://www.w3.org/2000/svg">
<g clip-path="url(#clip0)">
<rect width="345" height="223" fill="url(#paint0_linear)"/>
<g clip-path="url(#clip1)">
<path d="M194.999 223H280.54C280.54 223 264.19 148.635 318.33 118.522C330.133 112.801 367.706 91.4308 429.209 136.762C431.158 135.143 432.999 133.848 432.999 133.848C432.999 133.848 376.693 77.8314 313.999 84.0914C282.489 86.8977 243.725 115.5 220.986 153.276C198.247 191.052 194.999 223 194.999 223Z" fill="white"/>
<path d="M194.999 223H280.54C280.54 223 264.19 148.635 318.33 118.522C330.133 112.801 367.706 91.4308 429.209 136.762C431.158 135.143 432.999 133.848 432.999 133.848C432.999 133.848 376.693 77.8314 313.999 84.0914C282.489 86.8977 243.725 115.5 220.986 153.276C198.247 191.052 194.999 223 194.999 223Z" fill="white"/>
<path d="M194.999 223H280.54C280.54 223 264.19 147.861 318.33 117.435C330.133 111.655 367.706 90.0617 429.209 135.865C431.158 134.229 432.999 132.92 432.999 132.92C432.999 132.92 376.693 76.3207 313.999 82.6459C282.381 85.4814 243.617 114.381 220.878 152.55C198.139 190.72 194.999 223 194.999 223ZM373.228 88.753L373.661 81.4463C372.687 80.9011 369.98 79.5924 363.158 77.6294L362.725 84.827C366.298 86.0267 369.763 87.3353 373.228 88.753Z" fill="white"/>
<path d="M362.294 112.042L361.862 118.863C365.43 118.971 368.999 119.404 372.567 120.162L373 113.449C369.323 112.691 365.755 112.258 362.294 112.042ZM322.283 78.26H323.364L321.201 71.6553C317.849 71.6553 314.388 71.8718 310.82 72.3049L312.874 78.6931C316.01 78.3683 319.147 78.26 322.283 78.26V78.26ZM327.473 118.105L329.96 125.576C333.096 124.06 336.233 122.761 339.369 121.787L336.99 114.64C333.313 115.723 330.177 116.914 327.473 118.105ZM278.378 89.6289L273.512 82.1579C270.808 83.5655 267.997 85.0814 265.077 86.8138L270.051 94.393C272.863 92.6606 275.566 91.0365 278.378 89.6289ZM300.547 138.353L305.737 146.148C307.576 143.442 309.738 140.951 312.117 138.461L307.251 131.098C304.764 133.372 302.493 135.862 300.547 138.353ZM284.866 173.217L293.626 180.147C294.058 175.924 294.815 171.701 295.897 167.479L288.11 161.307C286.705 165.313 285.731 169.319 284.866 173.217V173.217ZM237.501 121.787L229.823 115.073C227.012 117.78 224.308 120.487 221.821 123.194L230.148 130.34C232.419 127.417 234.906 124.493 237.501 121.787ZM204.843 170.185L192.407 165.638C190.352 170.294 188.081 175.707 187 178.631L199.436 183.178C200.842 179.497 203.113 174.192 204.843 170.185ZM283.244 200.719C283.46 206.457 284.001 211.113 284.542 214.362L297.519 219.017C296.545 214.795 295.572 210.031 294.923 204.942L283.244 200.719Z" fill="white"/>
</g>
</g>
<defs>
<linearGradient id="paint0_linear" x1="345" y1="223" x2="5.64154e-06" y2="-8.72794e-06" gradientUnits="userSpaceOnUse">
<stop stop-color="#FF3A3A"/>
<stop offset="1" stop-color="#5A0C0C"/>
</linearGradient>
<clipPath id="clip0">
<rect width="345" height="223" fill="white"/>
</clipPath>
<clipPath id="clip1">
<rect width="188" height="231" fill="white" transform="translate(157 -8)"/>
</clipPath>
</defs>
</svg>
