<svg width="345" height="223" viewBox="0 0 345 223" fill="none" xmlns="http://www.w3.org/2000/svg">
<g clip-path="url(#clip0)">
<rect width="345" height="223" fill="url(#paint0_linear)"/>
<path fill-rule="evenodd" clip-rule="evenodd" d="M282.864 64.0139C279.611 63.8997 276.206 64.4918 272.792 65.6472C265.964 67.9581 258.809 72.4614 251.467 78.6966C248.589 81.1402 245.685 83.9334 242.772 86.8971C239.923 84.0087 237.079 81.2904 234.265 78.9008C226.928 72.6706 219.792 68.1655 212.98 65.8599C206.168 63.5543 199.39 63.4828 193.823 66.8382C188.255 70.1935 184.926 76.3529 183.433 83.6645C181.939 90.9762 182.104 99.6835 183.604 109.432C184.125 112.817 184.868 116.37 185.715 119.988C182.534 120.995 179.444 122.053 176.58 123.221C167.935 126.746 160.781 130.963 155.572 135.981C150.363 140.999 147 147.09 147 153.777C147 160.465 150.363 166.547 155.572 171.565C160.781 176.583 167.935 180.809 176.58 184.334C179.643 185.583 182.959 186.707 186.383 187.77C185.151 192.574 184.154 197.235 183.474 201.653C181.972 211.409 181.814 220.118 183.311 227.446C184.808 234.774 188.138 240.968 193.733 244.34C199.327 247.712 206.136 247.629 212.964 245.319C219.792 243.008 226.938 238.513 234.281 232.278C237.132 229.857 240.016 227.095 242.902 224.162C245.804 227.112 248.699 229.887 251.564 232.32C258.901 238.55 266.045 243.047 272.857 245.353C279.669 247.658 286.447 247.73 292.015 244.374C297.582 241.019 300.903 234.86 302.396 227.548C303.889 220.236 303.725 211.537 302.225 201.789C301.543 197.359 300.545 192.682 299.308 187.864C302.844 186.775 306.265 185.62 309.42 184.334C318.065 180.809 325.219 176.583 330.428 171.565C335.637 166.547 339 160.465 339 153.777C339 147.09 335.637 140.999 330.428 135.981C325.219 130.963 318.065 126.746 309.42 123.221C306.514 122.036 303.378 120.964 300.147 119.946C301 116.305 301.758 112.727 302.282 109.321C303.783 99.5651 303.942 90.8482 302.445 83.5199C300.948 76.1917 297.609 70.0059 292.015 66.634C289.217 64.948 286.116 64.1281 282.864 64.0139ZM282.481 72.878C284.522 72.9362 286.263 73.4433 287.753 74.3411C290.732 76.1367 292.934 79.6314 294.109 85.3829C295.284 91.1344 295.243 98.9053 293.856 107.917C293.381 111.003 292.692 114.273 291.909 117.624C283.374 115.479 274.023 113.888 264.056 112.953C259.053 105.717 253.912 99.1251 248.729 93.2772C251.47 90.4833 254.194 87.8703 256.853 85.6126C263.636 79.8528 270.057 75.9336 275.416 74.12C278.095 73.2131 280.439 72.8197 282.481 72.878ZM203.308 72.9035C205.361 72.8437 207.71 73.236 210.397 74.1455C215.771 75.9644 222.204 79.8818 228.992 85.6466C231.598 87.859 234.261 90.4223 236.946 93.1496C231.724 99.0453 226.54 105.695 221.504 112.996C211.579 113.948 202.266 115.548 193.774 117.7C192.996 114.368 192.307 111.115 191.834 108.045C190.446 99.0251 190.412 91.2531 191.59 85.485C192.768 79.7169 194.988 76.1958 197.995 74.3837C199.498 73.4776 201.255 72.9633 203.308 72.9035ZM242.902 99.5467C246.301 103.408 249.7 107.633 253.072 112.179C249.759 112.035 246.406 111.95 243 111.95C239.527 111.95 236.109 112.038 232.733 112.188C236.105 107.638 239.503 103.411 242.902 99.5467ZM243 120.746C248.674 120.746 254.204 120.989 259.583 121.401C263.284 126.95 266.901 132.838 270.347 139.069C273.375 144.545 276.116 150.012 278.61 155.411C276.089 160.881 273.303 166.422 270.233 171.973C267.531 176.86 264.708 181.501 261.84 185.975C255.764 186.506 249.468 186.801 243 186.801C236.376 186.801 229.939 186.488 223.728 185.933C220.907 181.522 218.133 176.952 215.474 172.143C212.411 166.605 209.638 161.074 207.121 155.615C209.648 150.125 212.434 144.563 215.514 138.993C218.943 132.794 222.549 126.94 226.23 121.418C231.667 120.997 237.261 120.746 243 120.746ZM270.323 122.489C277.2 123.385 283.658 124.629 289.668 126.122C287.884 132.224 285.688 138.599 283.026 145.177C281.298 141.699 279.509 138.21 277.575 134.714C275.232 130.476 272.791 126.437 270.323 122.489ZM215.229 122.557C212.813 126.431 210.436 130.392 208.14 134.543C206.181 138.085 204.354 141.621 202.607 145.143C199.968 138.604 197.785 132.266 196.015 126.198C201.98 124.703 208.399 123.464 215.229 122.557ZM297.922 128.436C300.88 129.37 303.736 130.345 306.356 131.413C314.326 134.662 320.63 138.51 324.715 142.446C328.801 146.382 330.574 150.136 330.574 153.777C330.574 157.419 328.801 161.172 324.715 165.108C320.63 169.044 314.326 172.892 306.356 176.142C303.445 177.329 300.246 178.405 296.92 179.425C294.548 171.765 291.52 163.773 287.916 155.615C292.059 146.248 295.407 137.116 297.922 128.436ZM187.939 128.478C190.426 137.072 193.73 146.113 197.815 155.385C194.188 163.591 191.145 171.628 188.762 179.332C185.554 178.338 182.463 177.291 179.644 176.142C171.674 172.892 165.37 169.044 161.285 165.108C157.199 161.172 155.426 157.419 155.426 153.777C155.426 150.136 157.199 146.382 161.285 142.446C165.37 138.51 171.674 134.662 179.644 131.413C182.223 130.361 185.032 129.4 187.939 128.478ZM243 133.769C231.528 133.769 222.139 143.571 222.139 155.547C222.139 167.522 231.528 177.324 243 177.324C254.472 177.324 263.861 167.522 263.861 155.547C263.861 143.571 254.472 133.769 243 133.769ZM202.705 165.848C204.46 169.388 206.285 172.939 208.254 176.499C209.794 179.284 211.367 181.995 212.964 184.657C207.361 183.846 202.035 182.819 197.033 181.603C198.624 176.517 200.527 171.239 202.705 165.848ZM283.132 165.848C285.319 171.251 287.223 176.539 288.82 181.637C283.803 182.851 278.46 183.875 272.841 184.682C274.458 181.988 276.056 179.243 277.616 176.422C279.57 172.889 281.388 169.362 283.132 165.848ZM194.629 190.059C202.18 191.926 210.364 193.36 219.043 194.295C224.836 203.042 230.871 210.902 236.946 217.774C234.229 220.538 231.537 223.133 228.903 225.37C222.12 231.13 215.691 235.041 210.332 236.854C204.973 238.668 200.974 238.429 197.995 236.633C195.016 234.838 192.822 231.343 191.647 225.591C190.472 219.84 190.504 212.077 191.891 203.065C192.52 198.977 193.461 194.599 194.629 190.059ZM291.232 190.093C292.411 194.661 293.354 199.055 293.987 203.168C295.375 212.187 295.409 219.959 294.231 225.727C293.053 231.496 290.849 235.025 287.842 236.837C284.836 238.649 280.798 238.886 275.424 237.067C270.05 235.248 263.617 231.331 256.828 225.566C254.175 223.313 251.464 220.697 248.729 217.91C254.843 211.012 260.921 203.112 266.754 194.312C275.454 193.384 283.661 191.958 291.232 190.093ZM229.929 195.188C234.213 195.432 238.554 195.597 243 195.597C247.299 195.597 251.499 195.442 255.647 195.214C251.407 201.186 247.085 206.615 242.78 211.504C238.478 206.605 234.164 201.166 229.929 195.188Z" fill="white"/>
</g>
<defs>
<linearGradient id="paint0_linear" x1="345" y1="223" x2="5.64154e-06" y2="-8.72794e-06" gradientUnits="userSpaceOnUse">
<stop stop-color="#5F3AFF"/>
<stop offset="1" stop-color="#1B0C5A"/>
</linearGradient>
<clipPath id="clip0">
<rect width="345" height="223" fill="white"/>
</clipPath>
</defs>
</svg>
