<svg width="1440" height="898" viewBox="0 0 1440 898" fill="none" xmlns="http://www.w3.org/2000/svg">
<rect width="1440" height="898" fill="#FFFFFF"/>
<path d="M92.56 183.972C87.016 183.972 81.76 183.252 76.792 181.812C71.896 180.3 67.9 178.284 64.804 175.764C63.148 174.54 62.32 172.812 62.32 170.58C62.32 169.068 62.752 167.772 63.616 166.692C64.552 165.54 65.632 164.964 66.856 164.964C68.152 164.964 69.628 165.468 71.284 166.476C74.38 168.708 77.62 170.328 81.004 171.336C84.388 172.344 88.132 172.848 92.236 172.848C97.492 172.848 101.524 171.948 104.332 170.148C107.14 168.276 108.544 165.576 108.544 162.048C108.544 159.312 107.212 157.224 104.548 155.784C101.956 154.272 97.6 152.832 91.48 151.464C85.144 150.096 79.996 148.512 76.036 146.712C72.076 144.912 69.088 142.608 67.072 139.8C65.056 136.992 64.048 133.428 64.048 129.108C64.048 124.644 65.308 120.648 67.828 117.12C70.348 113.592 73.84 110.856 78.304 108.912C82.84 106.896 87.916 105.888 93.532 105.888C103.828 105.888 112.216 108.624 118.696 114.096C119.632 114.888 120.28 115.68 120.64 116.472C121.072 117.192 121.288 118.128 121.288 119.28C121.288 120.792 120.82 122.124 119.884 123.276C119.02 124.356 117.976 124.896 116.752 124.896C116.032 124.896 115.348 124.788 114.7 124.572C114.124 124.356 113.332 123.96 112.324 123.384C109.372 121.224 106.492 119.64 103.684 118.632C100.948 117.552 97.564 117.012 93.532 117.012C88.636 117.012 84.748 118.02 81.868 120.036C79.06 121.98 77.656 124.716 77.656 128.244C77.656 131.196 78.916 133.464 81.436 135.048C83.956 136.632 88.24 138.108 94.288 139.476C100.696 140.916 105.88 142.536 109.84 144.336C113.872 146.064 116.932 148.296 119.02 151.032C121.18 153.768 122.26 157.188 122.26 161.292C122.26 165.756 121 169.716 118.48 173.172C116.032 176.556 112.54 179.22 108.004 181.164C103.54 183.036 98.392 183.972 92.56 183.972ZM562.107 183.972C556.563 183.972 551.307 183.252 546.339 181.812C541.443 180.3 537.447 178.284 534.351 175.764C532.695 174.54 531.867 172.812 531.867 170.58C531.867 169.068 532.299 167.772 533.163 166.692C534.099 165.54 535.179 164.964 536.403 164.964C537.699 164.964 539.175 165.468 540.831 166.476C543.927 168.708 547.167 170.328 550.551 171.336C553.935 172.344 557.679 172.848 561.783 172.848C567.039 172.848 571.071 171.948 573.879 170.148C576.687 168.276 578.091 165.576 578.091 162.048C578.091 159.312 576.759 157.224 574.095 155.784C571.503 154.272 567.147 152.832 561.027 151.464C554.691 150.096 549.543 148.512 545.583 146.712C541.623 144.912 538.635 142.608 536.619 139.8C534.603 136.992 533.595 133.428 533.595 129.108C533.595 124.644 534.855 120.648 537.375 117.12C539.895 113.592 543.387 110.856 547.851 108.912C552.387 106.896 557.463 105.888 563.079 105.888C573.375 105.888 581.763 108.624 588.243 114.096C589.179 114.888 589.827 115.68 590.187 116.472C590.619 117.192 590.835 118.128 590.835 119.28C590.835 120.792 590.367 122.124 589.431 123.276C588.567 124.356 587.523 124.896 586.299 124.896C585.579 124.896 584.895 124.788 584.247 124.572C583.671 124.356 582.879 123.96 581.871 123.384C578.919 121.224 576.039 119.64 573.231 118.632C570.495 117.552 567.111 117.012 563.079 117.012C558.183 117.012 554.295 118.02 551.415 120.036C548.607 121.98 547.203 124.716 547.203 128.244C547.203 131.196 548.463 133.464 550.983 135.048C553.503 136.632 557.787 138.108 563.835 139.476C570.243 140.916 575.427 142.536 579.387 144.336C583.419 146.064 586.479 148.296 588.567 151.032C590.727 153.768 591.807 157.188 591.807 161.292C591.807 165.756 590.547 169.716 588.027 173.172C585.579 176.556 582.087 179.22 577.551 181.164C573.087 183.036 567.939 183.972 562.107 183.972Z" fill="#5F3AFF"/>
<path d="M175.579 129.108C177.667 129.108 179.323 129.684 180.547 130.836C181.771 131.988 182.383 133.536 182.383 135.48V177.384C182.383 179.256 181.735 180.768 180.439 181.92C179.215 183.072 177.595 183.648 175.579 183.648C173.635 183.648 172.087 183.108 170.935 182.028C169.783 180.948 169.207 179.472 169.207 177.6V174.9C167.551 177.78 165.319 180.012 162.511 181.596C159.703 183.108 156.535 183.864 153.007 183.864C140.047 183.864 133.567 176.592 133.567 162.048V135.48C133.567 133.536 134.179 131.988 135.403 130.836C136.627 129.684 138.247 129.108 140.263 129.108C142.351 129.108 144.007 129.684 145.231 130.836C146.455 131.988 147.067 133.536 147.067 135.48V162.156C147.067 165.9 147.823 168.672 149.335 170.472C150.847 172.272 153.223 173.172 156.463 173.172C160.207 173.172 163.195 171.948 165.427 169.5C167.731 166.98 168.883 163.668 168.883 159.564V135.48C168.883 133.536 169.495 131.988 170.719 130.836C171.943 129.684 173.563 129.108 175.579 129.108ZM243.414 172.524C244.854 173.892 245.574 175.44 245.574 177.168C245.574 178.824 244.962 180.3 243.738 181.596C242.586 182.892 241.218 183.54 239.634 183.54C238.05 183.54 236.574 182.892 235.206 181.596L209.934 158.7V177.168C209.934 179.256 209.286 180.84 207.99 181.92C206.694 183 205.074 183.54 203.13 183.54C201.186 183.54 199.566 183 198.27 181.92C197.046 180.84 196.434 179.256 196.434 177.168V112.692C196.434 110.604 197.046 109.02 198.27 107.94C199.566 106.86 201.186 106.32 203.13 106.32C205.074 106.32 206.694 106.86 207.99 107.94C209.286 109.02 209.934 110.604 209.934 112.692V153.3L233.046 131.16C234.342 129.864 235.818 129.216 237.474 129.216C239.13 129.216 240.57 129.828 241.794 131.052C243.018 132.276 243.63 133.716 243.63 135.372C243.63 137.028 242.946 138.54 241.578 139.908L224.622 155.676L243.414 172.524ZM261.032 183.648C259.088 183.648 257.468 183.108 256.172 182.028C254.948 180.876 254.336 179.256 254.336 177.168V135.48C254.336 133.392 254.948 131.808 256.172 130.728C257.468 129.648 259.088 129.108 261.032 129.108C262.976 129.108 264.596 129.648 265.892 130.728C267.188 131.808 267.836 133.392 267.836 135.48V177.168C267.836 179.256 267.188 180.876 265.892 182.028C264.596 183.108 262.976 183.648 261.032 183.648ZM261.032 119.496C258.584 119.496 256.64 118.848 255.2 117.552C253.76 116.184 253.04 114.42 253.04 112.26C253.04 110.1 253.76 108.372 255.2 107.076C256.64 105.78 258.584 105.132 261.032 105.132C263.408 105.132 265.316 105.78 266.756 107.076C268.268 108.372 269.024 110.1 269.024 112.26C269.024 114.42 268.304 116.184 266.864 117.552C265.424 118.848 263.48 119.496 261.032 119.496ZM304.654 128.892C311.998 128.892 317.434 130.728 320.962 134.4C324.562 138 326.362 143.508 326.362 150.924V177.276C326.362 179.22 325.786 180.768 324.634 181.92C323.482 183 321.898 183.54 319.882 183.54C318.01 183.54 316.462 182.964 315.238 181.812C314.086 180.66 313.51 179.148 313.51 177.276V174.9C312.286 177.708 310.342 179.904 307.678 181.488C305.086 183.072 302.062 183.864 298.606 183.864C295.078 183.864 291.874 183.144 288.994 181.704C286.114 180.264 283.846 178.284 282.19 175.764C280.534 173.244 279.706 170.436 279.706 167.34C279.706 163.452 280.678 160.392 282.622 158.16C284.638 155.928 287.878 154.308 292.342 153.3C296.806 152.292 302.962 151.788 310.81 151.788H313.51V149.304C313.51 145.776 312.754 143.22 311.242 141.636C309.73 139.98 307.282 139.152 303.898 139.152C301.81 139.152 299.686 139.476 297.526 140.124C295.366 140.7 292.81 141.564 289.858 142.716C287.986 143.652 286.618 144.12 285.754 144.12C284.458 144.12 283.378 143.652 282.514 142.716C281.722 141.78 281.326 140.556 281.326 139.044C281.326 137.82 281.614 136.776 282.19 135.912C282.838 134.976 283.882 134.112 285.322 133.32C287.842 131.952 290.83 130.872 294.286 130.08C297.814 129.288 301.27 128.892 304.654 128.892ZM301.306 174.144C304.906 174.144 307.822 172.956 310.054 170.58C312.358 168.132 313.51 165 313.51 161.184V158.916H311.566C306.742 158.916 302.998 159.132 300.334 159.564C297.67 159.996 295.762 160.752 294.61 161.832C293.458 162.912 292.882 164.388 292.882 166.26C292.882 168.564 293.674 170.472 295.258 171.984C296.914 173.424 298.93 174.144 301.306 174.144ZM370.755 128.892C377.091 128.892 381.807 130.692 384.903 134.292C387.999 137.892 389.547 143.328 389.547 150.6V177.168C389.547 179.184 388.935 180.768 387.711 181.92C386.559 183.072 384.939 183.648 382.851 183.648C380.763 183.648 379.107 183.072 377.883 181.92C376.659 180.768 376.047 179.184 376.047 177.168V151.356C376.047 147.252 375.255 144.264 373.671 142.392C372.159 140.52 369.747 139.584 366.435 139.584C362.547 139.584 359.415 140.808 357.039 143.256C354.735 145.704 353.583 148.98 353.583 153.084V177.168C353.583 179.184 352.971 180.768 351.747 181.92C350.523 183.072 348.867 183.648 346.779 183.648C344.691 183.648 343.035 183.072 341.811 181.92C340.659 180.768 340.083 179.184 340.083 177.168V135.372C340.083 133.5 340.695 131.988 341.919 130.836C343.143 129.684 344.799 129.108 346.887 129.108C348.759 129.108 350.271 129.684 351.423 130.836C352.647 131.916 353.259 133.356 353.259 135.156V138.072C355.059 135.12 357.471 132.852 360.495 131.268C363.519 129.684 366.939 128.892 370.755 128.892ZM430.69 173.604C434.29 173.82 436.09 175.44 436.09 178.464C436.09 180.192 435.37 181.524 433.93 182.46C432.562 183.324 430.582 183.684 427.99 183.54L425.074 183.324C412.978 182.46 406.93 175.98 406.93 163.884V140.34H401.53C399.586 140.34 398.074 139.908 396.994 139.044C395.986 138.18 395.482 136.92 395.482 135.264C395.482 133.608 395.986 132.348 396.994 131.484C398.074 130.62 399.586 130.188 401.53 130.188H406.93V120.252C406.93 118.308 407.542 116.76 408.766 115.608C409.99 114.456 411.646 113.88 413.734 113.88C415.75 113.88 417.37 114.456 418.594 115.608C419.818 116.76 420.43 118.308 420.43 120.252V130.188H429.61C431.554 130.188 433.03 130.62 434.038 131.484C435.118 132.348 435.658 133.608 435.658 135.264C435.658 136.92 435.118 138.18 434.038 139.044C433.03 139.908 431.554 140.34 429.61 140.34H420.43V164.856C420.43 170.184 422.878 173.028 427.774 173.388L430.69 173.604ZM467.209 183.864C461.809 183.864 457.057 182.748 452.953 180.516C448.921 178.284 445.789 175.08 443.557 170.904C441.325 166.728 440.209 161.868 440.209 156.324C440.209 150.78 441.325 145.956 443.557 141.852C445.789 137.676 448.921 134.472 452.953 132.24C457.057 130.008 461.809 128.892 467.209 128.892C472.609 128.892 477.325 130.008 481.357 132.24C485.461 134.472 488.593 137.676 490.753 141.852C492.985 145.956 494.101 150.78 494.101 156.324C494.101 161.868 492.985 166.728 490.753 170.904C488.593 175.08 485.461 178.284 481.357 180.516C477.325 182.748 472.609 183.864 467.209 183.864ZM467.101 173.388C471.493 173.388 474.841 171.948 477.145 169.068C479.449 166.188 480.601 161.94 480.601 156.324C480.601 150.78 479.449 146.568 477.145 143.688C474.841 140.736 471.529 139.26 467.209 139.26C462.889 139.26 459.541 140.736 457.165 143.688C454.861 146.568 453.709 150.78 453.709 156.324C453.709 161.94 454.861 166.188 457.165 169.068C459.469 171.948 462.781 173.388 467.101 173.388ZM645.126 129.108C647.214 129.108 648.87 129.684 650.094 130.836C651.318 131.988 651.93 133.536 651.93 135.48V177.384C651.93 179.256 651.282 180.768 649.986 181.92C648.762 183.072 647.142 183.648 645.126 183.648C643.182 183.648 641.634 183.108 640.482 182.028C639.33 180.948 638.754 179.472 638.754 177.6V174.9C637.098 177.78 634.866 180.012 632.058 181.596C629.25 183.108 626.082 183.864 622.554 183.864C609.594 183.864 603.114 176.592 603.114 162.048V135.48C603.114 133.536 603.726 131.988 604.95 130.836C606.174 129.684 607.794 129.108 609.81 129.108C611.898 129.108 613.554 129.684 614.778 130.836C616.002 131.988 616.614 133.536 616.614 135.48V162.156C616.614 165.9 617.37 168.672 618.882 170.472C620.394 172.272 622.77 173.172 626.01 173.172C629.754 173.172 632.742 171.948 634.974 169.5C637.278 166.98 638.43 163.668 638.43 159.564V135.48C638.43 133.536 639.042 131.988 640.266 130.836C641.49 129.684 643.11 129.108 645.126 129.108ZM693.413 173.604C697.013 173.82 698.813 175.44 698.813 178.464C698.813 180.192 698.093 181.524 696.653 182.46C695.285 183.324 693.305 183.684 690.713 183.54L687.797 183.324C675.701 182.46 669.653 175.98 669.653 163.884V140.34H664.253C662.309 140.34 660.797 139.908 659.717 139.044C658.709 138.18 658.205 136.92 658.205 135.264C658.205 133.608 658.709 132.348 659.717 131.484C660.797 130.62 662.309 130.188 664.253 130.188H669.653V120.252C669.653 118.308 670.265 116.76 671.489 115.608C672.713 114.456 674.369 113.88 676.457 113.88C678.473 113.88 680.093 114.456 681.317 115.608C682.541 116.76 683.153 118.308 683.153 120.252V130.188H692.333C694.277 130.188 695.753 130.62 696.761 131.484C697.841 132.348 698.381 133.608 698.381 135.264C698.381 136.92 697.841 138.18 696.761 139.044C695.753 139.908 694.277 140.34 692.333 140.34H683.153V164.856C683.153 170.184 685.601 173.028 690.497 173.388L693.413 173.604ZM747.644 168.528C748.868 168.528 749.84 168.996 750.56 169.932C751.352 170.868 751.748 172.128 751.748 173.712C751.748 175.944 750.416 177.816 747.752 179.328C745.304 180.696 742.532 181.812 739.436 182.676C736.34 183.468 733.388 183.864 730.58 183.864C722.084 183.864 715.352 181.416 710.384 176.52C705.416 171.624 702.932 164.928 702.932 156.432C702.932 151.032 704.012 146.244 706.172 142.068C708.332 137.892 711.356 134.652 715.244 132.348C719.204 130.044 723.668 128.892 728.636 128.892C733.388 128.892 737.528 129.936 741.056 132.024C744.584 134.112 747.32 137.064 749.264 140.88C751.208 144.696 752.18 149.196 752.18 154.38C752.18 157.476 750.812 159.024 748.076 159.024H716.216C716.648 163.992 718.052 167.664 720.428 170.04C722.804 172.344 726.26 173.496 730.796 173.496C733.1 173.496 735.116 173.208 736.844 172.632C738.644 172.056 740.66 171.264 742.892 170.256C745.052 169.104 746.636 168.528 747.644 168.528ZM728.96 138.396C725.288 138.396 722.336 139.548 720.104 141.852C717.944 144.156 716.648 147.468 716.216 151.788H740.624C740.48 147.396 739.4 144.084 737.384 141.852C735.368 139.548 732.56 138.396 728.96 138.396ZM755.663 202.656C753.071 202.8 751.091 202.44 749.723 201.576C748.283 200.712 747.563 199.38 747.563 197.58C747.563 194.628 749.363 193.008 752.963 192.72L755.879 192.504C758.327 192.36 760.163 191.604 761.387 190.236C762.611 188.868 763.223 186.78 763.223 183.972V135.48C763.223 133.392 763.835 131.808 765.059 130.728C766.355 129.648 767.975 129.108 769.919 129.108C771.863 129.108 773.483 129.648 774.779 130.728C776.075 131.808 776.723 133.392 776.723 135.48V183C776.723 195.096 770.675 201.576 758.579 202.44L755.663 202.656ZM769.811 119.496C767.363 119.496 765.419 118.848 763.979 117.552C762.539 116.184 761.819 114.42 761.819 112.26C761.819 110.1 762.539 108.372 763.979 107.076C765.419 105.78 767.363 105.132 769.811 105.132C772.187 105.132 774.095 105.78 775.535 107.076C777.047 108.372 777.803 110.1 777.803 112.26C777.803 114.42 777.083 116.184 775.643 117.552C774.203 118.848 772.259 119.496 769.811 119.496ZM813.541 128.892C820.885 128.892 826.321 130.728 829.849 134.4C833.449 138 835.249 143.508 835.249 150.924V177.276C835.249 179.22 834.673 180.768 833.521 181.92C832.369 183 830.785 183.54 828.769 183.54C826.897 183.54 825.349 182.964 824.125 181.812C822.973 180.66 822.397 179.148 822.397 177.276V174.9C821.173 177.708 819.229 179.904 816.565 181.488C813.973 183.072 810.949 183.864 807.493 183.864C803.965 183.864 800.761 183.144 797.881 181.704C795.001 180.264 792.733 178.284 791.077 175.764C789.421 173.244 788.593 170.436 788.593 167.34C788.593 163.452 789.565 160.392 791.509 158.16C793.525 155.928 796.765 154.308 801.229 153.3C805.693 152.292 811.849 151.788 819.697 151.788H822.397V149.304C822.397 145.776 821.641 143.22 820.129 141.636C818.617 139.98 816.169 139.152 812.785 139.152C810.697 139.152 808.573 139.476 806.413 140.124C804.253 140.7 801.697 141.564 798.745 142.716C796.873 143.652 795.505 144.12 794.641 144.12C793.345 144.12 792.265 143.652 791.401 142.716C790.609 141.78 790.213 140.556 790.213 139.044C790.213 137.82 790.501 136.776 791.077 135.912C791.725 134.976 792.769 134.112 794.209 133.32C796.729 131.952 799.717 130.872 803.173 130.08C806.701 129.288 810.157 128.892 813.541 128.892ZM810.193 174.144C813.793 174.144 816.709 172.956 818.941 170.58C821.245 168.132 822.397 165 822.397 161.184V158.916H820.453C815.629 158.916 811.885 159.132 809.221 159.564C806.557 159.996 804.649 160.752 803.497 161.832C802.345 162.912 801.769 164.388 801.769 166.26C801.769 168.564 802.561 170.472 804.145 171.984C805.801 173.424 807.817 174.144 810.193 174.144Z" fill="black"/>
<rect x="157" y="234" width="585" height="113" rx="56.5" fill="url(#paint0_linear)"/>
<path d="M245.743 268.034L240.721 311H230.15L227.019 280.279L223.578 311H212.821L208.171 268.034H217.688L219.145 302.32L222.71 272.994H231.452L234.769 302.32L236.908 268.034H245.743ZM258.367 297.391C258.698 300.078 259.576 302.01 261.002 303.188C262.428 304.345 264.185 304.924 266.272 304.924C267.781 304.924 269.238 304.676 270.643 304.18C272.049 303.684 273.402 303.023 274.704 302.196L278.641 307.528C277.091 308.851 275.211 309.936 272.999 310.783C270.809 311.63 268.308 312.054 265.497 312.054C261.736 312.054 258.584 311.31 256.042 309.822C253.5 308.313 251.589 306.247 250.307 303.622C249.026 300.997 248.385 297.98 248.385 294.57C248.385 291.325 249.005 288.38 250.245 285.735C251.485 283.069 253.294 280.951 255.67 279.38C258.068 277.789 260.992 276.993 264.443 276.993C267.585 276.993 270.302 277.665 272.596 279.008C274.911 280.351 276.699 282.284 277.959 284.805C279.241 287.326 279.881 290.354 279.881 293.888C279.881 294.446 279.861 295.045 279.819 295.686C279.799 296.327 279.757 296.895 279.695 297.391H258.367ZM264.443 283.565C262.687 283.565 261.271 284.195 260.196 285.456C259.122 286.717 258.471 288.732 258.243 291.501H270.333C270.313 289.104 269.848 287.182 268.938 285.735C268.029 284.288 266.531 283.565 264.443 283.565ZM296.845 281.457C297.878 280.093 299.118 279.008 300.565 278.202C302.032 277.396 303.603 276.993 305.277 276.993C309.514 276.993 312.593 278.564 314.515 281.705C316.458 284.846 317.429 289.093 317.429 294.446C317.429 297.835 316.923 300.863 315.91 303.529C314.918 306.174 313.44 308.262 311.477 309.791C309.514 311.3 307.106 312.054 304.254 312.054C300.803 312.054 298.085 310.711 296.101 308.024L295.729 311H287.049V264.996L296.845 263.973V281.457ZM301.681 304.924C303.417 304.924 304.791 304.128 305.804 302.537C306.817 300.925 307.323 298.269 307.323 294.57C307.323 291.842 307.106 289.734 306.672 288.246C306.259 286.737 305.659 285.694 304.874 285.115C304.109 284.516 303.21 284.216 302.177 284.216C301.082 284.216 300.1 284.557 299.232 285.239C298.364 285.921 297.568 286.851 296.845 288.029V301.917C297.465 302.888 298.157 303.632 298.922 304.149C299.687 304.666 300.606 304.924 301.681 304.924ZM392.68 289.3C392.68 293.661 392.101 297.257 390.944 300.088C389.807 302.919 388.257 305.131 386.294 306.722C384.33 308.293 382.098 309.398 379.598 310.039C377.118 310.68 374.545 311 371.879 311H360.285V268.034H371.135C373.883 268.034 376.539 268.323 379.102 268.902C381.685 269.46 383.989 270.504 386.015 272.033C388.061 273.542 389.683 275.691 390.882 278.481C392.08 281.25 392.68 284.857 392.68 289.3ZM382.14 289.3C382.14 285.435 381.716 282.511 380.869 280.527C380.042 278.543 378.905 277.2 377.459 276.497C376.033 275.774 374.421 275.412 372.623 275.412H370.453V303.653H372.623C374.503 303.653 376.157 303.25 377.583 302.444C379.009 301.617 380.125 300.16 380.931 298.073C381.737 295.986 382.14 293.061 382.14 289.3ZM407.07 297.391C407.401 300.078 408.279 302.01 409.705 303.188C411.131 304.345 412.888 304.924 414.975 304.924C416.484 304.924 417.941 304.676 419.346 304.18C420.752 303.684 422.105 303.023 423.407 302.196L427.344 307.528C425.794 308.851 423.914 309.936 421.702 310.783C419.512 311.63 417.011 312.054 414.2 312.054C410.439 312.054 407.287 311.31 404.745 309.822C402.203 308.313 400.292 306.247 399.01 303.622C397.729 300.997 397.088 297.98 397.088 294.57C397.088 291.325 397.708 288.38 398.948 285.735C400.188 283.069 401.997 280.951 404.373 279.38C406.771 277.789 409.695 276.993 413.146 276.993C416.288 276.993 419.005 277.665 421.299 279.008C423.614 280.351 425.402 282.284 426.662 284.805C427.944 287.326 428.584 290.354 428.584 293.888C428.584 294.446 428.564 295.045 428.522 295.686C428.502 296.327 428.46 296.895 428.398 297.391H407.07ZM413.146 283.565C411.39 283.565 409.974 284.195 408.899 285.456C407.825 286.717 407.174 288.732 406.946 291.501H419.036C419.016 289.104 418.551 287.182 417.641 285.735C416.732 284.288 415.234 283.565 413.146 283.565ZM466.814 278.078L455.84 311H444.308L433.21 278.078H443.781L450.198 303.498L456.894 278.078H466.814ZM481.422 297.391C481.753 300.078 482.631 302.01 484.057 303.188C485.483 304.345 487.24 304.924 489.327 304.924C490.836 304.924 492.293 304.676 493.698 304.18C495.103 303.684 496.457 303.023 497.759 302.196L501.696 307.528C500.146 308.851 498.265 309.936 496.054 310.783C493.863 311.63 491.363 312.054 488.552 312.054C484.791 312.054 481.639 311.31 479.097 309.822C476.555 308.313 474.643 306.247 473.362 303.622C472.081 300.997 471.44 297.98 471.44 294.57C471.44 291.325 472.06 288.38 473.3 285.735C474.54 283.069 476.348 280.951 478.725 279.38C481.122 277.789 484.047 276.993 487.498 276.993C490.639 276.993 493.357 277.665 495.651 279.008C497.966 280.351 499.753 282.284 501.014 284.805C502.295 287.326 502.936 290.354 502.936 293.888C502.936 294.446 502.915 295.045 502.874 295.686C502.853 296.327 502.812 296.895 502.75 297.391H481.422ZM487.498 283.565C485.741 283.565 484.326 284.195 483.251 285.456C482.176 286.717 481.525 288.732 481.298 291.501H493.388C493.367 289.104 492.902 287.182 491.993 285.735C491.084 284.288 489.585 283.565 487.498 283.565ZM527.278 264.996V300.646C527.278 301.969 527.65 302.919 528.394 303.498C529.158 304.056 530.202 304.335 531.525 304.335C532.372 304.335 533.188 304.242 533.974 304.056C534.759 303.849 535.493 303.612 536.175 303.343L538.531 309.884C537.415 310.463 536.071 310.969 534.501 311.403C532.93 311.837 531.101 312.054 529.014 312.054C525.046 312.054 522.132 310.917 520.272 308.644C518.412 306.35 517.482 303.281 517.482 299.437V271.692H507.779V264.996H527.278ZM561.539 276.993C564.929 276.993 567.812 277.716 570.188 279.163C572.565 280.61 574.384 282.645 575.644 285.27C576.905 287.874 577.535 290.933 577.535 294.446C577.535 299.943 576.13 304.252 573.319 307.373C570.509 310.494 566.582 312.054 561.539 312.054C556.497 312.054 552.57 310.514 549.759 307.435C546.949 304.356 545.543 300.047 545.543 294.508C545.543 291.015 546.174 287.957 547.434 285.332C548.716 282.707 550.545 280.661 552.921 279.194C555.319 277.727 558.191 276.993 561.539 276.993ZM561.539 284.216C559.535 284.216 558.047 285.043 557.075 286.696C556.125 288.329 555.649 290.933 555.649 294.508C555.649 298.145 556.125 300.78 557.075 302.413C558.047 304.046 559.535 304.862 561.539 304.862C563.544 304.862 565.022 304.046 565.972 302.413C566.944 300.78 567.429 298.125 567.429 294.446C567.429 290.891 566.944 288.298 565.972 286.665C565.022 285.032 563.544 284.216 561.539 284.216ZM602.683 276.993C606.982 276.993 610.061 278.564 611.921 281.705C613.781 284.846 614.711 289.093 614.711 294.446C614.711 297.835 614.215 300.863 613.223 303.529C612.231 306.174 610.795 308.262 608.914 309.791C607.034 311.3 604.75 312.054 602.063 312.054C598.86 312.054 596.256 310.907 594.251 308.613V323.71L584.455 324.733V278.078H593.135L593.569 281.767C594.913 280.052 596.38 278.832 597.971 278.109C599.563 277.365 601.133 276.993 602.683 276.993ZM599.645 284.216C598.509 284.216 597.506 284.557 596.638 285.239C595.77 285.921 594.975 286.851 594.251 288.029V301.917C594.933 302.93 595.646 303.674 596.39 304.149C597.155 304.624 598.054 304.862 599.087 304.862C600.823 304.862 602.177 304.077 603.148 302.506C604.12 300.915 604.605 298.269 604.605 294.57C604.605 291.842 604.409 289.734 604.016 288.246C603.624 286.737 603.055 285.694 602.311 285.115C601.567 284.516 600.679 284.216 599.645 284.216ZM630.125 297.391C630.456 300.078 631.334 302.01 632.76 303.188C634.186 304.345 635.943 304.924 638.03 304.924C639.539 304.924 640.996 304.676 642.401 304.18C643.806 303.684 645.16 303.023 646.462 302.196L650.399 307.528C648.849 308.851 646.968 309.936 644.757 310.783C642.566 311.63 640.066 312.054 637.255 312.054C633.494 312.054 630.342 311.31 627.8 309.822C625.258 308.313 623.346 306.247 622.065 303.622C620.784 300.997 620.143 297.98 620.143 294.57C620.143 291.325 620.763 288.38 622.003 285.735C623.243 283.069 625.051 280.951 627.428 279.38C629.825 277.789 632.75 276.993 636.201 276.993C639.342 276.993 642.06 277.665 644.354 279.008C646.669 280.351 648.456 282.284 649.717 284.805C650.998 287.326 651.639 290.354 651.639 293.888C651.639 294.446 651.618 295.045 651.577 295.686C651.556 296.327 651.515 296.895 651.453 297.391H630.125ZM636.201 283.565C634.444 283.565 633.029 284.195 631.954 285.456C630.879 286.717 630.228 288.732 630.001 291.501H642.091C642.07 289.104 641.605 287.182 640.696 285.735C639.787 284.288 638.288 283.565 636.201 283.565ZM659.117 311V304.428H663.457V284.588H659.117V278.078H670.928L672.726 285.487C673.904 282.656 675.402 280.548 677.221 279.163C679.06 277.778 681.302 277.086 683.948 277.086C685.064 277.086 686.056 277.179 686.924 277.365C687.792 277.53 688.608 277.768 689.373 278.078L687.544 291.842H681.406V285.766C679.546 286.097 677.913 287.109 676.508 288.804C675.102 290.478 674.017 292.545 673.253 295.004V304.428H679.763V311H659.117Z" fill="white"/>
<g clip-path="url(#clip0)">
<path d="M1330.42 568.191H1296.54V585.859H1330.42V568.191Z" fill="#5200FF"/>
<path d="M1333.02 589.785H1299.14V607.454H1333.02V589.785Z" fill="#C6ABFF"/>
<path d="M1305.01 439.931H1271.13V457.6H1305.01V439.931Z" fill="#5200FF"/>
<path d="M1329.11 460.217H1295.23V477.886H1329.11V460.217Z" fill="#C6ABFF"/>
<path d="M1263.96 441.24H1230.08V458.909H1263.96V441.24Z" fill="#C6ABFF"/>
<path d="M1372.77 480.503H1338.89V498.172H1372.77V480.503Z" fill="black"/>
<path d="M1331.72 481.812H1297.84V499.48H1331.72V481.812Z" fill="#5200FF"/>
<path d="M1288.07 461.526H1254.19V479.194H1288.07V461.526Z" fill="black"/>
<path d="M1305.01 439.931H1271.13V457.6H1305.01V439.931Z" fill="#5200FF"/>
<path d="M1329.11 460.217H1295.23V477.886H1329.11V460.217Z" fill="#C6ABFF"/>
<path d="M1263.96 441.24H1230.08V458.909H1263.96V441.24Z" fill="#C6ABFF"/>
<path d="M1372.77 480.503H1338.89V498.172H1372.77V480.503Z" fill="black"/>
<path d="M1331.72 481.812H1297.84V499.48H1331.72V481.812Z" fill="#5200FF"/>
<path d="M1288.07 461.526H1254.19V479.194H1288.07V461.526Z" fill="black"/>
<path d="M1370.81 616.615H1336.93V634.283H1370.81V616.615Z" fill="black"/>
<path d="M1329.77 617.924H1295.89V635.592H1329.77V617.924Z" fill="#5200FF"/>
<path d="M884.189 563.61C884.189 563.61 931.94 611.57 904.986 682.708C878.032 753.846 951.187 872.243 951.187 872.243C951.187 872.243 950.405 872.126 948.952 871.87C850.882 854.483 802.153 741.831 856.713 658.168C876.963 627.026 893.604 590.531 884.189 563.61Z" fill="#5F3AFF"/>
<path d="M884.189 563.61C884.189 563.61 911.143 622.4 884.189 670.353C857.235 718.306 879.57 852.926 951.194 872.243" stroke="#535461" stroke-width="2" stroke-miterlimit="10"/>
<path d="M799.137 757.582C799.137 757.582 853.625 748.866 858.59 797.912C863.555 846.958 963.371 853.757 963.371 853.757C963.371 853.757 962.72 854.202 961.501 855.007C879.088 909.321 800.31 889.617 812.187 817.472C816.598 790.648 816.233 763.707 799.137 757.582Z" fill="#5F3AFF"/>
<path opacity="0.2" d="M799.137 757.582C799.137 757.582 853.625 748.866 858.59 797.912C863.555 846.958 963.371 853.757 963.371 853.757C963.371 853.757 962.72 854.202 961.501 855.007C879.088 909.321 800.31 889.617 812.187 817.472C816.598 790.648 816.233 763.707 799.137 757.582Z" fill="#F5F5F5"/>
<path d="M799.137 757.582C799.137 757.582 841.429 766.907 837.956 805.529C834.483 844.151 900.764 890.475 963.371 853.757" stroke="#535461" stroke-width="2" stroke-miterlimit="10"/>
<path d="M833.291 568.845H799.411V586.513H833.291V568.845Z" fill="black"/>
<path d="M857.398 589.131H823.518V606.799H857.398V589.131Z" fill="#C6ABFF"/>
<path d="M1040.48 383H1006.6V400.668H1040.48V383Z" fill="#5200FF"/>
<path d="M1307.61 708.883H1273.73V726.551H1307.61V708.883Z" fill="#C6ABFF"/>
<path d="M860.004 610.726H826.124V628.394H860.004V610.726Z" fill="#5200FF"/>
<path d="M1064.59 403.286H1030.71V420.954H1064.59V403.286Z" fill="#C6ABFF"/>
<path d="M940.795 523.038H906.915V540.707H940.795V523.038Z" fill="black"/>
<path d="M964.902 543.324H931.022V560.992H964.902V543.324Z" fill="#5200FF"/>
<path d="M1029.41 532.199H995.525V549.868H1029.41V532.199Z" fill="#5200FF"/>
<path d="M967.509 564.919H933.628V582.587H967.509V564.919Z" fill="#C6ABFF"/>
<path d="M1353.22 708.883H1319.34V726.551H1353.22V708.883Z" fill="#5200FF"/>
<path d="M1268.53 638.936C1266.34 626.674 1264.99 614.274 1264.51 601.826C1264.07 591.574 1260.49 581.707 1254.26 573.579C1248.02 565.451 1239.44 559.459 1229.68 556.425C1226.12 555.325 1222.2 554.298 1217.88 553.375C1179.96 545.287 1168.44 552.348 1167.13 553.277C1166.02 551.252 1165.05 549.151 1164.24 546.989C1164.18 546.766 1164.12 546.544 1164.05 546.334C1171.56 538.296 1176.13 527.942 1177.02 516.959C1183.35 510.52 1187.05 502.746 1187.05 494.376C1187.05 487.178 1184.31 480.425 1179.52 474.581V463.208C1179.52 450.092 1174.33 437.514 1165.1 428.24C1155.86 418.966 1143.34 413.756 1130.28 413.756H1126.29C1119.82 413.756 1113.42 415.035 1107.45 417.52C1101.47 420.006 1096.05 423.648 1091.47 428.24C1086.9 432.832 1083.27 438.284 1080.8 444.283C1078.33 450.283 1077.05 456.714 1077.05 463.208V475.464C1072.71 481.099 1070.24 487.531 1070.24 494.363C1070.24 502.556 1073.79 510.173 1079.87 516.534C1080.7 527.919 1085.49 538.65 1093.39 546.858C1093.65 548.716 1093.93 550.712 1094.19 552.819L1026.37 567.209C1026.37 567.209 1000.22 568.289 983.367 603.2C969.117 632.772 940.762 708.746 932.364 731.361C930.846 735.458 929.986 737.807 929.986 737.807C929.986 737.807 930.266 737.525 930.794 737.041L929.986 739.247C929.986 739.247 930.396 738.828 931.178 738.141C929.992 747.603 929.823 763.851 942.163 765.873C952.51 767.568 979.171 768.268 999.31 768.55H1000.7C1014.05 768.726 1024.21 768.726 1024.21 768.726V768.55H1240.81V766.318C1240.81 764.295 1240.41 762.291 1239.62 760.429L1239.92 760.062C1241.08 761.6 1241.85 763.396 1242.17 765.298C1242.14 765.482 1242.11 765.666 1242.06 765.847L1242.19 765.513C1242.24 766.108 1242.2 766.706 1242.06 767.287C1242.06 767.287 1269.85 695.377 1269.55 652.436C1269.63 647.914 1269.29 643.394 1268.53 638.936V638.936ZM1095.32 562.537C1094.96 560.485 1094.73 558.413 1094.63 556.333C1094.63 556.333 1094.63 556.294 1094.63 556.274C1094.87 558.296 1095.11 560.39 1095.32 562.537ZM1011.13 716.997V734.136L1000.44 736.433L1011.13 716.997Z" fill="url(#paint1_linear)"/>
<path d="M1127.19 420.673C1140.25 420.673 1152.77 425.883 1162 435.157C1171.24 444.431 1176.42 457.009 1176.42 470.125V491.222H1077.95V470.125C1077.95 457.009 1083.14 444.431 1092.37 435.157C1101.61 425.883 1114.13 420.673 1127.19 420.673V420.673Z" fill="#565656"/>
<path d="M1127.53 536.872C1158.53 536.872 1183.66 519.53 1183.66 498.139C1183.66 476.747 1158.53 459.406 1127.53 459.406C1096.54 459.406 1071.41 476.747 1071.41 498.139C1071.41 519.53 1096.54 536.872 1127.53 536.872Z" fill="#4F4F4F"/>
<path d="M1091.56 535.661C1091.56 535.661 1103.28 597.219 1091.56 613.821C1079.83 630.422 1127.39 636.992 1127.39 636.992L1176.62 619.01L1183.51 574.741C1183.51 574.741 1153.54 557.792 1159.75 523.555L1091.56 535.661Z" fill="#FAD3BD"/>
<path d="M1236.86 743.166C1236.86 743.166 1239.96 756.653 1223.09 759.074C1213.12 760.546 1202.99 760.425 1193.07 758.714L1189.35 724.837H1228.6L1236.86 743.166Z" fill="#F7C4A7"/>
<path d="M938.886 725.904C938.886 725.904 931.432 756.326 948.307 759.074C965.182 761.823 1027.14 761.842 1027.14 761.842V725.851L999.088 731.872L972.753 706.508L938.886 725.904Z" fill="#FAD3BD"/>
<path opacity="0.1" d="M1095.18 555.548L1029.24 569.552C1029.24 569.552 1004.1 570.592 987.914 604.136C971.73 637.68 936.605 733.481 936.605 733.481C936.605 733.481 966.576 703.046 1001.69 735.556L1025.1 693.021L1019.94 760.462H1201.38V728.639C1201.38 728.639 1239.25 749.043 1236.5 760.455C1236.5 760.455 1268.92 676.576 1261.91 638.458C1259.81 626.674 1258.51 614.758 1258.04 602.794V602.794C1257.63 592.941 1254.19 583.458 1248.2 575.647C1242.2 567.835 1233.95 562.079 1224.57 559.167C1221.15 558.113 1217.4 557.125 1213.23 556.241C1174.32 547.944 1164.36 556.241 1164.36 556.241C1164.36 556.241 1156.83 580.872 1156.96 592.036C1157.13 606.387 1136.65 615.902 1136.65 615.902C1136.65 615.902 1106.35 608.638 1104.97 602.762C1103.6 596.885 1092.75 562.465 1095.18 555.548Z" fill="black"/>
<path d="M1095.18 554.167L1029.24 568.171C1029.24 568.171 1004.1 569.212 987.915 602.755C971.73 636.299 936.599 732.114 936.599 732.114C936.599 732.114 966.57 701.678 1001.68 734.188L1025.1 691.653L1019.93 759.074H1201.38V727.258C1201.38 727.258 1239.25 747.662 1236.5 759.074C1236.5 759.074 1268.92 675.196 1261.91 637.078C1259.81 625.294 1258.51 613.377 1258.04 601.414V601.414C1257.63 591.561 1254.19 582.078 1248.2 574.266C1242.2 566.455 1233.95 560.698 1224.57 557.786C1221.15 556.732 1217.4 555.744 1213.23 554.861C1174.32 546.563 1164.37 554.861 1164.37 554.861C1164.37 554.861 1156.83 579.492 1156.96 590.656C1157.13 605.006 1136.65 614.521 1136.65 614.521C1136.65 614.521 1106.35 607.257 1104.97 601.381C1103.6 595.505 1092.75 561.084 1095.18 554.167Z" fill="url(#paint2_linear)"/>
<path opacity="0.1" d="M1162.56 551.229C1159.79 543.353 1159.17 534.875 1160.76 526.676L1092.57 538.776C1092.57 538.776 1093.56 543.952 1094.67 551.707C1099.08 556.298 1104.36 559.942 1110.22 562.416C1116.07 564.891 1122.36 566.143 1128.71 566.099C1135.06 566.054 1141.33 564.713 1147.15 562.156C1152.97 559.6 1158.21 555.882 1162.55 551.229H1162.56Z" fill="black"/>
<path d="M1174.19 515.951C1174.14 528.292 1169.26 540.117 1160.6 548.877C1151.95 557.638 1140.21 562.631 1127.93 562.78C1115.64 562.929 1103.79 558.223 1094.92 549.676C1086.06 541.129 1080.9 529.426 1080.54 517.09C1080.54 516.71 1080.54 516.331 1080.54 515.951C1080.54 507.144 1083 498.514 1087.64 491.042C1092.28 483.569 1098.92 477.556 1106.8 473.684C1108.2 472.995 1109.64 472.376 1111.12 471.826C1118.83 468.982 1127.13 468.206 1135.23 469.575V469.575C1145.6 471.349 1155.08 476.583 1162.12 484.431C1169.17 492.279 1173.38 502.284 1174.07 512.83C1174.15 513.864 1174.19 514.904 1174.19 515.951Z" fill="#FAD3BD"/>
<g opacity="0.1">
<path opacity="0.1" d="M1111.05 472.932L1111.11 472.893C1109.63 473.443 1108.19 474.062 1106.79 474.751C1098.91 478.622 1092.28 484.636 1087.64 492.108C1082.99 499.581 1080.54 508.211 1080.54 517.018C1080.54 517.398 1080.54 517.777 1080.54 518.157C1081.99 518.117 1083.43 517.772 1084.74 517.142C1096.16 511.789 1102.98 495.417 1105.69 483.998C1106.67 479.908 1107.59 475.301 1111.05 472.932Z" fill="black"/>
<path opacity="0.1" d="M1146.89 474.247C1143.18 472.537 1139.27 471.325 1135.25 470.642C1138.55 471.404 1141.49 473.262 1143.61 475.916C1144.64 477.332 1145.5 478.87 1146.17 480.497C1139.94 477.76 1133.19 476.416 1126.39 476.557C1119.58 476.698 1112.9 478.321 1106.78 481.315C1109.72 487.787 1118.84 491.314 1124.92 493.676C1131.58 496.259 1138.32 498.621 1145.12 500.763L1139.1 495.855L1152.7 498.028C1152.84 495.31 1152.52 492.587 1151.74 489.979C1154.35 492.086 1157.8 492.793 1160.63 494.559C1165.93 497.916 1168.14 504.375 1171.02 509.97C1171.79 511.449 1172.69 512.961 1174.06 513.896C1173.5 505.443 1170.69 497.298 1165.9 490.319C1161.12 483.341 1154.55 477.788 1146.89 474.247V474.247Z" fill="black"/>
</g>
<path d="M1111.05 471.865L1111.11 471.826C1109.63 472.376 1108.19 472.995 1106.79 473.685C1098.91 477.556 1092.28 483.569 1087.64 491.042C1082.99 498.514 1080.54 507.144 1080.54 515.951C1080.54 516.331 1080.54 516.71 1080.54 517.09C1081.99 517.05 1083.43 516.705 1084.74 516.076C1096.16 510.723 1102.98 494.35 1105.69 482.931C1106.67 478.867 1107.59 474.241 1111.05 471.865Z" fill="#212121"/>
<path d="M1146.89 473.187C1143.18 471.477 1139.27 470.265 1135.25 469.581C1138.55 470.344 1141.49 472.202 1143.61 474.856C1144.64 476.272 1145.5 477.81 1146.17 479.436C1139.94 476.7 1133.19 475.355 1126.39 475.497C1119.58 475.638 1112.9 477.261 1106.78 480.254C1109.72 486.726 1118.84 490.253 1124.92 492.616C1131.58 495.198 1138.32 497.561 1145.12 499.703L1139.1 494.795L1152.7 496.967C1152.84 494.249 1152.52 491.526 1151.74 488.918C1154.35 491.026 1157.8 491.732 1160.63 493.499C1165.93 496.856 1168.14 503.315 1171.02 508.91C1171.79 510.389 1172.69 511.9 1174.06 512.836C1173.5 504.383 1170.69 496.237 1165.9 489.259C1161.12 482.28 1154.55 476.728 1146.89 473.187V473.187Z" fill="#212121"/>
<path opacity="0.1" d="M1075.2 508.197C1075.2 508.197 1123.41 447.993 1179.19 508.197L1174.37 494.71C1174.37 494.71 1148.19 456.324 1129.61 464.608C1111.02 472.893 1092.76 478.789 1092.76 478.789L1075.2 508.197Z" fill="black"/>
<path d="M1075.2 507.13C1075.2 507.13 1123.41 446.927 1179.19 507.13L1174.37 493.643C1174.37 493.643 1148.19 455.257 1129.61 463.542C1111.02 471.826 1092.76 477.722 1092.76 477.722L1075.2 507.13Z" fill="#4F4F4F"/>
<path opacity="0.1" d="M1035.59 636.822C1035.59 636.822 1025.27 664.49 1039.73 689.389C1054.18 714.288 1026.99 724.667 1026.99 724.667" fill="black"/>
<path opacity="0.1" d="M1202.94 611.923C1202.94 611.923 1220.85 634.748 1209.14 655.152C1197.43 675.555 1198.12 724.667 1198.12 724.667" fill="black"/>
<path d="M1019.76 745.07H1218.78C1223.17 745.07 1227.37 746.82 1230.47 749.933C1233.57 753.046 1235.31 757.269 1235.31 761.672V761.672H1003.23C1003.23 757.27 1004.97 753.049 1008.07 749.935C1011.17 746.822 1015.37 745.072 1019.76 745.07V745.07Z" fill="#535461"/>
<path d="M1040.01 630.939H1198.54C1201.88 630.939 1205.18 631.6 1208.26 632.882C1211.35 634.165 1214.15 636.045 1216.51 638.414C1218.87 640.784 1220.74 643.598 1222.01 646.694C1223.29 649.79 1223.95 653.109 1223.95 656.46V748.872H1014.6V656.46C1014.6 649.692 1017.27 643.2 1022.04 638.414C1026.8 633.628 1033.27 630.939 1040.01 630.939V630.939Z" fill="#535461"/>
<path d="M1119.1 707.548C1125.94 707.548 1131.49 701.973 1131.49 695.095C1131.49 688.218 1125.94 682.642 1119.1 682.642C1112.25 682.642 1106.7 688.218 1106.7 695.095C1106.7 701.973 1112.25 707.548 1119.1 707.548Z" fill="white"/>
<path opacity="0.1" d="M1077.95 479.98C1077.95 479.98 1125.33 432.419 1176.43 479.109" stroke="black" stroke-miterlimit="10"/>
<path d="M1188.4 476.95H1183.64V504.035H1188.4V476.95Z" fill="#CDCDCD"/>
<path d="M1177.3 494.474C1181.65 494.474 1185.82 496.209 1188.89 499.297C1191.96 502.384 1193.69 506.572 1193.69 510.939V511.999C1193.69 516.365 1191.96 520.553 1188.89 523.641C1185.82 526.728 1181.65 528.463 1177.3 528.463V528.463V494.474Z" fill="#474747"/>
<path d="M1181.53 496.601C1181.53 494.548 1179.87 492.884 1177.83 492.884C1175.78 492.884 1174.12 494.548 1174.12 496.601V526.343C1174.12 528.395 1175.78 530.06 1177.83 530.06C1179.87 530.06 1181.53 528.395 1181.53 526.343V496.601Z" fill="#CDCDCD"/>
<path d="M1065.49 504.565H1070.25V477.48H1065.49V504.565Z" fill="#CDCDCD"/>
<path d="M1076.6 528.993C1072.25 528.993 1068.08 527.258 1065 524.171C1061.93 521.083 1060.2 516.895 1060.2 512.529V511.469C1060.2 509.307 1060.63 507.166 1061.45 505.168C1062.27 503.17 1063.48 501.355 1065 499.827C1066.53 498.298 1068.33 497.085 1070.32 496.258C1072.31 495.43 1074.44 495.004 1076.6 495.004V495.004V528.993Z" fill="#474747"/>
<path d="M1072.37 526.866C1072.37 528.919 1074.02 530.583 1076.07 530.583C1078.11 530.583 1079.77 528.919 1079.77 526.866V497.125C1079.77 495.072 1078.11 493.408 1076.07 493.408C1074.02 493.408 1072.37 495.072 1072.37 497.125V526.866Z" fill="#CDCDCD"/>
<path d="M1183.08 448C1176.64 434.546 1162.61 418.278 1132.35 416.976V416.936H1131.99L1121.27 417.447V417.499C1091.22 418.886 1077.25 435.095 1070.83 448.504C1066.55 457.593 1064.28 467.505 1064.17 477.558L1067.87 477.467L1071.57 477.382C1071.73 468.431 1073.78 459.616 1077.59 451.521C1085.74 434.69 1100.75 425.744 1122.2 424.913L1131.68 424.383C1153.13 425.208 1168.15 434.166 1176.3 450.99C1180.11 459.089 1182.17 467.909 1182.33 476.865L1186.03 476.95L1189.73 477.041C1189.62 466.993 1187.36 457.087 1183.08 448V448Z" fill="#363636"/>
<path d="M1352.15 761.888H847.396V898H1352.15V761.888Z" fill="#373737"/>
<path d="M1352.15 771.05H847.396V788.718H1352.15V771.05Z" fill="#6B71FF"/>
<path d="M1386 759.925H813.536V777.593H1386V759.925Z" fill="#373737"/>
</g>
<path d="M841.88 266H808V283.668H841.88V266Z" fill="#C6ABFF"/>
<path d="M887.488 266H853.608V283.668H887.488V266Z" fill="#5200FF"/>
<path d="M703.88 387H670V404.668H703.88V387Z" fill="black"/>
<path d="M727.987 407.286H694.107V424.954H727.987V407.286Z" fill="#C6ABFF"/>
<path d="M730.593 428.881H696.713V446.549H730.593V428.881Z" fill="#5200FF"/>
<path d="M673.928 807H640.047V824.668H673.928V807Z" fill="#5200FF"/>
<path d="M698.034 827.286H664.154V844.954H698.034V827.286Z" fill="#C6ABFF"/>
<path d="M632.88 808.309H599V825.977H632.88V808.309Z" fill="#C6ABFF"/>
<path d="M741.688 847.572H707.808V865.24H741.688V847.572Z" fill="black"/>
<path d="M700.64 848.881H666.76V866.549H700.64V848.881Z" fill="#5200FF"/>
<path d="M656.988 828.595H623.107V846.263H656.988V828.595Z" fill="black"/>
<path d="M1258.93 59H1225.05V76.6684H1258.93V59Z" fill="#5200FF"/>
<path d="M1283.03 79.2859H1249.15V96.9543H1283.03V79.2859Z" fill="#C6ABFF"/>
<path d="M1217.88 60.3088H1184V77.9771H1217.88V60.3088Z" fill="#C6ABFF"/>
<path d="M1326.69 99.5718H1292.81V117.24H1326.69V99.5718Z" fill="black"/>
<path d="M1285.64 100.881H1251.76V118.549H1285.64V100.881Z" fill="#5200FF"/>
<path d="M1241.99 80.5947H1208.11V98.263H1241.99V80.5947Z" fill="black"/>
<path d="M282.928 441H249.047V458.668H282.928V441Z" fill="#5200FF"/>
<path d="M307.034 461.286H273.154V478.954H307.034V461.286Z" fill="#C6ABFF"/>
<path d="M241.88 442.309H208V459.977H241.88V442.309Z" fill="#C6ABFF"/>
<path d="M350.688 481.572H316.808V499.24H350.688V481.572Z" fill="black"/>
<path d="M309.64 482.881H275.76V500.549H309.64V482.881Z" fill="#5200FF"/>
<path d="M265.988 462.595H232.107V480.263H265.988V462.595Z" fill="black"/>
<path d="M73.5321 793H39.6519V810.668H73.5321V793Z" fill="#5200FF"/>
<path d="M76.138 814.595H42.2578V832.263H76.138V814.595Z" fill="#C6ABFF"/>
<path d="M113.927 841.424H80.0474V859.093H113.927V841.424Z" fill="black"/>
<path d="M72.8802 842.733H39V860.401H72.8802V842.733Z" fill="#5200FF"/>
<path d="M742.532 651H708.652V668.668H742.532V651Z" fill="#5200FF"/>
<path d="M745.138 672.595H711.258V690.263H745.138V672.595Z" fill="#C6ABFF"/>
<path d="M782.927 699.424H749.047V717.093H782.927V699.424Z" fill="black"/>
<path d="M741.88 700.733H708V718.401H741.88V700.733Z" fill="#5200FF"/>
<path d="M1264.53 234H1230.65V251.668H1264.53V234Z" fill="#5200FF"/>
<path d="M1267.14 255.595H1233.26V273.263H1267.14V255.595Z" fill="#C6ABFF"/>
<path d="M1304.93 282.424H1271.05V300.093H1304.93V282.424Z" fill="black"/>
<path d="M1263.88 283.733H1230V301.402H1263.88V283.733Z" fill="#5200FF"/>
<path d="M879.88 37H846V54.6684H879.88V37Z" fill="black"/>
<path d="M903.987 57.2859H870.107V74.9543H903.987V57.2859Z" fill="#C6ABFF"/>
<path d="M906.593 78.8806H872.713V96.5489H906.593V78.8806Z" fill="#5200FF"/>
<path d="M100.88 311H67V328.668H100.88V311Z" fill="black"/>
<path d="M124.987 331.286H91.1069V348.954H124.987V331.286Z" fill="#C6ABFF"/>
<path d="M127.593 352.881H93.7129V370.549H127.593V352.881Z" fill="#5200FF"/>
<path d="M124.88 553H91V570.668H124.88V553Z" fill="black"/>
<path d="M148.987 573.286H115.107V590.954H148.987V573.286Z" fill="#C6ABFF"/>
<path d="M151.593 594.881H117.713V612.549H151.593V594.881Z" fill="#5200FF"/>
<path d="M468.88 599H435V616.668H468.88V599Z" fill="#C6ABFF"/>
<path d="M514.488 599H480.608V616.668H514.488V599Z" fill="#5200FF"/>
<path d="M220.88 690H187V707.668H220.88V690Z" fill="#C6ABFF"/>
<path d="M266.488 690H232.608V707.668H266.488V690Z" fill="#5200FF"/>
<path d="M1026.88 234H993V251.668H1026.88V234Z" fill="#C6ABFF"/>
<path d="M1072.49 234H1038.61V251.668H1072.49V234Z" fill="#5200FF"/>
<path d="M389.88 802H356V819.668H389.88V802Z" fill="#C6ABFF"/>
<path d="M435.488 802H401.608V819.668H435.488V802Z" fill="#5200FF"/>
<path d="M641.88 550H608V567.668H641.88V550Z" fill="#C6ABFF"/>
<path d="M687.488 550H653.608V567.668H687.488V550Z" fill="#5200FF"/>
<path d="M1370.88 353H1337V370.668H1370.88V353Z" fill="#C6ABFF"/>
<path d="M1416.49 353H1382.61V370.668H1416.49V353Z" fill="#5200FF"/>
<defs>
<linearGradient id="paint0_linear" x1="157" y1="290.5" x2="742" y2="290.5" gradientUnits="userSpaceOnUse">
<stop stop-color="#5F3AFF"/>
<stop offset="1" stop-color="#3000FF"/>
</linearGradient>
<linearGradient id="paint1_linear" x1="1099.77" y1="768.759" x2="1099.77" y2="413.756" gradientUnits="userSpaceOnUse">
<stop stop-color="#808080" stop-opacity="0.25"/>
<stop offset="0.54" stop-color="#808080" stop-opacity="0.12"/>
<stop offset="1" stop-color="#808080" stop-opacity="0.1"/>
</linearGradient>
<linearGradient id="paint2_linear" x1="1099.75" y1="551.173" x2="1099.75" y2="759.074" gradientUnits="userSpaceOnUse">
<stop stop-color="#4729FF"/>
<stop offset="1" stop-color="#100073"/>
</linearGradient>
<clipPath id="clip0">
<rect width="587" height="515" fill="white" transform="translate(799 383)"/>
</clipPath>
</defs>
</svg>
