<svg width="1172" height="606" viewBox="0 0 1172 606" fill="none" xmlns="http://www.w3.org/2000/svg">
<rect x="117" y="133" width="577" height="105" rx="52.5" stroke="black" stroke-width="8"/>
<path d="M48.56 78.972C43.016 78.972 37.76 78.252 32.792 76.812C27.896 75.3 23.9 73.284 20.804 70.764C19.148 69.54 18.32 67.812 18.32 65.58C18.32 64.068 18.752 62.772 19.616 61.692C20.552 60.54 21.632 59.964 22.856 59.964C24.152 59.964 25.628 60.468 27.284 61.476C30.38 63.708 33.62 65.328 37.004 66.336C40.388 67.344 44.132 67.848 48.236 67.848C53.492 67.848 57.524 66.948 60.332 65.148C63.14 63.276 64.544 60.576 64.544 57.048C64.544 54.312 63.212 52.224 60.548 50.784C57.956 49.272 53.6 47.832 47.48 46.464C41.144 45.096 35.996 43.512 32.036 41.712C28.076 39.912 25.088 37.608 23.072 34.8C21.056 31.992 20.048 28.428 20.048 24.108C20.048 19.644 21.308 15.648 23.828 12.12C26.348 8.592 29.84 5.856 34.304 3.91199C38.84 1.89599 43.916 0.887995 49.532 0.887995C59.828 0.887995 68.216 3.624 74.696 9.096C75.632 9.888 76.28 10.68 76.64 11.472C77.072 12.192 77.288 13.128 77.288 14.28C77.288 15.792 76.82 17.124 75.884 18.276C75.02 19.356 73.976 19.896 72.752 19.896C72.032 19.896 71.348 19.788 70.7 19.572C70.124 19.356 69.332 18.96 68.324 18.384C65.372 16.224 62.492 14.64 59.684 13.632C56.948 12.552 53.564 12.012 49.532 12.012C44.636 12.012 40.748 13.02 37.868 15.036C35.06 16.98 33.656 19.716 33.656 23.244C33.656 26.196 34.916 28.464 37.436 30.048C39.956 31.632 44.24 33.108 50.288 34.476C56.696 35.916 61.88 37.536 65.84 39.336C69.872 41.064 72.932 43.296 75.02 46.032C77.18 48.768 78.26 52.188 78.26 56.292C78.26 60.756 77 64.716 74.48 68.172C72.032 71.556 68.54 74.22 64.004 76.164C59.54 78.036 54.392 78.972 48.56 78.972ZM518.107 78.972C512.563 78.972 507.307 78.252 502.339 76.812C497.443 75.3 493.447 73.284 490.351 70.764C488.695 69.54 487.867 67.812 487.867 65.58C487.867 64.068 488.299 62.772 489.163 61.692C490.099 60.54 491.179 59.964 492.403 59.964C493.699 59.964 495.175 60.468 496.831 61.476C499.927 63.708 503.167 65.328 506.551 66.336C509.935 67.344 513.679 67.848 517.783 67.848C523.039 67.848 527.071 66.948 529.879 65.148C532.687 63.276 534.091 60.576 534.091 57.048C534.091 54.312 532.759 52.224 530.095 50.784C527.503 49.272 523.147 47.832 517.027 46.464C510.691 45.096 505.543 43.512 501.583 41.712C497.623 39.912 494.635 37.608 492.619 34.8C490.603 31.992 489.595 28.428 489.595 24.108C489.595 19.644 490.855 15.648 493.375 12.12C495.895 8.592 499.387 5.856 503.851 3.91199C508.387 1.89599 513.463 0.887995 519.079 0.887995C529.375 0.887995 537.763 3.624 544.243 9.096C545.179 9.888 545.827 10.68 546.187 11.472C546.619 12.192 546.835 13.128 546.835 14.28C546.835 15.792 546.367 17.124 545.431 18.276C544.567 19.356 543.523 19.896 542.299 19.896C541.579 19.896 540.895 19.788 540.247 19.572C539.671 19.356 538.879 18.96 537.871 18.384C534.919 16.224 532.039 14.64 529.231 13.632C526.495 12.552 523.111 12.012 519.079 12.012C514.183 12.012 510.295 13.02 507.415 15.036C504.607 16.98 503.203 19.716 503.203 23.244C503.203 26.196 504.463 28.464 506.983 30.048C509.503 31.632 513.787 33.108 519.835 34.476C526.243 35.916 531.427 37.536 535.387 39.336C539.419 41.064 542.479 43.296 544.567 46.032C546.727 48.768 547.807 52.188 547.807 56.292C547.807 60.756 546.547 64.716 544.027 68.172C541.579 71.556 538.087 74.22 533.551 76.164C529.087 78.036 523.939 78.972 518.107 78.972Z" fill="#5F3AFF"/>
<path d="M131.579 24.108C133.667 24.108 135.323 24.684 136.547 25.836C137.771 26.988 138.383 28.536 138.383 30.48V72.384C138.383 74.256 137.735 75.768 136.439 76.92C135.215 78.072 133.595 78.648 131.579 78.648C129.635 78.648 128.087 78.108 126.935 77.028C125.783 75.948 125.207 74.472 125.207 72.6V69.9C123.551 72.78 121.319 75.012 118.511 76.596C115.703 78.108 112.535 78.864 109.007 78.864C96.0471 78.864 89.5671 71.592 89.5671 57.048V30.48C89.5671 28.536 90.1791 26.988 91.4031 25.836C92.6271 24.684 94.2471 24.108 96.2631 24.108C98.3511 24.108 100.007 24.684 101.231 25.836C102.455 26.988 103.067 28.536 103.067 30.48V57.156C103.067 60.9 103.823 63.672 105.335 65.472C106.847 67.272 109.223 68.172 112.463 68.172C116.207 68.172 119.195 66.948 121.427 64.5C123.731 61.98 124.883 58.668 124.883 54.564V30.48C124.883 28.536 125.495 26.988 126.719 25.836C127.943 24.684 129.563 24.108 131.579 24.108ZM199.414 67.524C200.854 68.892 201.574 70.44 201.574 72.168C201.574 73.824 200.962 75.3 199.738 76.596C198.586 77.892 197.218 78.54 195.634 78.54C194.05 78.54 192.574 77.892 191.206 76.596L165.934 53.7V72.168C165.934 74.256 165.286 75.84 163.99 76.92C162.694 78 161.074 78.54 159.13 78.54C157.186 78.54 155.566 78 154.27 76.92C153.046 75.84 152.434 74.256 152.434 72.168V7.692C152.434 5.604 153.046 4.02 154.27 2.93999C155.566 1.86 157.186 1.32 159.13 1.32C161.074 1.32 162.694 1.86 163.99 2.93999C165.286 4.02 165.934 5.604 165.934 7.692V48.3L189.046 26.16C190.342 24.864 191.818 24.216 193.474 24.216C195.13 24.216 196.57 24.828 197.794 26.052C199.018 27.276 199.63 28.716 199.63 30.372C199.63 32.028 198.946 33.54 197.578 34.908L180.622 50.676L199.414 67.524ZM217.032 78.648C215.088 78.648 213.468 78.108 212.172 77.028C210.948 75.876 210.336 74.256 210.336 72.168V30.48C210.336 28.392 210.948 26.808 212.172 25.728C213.468 24.648 215.088 24.108 217.032 24.108C218.976 24.108 220.596 24.648 221.892 25.728C223.188 26.808 223.836 28.392 223.836 30.48V72.168C223.836 74.256 223.188 75.876 221.892 77.028C220.596 78.108 218.976 78.648 217.032 78.648ZM217.032 14.496C214.584 14.496 212.64 13.848 211.2 12.552C209.76 11.184 209.04 9.42 209.04 7.26C209.04 5.09999 209.76 3.372 211.2 2.076C212.64 0.779999 214.584 0.131998 217.032 0.131998C219.408 0.131998 221.316 0.779999 222.756 2.076C224.268 3.372 225.024 5.09999 225.024 7.26C225.024 9.42 224.304 11.184 222.864 12.552C221.424 13.848 219.48 14.496 217.032 14.496ZM260.654 23.892C267.998 23.892 273.434 25.728 276.962 29.4C280.562 33 282.362 38.508 282.362 45.924V72.276C282.362 74.22 281.786 75.768 280.634 76.92C279.482 78 277.898 78.54 275.882 78.54C274.01 78.54 272.462 77.964 271.238 76.812C270.086 75.66 269.51 74.148 269.51 72.276V69.9C268.286 72.708 266.342 74.904 263.678 76.488C261.086 78.072 258.062 78.864 254.606 78.864C251.078 78.864 247.874 78.144 244.994 76.704C242.114 75.264 239.846 73.284 238.19 70.764C236.534 68.244 235.706 65.436 235.706 62.34C235.706 58.452 236.678 55.392 238.622 53.16C240.638 50.928 243.878 49.308 248.342 48.3C252.806 47.292 258.962 46.788 266.81 46.788H269.51V44.304C269.51 40.776 268.754 38.22 267.242 36.636C265.73 34.98 263.282 34.152 259.898 34.152C257.81 34.152 255.686 34.476 253.526 35.124C251.366 35.7 248.81 36.564 245.858 37.716C243.986 38.652 242.618 39.12 241.754 39.12C240.458 39.12 239.378 38.652 238.514 37.716C237.722 36.78 237.326 35.556 237.326 34.044C237.326 32.82 237.614 31.776 238.19 30.912C238.838 29.976 239.882 29.112 241.322 28.32C243.842 26.952 246.83 25.872 250.286 25.08C253.814 24.288 257.27 23.892 260.654 23.892ZM257.306 69.144C260.906 69.144 263.822 67.956 266.054 65.58C268.358 63.132 269.51 60 269.51 56.184V53.916H267.566C262.742 53.916 258.998 54.132 256.334 54.564C253.67 54.996 251.762 55.752 250.61 56.832C249.458 57.912 248.882 59.388 248.882 61.26C248.882 63.564 249.674 65.472 251.258 66.984C252.914 68.424 254.93 69.144 257.306 69.144ZM326.755 23.892C333.091 23.892 337.807 25.692 340.903 29.292C343.999 32.892 345.547 38.328 345.547 45.6V72.168C345.547 74.184 344.935 75.768 343.711 76.92C342.559 78.072 340.939 78.648 338.851 78.648C336.763 78.648 335.107 78.072 333.883 76.92C332.659 75.768 332.047 74.184 332.047 72.168V46.356C332.047 42.252 331.255 39.264 329.671 37.392C328.159 35.52 325.747 34.584 322.435 34.584C318.547 34.584 315.415 35.808 313.039 38.256C310.735 40.704 309.583 43.98 309.583 48.084V72.168C309.583 74.184 308.971 75.768 307.747 76.92C306.523 78.072 304.867 78.648 302.779 78.648C300.691 78.648 299.035 78.072 297.811 76.92C296.659 75.768 296.083 74.184 296.083 72.168V30.372C296.083 28.5 296.695 26.988 297.919 25.836C299.143 24.684 300.799 24.108 302.887 24.108C304.759 24.108 306.271 24.684 307.423 25.836C308.647 26.916 309.259 28.356 309.259 30.156V33.072C311.059 30.12 313.471 27.852 316.495 26.268C319.519 24.684 322.939 23.892 326.755 23.892ZM386.69 68.604C390.29 68.82 392.09 70.44 392.09 73.464C392.09 75.192 391.37 76.524 389.93 77.46C388.562 78.324 386.582 78.684 383.99 78.54L381.074 78.324C368.978 77.46 362.93 70.98 362.93 58.884V35.34H357.53C355.586 35.34 354.074 34.908 352.994 34.044C351.986 33.18 351.482 31.92 351.482 30.264C351.482 28.608 351.986 27.348 352.994 26.484C354.074 25.62 355.586 25.188 357.53 25.188H362.93V15.252C362.93 13.308 363.542 11.76 364.766 10.608C365.99 9.456 367.646 8.88 369.734 8.88C371.75 8.88 373.37 9.456 374.594 10.608C375.818 11.76 376.43 13.308 376.43 15.252V25.188H385.61C387.554 25.188 389.03 25.62 390.038 26.484C391.118 27.348 391.658 28.608 391.658 30.264C391.658 31.92 391.118 33.18 390.038 34.044C389.03 34.908 387.554 35.34 385.61 35.34H376.43V59.856C376.43 65.184 378.878 68.028 383.774 68.388L386.69 68.604ZM423.209 78.864C417.809 78.864 413.057 77.748 408.953 75.516C404.921 73.284 401.789 70.08 399.557 65.904C397.325 61.728 396.209 56.868 396.209 51.324C396.209 45.78 397.325 40.956 399.557 36.852C401.789 32.676 404.921 29.472 408.953 27.24C413.057 25.008 417.809 23.892 423.209 23.892C428.609 23.892 433.325 25.008 437.357 27.24C441.461 29.472 444.593 32.676 446.753 36.852C448.985 40.956 450.101 45.78 450.101 51.324C450.101 56.868 448.985 61.728 446.753 65.904C444.593 70.08 441.461 73.284 437.357 75.516C433.325 77.748 428.609 78.864 423.209 78.864ZM423.101 68.388C427.493 68.388 430.841 66.948 433.145 64.068C435.449 61.188 436.601 56.94 436.601 51.324C436.601 45.78 435.449 41.568 433.145 38.688C430.841 35.736 427.529 34.26 423.209 34.26C418.889 34.26 415.541 35.736 413.165 38.688C410.861 41.568 409.709 45.78 409.709 51.324C409.709 56.94 410.861 61.188 413.165 64.068C415.469 66.948 418.781 68.388 423.101 68.388ZM601.126 24.108C603.214 24.108 604.87 24.684 606.094 25.836C607.318 26.988 607.93 28.536 607.93 30.48V72.384C607.93 74.256 607.282 75.768 605.986 76.92C604.762 78.072 603.142 78.648 601.126 78.648C599.182 78.648 597.634 78.108 596.482 77.028C595.33 75.948 594.754 74.472 594.754 72.6V69.9C593.098 72.78 590.866 75.012 588.058 76.596C585.25 78.108 582.082 78.864 578.554 78.864C565.594 78.864 559.114 71.592 559.114 57.048V30.48C559.114 28.536 559.726 26.988 560.95 25.836C562.174 24.684 563.794 24.108 565.81 24.108C567.898 24.108 569.554 24.684 570.778 25.836C572.002 26.988 572.614 28.536 572.614 30.48V57.156C572.614 60.9 573.37 63.672 574.882 65.472C576.394 67.272 578.77 68.172 582.01 68.172C585.754 68.172 588.742 66.948 590.974 64.5C593.278 61.98 594.43 58.668 594.43 54.564V30.48C594.43 28.536 595.042 26.988 596.266 25.836C597.49 24.684 599.11 24.108 601.126 24.108ZM649.413 68.604C653.013 68.82 654.813 70.44 654.813 73.464C654.813 75.192 654.093 76.524 652.653 77.46C651.285 78.324 649.305 78.684 646.713 78.54L643.797 78.324C631.701 77.46 625.653 70.98 625.653 58.884V35.34H620.253C618.309 35.34 616.797 34.908 615.717 34.044C614.709 33.18 614.205 31.92 614.205 30.264C614.205 28.608 614.709 27.348 615.717 26.484C616.797 25.62 618.309 25.188 620.253 25.188H625.653V15.252C625.653 13.308 626.265 11.76 627.489 10.608C628.713 9.456 630.369 8.88 632.457 8.88C634.473 8.88 636.093 9.456 637.317 10.608C638.541 11.76 639.153 13.308 639.153 15.252V25.188H648.333C650.277 25.188 651.753 25.62 652.761 26.484C653.841 27.348 654.381 28.608 654.381 30.264C654.381 31.92 653.841 33.18 652.761 34.044C651.753 34.908 650.277 35.34 648.333 35.34H639.153V59.856C639.153 65.184 641.601 68.028 646.497 68.388L649.413 68.604ZM703.644 63.528C704.868 63.528 705.84 63.996 706.56 64.932C707.352 65.868 707.748 67.128 707.748 68.712C707.748 70.944 706.416 72.816 703.752 74.328C701.304 75.696 698.532 76.812 695.436 77.676C692.34 78.468 689.388 78.864 686.58 78.864C678.084 78.864 671.352 76.416 666.384 71.52C661.416 66.624 658.932 59.928 658.932 51.432C658.932 46.032 660.012 41.244 662.172 37.068C664.332 32.892 667.356 29.652 671.244 27.348C675.204 25.044 679.668 23.892 684.636 23.892C689.388 23.892 693.528 24.936 697.056 27.024C700.584 29.112 703.32 32.064 705.264 35.88C707.208 39.696 708.18 44.196 708.18 49.38C708.18 52.476 706.812 54.024 704.076 54.024H672.216C672.648 58.992 674.052 62.664 676.428 65.04C678.804 67.344 682.26 68.496 686.796 68.496C689.1 68.496 691.116 68.208 692.844 67.632C694.644 67.056 696.66 66.264 698.892 65.256C701.052 64.104 702.636 63.528 703.644 63.528ZM684.96 33.396C681.288 33.396 678.336 34.548 676.104 36.852C673.944 39.156 672.648 42.468 672.216 46.788H696.624C696.48 42.396 695.4 39.084 693.384 36.852C691.368 34.548 688.56 33.396 684.96 33.396ZM711.663 97.656C709.071 97.8 707.091 97.44 705.723 96.576C704.283 95.712 703.563 94.38 703.563 92.58C703.563 89.628 705.363 88.008 708.963 87.72L711.879 87.504C714.327 87.36 716.163 86.604 717.387 85.236C718.611 83.868 719.223 81.78 719.223 78.972V30.48C719.223 28.392 719.835 26.808 721.059 25.728C722.355 24.648 723.975 24.108 725.919 24.108C727.863 24.108 729.483 24.648 730.779 25.728C732.075 26.808 732.723 28.392 732.723 30.48V78C732.723 90.096 726.675 96.576 714.579 97.44L711.663 97.656ZM725.811 14.496C723.363 14.496 721.419 13.848 719.979 12.552C718.539 11.184 717.819 9.42 717.819 7.26C717.819 5.09999 718.539 3.372 719.979 2.076C721.419 0.779999 723.363 0.131998 725.811 0.131998C728.187 0.131998 730.095 0.779999 731.535 2.076C733.047 3.372 733.803 5.09999 733.803 7.26C733.803 9.42 733.083 11.184 731.643 12.552C730.203 13.848 728.259 14.496 725.811 14.496ZM769.541 23.892C776.885 23.892 782.321 25.728 785.849 29.4C789.449 33 791.249 38.508 791.249 45.924V72.276C791.249 74.22 790.673 75.768 789.521 76.92C788.369 78 786.785 78.54 784.769 78.54C782.897 78.54 781.349 77.964 780.125 76.812C778.973 75.66 778.397 74.148 778.397 72.276V69.9C777.173 72.708 775.229 74.904 772.565 76.488C769.973 78.072 766.949 78.864 763.493 78.864C759.965 78.864 756.761 78.144 753.881 76.704C751.001 75.264 748.733 73.284 747.077 70.764C745.421 68.244 744.593 65.436 744.593 62.34C744.593 58.452 745.565 55.392 747.509 53.16C749.525 50.928 752.765 49.308 757.229 48.3C761.693 47.292 767.849 46.788 775.697 46.788H778.397V44.304C778.397 40.776 777.641 38.22 776.129 36.636C774.617 34.98 772.169 34.152 768.785 34.152C766.697 34.152 764.573 34.476 762.413 35.124C760.253 35.7 757.697 36.564 754.745 37.716C752.873 38.652 751.505 39.12 750.641 39.12C749.345 39.12 748.265 38.652 747.401 37.716C746.609 36.78 746.213 35.556 746.213 34.044C746.213 32.82 746.501 31.776 747.077 30.912C747.725 29.976 748.769 29.112 750.209 28.32C752.729 26.952 755.717 25.872 759.173 25.08C762.701 24.288 766.157 23.892 769.541 23.892ZM766.193 69.144C769.793 69.144 772.709 67.956 774.941 65.58C777.245 63.132 778.397 60 778.397 56.184V53.916H776.453C771.629 53.916 767.885 54.132 765.221 54.564C762.557 54.996 760.649 55.752 759.497 56.832C758.345 57.912 757.769 59.388 757.769 61.26C757.769 63.564 758.561 65.472 760.145 66.984C761.801 68.424 763.817 69.144 766.193 69.144Z" fill="black"/>
<path d="M201.743 163.034L196.721 206H186.15L183.019 175.279L179.578 206H168.821L164.171 163.034H173.688L175.145 197.32L178.71 167.994H187.452L190.769 197.32L192.908 163.034H201.743ZM214.367 192.391C214.698 195.078 215.576 197.01 217.002 198.188C218.428 199.345 220.185 199.924 222.272 199.924C223.781 199.924 225.238 199.676 226.643 199.18C228.049 198.684 229.402 198.023 230.704 197.196L234.641 202.528C233.091 203.851 231.211 204.936 228.999 205.783C226.809 206.63 224.308 207.054 221.497 207.054C217.736 207.054 214.584 206.31 212.042 204.822C209.5 203.313 207.589 201.247 206.307 198.622C205.026 195.997 204.385 192.98 204.385 189.57C204.385 186.325 205.005 183.38 206.245 180.735C207.485 178.069 209.294 175.951 211.67 174.38C214.068 172.789 216.992 171.993 220.443 171.993C223.585 171.993 226.302 172.665 228.596 174.008C230.911 175.351 232.699 177.284 233.959 179.805C235.241 182.326 235.881 185.354 235.881 188.888C235.881 189.446 235.861 190.045 235.819 190.686C235.799 191.327 235.757 191.895 235.695 192.391H214.367ZM220.443 178.565C218.687 178.565 217.271 179.195 216.196 180.456C215.122 181.717 214.471 183.732 214.243 186.501H226.333C226.313 184.104 225.848 182.182 224.938 180.735C224.029 179.288 222.531 178.565 220.443 178.565ZM252.845 176.457C253.878 175.093 255.118 174.008 256.565 173.202C258.032 172.396 259.603 171.993 261.277 171.993C265.514 171.993 268.593 173.564 270.515 176.705C272.458 179.846 273.429 184.093 273.429 189.446C273.429 192.835 272.923 195.863 271.91 198.529C270.918 201.174 269.44 203.262 267.477 204.791C265.514 206.3 263.106 207.054 260.254 207.054C256.803 207.054 254.085 205.711 252.101 203.024L251.729 206H243.049V159.996L252.845 158.973V176.457ZM257.681 199.924C259.417 199.924 260.791 199.128 261.804 197.537C262.817 195.925 263.323 193.269 263.323 189.57C263.323 186.842 263.106 184.734 262.672 183.246C262.259 181.737 261.659 180.694 260.874 180.115C260.109 179.516 259.21 179.216 258.177 179.216C257.082 179.216 256.1 179.557 255.232 180.239C254.364 180.921 253.568 181.851 252.845 183.029V196.917C253.465 197.888 254.157 198.632 254.922 199.149C255.687 199.666 256.606 199.924 257.681 199.924ZM348.68 184.3C348.68 188.661 348.101 192.257 346.944 195.088C345.807 197.919 344.257 200.131 342.294 201.722C340.33 203.293 338.098 204.398 335.598 205.039C333.118 205.68 330.545 206 327.879 206H316.285V163.034H327.135C329.883 163.034 332.539 163.323 335.102 163.902C337.685 164.46 339.989 165.504 342.015 167.033C344.061 168.542 345.683 170.691 346.882 173.481C348.08 176.25 348.68 179.857 348.68 184.3ZM338.14 184.3C338.14 180.435 337.716 177.511 336.869 175.527C336.042 173.543 334.905 172.2 333.459 171.497C332.033 170.774 330.421 170.412 328.623 170.412H326.453V198.653H328.623C330.503 198.653 332.157 198.25 333.583 197.444C335.009 196.617 336.125 195.16 336.931 193.073C337.737 190.986 338.14 188.061 338.14 184.3ZM363.07 192.391C363.401 195.078 364.279 197.01 365.705 198.188C367.131 199.345 368.888 199.924 370.975 199.924C372.484 199.924 373.941 199.676 375.346 199.18C376.752 198.684 378.105 198.023 379.407 197.196L383.344 202.528C381.794 203.851 379.914 204.936 377.702 205.783C375.512 206.63 373.011 207.054 370.2 207.054C366.439 207.054 363.287 206.31 360.745 204.822C358.203 203.313 356.292 201.247 355.01 198.622C353.729 195.997 353.088 192.98 353.088 189.57C353.088 186.325 353.708 183.38 354.948 180.735C356.188 178.069 357.997 175.951 360.373 174.38C362.771 172.789 365.695 171.993 369.146 171.993C372.288 171.993 375.005 172.665 377.299 174.008C379.614 175.351 381.402 177.284 382.662 179.805C383.944 182.326 384.584 185.354 384.584 188.888C384.584 189.446 384.564 190.045 384.522 190.686C384.502 191.327 384.46 191.895 384.398 192.391H363.07ZM369.146 178.565C367.39 178.565 365.974 179.195 364.899 180.456C363.825 181.717 363.174 183.732 362.946 186.501H375.036C375.016 184.104 374.551 182.182 373.641 180.735C372.732 179.288 371.234 178.565 369.146 178.565ZM422.814 173.078L411.84 206H400.308L389.21 173.078H399.781L406.198 198.498L412.894 173.078H422.814ZM437.422 192.391C437.753 195.078 438.631 197.01 440.057 198.188C441.483 199.345 443.24 199.924 445.327 199.924C446.836 199.924 448.293 199.676 449.698 199.18C451.103 198.684 452.457 198.023 453.759 197.196L457.696 202.528C456.146 203.851 454.265 204.936 452.054 205.783C449.863 206.63 447.363 207.054 444.552 207.054C440.791 207.054 437.639 206.31 435.097 204.822C432.555 203.313 430.643 201.247 429.362 198.622C428.081 195.997 427.44 192.98 427.44 189.57C427.44 186.325 428.06 183.38 429.3 180.735C430.54 178.069 432.348 175.951 434.725 174.38C437.122 172.789 440.047 171.993 443.498 171.993C446.639 171.993 449.357 172.665 451.651 174.008C453.966 175.351 455.753 177.284 457.014 179.805C458.295 182.326 458.936 185.354 458.936 188.888C458.936 189.446 458.915 190.045 458.874 190.686C458.853 191.327 458.812 191.895 458.75 192.391H437.422ZM443.498 178.565C441.741 178.565 440.326 179.195 439.251 180.456C438.176 181.717 437.525 183.732 437.298 186.501H449.388C449.367 184.104 448.902 182.182 447.993 180.735C447.084 179.288 445.585 178.565 443.498 178.565ZM483.278 159.996V195.646C483.278 196.969 483.65 197.919 484.394 198.498C485.158 199.056 486.202 199.335 487.525 199.335C488.372 199.335 489.188 199.242 489.974 199.056C490.759 198.849 491.493 198.612 492.175 198.343L494.531 204.884C493.415 205.463 492.071 205.969 490.501 206.403C488.93 206.837 487.101 207.054 485.014 207.054C481.046 207.054 478.132 205.917 476.272 203.644C474.412 201.35 473.482 198.281 473.482 194.437V166.692H463.779V159.996H483.278ZM517.539 171.993C520.929 171.993 523.812 172.716 526.188 174.163C528.565 175.61 530.384 177.645 531.644 180.27C532.905 182.874 533.535 185.933 533.535 189.446C533.535 194.943 532.13 199.252 529.319 202.373C526.509 205.494 522.582 207.054 517.539 207.054C512.497 207.054 508.57 205.514 505.759 202.435C502.949 199.356 501.543 195.047 501.543 189.508C501.543 186.015 502.174 182.957 503.434 180.332C504.716 177.707 506.545 175.661 508.921 174.194C511.319 172.727 514.191 171.993 517.539 171.993ZM517.539 179.216C515.535 179.216 514.047 180.043 513.075 181.696C512.125 183.329 511.649 185.933 511.649 189.508C511.649 193.145 512.125 195.78 513.075 197.413C514.047 199.046 515.535 199.862 517.539 199.862C519.544 199.862 521.022 199.046 521.972 197.413C522.944 195.78 523.429 193.125 523.429 189.446C523.429 185.891 522.944 183.298 521.972 181.665C521.022 180.032 519.544 179.216 517.539 179.216ZM558.683 171.993C562.982 171.993 566.061 173.564 567.921 176.705C569.781 179.846 570.711 184.093 570.711 189.446C570.711 192.835 570.215 195.863 569.223 198.529C568.231 201.174 566.795 203.262 564.914 204.791C563.034 206.3 560.75 207.054 558.063 207.054C554.86 207.054 552.256 205.907 550.251 203.613V218.71L540.455 219.733V173.078H549.135L549.569 176.767C550.913 175.052 552.38 173.832 553.971 173.109C555.563 172.365 557.133 171.993 558.683 171.993ZM555.645 179.216C554.509 179.216 553.506 179.557 552.638 180.239C551.77 180.921 550.975 181.851 550.251 183.029V196.917C550.933 197.93 551.646 198.674 552.39 199.149C553.155 199.624 554.054 199.862 555.087 199.862C556.823 199.862 558.177 199.077 559.148 197.506C560.12 195.915 560.605 193.269 560.605 189.57C560.605 186.842 560.409 184.734 560.016 183.246C559.624 181.737 559.055 180.694 558.311 180.115C557.567 179.516 556.679 179.216 555.645 179.216ZM586.125 192.391C586.456 195.078 587.334 197.01 588.76 198.188C590.186 199.345 591.943 199.924 594.03 199.924C595.539 199.924 596.996 199.676 598.401 199.18C599.806 198.684 601.16 198.023 602.462 197.196L606.399 202.528C604.849 203.851 602.968 204.936 600.757 205.783C598.566 206.63 596.066 207.054 593.255 207.054C589.494 207.054 586.342 206.31 583.8 204.822C581.258 203.313 579.346 201.247 578.065 198.622C576.784 195.997 576.143 192.98 576.143 189.57C576.143 186.325 576.763 183.38 578.003 180.735C579.243 178.069 581.051 175.951 583.428 174.38C585.825 172.789 588.75 171.993 592.201 171.993C595.342 171.993 598.06 172.665 600.354 174.008C602.669 175.351 604.456 177.284 605.717 179.805C606.998 182.326 607.639 185.354 607.639 188.888C607.639 189.446 607.618 190.045 607.577 190.686C607.556 191.327 607.515 191.895 607.453 192.391H586.125ZM592.201 178.565C590.444 178.565 589.029 179.195 587.954 180.456C586.879 181.717 586.228 183.732 586.001 186.501H598.091C598.07 184.104 597.605 182.182 596.696 180.735C595.787 179.288 594.288 178.565 592.201 178.565ZM615.117 206V199.428H619.457V179.588H615.117V173.078H626.928L628.726 180.487C629.904 177.656 631.402 175.548 633.221 174.163C635.06 172.778 637.302 172.086 639.948 172.086C641.064 172.086 642.056 172.179 642.924 172.365C643.792 172.53 644.608 172.768 645.373 173.078L643.544 186.842H637.406V180.766C635.546 181.097 633.913 182.109 632.508 183.804C631.102 185.478 630.017 187.545 629.253 190.004V199.428H635.763V206H615.117Z" fill="#5F3AFF"/>
<path d="M486.88 260H453V277.668H486.88V260Z" fill="#C6ABFF"/>
<path d="M532.488 260H498.608V277.668H532.488V260Z" fill="#5200FF"/>
<path d="M33.8802 191H0V208.668H33.8802V191Z" fill="black"/>
<path d="M57.9871 211.286H24.1069V228.954H57.9871V211.286Z" fill="#C6ABFF"/>
<path d="M60.5931 232.88H26.7129V250.549H60.5931V232.88Z" fill="#5200FF"/>
<path d="M602.88 481H569V498.668H602.88V481Z" fill="black"/>
<path d="M626.987 501.286H593.107V518.954H626.987V501.286Z" fill="#C6ABFF"/>
<path d="M629.593 522.88H595.713V540.549H629.593V522.88Z" fill="#5200FF"/>
<path d="M347.88 424H314V441.668H347.88V424Z" fill="#C6ABFF"/>
<path d="M393.488 424H359.608V441.668H393.488V424Z" fill="#5200FF"/>
<path d="M99.8802 515H66V532.668H99.8802V515Z" fill="#C6ABFF"/>
<path d="M145.488 515H111.608V532.668H145.488V515Z" fill="#5200FF"/>
<path d="M393.88 529H360V546.668H393.88V529Z" fill="#C6ABFF"/>
<path d="M439.488 529H405.608V546.668H439.488V529Z" fill="#5200FF"/>
<g clip-path="url(#clip0)">
<path d="M1126.64 337.029H1099V351.438H1126.64V337.029Z" fill="#5200FF"/>
<path d="M1128.77 354.641H1101.12V369.05H1128.77V354.641Z" fill="#C6ABFF"/>
<path d="M1105.91 232.43H1078.26V246.839H1105.91V232.43Z" fill="#5200FF"/>
<path d="M1125.58 248.973H1097.93V263.382H1125.58V248.973Z" fill="#C6ABFF"/>
<path d="M1072.41 233.497H1044.77V247.906H1072.41V233.497Z" fill="#C6ABFF"/>
<path d="M1161.2 265.517H1133.56V279.926H1161.2V265.517Z" fill="black"/>
<path d="M1127.71 266.584H1100.06V280.994H1127.71V266.584Z" fill="#5200FF"/>
<path d="M1092.09 250.041H1064.44V264.45H1092.09V250.041Z" fill="black"/>
<path d="M1105.91 232.43H1078.26V246.839H1105.91V232.43Z" fill="#5200FF"/>
<path d="M1125.58 248.973H1097.93V263.382H1125.58V248.973Z" fill="#C6ABFF"/>
<path d="M1072.41 233.497H1044.77V247.906H1072.41V233.497Z" fill="#C6ABFF"/>
<path d="M1161.2 265.517H1133.56V279.926H1161.2V265.517Z" fill="black"/>
<path d="M1127.71 266.584H1100.06V280.994H1127.71V266.584Z" fill="#5200FF"/>
<path d="M1092.09 250.041H1064.44V264.45H1092.09V250.041Z" fill="black"/>
<path d="M1159.61 376.521H1131.96V390.93H1159.61V376.521Z" fill="black"/>
<path d="M1126.11 377.588H1098.47V391.998H1126.11V377.588Z" fill="#5200FF"/>
<path d="M762.515 333.293C762.515 333.293 801.481 372.406 779.486 430.422C757.491 488.437 817.187 584.995 817.187 584.995C817.187 584.995 816.549 584.899 815.363 584.69C735.336 570.511 695.573 478.639 740.095 410.409C756.619 385.012 770.198 355.249 762.515 333.293Z" fill="#5F3AFF"/>
<path d="M762.515 333.293C762.515 333.293 784.51 381.239 762.515 420.346C740.52 459.454 758.746 569.241 817.192 584.995" stroke="#535461" stroke-width="2" stroke-miterlimit="10"/>
<path d="M693.112 491.484C693.112 491.484 737.575 484.376 741.626 524.375C745.678 564.373 827.129 569.918 827.129 569.918C827.129 569.918 826.597 570.281 825.603 570.938C758.353 615.232 694.069 599.163 703.761 540.326C707.36 518.451 707.063 496.48 693.112 491.484Z" fill="#5F3AFF"/>
<path opacity="0.2" d="M693.112 491.484C693.112 491.484 737.575 484.376 741.626 524.375C745.678 564.373 827.129 569.918 827.129 569.918C827.129 569.918 826.597 570.281 825.603 570.938C758.353 615.232 694.069 599.163 703.761 540.326C707.36 518.451 707.063 496.48 693.112 491.484Z" fill="#F5F5F5"/>
<path d="M693.112 491.485C693.112 491.485 727.622 499.09 724.789 530.587C721.955 562.084 776.041 599.863 827.129 569.919" stroke="#535461" stroke-width="2" stroke-miterlimit="10"/>
<path d="M720.982 337.563H693.335V351.972H720.982V337.563Z" fill="black"/>
<path d="M740.654 354.107H713.007V368.516H740.654V354.107Z" fill="#C6ABFF"/>
<path d="M890.052 186H862.405V200.409H890.052V186Z" fill="#5200FF"/>
<path d="M1108.04 451.769H1080.39V466.178H1108.04V451.769Z" fill="#C6ABFF"/>
<path d="M742.78 371.718H715.133V386.127H742.78V371.718Z" fill="#5200FF"/>
<path d="M909.723 202.544H882.077V216.953H909.723V202.544Z" fill="#C6ABFF"/>
<path d="M808.707 300.206H781.06V314.615H808.707V300.206Z" fill="black"/>
<path d="M828.379 316.75H800.732V331.159H828.379V316.75Z" fill="#5200FF"/>
<path d="M881.013 307.677H853.367V322.086H881.013V307.677Z" fill="#5200FF"/>
<path d="M830.505 334.361H802.858V348.77H830.505V334.361Z" fill="#C6ABFF"/>
<path d="M1145.25 451.769H1117.61V466.178H1145.25V451.769Z" fill="#5200FF"/>
<path d="M1076.15 394.724C1074.36 384.725 1073.26 374.612 1072.86 364.46C1072.51 356.099 1069.59 348.052 1064.5 341.424C1059.41 334.795 1052.4 329.908 1044.44 327.434C1041.53 326.537 1038.34 325.699 1034.81 324.947C1003.87 318.351 994.466 324.109 993.397 324.867C992.492 323.215 991.705 321.501 991.042 319.738C990.989 319.557 990.941 319.375 990.888 319.205C997.012 312.649 1000.74 304.205 1001.47 295.248C1006.64 289.997 1009.65 283.657 1009.65 276.831C1009.65 270.961 1007.42 265.453 1003.51 260.687V251.412C1003.51 240.716 999.276 230.458 991.741 222.895C984.207 215.332 973.987 211.083 963.331 211.083H960.072C954.796 211.083 949.571 212.126 944.697 214.152C939.822 216.179 935.393 219.15 931.662 222.895C927.931 226.64 924.972 231.086 922.952 235.979C920.933 240.872 919.894 246.116 919.894 251.412V261.408C916.348 266.003 914.338 271.249 914.338 276.82C914.338 283.502 917.23 289.714 922.196 294.901C922.875 304.186 926.777 312.938 933.223 319.631C933.441 321.147 933.664 322.775 933.882 324.493L878.536 336.229C878.536 336.229 857.195 337.109 843.446 365.581C831.818 389.697 808.68 451.657 801.827 470.1C800.588 473.441 799.886 475.357 799.886 475.357C799.886 475.357 800.115 475.128 800.546 474.733L799.886 476.531C799.886 476.531 800.221 476.19 800.859 475.629C799.892 483.346 799.753 496.597 809.823 498.246C818.266 499.628 840.022 500.199 856.456 500.429H857.593C868.487 500.573 876.776 500.573 876.776 500.573V500.429H1053.52V498.609C1053.53 496.959 1053.19 495.325 1052.55 493.806L1052.79 493.507C1053.74 494.761 1054.37 496.226 1054.63 497.777C1054.61 497.927 1054.58 498.077 1054.54 498.225L1054.65 497.953C1054.69 498.437 1054.66 498.926 1054.54 499.399C1054.54 499.399 1077.22 440.754 1076.98 405.734C1077.04 402.046 1076.76 398.36 1076.15 394.724V394.724ZM934.802 332.418C934.509 330.745 934.321 329.056 934.238 327.359C934.238 327.359 934.238 327.327 934.238 327.311C934.435 328.96 934.627 330.668 934.802 332.418ZM866.1 458.386V472.363L857.381 474.236L866.1 458.386Z" fill="url(#paint0_linear)"/>
<path d="M960.806 216.724C971.462 216.724 981.681 220.973 989.216 228.536C996.751 236.099 1000.98 246.357 1000.98 257.053V274.259H920.628V257.053C920.628 246.357 924.861 236.099 932.396 228.536C939.931 220.973 950.15 216.724 960.806 216.724V216.724Z" fill="#565656"/>
<path d="M961.088 311.488C986.381 311.488 1006.89 297.345 1006.89 279.9C1006.89 262.454 986.381 248.312 961.088 248.312C935.794 248.312 915.29 262.454 915.29 279.9C915.29 297.345 935.794 311.488 961.088 311.488Z" fill="#4F4F4F"/>
<path d="M931.729 310.5C931.729 310.5 941.299 360.703 931.729 374.242C922.159 387.781 960.971 393.14 960.971 393.14L1001.14 378.474L1006.76 342.371C1006.76 342.371 982.306 328.549 987.373 300.627L931.729 310.5Z" fill="#FAD3BD"/>
<path d="M1050.3 479.728C1050.3 479.728 1052.83 490.727 1039.06 492.702C1030.93 493.902 1022.66 493.803 1014.56 492.408L1011.53 464.78H1043.56L1050.3 479.728Z" fill="#F7C4A7"/>
<path d="M807.149 465.65C807.149 465.65 801.066 490.46 814.837 492.701C828.607 494.943 879.168 494.959 879.168 494.959V465.607L856.275 470.517L834.785 449.832L807.149 465.65Z" fill="#FAD3BD"/>
<path opacity="0.1" d="M934.685 326.719L880.875 338.139C880.875 338.139 860.363 338.988 847.157 366.344C833.95 393.7 805.288 471.83 805.288 471.83C805.288 471.83 829.745 447.008 858.396 473.521L877.504 438.833L873.288 493.833H1021.35V467.88C1021.35 467.88 1052.25 484.52 1050.01 493.828C1050.01 493.828 1076.46 425.421 1070.74 394.335C1069.02 384.725 1067.97 375.006 1067.59 365.25V365.25C1067.25 357.214 1064.44 349.48 1059.55 343.11C1054.66 336.74 1047.92 332.045 1040.27 329.67C1037.48 328.811 1034.42 328.005 1031.02 327.284C999.267 320.517 991.143 327.284 991.143 327.284C991.143 327.284 984.992 347.372 985.103 356.476C985.241 368.18 968.526 375.939 968.526 375.939C968.526 375.939 943.798 370.016 942.676 365.223C941.554 360.431 932.707 332.36 934.685 326.719Z" fill="black"/>
<path d="M934.685 325.593L880.875 337.013C880.875 337.013 860.363 337.862 847.157 365.218C833.95 392.574 805.283 470.714 805.283 470.714C805.283 470.714 829.739 445.893 858.391 472.406L877.499 437.717L873.283 492.701H1021.35V466.754C1021.35 466.754 1052.25 483.394 1050.01 492.701C1050.01 492.701 1076.46 424.295 1070.74 393.209C1069.02 383.599 1067.97 373.88 1067.59 364.124V364.124C1067.25 356.088 1064.44 348.354 1059.55 341.984C1054.66 335.614 1047.92 330.919 1040.27 328.544C1037.48 327.685 1034.42 326.879 1031.02 326.158C999.267 319.391 991.143 326.158 991.143 326.158C991.143 326.158 984.991 346.246 985.103 355.35C985.241 367.054 968.526 374.813 968.526 374.813C968.526 374.813 943.798 368.89 942.676 364.097C941.554 359.305 932.707 331.234 934.685 325.593Z" fill="url(#paint1_linear)"/>
<path opacity="0.1" d="M989.67 323.196C987.41 316.773 986.903 309.859 988.203 303.173L932.559 313.04C932.559 313.04 933.361 317.262 934.271 323.586C937.866 327.331 942.182 330.302 946.958 332.32C951.733 334.338 956.867 335.359 962.048 335.323C967.229 335.287 972.349 334.193 977.096 332.108C981.842 330.023 986.117 326.991 989.66 323.196H989.67Z" fill="black"/>
<path d="M999.161 294.426C999.117 304.491 995.135 314.135 988.072 321.279C981.01 328.423 971.433 332.495 961.407 332.617C951.381 332.739 941.709 328.901 934.477 321.93C927.244 314.96 923.03 305.415 922.744 295.355C922.744 295.045 922.744 294.736 922.744 294.426C922.742 287.244 924.749 280.206 928.536 274.112C932.323 268.018 937.738 263.113 944.165 259.956C945.31 259.394 946.487 258.889 947.695 258.441C953.982 256.121 960.762 255.488 967.367 256.605V256.605C975.832 258.052 983.563 262.32 989.314 268.721C995.064 275.121 998.498 283.28 999.06 291.881C999.127 292.724 999.161 293.572 999.161 294.426Z" fill="#FAD3BD"/>
<g opacity="0.1">
<path opacity="0.1" d="M947.636 259.343L947.689 259.311C946.481 259.759 945.304 260.264 944.159 260.826C937.732 263.983 932.317 268.888 928.53 274.982C924.743 281.075 922.737 288.114 922.738 295.296C922.738 295.606 922.738 295.915 922.738 296.225C923.926 296.192 925.095 295.911 926.168 295.397C935.482 291.032 941.054 277.68 943.266 268.367C944.063 265.032 944.813 261.274 947.636 259.343Z" fill="black"/>
<path opacity="0.1" d="M976.883 260.415C973.859 259.02 970.664 258.032 967.382 257.475C970.074 258.096 972.477 259.612 974.204 261.776C975.05 262.931 975.751 264.185 976.293 265.512C971.208 263.28 965.7 262.183 960.15 262.299C954.601 262.414 949.143 263.738 944.154 266.179C946.552 271.457 953.99 274.333 958.955 276.26C964.393 278.366 969.886 280.293 975.437 282.04L970.524 278.037L981.62 279.809C981.74 277.592 981.477 275.372 980.844 273.245C982.971 274.963 985.789 275.539 988.096 276.98C992.419 279.718 994.221 284.985 996.576 289.548C997.198 290.754 997.932 291.987 999.054 292.75C998.6 285.857 996.301 279.213 992.399 273.522C988.497 267.831 983.136 263.303 976.883 260.415V260.415Z" fill="black"/>
</g>
<path d="M947.636 258.473L947.689 258.441C946.481 258.889 945.304 259.394 944.159 259.957C937.732 263.114 932.317 268.018 928.53 274.112C924.743 280.206 922.737 287.244 922.738 294.426C922.738 294.736 922.738 295.045 922.738 295.355C923.926 295.323 925.095 295.041 926.168 294.528C935.482 290.162 941.054 276.81 943.266 267.497C944.063 264.183 944.813 260.41 947.636 258.473Z" fill="#212121"/>
<path d="M976.884 259.551C973.859 258.156 970.665 257.167 967.383 256.61C970.074 257.232 972.478 258.748 974.204 260.912C975.05 262.067 975.752 263.321 976.294 264.647C971.208 262.415 965.7 261.319 960.151 261.434C954.602 261.55 949.144 262.873 944.154 265.315C946.552 270.593 953.99 273.469 958.956 275.396C964.393 277.502 969.887 279.428 975.438 281.175L970.525 277.173L981.621 278.945C981.74 276.728 981.478 274.507 980.845 272.38C982.971 274.099 985.789 274.675 988.097 276.116C992.419 278.854 994.221 284.121 996.577 288.684C997.199 289.89 997.932 291.123 999.054 291.886C998.601 284.992 996.301 278.349 992.399 272.658C988.497 266.967 983.137 262.438 976.884 259.551V259.551Z" fill="#212121"/>
<path opacity="0.1" d="M918.379 288.102C918.379 288.102 957.722 239.004 1003.24 288.102L999.304 277.103C999.304 277.103 977.947 245.798 962.778 252.554C947.61 259.31 932.713 264.119 932.713 264.119L918.379 288.102Z" fill="black"/>
<path d="M918.379 287.232C918.379 287.232 957.722 238.135 1003.24 287.232L999.304 276.233C999.304 276.233 977.947 244.928 962.778 251.685C947.61 258.441 932.713 263.249 932.713 263.249L918.379 287.232Z" fill="#4F4F4F"/>
<path opacity="0.1" d="M886.064 393.001C886.064 393.001 877.637 415.565 889.435 435.871C901.233 456.177 879.041 464.641 879.041 464.641" fill="black"/>
<path opacity="0.1" d="M1022.62 372.694C1022.62 372.694 1037.23 391.309 1027.68 407.949C1018.12 424.589 1018.69 464.641 1018.69 464.641" fill="black"/>
<path d="M873.139 481.281H1035.55C1039.12 481.281 1042.56 482.707 1045.09 485.246C1047.61 487.785 1049.04 491.229 1049.04 494.82V494.82H859.656C859.656 491.23 861.077 487.787 863.605 485.248C866.133 482.709 869.563 481.282 873.139 481.281V481.281Z" fill="#535461"/>
<path d="M889.664 388.203H1019.03C1021.75 388.203 1024.45 388.741 1026.96 389.787C1029.48 390.833 1031.77 392.366 1033.69 394.299C1035.62 396.232 1037.14 398.526 1038.19 401.051C1039.23 403.577 1039.76 406.283 1039.76 409.016V484.382H868.929V409.016C868.929 403.496 871.113 398.202 875.002 394.299C878.89 390.396 884.164 388.203 889.664 388.203V388.203Z" fill="#535461"/>
<path d="M954.203 450.68C959.79 450.68 964.32 446.133 964.32 440.524C964.32 434.916 959.79 430.369 954.203 430.369C948.615 430.369 944.085 434.916 944.085 440.524C944.085 446.133 948.615 450.68 954.203 450.68Z" fill="white"/>
<path opacity="0.1" d="M920.628 265.09C920.628 265.09 959.291 226.303 1000.99 264.38" stroke="black" stroke-miterlimit="10"/>
<path d="M1010.76 262.619H1006.88V284.708H1010.76V262.619Z" fill="#CDCDCD"/>
<path d="M1001.7 276.911C1005.24 276.911 1008.65 278.326 1011.16 280.844C1013.66 283.362 1015.07 286.777 1015.07 290.338V291.203C1015.07 294.764 1013.66 298.179 1011.16 300.697C1008.65 303.215 1005.24 304.63 1001.7 304.63V304.63V276.911Z" fill="#474747"/>
<path d="M1005.15 278.646C1005.15 276.971 1003.8 275.614 1002.13 275.614C1000.46 275.614 999.107 276.971 999.107 278.646V302.901C999.107 304.575 1000.46 305.932 1002.13 305.932C1003.8 305.932 1005.15 304.575 1005.15 302.901V278.646Z" fill="#CDCDCD"/>
<path d="M910.463 285.14H914.344V263.051H910.463V285.14Z" fill="#CDCDCD"/>
<path d="M919.522 305.062C915.974 305.062 912.572 303.648 910.063 301.13C907.555 298.612 906.145 295.196 906.145 291.635V290.771C906.145 289.007 906.491 287.261 907.164 285.632C907.836 284.003 908.821 282.523 910.063 281.276C911.305 280.029 912.78 279.04 914.403 278.366C916.026 277.691 917.765 277.344 919.522 277.344V277.344V305.062Z" fill="#474747"/>
<path d="M916.072 303.328C916.072 305.002 917.424 306.359 919.091 306.359C920.759 306.359 922.111 305.002 922.111 303.328V279.072C922.111 277.398 920.759 276.041 919.091 276.041C917.424 276.041 916.072 277.398 916.072 279.072V303.328Z" fill="#CDCDCD"/>
<path d="M1006.42 239.01C1001.16 228.037 989.708 214.77 965.022 213.708V213.676H964.725L955.979 214.093V214.135C931.458 215.267 920.059 228.486 914.817 239.421C911.326 246.834 909.472 254.917 909.383 263.116L912.403 263.041L915.423 262.972C915.553 255.672 917.226 248.483 920.33 241.881C926.987 228.155 939.236 220.859 956.734 220.182L964.469 219.749C981.977 220.422 994.232 227.728 1000.88 241.449C1003.99 248.053 1005.67 255.246 1005.8 262.55L1008.82 262.619L1011.84 262.694C1011.75 254.499 1009.9 246.42 1006.42 239.01V239.01Z" fill="#363636"/>
<path d="M1144.38 494.996H732.492V606H1144.38V494.996Z" fill="#373737"/>
<path d="M1144.38 502.468H732.492V516.877H1144.38V502.468Z" fill="#6B71FF"/>
<path d="M1172 493.395H704.861V507.804H1172V493.395Z" fill="#373737"/>
</g>
<defs>
<linearGradient id="paint0_linear" x1="938.433" y1="500.6" x2="938.433" y2="211.083" gradientUnits="userSpaceOnUse">
<stop stop-color="#808080" stop-opacity="0.25"/>
<stop offset="0.54" stop-color="#808080" stop-opacity="0.12"/>
<stop offset="1" stop-color="#808080" stop-opacity="0.1"/>
</linearGradient>
<linearGradient id="paint1_linear" x1="938.418" y1="323.151" x2="938.418" y2="492.701" gradientUnits="userSpaceOnUse">
<stop stop-color="#4729FF"/>
<stop offset="1" stop-color="#100073"/>
</linearGradient>
<clipPath id="clip0">
<rect width="479" height="420" fill="white" transform="translate(693 186)"/>
</clipPath>
</defs>
</svg>
