<svg width="1440" height="898" viewBox="0 0 1440 898" fill="none" xmlns="http://www.w3.org/2000/svg">
<rect width="1440" height="898" fill="white"/>
<path d="M92.56 183.972C87.016 183.972 81.76 183.252 76.792 181.812C71.896 180.3 67.9 178.284 64.804 175.764C63.148 174.54 62.32 172.812 62.32 170.58C62.32 169.068 62.752 167.772 63.616 166.692C64.552 165.54 65.632 164.964 66.856 164.964C68.152 164.964 69.628 165.468 71.284 166.476C74.38 168.708 77.62 170.328 81.004 171.336C84.388 172.344 88.132 172.848 92.236 172.848C97.492 172.848 101.524 171.948 104.332 170.148C107.14 168.276 108.544 165.576 108.544 162.048C108.544 159.312 107.212 157.224 104.548 155.784C101.956 154.272 97.6 152.832 91.48 151.464C85.144 150.096 79.996 148.512 76.036 146.712C72.076 144.912 69.088 142.608 67.072 139.8C65.056 136.992 64.048 133.428 64.048 129.108C64.048 124.644 65.308 120.648 67.828 117.12C70.348 113.592 73.84 110.856 78.304 108.912C82.84 106.896 87.916 105.888 93.532 105.888C103.828 105.888 112.216 108.624 118.696 114.096C119.632 114.888 120.28 115.68 120.64 116.472C121.072 117.192 121.288 118.128 121.288 119.28C121.288 120.792 120.82 122.124 119.884 123.276C119.02 124.356 117.976 124.896 116.752 124.896C116.032 124.896 115.348 124.788 114.7 124.572C114.124 124.356 113.332 123.96 112.324 123.384C109.372 121.224 106.492 119.64 103.684 118.632C100.948 117.552 97.564 117.012 93.532 117.012C88.636 117.012 84.748 118.02 81.868 120.036C79.06 121.98 77.656 124.716 77.656 128.244C77.656 131.196 78.916 133.464 81.436 135.048C83.956 136.632 88.24 138.108 94.288 139.476C100.696 140.916 105.88 142.536 109.84 144.336C113.872 146.064 116.932 148.296 119.02 151.032C121.18 153.768 122.26 157.188 122.26 161.292C122.26 165.756 121 169.716 118.48 173.172C116.032 176.556 112.54 179.22 108.004 181.164C103.54 183.036 98.392 183.972 92.56 183.972ZM562.107 183.972C556.563 183.972 551.307 183.252 546.339 181.812C541.443 180.3 537.447 178.284 534.351 175.764C532.695 174.54 531.867 172.812 531.867 170.58C531.867 169.068 532.299 167.772 533.163 166.692C534.099 165.54 535.179 164.964 536.403 164.964C537.699 164.964 539.175 165.468 540.831 166.476C543.927 168.708 547.167 170.328 550.551 171.336C553.935 172.344 557.679 172.848 561.783 172.848C567.039 172.848 571.071 171.948 573.879 170.148C576.687 168.276 578.091 165.576 578.091 162.048C578.091 159.312 576.759 157.224 574.095 155.784C571.503 154.272 567.147 152.832 561.027 151.464C554.691 150.096 549.543 148.512 545.583 146.712C541.623 144.912 538.635 142.608 536.619 139.8C534.603 136.992 533.595 133.428 533.595 129.108C533.595 124.644 534.855 120.648 537.375 117.12C539.895 113.592 543.387 110.856 547.851 108.912C552.387 106.896 557.463 105.888 563.079 105.888C573.375 105.888 581.763 108.624 588.243 114.096C589.179 114.888 589.827 115.68 590.187 116.472C590.619 117.192 590.835 118.128 590.835 119.28C590.835 120.792 590.367 122.124 589.431 123.276C588.567 124.356 587.523 124.896 586.299 124.896C585.579 124.896 584.895 124.788 584.247 124.572C583.671 124.356 582.879 123.96 581.871 123.384C578.919 121.224 576.039 119.64 573.231 118.632C570.495 117.552 567.111 117.012 563.079 117.012C558.183 117.012 554.295 118.02 551.415 120.036C548.607 121.98 547.203 124.716 547.203 128.244C547.203 131.196 548.463 133.464 550.983 135.048C553.503 136.632 557.787 138.108 563.835 139.476C570.243 140.916 575.427 142.536 579.387 144.336C583.419 146.064 586.479 148.296 588.567 151.032C590.727 153.768 591.807 157.188 591.807 161.292C591.807 165.756 590.547 169.716 588.027 173.172C585.579 176.556 582.087 179.22 577.551 181.164C573.087 183.036 567.939 183.972 562.107 183.972Z" fill="#5F3AFF"/>
<path d="M175.579 129.108C177.667 129.108 179.323 129.684 180.547 130.836C181.771 131.988 182.383 133.536 182.383 135.48V177.384C182.383 179.256 181.735 180.768 180.439 181.92C179.215 183.072 177.595 183.648 175.579 183.648C173.635 183.648 172.087 183.108 170.935 182.028C169.783 180.948 169.207 179.472 169.207 177.6V174.9C167.551 177.78 165.319 180.012 162.511 181.596C159.703 183.108 156.535 183.864 153.007 183.864C140.047 183.864 133.567 176.592 133.567 162.048V135.48C133.567 133.536 134.179 131.988 135.403 130.836C136.627 129.684 138.247 129.108 140.263 129.108C142.351 129.108 144.007 129.684 145.231 130.836C146.455 131.988 147.067 133.536 147.067 135.48V162.156C147.067 165.9 147.823 168.672 149.335 170.472C150.847 172.272 153.223 173.172 156.463 173.172C160.207 173.172 163.195 171.948 165.427 169.5C167.731 166.98 168.883 163.668 168.883 159.564V135.48C168.883 133.536 169.495 131.988 170.719 130.836C171.943 129.684 173.563 129.108 175.579 129.108ZM243.414 172.524C244.854 173.892 245.574 175.44 245.574 177.168C245.574 178.824 244.962 180.3 243.738 181.596C242.586 182.892 241.218 183.54 239.634 183.54C238.05 183.54 236.574 182.892 235.206 181.596L209.934 158.7V177.168C209.934 179.256 209.286 180.84 207.99 181.92C206.694 183 205.074 183.54 203.13 183.54C201.186 183.54 199.566 183 198.27 181.92C197.046 180.84 196.434 179.256 196.434 177.168V112.692C196.434 110.604 197.046 109.02 198.27 107.94C199.566 106.86 201.186 106.32 203.13 106.32C205.074 106.32 206.694 106.86 207.99 107.94C209.286 109.02 209.934 110.604 209.934 112.692V153.3L233.046 131.16C234.342 129.864 235.818 129.216 237.474 129.216C239.13 129.216 240.57 129.828 241.794 131.052C243.018 132.276 243.63 133.716 243.63 135.372C243.63 137.028 242.946 138.54 241.578 139.908L224.622 155.676L243.414 172.524ZM261.032 183.648C259.088 183.648 257.468 183.108 256.172 182.028C254.948 180.876 254.336 179.256 254.336 177.168V135.48C254.336 133.392 254.948 131.808 256.172 130.728C257.468 129.648 259.088 129.108 261.032 129.108C262.976 129.108 264.596 129.648 265.892 130.728C267.188 131.808 267.836 133.392 267.836 135.48V177.168C267.836 179.256 267.188 180.876 265.892 182.028C264.596 183.108 262.976 183.648 261.032 183.648ZM261.032 119.496C258.584 119.496 256.64 118.848 255.2 117.552C253.76 116.184 253.04 114.42 253.04 112.26C253.04 110.1 253.76 108.372 255.2 107.076C256.64 105.78 258.584 105.132 261.032 105.132C263.408 105.132 265.316 105.78 266.756 107.076C268.268 108.372 269.024 110.1 269.024 112.26C269.024 114.42 268.304 116.184 266.864 117.552C265.424 118.848 263.48 119.496 261.032 119.496ZM304.654 128.892C311.998 128.892 317.434 130.728 320.962 134.4C324.562 138 326.362 143.508 326.362 150.924V177.276C326.362 179.22 325.786 180.768 324.634 181.92C323.482 183 321.898 183.54 319.882 183.54C318.01 183.54 316.462 182.964 315.238 181.812C314.086 180.66 313.51 179.148 313.51 177.276V174.9C312.286 177.708 310.342 179.904 307.678 181.488C305.086 183.072 302.062 183.864 298.606 183.864C295.078 183.864 291.874 183.144 288.994 181.704C286.114 180.264 283.846 178.284 282.19 175.764C280.534 173.244 279.706 170.436 279.706 167.34C279.706 163.452 280.678 160.392 282.622 158.16C284.638 155.928 287.878 154.308 292.342 153.3C296.806 152.292 302.962 151.788 310.81 151.788H313.51V149.304C313.51 145.776 312.754 143.22 311.242 141.636C309.73 139.98 307.282 139.152 303.898 139.152C301.81 139.152 299.686 139.476 297.526 140.124C295.366 140.7 292.81 141.564 289.858 142.716C287.986 143.652 286.618 144.12 285.754 144.12C284.458 144.12 283.378 143.652 282.514 142.716C281.722 141.78 281.326 140.556 281.326 139.044C281.326 137.82 281.614 136.776 282.19 135.912C282.838 134.976 283.882 134.112 285.322 133.32C287.842 131.952 290.83 130.872 294.286 130.08C297.814 129.288 301.27 128.892 304.654 128.892ZM301.306 174.144C304.906 174.144 307.822 172.956 310.054 170.58C312.358 168.132 313.51 165 313.51 161.184V158.916H311.566C306.742 158.916 302.998 159.132 300.334 159.564C297.67 159.996 295.762 160.752 294.61 161.832C293.458 162.912 292.882 164.388 292.882 166.26C292.882 168.564 293.674 170.472 295.258 171.984C296.914 173.424 298.93 174.144 301.306 174.144ZM370.755 128.892C377.091 128.892 381.807 130.692 384.903 134.292C387.999 137.892 389.547 143.328 389.547 150.6V177.168C389.547 179.184 388.935 180.768 387.711 181.92C386.559 183.072 384.939 183.648 382.851 183.648C380.763 183.648 379.107 183.072 377.883 181.92C376.659 180.768 376.047 179.184 376.047 177.168V151.356C376.047 147.252 375.255 144.264 373.671 142.392C372.159 140.52 369.747 139.584 366.435 139.584C362.547 139.584 359.415 140.808 357.039 143.256C354.735 145.704 353.583 148.98 353.583 153.084V177.168C353.583 179.184 352.971 180.768 351.747 181.92C350.523 183.072 348.867 183.648 346.779 183.648C344.691 183.648 343.035 183.072 341.811 181.92C340.659 180.768 340.083 179.184 340.083 177.168V135.372C340.083 133.5 340.695 131.988 341.919 130.836C343.143 129.684 344.799 129.108 346.887 129.108C348.759 129.108 350.271 129.684 351.423 130.836C352.647 131.916 353.259 133.356 353.259 135.156V138.072C355.059 135.12 357.471 132.852 360.495 131.268C363.519 129.684 366.939 128.892 370.755 128.892ZM430.69 173.604C434.29 173.82 436.09 175.44 436.09 178.464C436.09 180.192 435.37 181.524 433.93 182.46C432.562 183.324 430.582 183.684 427.99 183.54L425.074 183.324C412.978 182.46 406.93 175.98 406.93 163.884V140.34H401.53C399.586 140.34 398.074 139.908 396.994 139.044C395.986 138.18 395.482 136.92 395.482 135.264C395.482 133.608 395.986 132.348 396.994 131.484C398.074 130.62 399.586 130.188 401.53 130.188H406.93V120.252C406.93 118.308 407.542 116.76 408.766 115.608C409.99 114.456 411.646 113.88 413.734 113.88C415.75 113.88 417.37 114.456 418.594 115.608C419.818 116.76 420.43 118.308 420.43 120.252V130.188H429.61C431.554 130.188 433.03 130.62 434.038 131.484C435.118 132.348 435.658 133.608 435.658 135.264C435.658 136.92 435.118 138.18 434.038 139.044C433.03 139.908 431.554 140.34 429.61 140.34H420.43V164.856C420.43 170.184 422.878 173.028 427.774 173.388L430.69 173.604ZM467.209 183.864C461.809 183.864 457.057 182.748 452.953 180.516C448.921 178.284 445.789 175.08 443.557 170.904C441.325 166.728 440.209 161.868 440.209 156.324C440.209 150.78 441.325 145.956 443.557 141.852C445.789 137.676 448.921 134.472 452.953 132.24C457.057 130.008 461.809 128.892 467.209 128.892C472.609 128.892 477.325 130.008 481.357 132.24C485.461 134.472 488.593 137.676 490.753 141.852C492.985 145.956 494.101 150.78 494.101 156.324C494.101 161.868 492.985 166.728 490.753 170.904C488.593 175.08 485.461 178.284 481.357 180.516C477.325 182.748 472.609 183.864 467.209 183.864ZM467.101 173.388C471.493 173.388 474.841 171.948 477.145 169.068C479.449 166.188 480.601 161.94 480.601 156.324C480.601 150.78 479.449 146.568 477.145 143.688C474.841 140.736 471.529 139.26 467.209 139.26C462.889 139.26 459.541 140.736 457.165 143.688C454.861 146.568 453.709 150.78 453.709 156.324C453.709 161.94 454.861 166.188 457.165 169.068C459.469 171.948 462.781 173.388 467.101 173.388ZM645.126 129.108C647.214 129.108 648.87 129.684 650.094 130.836C651.318 131.988 651.93 133.536 651.93 135.48V177.384C651.93 179.256 651.282 180.768 649.986 181.92C648.762 183.072 647.142 183.648 645.126 183.648C643.182 183.648 641.634 183.108 640.482 182.028C639.33 180.948 638.754 179.472 638.754 177.6V174.9C637.098 177.78 634.866 180.012 632.058 181.596C629.25 183.108 626.082 183.864 622.554 183.864C609.594 183.864 603.114 176.592 603.114 162.048V135.48C603.114 133.536 603.726 131.988 604.95 130.836C606.174 129.684 607.794 129.108 609.81 129.108C611.898 129.108 613.554 129.684 614.778 130.836C616.002 131.988 616.614 133.536 616.614 135.48V162.156C616.614 165.9 617.37 168.672 618.882 170.472C620.394 172.272 622.77 173.172 626.01 173.172C629.754 173.172 632.742 171.948 634.974 169.5C637.278 166.98 638.43 163.668 638.43 159.564V135.48C638.43 133.536 639.042 131.988 640.266 130.836C641.49 129.684 643.11 129.108 645.126 129.108ZM693.413 173.604C697.013 173.82 698.813 175.44 698.813 178.464C698.813 180.192 698.093 181.524 696.653 182.46C695.285 183.324 693.305 183.684 690.713 183.54L687.797 183.324C675.701 182.46 669.653 175.98 669.653 163.884V140.34H664.253C662.309 140.34 660.797 139.908 659.717 139.044C658.709 138.18 658.205 136.92 658.205 135.264C658.205 133.608 658.709 132.348 659.717 131.484C660.797 130.62 662.309 130.188 664.253 130.188H669.653V120.252C669.653 118.308 670.265 116.76 671.489 115.608C672.713 114.456 674.369 113.88 676.457 113.88C678.473 113.88 680.093 114.456 681.317 115.608C682.541 116.76 683.153 118.308 683.153 120.252V130.188H692.333C694.277 130.188 695.753 130.62 696.761 131.484C697.841 132.348 698.381 133.608 698.381 135.264C698.381 136.92 697.841 138.18 696.761 139.044C695.753 139.908 694.277 140.34 692.333 140.34H683.153V164.856C683.153 170.184 685.601 173.028 690.497 173.388L693.413 173.604ZM747.644 168.528C748.868 168.528 749.84 168.996 750.56 169.932C751.352 170.868 751.748 172.128 751.748 173.712C751.748 175.944 750.416 177.816 747.752 179.328C745.304 180.696 742.532 181.812 739.436 182.676C736.34 183.468 733.388 183.864 730.58 183.864C722.084 183.864 715.352 181.416 710.384 176.52C705.416 171.624 702.932 164.928 702.932 156.432C702.932 151.032 704.012 146.244 706.172 142.068C708.332 137.892 711.356 134.652 715.244 132.348C719.204 130.044 723.668 128.892 728.636 128.892C733.388 128.892 737.528 129.936 741.056 132.024C744.584 134.112 747.32 137.064 749.264 140.88C751.208 144.696 752.18 149.196 752.18 154.38C752.18 157.476 750.812 159.024 748.076 159.024H716.216C716.648 163.992 718.052 167.664 720.428 170.04C722.804 172.344 726.26 173.496 730.796 173.496C733.1 173.496 735.116 173.208 736.844 172.632C738.644 172.056 740.66 171.264 742.892 170.256C745.052 169.104 746.636 168.528 747.644 168.528ZM728.96 138.396C725.288 138.396 722.336 139.548 720.104 141.852C717.944 144.156 716.648 147.468 716.216 151.788H740.624C740.48 147.396 739.4 144.084 737.384 141.852C735.368 139.548 732.56 138.396 728.96 138.396ZM755.663 202.656C753.071 202.8 751.091 202.44 749.723 201.576C748.283 200.712 747.563 199.38 747.563 197.58C747.563 194.628 749.363 193.008 752.963 192.72L755.879 192.504C758.327 192.36 760.163 191.604 761.387 190.236C762.611 188.868 763.223 186.78 763.223 183.972V135.48C763.223 133.392 763.835 131.808 765.059 130.728C766.355 129.648 767.975 129.108 769.919 129.108C771.863 129.108 773.483 129.648 774.779 130.728C776.075 131.808 776.723 133.392 776.723 135.48V183C776.723 195.096 770.675 201.576 758.579 202.44L755.663 202.656ZM769.811 119.496C767.363 119.496 765.419 118.848 763.979 117.552C762.539 116.184 761.819 114.42 761.819 112.26C761.819 110.1 762.539 108.372 763.979 107.076C765.419 105.78 767.363 105.132 769.811 105.132C772.187 105.132 774.095 105.78 775.535 107.076C777.047 108.372 777.803 110.1 777.803 112.26C777.803 114.42 777.083 116.184 775.643 117.552C774.203 118.848 772.259 119.496 769.811 119.496ZM813.541 128.892C820.885 128.892 826.321 130.728 829.849 134.4C833.449 138 835.249 143.508 835.249 150.924V177.276C835.249 179.22 834.673 180.768 833.521 181.92C832.369 183 830.785 183.54 828.769 183.54C826.897 183.54 825.349 182.964 824.125 181.812C822.973 180.66 822.397 179.148 822.397 177.276V174.9C821.173 177.708 819.229 179.904 816.565 181.488C813.973 183.072 810.949 183.864 807.493 183.864C803.965 183.864 800.761 183.144 797.881 181.704C795.001 180.264 792.733 178.284 791.077 175.764C789.421 173.244 788.593 170.436 788.593 167.34C788.593 163.452 789.565 160.392 791.509 158.16C793.525 155.928 796.765 154.308 801.229 153.3C805.693 152.292 811.849 151.788 819.697 151.788H822.397V149.304C822.397 145.776 821.641 143.22 820.129 141.636C818.617 139.98 816.169 139.152 812.785 139.152C810.697 139.152 808.573 139.476 806.413 140.124C804.253 140.7 801.697 141.564 798.745 142.716C796.873 143.652 795.505 144.12 794.641 144.12C793.345 144.12 792.265 143.652 791.401 142.716C790.609 141.78 790.213 140.556 790.213 139.044C790.213 137.82 790.501 136.776 791.077 135.912C791.725 134.976 792.769 134.112 794.209 133.32C796.729 131.952 799.717 130.872 803.173 130.08C806.701 129.288 810.157 128.892 813.541 128.892ZM810.193 174.144C813.793 174.144 816.709 172.956 818.941 170.58C821.245 168.132 822.397 165 822.397 161.184V158.916H820.453C815.629 158.916 811.885 159.132 809.221 159.564C806.557 159.996 804.649 160.752 803.497 161.832C802.345 162.912 801.769 164.388 801.769 166.26C801.769 168.564 802.561 170.472 804.145 171.984C805.801 173.424 807.817 174.144 810.193 174.144Z" fill="black"/>
<rect x="157" y="234" width="585" height="113" rx="56.5" fill="url(#paint0_linear)"/>
<path d="M245.743 268.034L240.721 311H230.15L227.019 280.279L223.578 311H212.821L208.171 268.034H217.688L219.145 302.32L222.71 272.994H231.452L234.769 302.32L236.908 268.034H245.743ZM258.367 297.391C258.698 300.078 259.576 302.01 261.002 303.188C262.428 304.345 264.185 304.924 266.272 304.924C267.781 304.924 269.238 304.676 270.643 304.18C272.049 303.684 273.402 303.023 274.704 302.196L278.641 307.528C277.091 308.851 275.211 309.936 272.999 310.783C270.809 311.63 268.308 312.054 265.497 312.054C261.736 312.054 258.584 311.31 256.042 309.822C253.5 308.313 251.589 306.247 250.307 303.622C249.026 300.997 248.385 297.98 248.385 294.57C248.385 291.325 249.005 288.38 250.245 285.735C251.485 283.069 253.294 280.951 255.67 279.38C258.068 277.789 260.992 276.993 264.443 276.993C267.585 276.993 270.302 277.665 272.596 279.008C274.911 280.351 276.699 282.284 277.959 284.805C279.241 287.326 279.881 290.354 279.881 293.888C279.881 294.446 279.861 295.045 279.819 295.686C279.799 296.327 279.757 296.895 279.695 297.391H258.367ZM264.443 283.565C262.687 283.565 261.271 284.195 260.196 285.456C259.122 286.717 258.471 288.732 258.243 291.501H270.333C270.313 289.104 269.848 287.182 268.938 285.735C268.029 284.288 266.531 283.565 264.443 283.565ZM296.845 281.457C297.878 280.093 299.118 279.008 300.565 278.202C302.032 277.396 303.603 276.993 305.277 276.993C309.514 276.993 312.593 278.564 314.515 281.705C316.458 284.846 317.429 289.093 317.429 294.446C317.429 297.835 316.923 300.863 315.91 303.529C314.918 306.174 313.44 308.262 311.477 309.791C309.514 311.3 307.106 312.054 304.254 312.054C300.803 312.054 298.085 310.711 296.101 308.024L295.729 311H287.049V264.996L296.845 263.973V281.457ZM301.681 304.924C303.417 304.924 304.791 304.128 305.804 302.537C306.817 300.925 307.323 298.269 307.323 294.57C307.323 291.842 307.106 289.734 306.672 288.246C306.259 286.737 305.659 285.694 304.874 285.115C304.109 284.516 303.21 284.216 302.177 284.216C301.082 284.216 300.1 284.557 299.232 285.239C298.364 285.921 297.568 286.851 296.845 288.029V301.917C297.465 302.888 298.157 303.632 298.922 304.149C299.687 304.666 300.606 304.924 301.681 304.924ZM392.68 289.3C392.68 293.661 392.101 297.257 390.944 300.088C389.807 302.919 388.257 305.131 386.294 306.722C384.33 308.293 382.098 309.398 379.598 310.039C377.118 310.68 374.545 311 371.879 311H360.285V268.034H371.135C373.883 268.034 376.539 268.323 379.102 268.902C381.685 269.46 383.989 270.504 386.015 272.033C388.061 273.542 389.683 275.691 390.882 278.481C392.08 281.25 392.68 284.857 392.68 289.3ZM382.14 289.3C382.14 285.435 381.716 282.511 380.869 280.527C380.042 278.543 378.905 277.2 377.459 276.497C376.033 275.774 374.421 275.412 372.623 275.412H370.453V303.653H372.623C374.503 303.653 376.157 303.25 377.583 302.444C379.009 301.617 380.125 300.16 380.931 298.073C381.737 295.986 382.14 293.061 382.14 289.3ZM407.07 297.391C407.401 300.078 408.279 302.01 409.705 303.188C411.131 304.345 412.888 304.924 414.975 304.924C416.484 304.924 417.941 304.676 419.346 304.18C420.752 303.684 422.105 303.023 423.407 302.196L427.344 307.528C425.794 308.851 423.914 309.936 421.702 310.783C419.512 311.63 417.011 312.054 414.2 312.054C410.439 312.054 407.287 311.31 404.745 309.822C402.203 308.313 400.292 306.247 399.01 303.622C397.729 300.997 397.088 297.98 397.088 294.57C397.088 291.325 397.708 288.38 398.948 285.735C400.188 283.069 401.997 280.951 404.373 279.38C406.771 277.789 409.695 276.993 413.146 276.993C416.288 276.993 419.005 277.665 421.299 279.008C423.614 280.351 425.402 282.284 426.662 284.805C427.944 287.326 428.584 290.354 428.584 293.888C428.584 294.446 428.564 295.045 428.522 295.686C428.502 296.327 428.46 296.895 428.398 297.391H407.07ZM413.146 283.565C411.39 283.565 409.974 284.195 408.899 285.456C407.825 286.717 407.174 288.732 406.946 291.501H419.036C419.016 289.104 418.551 287.182 417.641 285.735C416.732 284.288 415.234 283.565 413.146 283.565ZM466.814 278.078L455.84 311H444.308L433.21 278.078H443.781L450.198 303.498L456.894 278.078H466.814ZM481.422 297.391C481.753 300.078 482.631 302.01 484.057 303.188C485.483 304.345 487.24 304.924 489.327 304.924C490.836 304.924 492.293 304.676 493.698 304.18C495.103 303.684 496.457 303.023 497.759 302.196L501.696 307.528C500.146 308.851 498.265 309.936 496.054 310.783C493.863 311.63 491.363 312.054 488.552 312.054C484.791 312.054 481.639 311.31 479.097 309.822C476.555 308.313 474.643 306.247 473.362 303.622C472.081 300.997 471.44 297.98 471.44 294.57C471.44 291.325 472.06 288.38 473.3 285.735C474.54 283.069 476.348 280.951 478.725 279.38C481.122 277.789 484.047 276.993 487.498 276.993C490.639 276.993 493.357 277.665 495.651 279.008C497.966 280.351 499.753 282.284 501.014 284.805C502.295 287.326 502.936 290.354 502.936 293.888C502.936 294.446 502.915 295.045 502.874 295.686C502.853 296.327 502.812 296.895 502.75 297.391H481.422ZM487.498 283.565C485.741 283.565 484.326 284.195 483.251 285.456C482.176 286.717 481.525 288.732 481.298 291.501H493.388C493.367 289.104 492.902 287.182 491.993 285.735C491.084 284.288 489.585 283.565 487.498 283.565ZM527.278 264.996V300.646C527.278 301.969 527.65 302.919 528.394 303.498C529.158 304.056 530.202 304.335 531.525 304.335C532.372 304.335 533.188 304.242 533.974 304.056C534.759 303.849 535.493 303.612 536.175 303.343L538.531 309.884C537.415 310.463 536.071 310.969 534.501 311.403C532.93 311.837 531.101 312.054 529.014 312.054C525.046 312.054 522.132 310.917 520.272 308.644C518.412 306.35 517.482 303.281 517.482 299.437V271.692H507.779V264.996H527.278ZM561.539 276.993C564.929 276.993 567.812 277.716 570.188 279.163C572.565 280.61 574.384 282.645 575.644 285.27C576.905 287.874 577.535 290.933 577.535 294.446C577.535 299.943 576.13 304.252 573.319 307.373C570.509 310.494 566.582 312.054 561.539 312.054C556.497 312.054 552.57 310.514 549.759 307.435C546.949 304.356 545.543 300.047 545.543 294.508C545.543 291.015 546.174 287.957 547.434 285.332C548.716 282.707 550.545 280.661 552.921 279.194C555.319 277.727 558.191 276.993 561.539 276.993ZM561.539 284.216C559.535 284.216 558.047 285.043 557.075 286.696C556.125 288.329 555.649 290.933 555.649 294.508C555.649 298.145 556.125 300.78 557.075 302.413C558.047 304.046 559.535 304.862 561.539 304.862C563.544 304.862 565.022 304.046 565.972 302.413C566.944 300.78 567.429 298.125 567.429 294.446C567.429 290.891 566.944 288.298 565.972 286.665C565.022 285.032 563.544 284.216 561.539 284.216ZM602.683 276.993C606.982 276.993 610.061 278.564 611.921 281.705C613.781 284.846 614.711 289.093 614.711 294.446C614.711 297.835 614.215 300.863 613.223 303.529C612.231 306.174 610.795 308.262 608.914 309.791C607.034 311.3 604.75 312.054 602.063 312.054C598.86 312.054 596.256 310.907 594.251 308.613V323.71L584.455 324.733V278.078H593.135L593.569 281.767C594.913 280.052 596.38 278.832 597.971 278.109C599.563 277.365 601.133 276.993 602.683 276.993ZM599.645 284.216C598.509 284.216 597.506 284.557 596.638 285.239C595.77 285.921 594.975 286.851 594.251 288.029V301.917C594.933 302.93 595.646 303.674 596.39 304.149C597.155 304.624 598.054 304.862 599.087 304.862C600.823 304.862 602.177 304.077 603.148 302.506C604.12 300.915 604.605 298.269 604.605 294.57C604.605 291.842 604.409 289.734 604.016 288.246C603.624 286.737 603.055 285.694 602.311 285.115C601.567 284.516 600.679 284.216 599.645 284.216ZM630.125 297.391C630.456 300.078 631.334 302.01 632.76 303.188C634.186 304.345 635.943 304.924 638.03 304.924C639.539 304.924 640.996 304.676 642.401 304.18C643.806 303.684 645.16 303.023 646.462 302.196L650.399 307.528C648.849 308.851 646.968 309.936 644.757 310.783C642.566 311.63 640.066 312.054 637.255 312.054C633.494 312.054 630.342 311.31 627.8 309.822C625.258 308.313 623.346 306.247 622.065 303.622C620.784 300.997 620.143 297.98 620.143 294.57C620.143 291.325 620.763 288.38 622.003 285.735C623.243 283.069 625.051 280.951 627.428 279.38C629.825 277.789 632.75 276.993 636.201 276.993C639.342 276.993 642.06 277.665 644.354 279.008C646.669 280.351 648.456 282.284 649.717 284.805C650.998 287.326 651.639 290.354 651.639 293.888C651.639 294.446 651.618 295.045 651.577 295.686C651.556 296.327 651.515 296.895 651.453 297.391H630.125ZM636.201 283.565C634.444 283.565 633.029 284.195 631.954 285.456C630.879 286.717 630.228 288.732 630.001 291.501H642.091C642.07 289.104 641.605 287.182 640.696 285.735C639.787 284.288 638.288 283.565 636.201 283.565ZM659.117 311V304.428H663.457V284.588H659.117V278.078H670.928L672.726 285.487C673.904 282.656 675.402 280.548 677.221 279.163C679.06 277.778 681.302 277.086 683.948 277.086C685.064 277.086 686.056 277.179 686.924 277.365C687.792 277.53 688.608 277.768 689.373 278.078L687.544 291.842H681.406V285.766C679.546 286.097 677.913 287.109 676.508 288.804C675.102 290.478 674.017 292.545 673.253 295.004V304.428H679.763V311H659.117Z" fill="white"/>
<path d="M607.88 435H574V452.668H607.88V435Z" fill="#C6ABFF"/>
<path d="M653.488 435H619.608V452.668H653.488V435Z" fill="#5200FF"/>
<path d="M1235.93 204H1202.05V221.668H1235.93V204Z" fill="#5200FF"/>
<path d="M1260.03 224.286H1226.15V241.954H1260.03V224.286Z" fill="#C6ABFF"/>
<path d="M1194.88 205.309H1161V222.977H1194.88V205.309Z" fill="#C6ABFF"/>
<path d="M1303.69 244.572H1269.81V262.24H1303.69V244.572Z" fill="black"/>
<path d="M1262.64 245.881H1228.76V263.549H1262.64V245.881Z" fill="#5200FF"/>
<path d="M1218.99 225.595H1185.11V243.263H1218.99V225.595Z" fill="black"/>
<path d="M282.928 441H249.047V458.668H282.928V441Z" fill="#5200FF"/>
<path d="M307.034 461.286H273.154V478.954H307.034V461.286Z" fill="#C6ABFF"/>
<path d="M241.88 442.309H208V459.977H241.88V442.309Z" fill="#C6ABFF"/>
<path d="M350.688 481.572H316.808V499.24H350.688V481.572Z" fill="black"/>
<path d="M309.64 482.881H275.76V500.549H309.64V482.881Z" fill="#5200FF"/>
<path d="M265.988 462.595H232.107V480.263H265.988V462.595Z" fill="black"/>
<path d="M100.88 311H67V328.668H100.88V311Z" fill="black"/>
<path d="M124.987 331.286H91.1069V348.954H124.987V331.286Z" fill="#C6ABFF"/>
<path d="M127.593 352.881H93.7129V370.549H127.593V352.881Z" fill="#5200FF"/>
<path d="M124.88 553H91V570.668H124.88V553Z" fill="black"/>
<path d="M148.987 573.286H115.107V590.954H148.987V573.286Z" fill="#C6ABFF"/>
<path d="M151.593 594.881H117.713V612.549H151.593V594.881Z" fill="#5200FF"/>
<path d="M468.88 599H435V616.668H468.88V599Z" fill="#C6ABFF"/>
<path d="M514.488 599H480.608V616.668H514.488V599Z" fill="#5200FF"/>
<path d="M220.88 690H187V707.668H220.88V690Z" fill="#C6ABFF"/>
<path d="M266.488 690H232.608V707.668H266.488V690Z" fill="#5200FF"/>
<path d="M908.88 237H875V254.668H908.88V237Z" fill="#C6ABFF"/>
<path d="M954.488 237H920.608V254.668H954.488V237Z" fill="#5200FF"/>
<g clip-path="url(#clip0)">
<path d="M1293.42 519.191H1259.54V536.859H1293.42V519.191Z" fill="#5200FF"/>
<path d="M1296.02 540.785H1262.14V558.454H1296.02V540.785Z" fill="#C6ABFF"/>
<path d="M1268.01 390.931H1234.13V408.6H1268.01V390.931Z" fill="#5200FF"/>
<path d="M1292.11 411.217H1258.23V428.886H1292.11V411.217Z" fill="#C6ABFF"/>
<path d="M1226.96 392.24H1193.08V409.909H1226.96V392.24Z" fill="#C6ABFF"/>
<path d="M1335.77 431.503H1301.89V449.172H1335.77V431.503Z" fill="black"/>
<path d="M1294.72 432.812H1260.84V450.48H1294.72V432.812Z" fill="#5200FF"/>
<path d="M1251.07 412.526H1217.19V430.194H1251.07V412.526Z" fill="black"/>
<path d="M1268.01 390.931H1234.13V408.6H1268.01V390.931Z" fill="#5200FF"/>
<path d="M1292.11 411.217H1258.23V428.886H1292.11V411.217Z" fill="#C6ABFF"/>
<path d="M1226.96 392.24H1193.08V409.909H1226.96V392.24Z" fill="#C6ABFF"/>
<path d="M1335.77 431.503H1301.89V449.172H1335.77V431.503Z" fill="black"/>
<path d="M1294.72 432.812H1260.84V450.48H1294.72V432.812Z" fill="#5200FF"/>
<path d="M1251.07 412.526H1217.19V430.194H1251.07V412.526Z" fill="black"/>
<path d="M1333.81 567.615H1299.93V585.283H1333.81V567.615Z" fill="black"/>
<path d="M1292.77 568.924H1258.89V586.592H1292.77V568.924Z" fill="#5200FF"/>
<path d="M847.189 514.61C847.189 514.61 894.94 562.57 867.986 633.708C841.032 704.846 914.187 823.243 914.187 823.243C914.187 823.243 913.405 823.126 911.952 822.87C813.882 805.483 765.153 692.831 819.713 609.168C839.963 578.026 856.604 541.531 847.189 514.61Z" fill="#5F3AFF"/>
<path d="M847.189 514.61C847.189 514.61 874.143 573.4 847.189 621.353C820.235 669.306 842.57 803.926 914.194 823.243" stroke="#535461" stroke-width="2" stroke-miterlimit="10"/>
<path d="M762.137 708.582C762.137 708.582 816.625 699.866 821.59 748.912C826.555 797.958 926.371 804.757 926.371 804.757C926.371 804.757 925.72 805.202 924.501 806.007C842.088 860.321 763.31 840.617 775.187 768.472C779.598 741.648 779.233 714.707 762.137 708.582Z" fill="#5F3AFF"/>
<path opacity="0.2" d="M762.137 708.582C762.137 708.582 816.625 699.866 821.59 748.912C826.555 797.958 926.371 804.757 926.371 804.757C926.371 804.757 925.72 805.202 924.501 806.007C842.088 860.321 763.31 840.617 775.187 768.472C779.598 741.648 779.233 714.707 762.137 708.582Z" fill="#F5F5F5"/>
<path d="M762.137 708.583C762.137 708.583 804.429 717.907 800.956 756.529C797.483 795.151 863.764 841.475 926.371 804.757" stroke="#535461" stroke-width="2" stroke-miterlimit="10"/>
<path d="M796.291 519.845H762.411V537.513H796.291V519.845Z" fill="black"/>
<path d="M820.398 540.131H786.518V557.799H820.398V540.131Z" fill="#C6ABFF"/>
<path d="M1003.48 334H969.601V351.668H1003.48V334Z" fill="#5200FF"/>
<path d="M1270.61 659.883H1236.73V677.551H1270.61V659.883Z" fill="#C6ABFF"/>
<path d="M823.004 561.726H789.124V579.394H823.004V561.726Z" fill="#5200FF"/>
<path d="M1027.59 354.286H993.708V371.954H1027.59V354.286Z" fill="#C6ABFF"/>
<path d="M903.795 474.038H869.915V491.706H903.795V474.038Z" fill="black"/>
<path d="M927.902 494.324H894.022V511.992H927.902V494.324Z" fill="#5200FF"/>
<path d="M992.405 483.199H958.525V500.868H992.405V483.199Z" fill="#5200FF"/>
<path d="M930.508 515.919H896.628V533.587H930.508V515.919Z" fill="#C6ABFF"/>
<path d="M1316.22 659.883H1282.34V677.551H1316.22V659.883Z" fill="#5200FF"/>
<path d="M1231.53 589.936C1229.34 577.674 1227.99 565.275 1227.51 552.826C1227.07 542.574 1223.49 532.707 1217.26 524.579C1211.02 516.451 1202.44 510.459 1192.68 507.425C1189.12 506.325 1185.2 505.298 1180.88 504.375C1142.96 496.287 1131.44 503.348 1130.13 504.277C1129.02 502.252 1128.05 500.151 1127.24 497.989C1127.18 497.766 1127.12 497.544 1127.05 497.334C1134.56 489.296 1139.13 478.942 1140.02 467.959C1146.35 461.52 1150.05 453.746 1150.05 445.376C1150.05 438.178 1147.31 431.425 1142.52 425.581V414.208C1142.52 401.092 1137.33 388.514 1128.1 379.24C1118.86 369.966 1106.34 364.756 1093.28 364.756H1089.29C1082.82 364.756 1076.42 366.035 1070.45 368.52C1064.47 371.006 1059.05 374.648 1054.47 379.24C1049.9 383.832 1046.27 389.284 1043.8 395.284C1041.33 401.283 1040.05 407.714 1040.05 414.208V426.464C1035.71 432.099 1033.24 438.531 1033.24 445.363C1033.24 453.556 1036.79 461.173 1042.87 467.534C1043.7 478.919 1048.49 489.65 1056.39 497.858C1056.65 499.716 1056.93 501.712 1057.19 503.819L989.368 518.209C989.368 518.209 963.216 519.289 946.367 554.2C932.117 583.772 903.762 659.746 895.364 682.361C893.846 686.458 892.986 688.807 892.986 688.807C892.986 688.807 893.266 688.526 893.794 688.041L892.986 690.247C892.986 690.247 893.396 689.828 894.178 689.141C892.992 698.603 892.823 714.851 905.163 716.873C915.51 718.568 942.171 719.268 962.31 719.55H963.704C977.054 719.727 987.212 719.727 987.212 719.727V719.55H1203.81V717.318C1203.81 715.295 1203.41 713.291 1202.62 711.429L1202.92 711.063C1204.08 712.6 1204.85 714.396 1205.17 716.298C1205.14 716.483 1205.11 716.666 1205.06 716.847L1205.19 716.514C1205.24 717.108 1205.2 717.707 1205.06 718.287C1205.06 718.287 1232.85 646.377 1232.55 603.436C1232.63 598.914 1232.29 594.395 1231.53 589.936ZM1058.32 513.537C1057.96 511.485 1057.73 509.414 1057.63 507.333C1057.63 507.333 1057.63 507.294 1057.63 507.274C1057.87 509.296 1058.11 511.39 1058.32 513.537ZM974.129 667.998V685.136L963.444 687.433L974.129 667.998Z" fill="url(#paint1_linear)"/>
<path d="M1090.19 371.673C1103.25 371.673 1115.77 376.883 1125 386.157C1134.24 395.431 1139.42 408.009 1139.42 421.125V442.222H1040.95V421.125C1040.95 408.009 1046.14 395.431 1055.37 386.157C1064.61 376.883 1077.13 371.673 1090.19 371.673Z" fill="#565656"/>
<path d="M1090.53 487.872C1121.53 487.872 1146.66 470.53 1146.66 449.139C1146.66 427.747 1121.53 410.406 1090.53 410.406C1059.54 410.406 1034.41 427.747 1034.41 449.139C1034.41 470.53 1059.54 487.872 1090.53 487.872Z" fill="#4F4F4F"/>
<path d="M1054.56 486.661C1054.56 486.661 1066.28 548.219 1054.56 564.821C1042.83 581.423 1090.39 587.993 1090.39 587.993L1139.62 570.01L1146.51 525.741C1146.51 525.741 1116.54 508.793 1122.75 474.555L1054.56 486.661Z" fill="#FAD3BD"/>
<path d="M1199.86 694.166C1199.86 694.166 1202.96 707.653 1186.09 710.074C1176.12 711.546 1165.99 711.425 1156.07 709.714L1152.34 675.837H1191.6L1199.86 694.166Z" fill="#F7C4A7"/>
<path d="M901.886 676.904C901.886 676.904 894.433 707.326 911.307 710.074C928.182 712.823 990.144 712.842 990.144 712.842V676.851L962.089 682.872L935.753 657.508L901.886 676.904Z" fill="#FAD3BD"/>
<path opacity="0.1" d="M1058.18 506.548L992.235 520.552C992.235 520.552 967.099 521.592 950.915 555.136C934.73 588.68 899.606 684.481 899.606 684.481C899.606 684.481 929.577 654.046 964.688 686.556L988.105 644.021L982.938 711.462H1164.38V679.639C1164.38 679.639 1202.25 700.043 1199.5 711.455C1199.5 711.455 1231.92 627.576 1224.91 589.458C1222.81 577.674 1221.51 565.758 1221.04 553.794C1220.63 543.941 1217.19 534.458 1211.2 526.647C1205.2 518.835 1196.95 513.079 1187.57 510.167C1184.15 509.113 1180.4 508.125 1176.23 507.242C1137.32 498.944 1127.37 507.242 1127.37 507.242C1127.37 507.242 1119.83 531.873 1119.96 543.036C1120.13 557.387 1099.65 566.902 1099.65 566.902C1099.65 566.902 1069.35 559.638 1067.97 553.762C1066.6 547.885 1055.75 513.465 1058.18 506.548Z" fill="black"/>
<path d="M1058.18 505.167L992.235 519.171C992.235 519.171 967.099 520.212 950.915 553.755C934.73 587.299 899.599 683.114 899.599 683.114C899.599 683.114 929.57 652.678 964.682 685.188L988.098 642.653L982.931 710.074H1164.38V678.258C1164.38 678.258 1202.25 698.662 1199.5 710.074C1199.5 710.074 1231.92 626.196 1224.91 588.078C1222.81 576.294 1221.51 564.377 1221.04 552.414C1220.63 542.561 1217.19 533.078 1211.2 525.266C1205.2 517.455 1196.95 511.698 1187.57 508.786C1184.15 507.732 1180.4 506.744 1176.23 505.861C1137.32 497.563 1127.37 505.861 1127.37 505.861C1127.37 505.861 1119.83 530.492 1119.96 541.656C1120.13 556.006 1099.65 565.521 1099.65 565.521C1099.65 565.521 1069.35 558.257 1067.97 552.381C1066.6 546.505 1055.75 512.084 1058.18 505.167Z" fill="url(#paint2_linear)"/>
<path opacity="0.1" d="M1125.56 502.229C1122.79 494.353 1122.17 485.875 1123.76 477.677L1055.57 489.776C1055.57 489.776 1056.56 494.952 1057.67 502.707C1062.08 507.299 1067.37 510.942 1073.22 513.416C1079.07 515.891 1085.36 517.143 1091.71 517.099C1098.06 517.054 1104.33 515.713 1110.15 513.157C1115.97 510.6 1121.21 506.882 1125.55 502.229H1125.56Z" fill="black"/>
<path d="M1137.19 466.951C1137.14 479.292 1132.26 491.117 1123.6 499.877C1114.95 508.638 1103.21 513.631 1090.92 513.78C1078.64 513.929 1066.79 509.223 1057.92 500.676C1049.06 492.129 1043.9 480.426 1043.54 468.09C1043.54 467.71 1043.54 467.331 1043.54 466.951C1043.54 458.144 1046 449.514 1050.64 442.042C1055.28 434.569 1061.92 428.556 1069.79 424.684C1071.2 423.995 1072.64 423.376 1074.12 422.826C1081.82 419.982 1090.13 419.206 1098.23 420.575C1108.6 422.349 1118.08 427.583 1125.12 435.431C1132.17 443.279 1136.38 453.284 1137.07 463.83C1137.15 464.864 1137.19 465.904 1137.19 466.951Z" fill="#FAD3BD"/>
<g opacity="0.1">
<path opacity="0.1" d="M1074.05 423.932L1074.11 423.893C1072.63 424.443 1071.19 425.062 1069.79 425.751C1061.91 429.622 1055.28 435.636 1050.64 443.108C1045.99 450.581 1043.54 459.211 1043.54 468.018C1043.54 468.397 1043.54 468.777 1043.54 469.157C1044.99 469.117 1046.43 468.772 1047.74 468.142C1059.16 462.789 1065.98 446.417 1068.69 434.998C1069.67 430.908 1070.59 426.301 1074.05 423.932Z" fill="black"/>
<path opacity="0.1" d="M1109.89 425.247C1106.18 423.537 1102.27 422.325 1098.25 421.642C1101.55 422.404 1104.49 424.262 1106.61 426.916C1107.64 428.332 1108.5 429.87 1109.17 431.497C1102.94 428.76 1096.19 427.415 1089.38 427.557C1082.58 427.698 1075.9 429.321 1069.78 432.315C1072.72 438.786 1081.84 442.314 1087.92 444.676C1094.58 447.259 1101.32 449.621 1108.12 451.763L1102.1 446.855L1115.7 449.028C1115.84 446.31 1115.52 443.587 1114.74 440.979C1117.35 443.086 1120.8 443.792 1123.63 445.559C1128.93 448.916 1131.14 455.375 1134.02 460.97C1134.79 462.449 1135.68 463.961 1137.06 464.896C1136.5 456.443 1133.69 448.297 1128.9 441.319C1124.12 434.34 1117.55 428.788 1109.89 425.247Z" fill="black"/>
</g>
<path d="M1074.05 422.865L1074.11 422.826C1072.63 423.376 1071.19 423.995 1069.79 424.685C1061.91 428.556 1055.28 434.57 1050.64 442.042C1045.99 449.514 1043.54 458.145 1043.54 466.951C1043.54 467.331 1043.54 467.71 1043.54 468.09C1044.99 468.05 1046.43 467.705 1047.74 467.076C1059.16 461.723 1065.98 445.35 1068.69 433.931C1069.67 429.867 1070.59 425.241 1074.05 422.865Z" fill="#212121"/>
<path d="M1109.89 424.187C1106.18 422.477 1102.27 421.264 1098.25 420.581C1101.55 421.344 1104.49 423.202 1106.61 425.856C1107.64 427.272 1108.5 428.81 1109.17 430.436C1102.94 427.699 1096.19 426.355 1089.39 426.496C1082.58 426.638 1075.9 428.261 1069.78 431.254C1072.72 437.726 1081.84 441.253 1087.92 443.616C1094.58 446.198 1101.32 448.561 1108.12 450.703L1102.1 445.795L1115.7 447.967C1115.84 445.249 1115.52 442.526 1114.74 439.918C1117.35 442.025 1120.8 442.732 1123.63 444.499C1128.93 447.856 1131.14 454.315 1134.02 459.91C1134.79 461.389 1135.69 462.9 1137.06 463.836C1136.5 455.383 1133.69 447.237 1128.9 440.259C1124.12 433.28 1117.55 427.728 1109.89 424.187Z" fill="#212121"/>
<path opacity="0.1" d="M1038.2 459.197C1038.2 459.197 1086.41 398.994 1142.19 459.197L1137.37 445.71C1137.37 445.71 1111.19 407.324 1092.61 415.608C1074.02 423.893 1055.76 429.789 1055.76 429.789L1038.2 459.197Z" fill="black"/>
<path d="M1038.2 458.13C1038.2 458.13 1086.41 397.927 1142.19 458.13L1137.37 444.643C1137.37 444.643 1111.19 406.257 1092.61 414.542C1074.02 422.826 1055.76 428.722 1055.76 428.722L1038.2 458.13Z" fill="#4F4F4F"/>
<path opacity="0.1" d="M998.594 587.823C998.594 587.823 988.267 615.49 1002.73 640.389C1017.18 665.288 989.988 675.667 989.988 675.667" fill="black"/>
<path opacity="0.1" d="M1165.94 562.923C1165.94 562.923 1183.85 585.748 1172.14 606.152C1160.43 626.555 1161.12 675.667 1161.12 675.667" fill="black"/>
<path d="M982.756 696.07H1181.78C1186.17 696.07 1190.37 697.819 1193.47 700.933C1196.57 704.046 1198.31 708.269 1198.31 712.672H966.232C966.232 708.27 967.973 704.048 971.072 700.935C974.17 697.822 978.373 696.072 982.756 696.07Z" fill="#535461"/>
<path d="M1003.01 581.939H1161.54C1164.88 581.939 1168.18 582.6 1171.26 583.882C1174.35 585.165 1177.15 587.045 1179.51 589.414C1181.87 591.784 1183.74 594.598 1185.01 597.694C1186.29 600.79 1186.95 604.109 1186.95 607.46V699.872H977.595V607.46C977.595 600.692 980.272 594.2 985.038 589.414C989.803 584.628 996.266 581.939 1003.01 581.939Z" fill="#535461"/>
<path d="M1082.1 658.548C1088.94 658.548 1094.49 652.973 1094.49 646.095C1094.49 639.217 1088.94 633.642 1082.1 633.642C1075.25 633.642 1069.7 639.217 1069.7 646.095C1069.7 652.973 1075.25 658.548 1082.1 658.548Z" fill="white"/>
<path opacity="0.1" d="M1040.95 430.98C1040.95 430.98 1088.33 383.419 1139.43 430.109" stroke="black" stroke-miterlimit="10"/>
<path d="M1151.4 427.95H1146.64V455.035H1151.4V427.95Z" fill="#CDCDCD"/>
<path d="M1140.3 445.474C1144.65 445.474 1148.82 447.209 1151.89 450.297C1154.96 453.384 1156.69 457.572 1156.69 461.939V462.999C1156.69 467.365 1154.96 471.553 1151.89 474.641C1148.82 477.728 1144.65 479.463 1140.3 479.463V445.474Z" fill="#474747"/>
<path d="M1144.53 447.601C1144.53 445.548 1142.87 443.884 1140.83 443.884C1138.78 443.884 1137.13 445.548 1137.13 447.601V477.343C1137.13 479.395 1138.78 481.06 1140.83 481.06C1142.87 481.06 1144.53 479.395 1144.53 477.343V447.601Z" fill="#CDCDCD"/>
<path d="M1028.49 455.565H1033.25V428.48H1028.49V455.565Z" fill="#CDCDCD"/>
<path d="M1039.6 479.993C1035.25 479.993 1031.08 478.259 1028 475.171C1024.93 472.083 1023.2 467.895 1023.2 463.529V462.469C1023.2 460.307 1023.63 458.166 1024.45 456.168C1025.27 454.171 1026.48 452.356 1028 450.827C1029.53 449.298 1031.33 448.085 1033.32 447.258C1035.31 446.43 1037.44 446.004 1039.6 446.004V479.993Z" fill="#474747"/>
<path d="M1035.37 477.866C1035.37 479.919 1037.02 481.583 1039.07 481.583C1041.11 481.583 1042.77 479.919 1042.77 477.866V448.124C1042.77 446.072 1041.11 444.407 1039.07 444.407C1037.02 444.407 1035.37 446.072 1035.37 448.124V477.866Z" fill="#CDCDCD"/>
<path d="M1146.08 399C1139.64 385.546 1125.61 369.278 1095.35 367.976V367.936H1094.99L1084.27 368.447V368.499C1054.22 369.886 1040.25 386.095 1033.83 399.504C1029.55 408.593 1027.28 418.505 1027.17 428.558L1030.87 428.467L1034.57 428.382C1034.73 419.431 1036.78 410.616 1040.59 402.52C1048.74 385.69 1063.75 376.744 1085.2 375.913L1094.68 375.383C1116.13 376.208 1131.15 385.166 1139.3 401.99C1143.11 410.089 1145.17 418.909 1145.33 427.865L1149.03 427.95L1152.73 428.041C1152.62 417.993 1150.36 408.087 1146.08 399Z" fill="#363636"/>
<path d="M1315.15 712.888H810.396V849H1315.15V712.888Z" fill="#373737"/>
<path d="M1315.15 722.05H810.396V739.718H1315.15V722.05Z" fill="#6B71FF"/>
<path d="M1349 710.925H776.536V728.593H1349V710.925Z" fill="#373737"/>
</g>
<defs>
<linearGradient id="paint0_linear" x1="157" y1="290.5" x2="742" y2="290.5" gradientUnits="userSpaceOnUse">
<stop stop-color="#5F3AFF"/>
<stop offset="1" stop-color="#3000FF"/>
</linearGradient>
<linearGradient id="paint1_linear" x1="1062.77" y1="719.759" x2="1062.77" y2="364.756" gradientUnits="userSpaceOnUse">
<stop stop-color="#808080" stop-opacity="0.25"/>
<stop offset="0.54" stop-color="#808080" stop-opacity="0.12"/>
<stop offset="1" stop-color="#808080" stop-opacity="0.1"/>
</linearGradient>
<linearGradient id="paint2_linear" x1="1062.75" y1="502.173" x2="1062.75" y2="710.074" gradientUnits="userSpaceOnUse">
<stop stop-color="#4729FF"/>
<stop offset="1" stop-color="#100073"/>
</linearGradient>
<clipPath id="clip0">
<rect width="587" height="515" fill="white" transform="translate(762 334)"/>
</clipPath>
</defs>
</svg>
