<svg width="1440" height="898" viewBox="0 0 1440 898" fill="none" xmlns="http://www.w3.org/2000/svg">
<rect width="1440" height="898" fill="white"/>
<path d="M169.56 253.972C164.016 253.972 158.76 253.252 153.792 251.812C148.896 250.3 144.9 248.284 141.804 245.764C140.148 244.54 139.32 242.812 139.32 240.58C139.32 239.068 139.752 237.772 140.616 236.692C141.552 235.54 142.632 234.964 143.856 234.964C145.152 234.964 146.628 235.468 148.284 236.476C151.38 238.708 154.62 240.328 158.004 241.336C161.388 242.344 165.132 242.848 169.236 242.848C174.492 242.848 178.524 241.948 181.332 240.148C184.14 238.276 185.544 235.576 185.544 232.048C185.544 229.312 184.212 227.224 181.548 225.784C178.956 224.272 174.6 222.832 168.48 221.464C162.144 220.096 156.996 218.512 153.036 216.712C149.076 214.912 146.088 212.608 144.072 209.8C142.056 206.992 141.048 203.428 141.048 199.108C141.048 194.644 142.308 190.648 144.828 187.12C147.348 183.592 150.84 180.856 155.304 178.912C159.84 176.896 164.916 175.888 170.532 175.888C180.828 175.888 189.216 178.624 195.696 184.096C196.632 184.888 197.28 185.68 197.64 186.472C198.072 187.192 198.288 188.128 198.288 189.28C198.288 190.792 197.82 192.124 196.884 193.276C196.02 194.356 194.976 194.896 193.752 194.896C193.032 194.896 192.348 194.788 191.7 194.572C191.124 194.356 190.332 193.96 189.324 193.384C186.372 191.224 183.492 189.64 180.684 188.632C177.948 187.552 174.564 187.012 170.532 187.012C165.636 187.012 161.748 188.02 158.868 190.036C156.06 191.98 154.656 194.716 154.656 198.244C154.656 201.196 155.916 203.464 158.436 205.048C160.956 206.632 165.24 208.108 171.288 209.476C177.696 210.916 182.88 212.536 186.84 214.336C190.872 216.064 193.932 218.296 196.02 221.032C198.18 223.768 199.26 227.188 199.26 231.292C199.26 235.756 198 239.716 195.48 243.172C193.032 246.556 189.54 249.22 185.004 251.164C180.54 253.036 175.392 253.972 169.56 253.972ZM639.107 253.972C633.563 253.972 628.307 253.252 623.339 251.812C618.443 250.3 614.447 248.284 611.351 245.764C609.695 244.54 608.867 242.812 608.867 240.58C608.867 239.068 609.299 237.772 610.163 236.692C611.099 235.54 612.179 234.964 613.403 234.964C614.699 234.964 616.175 235.468 617.831 236.476C620.927 238.708 624.167 240.328 627.551 241.336C630.935 242.344 634.679 242.848 638.783 242.848C644.039 242.848 648.071 241.948 650.879 240.148C653.687 238.276 655.091 235.576 655.091 232.048C655.091 229.312 653.759 227.224 651.095 225.784C648.503 224.272 644.147 222.832 638.027 221.464C631.691 220.096 626.543 218.512 622.583 216.712C618.623 214.912 615.635 212.608 613.619 209.8C611.603 206.992 610.595 203.428 610.595 199.108C610.595 194.644 611.855 190.648 614.375 187.12C616.895 183.592 620.387 180.856 624.851 178.912C629.387 176.896 634.463 175.888 640.079 175.888C650.375 175.888 658.763 178.624 665.243 184.096C666.179 184.888 666.827 185.68 667.187 186.472C667.619 187.192 667.835 188.128 667.835 189.28C667.835 190.792 667.367 192.124 666.431 193.276C665.567 194.356 664.523 194.896 663.299 194.896C662.579 194.896 661.895 194.788 661.247 194.572C660.671 194.356 659.879 193.96 658.871 193.384C655.919 191.224 653.039 189.64 650.231 188.632C647.495 187.552 644.111 187.012 640.079 187.012C635.183 187.012 631.295 188.02 628.415 190.036C625.607 191.98 624.203 194.716 624.203 198.244C624.203 201.196 625.463 203.464 627.983 205.048C630.503 206.632 634.787 208.108 640.835 209.476C647.243 210.916 652.427 212.536 656.387 214.336C660.419 216.064 663.479 218.296 665.567 221.032C667.727 223.768 668.807 227.188 668.807 231.292C668.807 235.756 667.547 239.716 665.027 243.172C662.579 246.556 659.087 249.22 654.551 251.164C650.087 253.036 644.939 253.972 639.107 253.972Z" fill="#5F3AFF"/>
<path d="M252.579 199.108C254.667 199.108 256.323 199.684 257.547 200.836C258.771 201.988 259.383 203.536 259.383 205.48V247.384C259.383 249.256 258.735 250.768 257.439 251.92C256.215 253.072 254.595 253.648 252.579 253.648C250.635 253.648 249.087 253.108 247.935 252.028C246.783 250.948 246.207 249.472 246.207 247.6V244.9C244.551 247.78 242.319 250.012 239.511 251.596C236.703 253.108 233.535 253.864 230.007 253.864C217.047 253.864 210.567 246.592 210.567 232.048V205.48C210.567 203.536 211.179 201.988 212.403 200.836C213.627 199.684 215.247 199.108 217.263 199.108C219.351 199.108 221.007 199.684 222.231 200.836C223.455 201.988 224.067 203.536 224.067 205.48V232.156C224.067 235.9 224.823 238.672 226.335 240.472C227.847 242.272 230.223 243.172 233.463 243.172C237.207 243.172 240.195 241.948 242.427 239.5C244.731 236.98 245.883 233.668 245.883 229.564V205.48C245.883 203.536 246.495 201.988 247.719 200.836C248.943 199.684 250.563 199.108 252.579 199.108ZM320.414 242.524C321.854 243.892 322.574 245.44 322.574 247.168C322.574 248.824 321.962 250.3 320.738 251.596C319.586 252.892 318.218 253.54 316.634 253.54C315.05 253.54 313.574 252.892 312.206 251.596L286.934 228.7V247.168C286.934 249.256 286.286 250.84 284.99 251.92C283.694 253 282.074 253.54 280.13 253.54C278.186 253.54 276.566 253 275.27 251.92C274.046 250.84 273.434 249.256 273.434 247.168V182.692C273.434 180.604 274.046 179.02 275.27 177.94C276.566 176.86 278.186 176.32 280.13 176.32C282.074 176.32 283.694 176.86 284.99 177.94C286.286 179.02 286.934 180.604 286.934 182.692V223.3L310.046 201.16C311.342 199.864 312.818 199.216 314.474 199.216C316.13 199.216 317.57 199.828 318.794 201.052C320.018 202.276 320.63 203.716 320.63 205.372C320.63 207.028 319.946 208.54 318.578 209.908L301.622 225.676L320.414 242.524ZM338.032 253.648C336.088 253.648 334.468 253.108 333.172 252.028C331.948 250.876 331.336 249.256 331.336 247.168V205.48C331.336 203.392 331.948 201.808 333.172 200.728C334.468 199.648 336.088 199.108 338.032 199.108C339.976 199.108 341.596 199.648 342.892 200.728C344.188 201.808 344.836 203.392 344.836 205.48V247.168C344.836 249.256 344.188 250.876 342.892 252.028C341.596 253.108 339.976 253.648 338.032 253.648ZM338.032 189.496C335.584 189.496 333.64 188.848 332.2 187.552C330.76 186.184 330.04 184.42 330.04 182.26C330.04 180.1 330.76 178.372 332.2 177.076C333.64 175.78 335.584 175.132 338.032 175.132C340.408 175.132 342.316 175.78 343.756 177.076C345.268 178.372 346.024 180.1 346.024 182.26C346.024 184.42 345.304 186.184 343.864 187.552C342.424 188.848 340.48 189.496 338.032 189.496ZM381.654 198.892C388.998 198.892 394.434 200.728 397.962 204.4C401.562 208 403.362 213.508 403.362 220.924V247.276C403.362 249.22 402.786 250.768 401.634 251.92C400.482 253 398.898 253.54 396.882 253.54C395.01 253.54 393.462 252.964 392.238 251.812C391.086 250.66 390.51 249.148 390.51 247.276V244.9C389.286 247.708 387.342 249.904 384.678 251.488C382.086 253.072 379.062 253.864 375.606 253.864C372.078 253.864 368.874 253.144 365.994 251.704C363.114 250.264 360.846 248.284 359.19 245.764C357.534 243.244 356.706 240.436 356.706 237.34C356.706 233.452 357.678 230.392 359.622 228.16C361.638 225.928 364.878 224.308 369.342 223.3C373.806 222.292 379.962 221.788 387.81 221.788H390.51V219.304C390.51 215.776 389.754 213.22 388.242 211.636C386.73 209.98 384.282 209.152 380.898 209.152C378.81 209.152 376.686 209.476 374.526 210.124C372.366 210.7 369.81 211.564 366.858 212.716C364.986 213.652 363.618 214.12 362.754 214.12C361.458 214.12 360.378 213.652 359.514 212.716C358.722 211.78 358.326 210.556 358.326 209.044C358.326 207.82 358.614 206.776 359.19 205.912C359.838 204.976 360.882 204.112 362.322 203.32C364.842 201.952 367.83 200.872 371.286 200.08C374.814 199.288 378.27 198.892 381.654 198.892ZM378.306 244.144C381.906 244.144 384.822 242.956 387.054 240.58C389.358 238.132 390.51 235 390.51 231.184V228.916H388.566C383.742 228.916 379.998 229.132 377.334 229.564C374.67 229.996 372.762 230.752 371.61 231.832C370.458 232.912 369.882 234.388 369.882 236.26C369.882 238.564 370.674 240.472 372.258 241.984C373.914 243.424 375.93 244.144 378.306 244.144ZM447.755 198.892C454.091 198.892 458.807 200.692 461.903 204.292C464.999 207.892 466.547 213.328 466.547 220.6V247.168C466.547 249.184 465.935 250.768 464.711 251.92C463.559 253.072 461.939 253.648 459.851 253.648C457.763 253.648 456.107 253.072 454.883 251.92C453.659 250.768 453.047 249.184 453.047 247.168V221.356C453.047 217.252 452.255 214.264 450.671 212.392C449.159 210.52 446.747 209.584 443.435 209.584C439.547 209.584 436.415 210.808 434.039 213.256C431.735 215.704 430.583 218.98 430.583 223.084V247.168C430.583 249.184 429.971 250.768 428.747 251.92C427.523 253.072 425.867 253.648 423.779 253.648C421.691 253.648 420.035 253.072 418.811 251.92C417.659 250.768 417.083 249.184 417.083 247.168V205.372C417.083 203.5 417.695 201.988 418.919 200.836C420.143 199.684 421.799 199.108 423.887 199.108C425.759 199.108 427.271 199.684 428.423 200.836C429.647 201.916 430.259 203.356 430.259 205.156V208.072C432.059 205.12 434.471 202.852 437.495 201.268C440.519 199.684 443.939 198.892 447.755 198.892ZM507.69 243.604C511.29 243.82 513.09 245.44 513.09 248.464C513.09 250.192 512.37 251.524 510.93 252.46C509.562 253.324 507.582 253.684 504.99 253.54L502.074 253.324C489.978 252.46 483.93 245.98 483.93 233.884V210.34H478.53C476.586 210.34 475.074 209.908 473.994 209.044C472.986 208.18 472.482 206.92 472.482 205.264C472.482 203.608 472.986 202.348 473.994 201.484C475.074 200.62 476.586 200.188 478.53 200.188H483.93V190.252C483.93 188.308 484.542 186.76 485.766 185.608C486.99 184.456 488.646 183.88 490.734 183.88C492.75 183.88 494.37 184.456 495.594 185.608C496.818 186.76 497.43 188.308 497.43 190.252V200.188H506.61C508.554 200.188 510.03 200.62 511.038 201.484C512.118 202.348 512.658 203.608 512.658 205.264C512.658 206.92 512.118 208.18 511.038 209.044C510.03 209.908 508.554 210.34 506.61 210.34H497.43V234.856C497.43 240.184 499.878 243.028 504.774 243.388L507.69 243.604ZM544.209 253.864C538.809 253.864 534.057 252.748 529.953 250.516C525.921 248.284 522.789 245.08 520.557 240.904C518.325 236.728 517.209 231.868 517.209 226.324C517.209 220.78 518.325 215.956 520.557 211.852C522.789 207.676 525.921 204.472 529.953 202.24C534.057 200.008 538.809 198.892 544.209 198.892C549.609 198.892 554.325 200.008 558.357 202.24C562.461 204.472 565.593 207.676 567.753 211.852C569.985 215.956 571.101 220.78 571.101 226.324C571.101 231.868 569.985 236.728 567.753 240.904C565.593 245.08 562.461 248.284 558.357 250.516C554.325 252.748 549.609 253.864 544.209 253.864ZM544.101 243.388C548.493 243.388 551.841 241.948 554.145 239.068C556.449 236.188 557.601 231.94 557.601 226.324C557.601 220.78 556.449 216.568 554.145 213.688C551.841 210.736 548.529 209.26 544.209 209.26C539.889 209.26 536.541 210.736 534.165 213.688C531.861 216.568 530.709 220.78 530.709 226.324C530.709 231.94 531.861 236.188 534.165 239.068C536.469 241.948 539.781 243.388 544.101 243.388ZM722.126 199.108C724.214 199.108 725.87 199.684 727.094 200.836C728.318 201.988 728.93 203.536 728.93 205.48V247.384C728.93 249.256 728.282 250.768 726.986 251.92C725.762 253.072 724.142 253.648 722.126 253.648C720.182 253.648 718.634 253.108 717.482 252.028C716.33 250.948 715.754 249.472 715.754 247.6V244.9C714.098 247.78 711.866 250.012 709.058 251.596C706.25 253.108 703.082 253.864 699.554 253.864C686.594 253.864 680.114 246.592 680.114 232.048V205.48C680.114 203.536 680.726 201.988 681.95 200.836C683.174 199.684 684.794 199.108 686.81 199.108C688.898 199.108 690.554 199.684 691.778 200.836C693.002 201.988 693.614 203.536 693.614 205.48V232.156C693.614 235.9 694.37 238.672 695.882 240.472C697.394 242.272 699.77 243.172 703.01 243.172C706.754 243.172 709.742 241.948 711.974 239.5C714.278 236.98 715.43 233.668 715.43 229.564V205.48C715.43 203.536 716.042 201.988 717.266 200.836C718.49 199.684 720.11 199.108 722.126 199.108ZM770.413 243.604C774.013 243.82 775.813 245.44 775.813 248.464C775.813 250.192 775.093 251.524 773.653 252.46C772.285 253.324 770.305 253.684 767.713 253.54L764.797 253.324C752.701 252.46 746.653 245.98 746.653 233.884V210.34H741.253C739.309 210.34 737.797 209.908 736.717 209.044C735.709 208.18 735.205 206.92 735.205 205.264C735.205 203.608 735.709 202.348 736.717 201.484C737.797 200.62 739.309 200.188 741.253 200.188H746.653V190.252C746.653 188.308 747.265 186.76 748.489 185.608C749.713 184.456 751.369 183.88 753.457 183.88C755.473 183.88 757.093 184.456 758.317 185.608C759.541 186.76 760.153 188.308 760.153 190.252V200.188H769.333C771.277 200.188 772.753 200.62 773.761 201.484C774.841 202.348 775.381 203.608 775.381 205.264C775.381 206.92 774.841 208.18 773.761 209.044C772.753 209.908 771.277 210.34 769.333 210.34H760.153V234.856C760.153 240.184 762.601 243.028 767.497 243.388L770.413 243.604ZM824.644 238.528C825.868 238.528 826.84 238.996 827.56 239.932C828.352 240.868 828.748 242.128 828.748 243.712C828.748 245.944 827.416 247.816 824.752 249.328C822.304 250.696 819.532 251.812 816.436 252.676C813.34 253.468 810.388 253.864 807.58 253.864C799.084 253.864 792.352 251.416 787.384 246.52C782.416 241.624 779.932 234.928 779.932 226.432C779.932 221.032 781.012 216.244 783.172 212.068C785.332 207.892 788.356 204.652 792.244 202.348C796.204 200.044 800.668 198.892 805.636 198.892C810.388 198.892 814.528 199.936 818.056 202.024C821.584 204.112 824.32 207.064 826.264 210.88C828.208 214.696 829.18 219.196 829.18 224.38C829.18 227.476 827.812 229.024 825.076 229.024H793.216C793.648 233.992 795.052 237.664 797.428 240.04C799.804 242.344 803.26 243.496 807.796 243.496C810.1 243.496 812.116 243.208 813.844 242.632C815.644 242.056 817.66 241.264 819.892 240.256C822.052 239.104 823.636 238.528 824.644 238.528ZM805.96 208.396C802.288 208.396 799.336 209.548 797.104 211.852C794.944 214.156 793.648 217.468 793.216 221.788H817.624C817.48 217.396 816.4 214.084 814.384 211.852C812.368 209.548 809.56 208.396 805.96 208.396ZM832.663 272.656C830.071 272.8 828.091 272.44 826.723 271.576C825.283 270.712 824.563 269.38 824.563 267.58C824.563 264.628 826.363 263.008 829.963 262.72L832.879 262.504C835.327 262.36 837.163 261.604 838.387 260.236C839.611 258.868 840.223 256.78 840.223 253.972V205.48C840.223 203.392 840.835 201.808 842.059 200.728C843.355 199.648 844.975 199.108 846.919 199.108C848.863 199.108 850.483 199.648 851.779 200.728C853.075 201.808 853.723 203.392 853.723 205.48V253C853.723 265.096 847.675 271.576 835.579 272.44L832.663 272.656ZM846.811 189.496C844.363 189.496 842.419 188.848 840.979 187.552C839.539 186.184 838.819 184.42 838.819 182.26C838.819 180.1 839.539 178.372 840.979 177.076C842.419 175.78 844.363 175.132 846.811 175.132C849.187 175.132 851.095 175.78 852.535 177.076C854.047 178.372 854.803 180.1 854.803 182.26C854.803 184.42 854.083 186.184 852.643 187.552C851.203 188.848 849.259 189.496 846.811 189.496ZM890.541 198.892C897.885 198.892 903.321 200.728 906.849 204.4C910.449 208 912.249 213.508 912.249 220.924V247.276C912.249 249.22 911.673 250.768 910.521 251.92C909.369 253 907.785 253.54 905.769 253.54C903.897 253.54 902.349 252.964 901.125 251.812C899.973 250.66 899.397 249.148 899.397 247.276V244.9C898.173 247.708 896.229 249.904 893.565 251.488C890.973 253.072 887.949 253.864 884.493 253.864C880.965 253.864 877.761 253.144 874.881 251.704C872.001 250.264 869.733 248.284 868.077 245.764C866.421 243.244 865.593 240.436 865.593 237.34C865.593 233.452 866.565 230.392 868.509 228.16C870.525 225.928 873.765 224.308 878.229 223.3C882.693 222.292 888.849 221.788 896.697 221.788H899.397V219.304C899.397 215.776 898.641 213.22 897.129 211.636C895.617 209.98 893.169 209.152 889.785 209.152C887.697 209.152 885.573 209.476 883.413 210.124C881.253 210.7 878.697 211.564 875.745 212.716C873.873 213.652 872.505 214.12 871.641 214.12C870.345 214.12 869.265 213.652 868.401 212.716C867.609 211.78 867.213 210.556 867.213 209.044C867.213 207.82 867.501 206.776 868.077 205.912C868.725 204.976 869.769 204.112 871.209 203.32C873.729 201.952 876.717 200.872 880.173 200.08C883.701 199.288 887.157 198.892 890.541 198.892ZM887.193 244.144C890.793 244.144 893.709 242.956 895.941 240.58C898.245 238.132 899.397 235 899.397 231.184V228.916H897.453C892.629 228.916 888.885 229.132 886.221 229.564C883.557 229.996 881.649 230.752 880.497 231.832C879.345 232.912 878.769 234.388 878.769 236.26C878.769 238.564 879.561 240.472 881.145 241.984C882.801 243.424 884.817 244.144 887.193 244.144Z" fill="black"/>
<rect x="234" y="304" width="585" height="113" rx="56.5" fill="url(#paint0_linear)"/>
<path d="M322.743 338.034L317.721 381H307.15L304.019 350.279L300.578 381H289.821L285.171 338.034H294.688L296.145 372.32L299.71 342.994H308.452L311.769 372.32L313.908 338.034H322.743ZM335.367 367.391C335.698 370.078 336.576 372.01 338.002 373.188C339.428 374.345 341.185 374.924 343.272 374.924C344.781 374.924 346.238 374.676 347.643 374.18C349.049 373.684 350.402 373.023 351.704 372.196L355.641 377.528C354.091 378.851 352.211 379.936 349.999 380.783C347.809 381.63 345.308 382.054 342.497 382.054C338.736 382.054 335.584 381.31 333.042 379.822C330.5 378.313 328.589 376.247 327.307 373.622C326.026 370.997 325.385 367.98 325.385 364.57C325.385 361.325 326.005 358.38 327.245 355.735C328.485 353.069 330.294 350.951 332.67 349.38C335.068 347.789 337.992 346.993 341.443 346.993C344.585 346.993 347.302 347.665 349.596 349.008C351.911 350.351 353.699 352.284 354.959 354.805C356.241 357.326 356.881 360.354 356.881 363.888C356.881 364.446 356.861 365.045 356.819 365.686C356.799 366.327 356.757 366.895 356.695 367.391H335.367ZM341.443 353.565C339.687 353.565 338.271 354.195 337.196 355.456C336.122 356.717 335.471 358.732 335.243 361.501H347.333C347.313 359.104 346.848 357.182 345.938 355.735C345.029 354.288 343.531 353.565 341.443 353.565ZM373.845 351.457C374.878 350.093 376.118 349.008 377.565 348.202C379.032 347.396 380.603 346.993 382.277 346.993C386.514 346.993 389.593 348.564 391.515 351.705C393.458 354.846 394.429 359.093 394.429 364.446C394.429 367.835 393.923 370.863 392.91 373.529C391.918 376.174 390.44 378.262 388.477 379.791C386.514 381.3 384.106 382.054 381.254 382.054C377.803 382.054 375.085 380.711 373.101 378.024L372.729 381H364.049V334.996L373.845 333.973V351.457ZM378.681 374.924C380.417 374.924 381.791 374.128 382.804 372.537C383.817 370.925 384.323 368.269 384.323 364.57C384.323 361.842 384.106 359.734 383.672 358.246C383.259 356.737 382.659 355.694 381.874 355.115C381.109 354.516 380.21 354.216 379.177 354.216C378.082 354.216 377.1 354.557 376.232 355.239C375.364 355.921 374.568 356.851 373.845 358.029V371.917C374.465 372.888 375.157 373.632 375.922 374.149C376.687 374.666 377.606 374.924 378.681 374.924ZM469.68 359.3C469.68 363.661 469.101 367.257 467.944 370.088C466.807 372.919 465.257 375.131 463.294 376.722C461.33 378.293 459.098 379.398 456.598 380.039C454.118 380.68 451.545 381 448.879 381H437.285V338.034H448.135C450.883 338.034 453.539 338.323 456.102 338.902C458.685 339.46 460.989 340.504 463.015 342.033C465.061 343.542 466.683 345.691 467.882 348.481C469.08 351.25 469.68 354.857 469.68 359.3ZM459.14 359.3C459.14 355.435 458.716 352.511 457.869 350.527C457.042 348.543 455.905 347.2 454.459 346.497C453.033 345.774 451.421 345.412 449.623 345.412H447.453V373.653H449.623C451.503 373.653 453.157 373.25 454.583 372.444C456.009 371.617 457.125 370.16 457.931 368.073C458.737 365.986 459.14 363.061 459.14 359.3ZM484.07 367.391C484.401 370.078 485.279 372.01 486.705 373.188C488.131 374.345 489.888 374.924 491.975 374.924C493.484 374.924 494.941 374.676 496.346 374.18C497.752 373.684 499.105 373.023 500.407 372.196L504.344 377.528C502.794 378.851 500.914 379.936 498.702 380.783C496.512 381.63 494.011 382.054 491.2 382.054C487.439 382.054 484.287 381.31 481.745 379.822C479.203 378.313 477.292 376.247 476.01 373.622C474.729 370.997 474.088 367.98 474.088 364.57C474.088 361.325 474.708 358.38 475.948 355.735C477.188 353.069 478.997 350.951 481.373 349.38C483.771 347.789 486.695 346.993 490.146 346.993C493.288 346.993 496.005 347.665 498.299 349.008C500.614 350.351 502.402 352.284 503.662 354.805C504.944 357.326 505.584 360.354 505.584 363.888C505.584 364.446 505.564 365.045 505.522 365.686C505.502 366.327 505.46 366.895 505.398 367.391H484.07ZM490.146 353.565C488.39 353.565 486.974 354.195 485.899 355.456C484.825 356.717 484.174 358.732 483.946 361.501H496.036C496.016 359.104 495.551 357.182 494.641 355.735C493.732 354.288 492.234 353.565 490.146 353.565ZM543.814 348.078L532.84 381H521.308L510.21 348.078H520.781L527.198 373.498L533.894 348.078H543.814ZM558.422 367.391C558.753 370.078 559.631 372.01 561.057 373.188C562.483 374.345 564.24 374.924 566.327 374.924C567.836 374.924 569.293 374.676 570.698 374.18C572.103 373.684 573.457 373.023 574.759 372.196L578.696 377.528C577.146 378.851 575.265 379.936 573.054 380.783C570.863 381.63 568.363 382.054 565.552 382.054C561.791 382.054 558.639 381.31 556.097 379.822C553.555 378.313 551.643 376.247 550.362 373.622C549.081 370.997 548.44 367.98 548.44 364.57C548.44 361.325 549.06 358.38 550.3 355.735C551.54 353.069 553.348 350.951 555.725 349.38C558.122 347.789 561.047 346.993 564.498 346.993C567.639 346.993 570.357 347.665 572.651 349.008C574.966 350.351 576.753 352.284 578.014 354.805C579.295 357.326 579.936 360.354 579.936 363.888C579.936 364.446 579.915 365.045 579.874 365.686C579.853 366.327 579.812 366.895 579.75 367.391H558.422ZM564.498 353.565C562.741 353.565 561.326 354.195 560.251 355.456C559.176 356.717 558.525 358.732 558.298 361.501H570.388C570.367 359.104 569.902 357.182 568.993 355.735C568.084 354.288 566.585 353.565 564.498 353.565ZM604.278 334.996V370.646C604.278 371.969 604.65 372.919 605.394 373.498C606.158 374.056 607.202 374.335 608.525 374.335C609.372 374.335 610.188 374.242 610.974 374.056C611.759 373.849 612.493 373.612 613.175 373.343L615.531 379.884C614.415 380.463 613.071 380.969 611.501 381.403C609.93 381.837 608.101 382.054 606.014 382.054C602.046 382.054 599.132 380.917 597.272 378.644C595.412 376.35 594.482 373.281 594.482 369.437V341.692H584.779V334.996H604.278ZM638.539 346.993C641.929 346.993 644.812 347.716 647.188 349.163C649.565 350.61 651.384 352.645 652.644 355.27C653.905 357.874 654.535 360.933 654.535 364.446C654.535 369.943 653.13 374.252 650.319 377.373C647.509 380.494 643.582 382.054 638.539 382.054C633.497 382.054 629.57 380.514 626.759 377.435C623.949 374.356 622.543 370.047 622.543 364.508C622.543 361.015 623.174 357.957 624.434 355.332C625.716 352.707 627.545 350.661 629.921 349.194C632.319 347.727 635.191 346.993 638.539 346.993ZM638.539 354.216C636.535 354.216 635.047 355.043 634.075 356.696C633.125 358.329 632.649 360.933 632.649 364.508C632.649 368.145 633.125 370.78 634.075 372.413C635.047 374.046 636.535 374.862 638.539 374.862C640.544 374.862 642.022 374.046 642.972 372.413C643.944 370.78 644.429 368.125 644.429 364.446C644.429 360.891 643.944 358.298 642.972 356.665C642.022 355.032 640.544 354.216 638.539 354.216ZM679.683 346.993C683.982 346.993 687.061 348.564 688.921 351.705C690.781 354.846 691.711 359.093 691.711 364.446C691.711 367.835 691.215 370.863 690.223 373.529C689.231 376.174 687.795 378.262 685.914 379.791C684.034 381.3 681.75 382.054 679.063 382.054C675.86 382.054 673.256 380.907 671.251 378.613V393.71L661.455 394.733V348.078H670.135L670.569 351.767C671.913 350.052 673.38 348.832 674.971 348.109C676.563 347.365 678.133 346.993 679.683 346.993ZM676.645 354.216C675.509 354.216 674.506 354.557 673.638 355.239C672.77 355.921 671.975 356.851 671.251 358.029V371.917C671.933 372.93 672.646 373.674 673.39 374.149C674.155 374.624 675.054 374.862 676.087 374.862C677.823 374.862 679.177 374.077 680.148 372.506C681.12 370.915 681.605 368.269 681.605 364.57C681.605 361.842 681.409 359.734 681.016 358.246C680.624 356.737 680.055 355.694 679.311 355.115C678.567 354.516 677.679 354.216 676.645 354.216ZM707.125 367.391C707.456 370.078 708.334 372.01 709.76 373.188C711.186 374.345 712.943 374.924 715.03 374.924C716.539 374.924 717.996 374.676 719.401 374.18C720.806 373.684 722.16 373.023 723.462 372.196L727.399 377.528C725.849 378.851 723.968 379.936 721.757 380.783C719.566 381.63 717.066 382.054 714.255 382.054C710.494 382.054 707.342 381.31 704.8 379.822C702.258 378.313 700.346 376.247 699.065 373.622C697.784 370.997 697.143 367.98 697.143 364.57C697.143 361.325 697.763 358.38 699.003 355.735C700.243 353.069 702.051 350.951 704.428 349.38C706.825 347.789 709.75 346.993 713.201 346.993C716.342 346.993 719.06 347.665 721.354 349.008C723.669 350.351 725.456 352.284 726.717 354.805C727.998 357.326 728.639 360.354 728.639 363.888C728.639 364.446 728.618 365.045 728.577 365.686C728.556 366.327 728.515 366.895 728.453 367.391H707.125ZM713.201 353.565C711.444 353.565 710.029 354.195 708.954 355.456C707.879 356.717 707.228 358.732 707.001 361.501H719.091C719.07 359.104 718.605 357.182 717.696 355.735C716.787 354.288 715.288 353.565 713.201 353.565ZM736.117 381V374.428H740.457V354.588H736.117V348.078H747.928L749.726 355.487C750.904 352.656 752.402 350.548 754.221 349.163C756.06 347.778 758.302 347.086 760.948 347.086C762.064 347.086 763.056 347.179 763.924 347.365C764.792 347.53 765.608 347.768 766.373 348.078L764.544 361.842H758.406V355.766C756.546 356.097 754.913 357.109 753.508 358.804C752.102 360.478 751.017 362.545 750.253 365.004V374.428H756.763V381H736.117Z" fill="white"/>
<path d="M607.88 435H574V452.668H607.88V435Z" fill="#C6ABFF"/>
<path d="M653.488 435H619.608V452.668H653.488V435Z" fill="#5200FF"/>
<path d="M1231.93 186H1198.05V203.668H1231.93V186Z" fill="#5200FF"/>
<path d="M1256.03 206.286H1222.15V223.954H1256.03V206.286Z" fill="#C6ABFF"/>
<path d="M1190.88 187.309H1157V204.977H1190.88V187.309Z" fill="#C6ABFF"/>
<path d="M1299.69 226.572H1265.81V244.24H1299.69V226.572Z" fill="black"/>
<path d="M1258.64 227.881H1224.76V245.549H1258.64V227.881Z" fill="#5200FF"/>
<path d="M1214.99 207.595H1181.11V225.263H1214.99V207.595Z" fill="black"/>
<path d="M154.88 366H121V383.668H154.88V366Z" fill="black"/>
<path d="M178.987 386.286H145.107V403.954H178.987V386.286Z" fill="#C6ABFF"/>
<path d="M181.593 407.881H147.713V425.549H181.593V407.881Z" fill="#5200FF"/>
<path d="M723.88 656H690V673.668H723.88V656Z" fill="black"/>
<path d="M747.987 676.286H714.107V693.954H747.987V676.286Z" fill="#C6ABFF"/>
<path d="M750.593 697.881H716.713V715.549H750.593V697.881Z" fill="#5200FF"/>
<path d="M468.88 599H435V616.668H468.88V599Z" fill="#C6ABFF"/>
<path d="M514.488 599H480.608V616.668H514.488V599Z" fill="#5200FF"/>
<path d="M220.88 690H187V707.668H220.88V690Z" fill="#C6ABFF"/>
<path d="M266.488 690H232.608V707.668H266.488V690Z" fill="#5200FF"/>
<path d="M514.88 704H481V721.668H514.88V704Z" fill="#C6ABFF"/>
<path d="M560.488 704H526.608V721.668H560.488V704Z" fill="#5200FF"/>
<g clip-path="url(#clip0)">
<path d="M1247.64 512.029H1220V526.438H1247.64V512.029Z" fill="#5200FF"/>
<path d="M1249.77 529.64H1222.12V544.05H1249.77V529.64Z" fill="#C6ABFF"/>
<path d="M1226.91 407.429H1199.26V421.839H1226.91V407.429Z" fill="#5200FF"/>
<path d="M1246.58 423.973H1218.93V438.383H1246.58V423.973Z" fill="#C6ABFF"/>
<path d="M1193.41 408.497H1165.77V422.906H1193.41V408.497Z" fill="#C6ABFF"/>
<path d="M1282.2 440.517H1254.56V454.926H1282.2V440.517Z" fill="black"/>
<path d="M1248.71 441.584H1221.06V455.994H1248.71V441.584Z" fill="#5200FF"/>
<path d="M1213.09 425.041H1185.44V439.45H1213.09V425.041Z" fill="black"/>
<path d="M1226.91 407.429H1199.26V421.839H1226.91V407.429Z" fill="#5200FF"/>
<path d="M1246.58 423.973H1218.93V438.383H1246.58V423.973Z" fill="#C6ABFF"/>
<path d="M1193.41 408.497H1165.77V422.906H1193.41V408.497Z" fill="#C6ABFF"/>
<path d="M1282.2 440.517H1254.56V454.926H1282.2V440.517Z" fill="black"/>
<path d="M1248.71 441.584H1221.06V455.994H1248.71V441.584Z" fill="#5200FF"/>
<path d="M1213.09 425.041H1185.44V439.45H1213.09V425.041Z" fill="black"/>
<path d="M1280.61 551.521H1252.96V565.93H1280.61V551.521Z" fill="black"/>
<path d="M1247.11 552.588H1219.47V566.997H1247.11V552.588Z" fill="#5200FF"/>
<path d="M883.516 508.293C883.516 508.293 922.481 547.406 900.486 605.422C878.491 663.437 938.187 759.995 938.187 759.995C938.187 759.995 937.549 759.899 936.363 759.69C856.337 745.511 816.573 653.639 861.095 585.409C877.619 560.012 891.198 530.249 883.516 508.293Z" fill="#5F3AFF"/>
<path d="M883.516 508.293C883.516 508.293 905.511 556.239 883.516 595.346C861.52 634.454 879.746 744.241 938.192 759.995" stroke="#535461" stroke-width="2" stroke-miterlimit="10"/>
<path d="M814.112 666.485C814.112 666.485 858.575 659.376 862.626 699.375C866.677 739.374 948.129 744.918 948.129 744.918C948.129 744.918 947.597 745.281 946.603 745.938C879.352 790.233 815.069 774.164 824.761 715.326C828.36 693.451 828.063 671.48 814.112 666.485Z" fill="#5F3AFF"/>
<path opacity="0.2" d="M814.112 666.485C814.112 666.485 858.575 659.376 862.626 699.375C866.677 739.374 948.129 744.918 948.129 744.918C948.129 744.918 947.597 745.281 946.603 745.938C879.352 790.233 815.069 774.164 824.761 715.326C828.36 693.451 828.063 671.48 814.112 666.485Z" fill="#F5F5F5"/>
<path d="M814.112 666.485C814.112 666.485 848.622 674.089 845.788 705.587C842.955 737.084 897.041 774.863 948.129 744.918" stroke="#535461" stroke-width="2" stroke-miterlimit="10"/>
<path d="M841.982 512.563H814.335V526.972H841.982V512.563Z" fill="black"/>
<path d="M861.654 529.107H834.007V543.516H861.654V529.107Z" fill="#C6ABFF"/>
<path d="M1011.05 361H983.405V375.409H1011.05V361Z" fill="#5200FF"/>
<path d="M1229.04 626.769H1201.39V641.178H1229.04V626.769Z" fill="#C6ABFF"/>
<path d="M863.78 546.718H836.134V561.127H863.78V546.718Z" fill="#5200FF"/>
<path d="M1030.72 377.544H1003.08V391.953H1030.72V377.544Z" fill="#C6ABFF"/>
<path d="M929.707 475.206H902.06V489.615H929.707V475.206Z" fill="black"/>
<path d="M949.379 491.75H921.732V506.159H949.379V491.75Z" fill="#5200FF"/>
<path d="M1002.01 482.677H974.367V497.086H1002.01V482.677Z" fill="#5200FF"/>
<path d="M951.505 509.361H923.859V523.77H951.505V509.361Z" fill="#C6ABFF"/>
<path d="M1266.25 626.769H1238.61V641.178H1266.25V626.769Z" fill="#5200FF"/>
<path d="M1197.15 569.724C1195.36 559.725 1194.26 549.612 1193.86 539.46C1193.51 531.099 1190.59 523.052 1185.5 516.424C1180.41 509.795 1173.4 504.908 1165.44 502.434C1162.53 501.537 1159.34 500.699 1155.81 499.947C1124.87 493.351 1115.47 499.109 1114.4 499.867C1113.49 498.215 1112.7 496.501 1112.04 494.738C1111.99 494.557 1111.94 494.375 1111.89 494.205C1118.01 487.649 1121.74 479.205 1122.47 470.248C1127.64 464.997 1130.65 458.657 1130.65 451.831C1130.65 445.961 1128.42 440.453 1124.51 435.687V426.412C1124.51 415.716 1120.28 405.458 1112.74 397.895C1105.21 390.332 1094.99 386.083 1084.33 386.083H1081.07C1075.8 386.083 1070.57 387.126 1065.7 389.152C1060.82 391.179 1056.39 394.15 1052.66 397.895C1048.93 401.64 1045.97 406.086 1043.95 410.979C1041.93 415.872 1040.89 421.116 1040.89 426.412V436.408C1037.35 441.003 1035.34 446.249 1035.34 451.82C1035.34 458.502 1038.23 464.714 1043.2 469.901C1043.87 479.186 1047.78 487.938 1054.22 494.631C1054.44 496.147 1054.66 497.775 1054.88 499.493L999.536 511.229C999.536 511.229 978.195 512.109 964.446 540.581C952.818 564.697 929.68 626.657 922.827 645.1C921.588 648.441 920.886 650.357 920.886 650.357C920.886 650.357 921.115 650.128 921.546 649.733L920.886 651.531C920.886 651.531 921.221 651.19 921.859 650.629C920.892 658.346 920.753 671.597 930.823 673.246C939.266 674.628 961.022 675.199 977.456 675.429H978.593C989.487 675.573 997.776 675.573 997.776 675.573V675.429H1174.52V673.609C1174.53 671.959 1174.19 670.325 1173.55 668.806L1173.79 668.507C1174.74 669.761 1175.37 671.226 1175.63 672.777C1175.61 672.927 1175.58 673.077 1175.54 673.225L1175.65 672.953C1175.69 673.437 1175.66 673.926 1175.54 674.399C1175.54 674.399 1198.22 615.754 1197.98 580.734C1198.04 577.046 1197.76 573.36 1197.15 569.724V569.724ZM1055.8 507.418C1055.51 505.745 1055.32 504.056 1055.24 502.359C1055.24 502.359 1055.24 502.327 1055.24 502.311C1055.44 503.96 1055.63 505.668 1055.8 507.418ZM987.1 633.386V647.363L978.381 649.236L987.1 633.386Z" fill="url(#paint1_linear)"/>
<path d="M1081.81 391.724C1092.46 391.724 1102.68 395.973 1110.22 403.536C1117.75 411.099 1121.98 421.357 1121.98 432.053V449.259H1041.63V432.053C1041.63 421.357 1045.86 411.099 1053.4 403.536C1060.93 395.973 1071.15 391.724 1081.81 391.724V391.724Z" fill="#565656"/>
<path d="M1082.09 486.488C1107.38 486.488 1127.89 472.345 1127.89 454.9C1127.89 437.454 1107.38 423.312 1082.09 423.312C1056.79 423.312 1036.29 437.454 1036.29 454.9C1036.29 472.345 1056.79 486.488 1082.09 486.488Z" fill="#4F4F4F"/>
<path d="M1052.73 485.5C1052.73 485.5 1062.3 535.703 1052.73 549.242C1043.16 562.781 1081.97 568.14 1081.97 568.14L1122.14 553.474L1127.76 517.371C1127.76 517.371 1103.31 503.549 1108.37 475.627L1052.73 485.5Z" fill="#FAD3BD"/>
<path d="M1171.3 654.728C1171.3 654.728 1173.83 665.727 1160.06 667.702C1151.93 668.902 1143.66 668.803 1135.56 667.408L1132.53 639.78H1164.56L1171.3 654.728Z" fill="#F7C4A7"/>
<path d="M928.149 640.65C928.149 640.65 922.067 665.46 935.837 667.701C949.607 669.943 1000.17 669.959 1000.17 669.959V640.607L977.275 645.517L955.785 624.832L928.149 640.65Z" fill="#FAD3BD"/>
<path opacity="0.1" d="M1055.69 501.719L1001.88 513.139C1001.88 513.139 981.363 513.988 968.157 541.344C954.95 568.7 926.288 646.83 926.288 646.83C926.288 646.83 950.745 622.008 979.396 648.521L998.504 613.833L994.288 668.833H1142.35V642.88C1142.35 642.88 1173.25 659.52 1171.01 668.828C1171.01 668.828 1197.46 600.421 1191.74 569.335C1190.02 559.725 1188.97 550.006 1188.59 540.25V540.25C1188.25 532.214 1185.44 524.48 1180.55 518.11C1175.66 511.74 1168.92 507.045 1161.27 504.67C1158.48 503.811 1155.42 503.005 1152.02 502.284C1120.27 495.517 1112.14 502.284 1112.14 502.284C1112.14 502.284 1105.99 522.372 1106.1 531.476C1106.24 543.18 1089.53 550.939 1089.53 550.939C1089.53 550.939 1064.8 545.016 1063.68 540.223C1062.55 535.431 1053.71 507.36 1055.69 501.719Z" fill="black"/>
<path d="M1055.69 500.593L1001.88 512.013C1001.88 512.013 981.363 512.862 968.157 540.218C954.95 567.574 926.283 645.714 926.283 645.714C926.283 645.714 950.739 620.893 979.391 647.406L998.499 612.717L994.283 667.701H1142.35V641.754C1142.35 641.754 1173.25 658.394 1171.01 667.701C1171.01 667.701 1197.46 599.295 1191.74 568.209C1190.02 558.599 1188.97 548.88 1188.59 539.124V539.124C1188.25 531.088 1185.44 523.354 1180.55 516.984C1175.66 510.614 1168.92 505.919 1161.27 503.544C1158.48 502.685 1155.42 501.879 1152.02 501.158C1120.27 494.391 1112.14 501.158 1112.14 501.158C1112.14 501.158 1105.99 521.246 1106.1 530.35C1106.24 542.054 1089.53 549.813 1089.53 549.813C1089.53 549.813 1064.8 543.89 1063.68 539.097C1062.55 534.305 1053.71 506.234 1055.69 500.593Z" fill="url(#paint2_linear)"/>
<path opacity="0.1" d="M1110.67 498.196C1108.41 491.773 1107.9 484.859 1109.2 478.173L1053.56 488.041C1053.56 488.041 1054.36 492.262 1055.27 498.586C1058.87 502.331 1063.18 505.302 1067.96 507.32C1072.73 509.338 1077.87 510.36 1083.05 510.323C1088.23 510.287 1093.35 509.193 1098.1 507.108C1102.84 505.024 1107.12 501.991 1110.66 498.196H1110.67Z" fill="black"/>
<path d="M1120.16 469.426C1120.12 479.491 1116.13 489.135 1109.07 496.279C1102.01 503.423 1092.43 507.495 1082.41 507.617C1072.38 507.739 1062.71 503.901 1055.48 496.93C1048.24 489.96 1044.03 480.415 1043.74 470.355C1043.74 470.045 1043.74 469.736 1043.74 469.426C1043.74 462.244 1045.75 455.206 1049.54 449.112C1053.32 443.018 1058.74 438.113 1065.16 434.956C1066.31 434.394 1067.49 433.889 1068.7 433.441C1074.98 431.121 1081.76 430.488 1088.37 431.605V431.605C1096.83 433.052 1104.56 437.32 1110.31 443.721C1116.06 450.121 1119.5 458.28 1120.06 466.881C1120.13 467.724 1120.16 468.572 1120.16 469.426Z" fill="#FAD3BD"/>
<g opacity="0.1">
<path opacity="0.1" d="M1068.64 434.343L1068.69 434.311C1067.48 434.759 1066.3 435.264 1065.16 435.826C1058.73 438.983 1053.32 443.888 1049.53 449.982C1045.74 456.076 1043.74 463.114 1043.74 470.296C1043.74 470.606 1043.74 470.915 1043.74 471.225C1044.93 471.193 1046.09 470.911 1047.17 470.398C1056.48 466.032 1062.05 452.68 1064.27 443.367C1065.06 440.032 1065.81 436.275 1068.64 434.343Z" fill="black"/>
<path opacity="0.1" d="M1097.88 435.415C1094.86 434.021 1091.66 433.032 1088.38 432.475C1091.07 433.097 1093.48 434.612 1095.2 436.776C1096.05 437.931 1096.75 439.186 1097.29 440.512C1092.21 438.28 1086.7 437.184 1081.15 437.299C1075.6 437.414 1070.14 438.738 1065.15 441.179C1067.55 446.457 1074.99 449.334 1079.96 451.26C1085.39 453.366 1090.89 455.293 1096.44 457.04L1091.52 453.037L1102.62 454.809C1102.74 452.592 1102.48 450.372 1101.84 448.245C1103.97 449.963 1106.79 450.54 1109.1 451.981C1113.42 454.718 1115.22 459.986 1117.58 464.549C1118.2 465.755 1118.93 466.987 1120.05 467.751C1119.6 460.857 1117.3 454.214 1113.4 448.522C1109.5 442.831 1104.14 438.303 1097.88 435.415V435.415Z" fill="black"/>
</g>
<path d="M1068.64 433.473L1068.69 433.441C1067.48 433.889 1066.3 434.394 1065.16 434.956C1058.73 438.113 1053.32 443.018 1049.53 449.112C1045.74 455.205 1043.74 462.244 1043.74 469.426C1043.74 469.736 1043.74 470.045 1043.74 470.355C1044.93 470.323 1046.09 470.041 1047.17 469.528C1056.48 465.162 1062.05 451.81 1064.27 442.497C1065.06 439.183 1065.81 435.41 1068.64 433.473Z" fill="#212121"/>
<path d="M1097.88 434.551C1094.86 433.156 1091.66 432.167 1088.38 431.61C1091.07 432.232 1093.48 433.747 1095.2 435.912C1096.05 437.066 1096.75 438.321 1097.29 439.647C1092.21 437.415 1086.7 436.319 1081.15 436.434C1075.6 436.549 1070.14 437.873 1065.15 440.314C1067.55 445.592 1074.99 448.469 1079.96 450.395C1085.39 452.502 1090.89 454.428 1096.44 456.175L1091.52 452.172L1102.62 453.944C1102.74 451.728 1102.48 449.507 1101.84 447.38C1103.97 449.099 1106.79 449.675 1109.1 451.116C1113.42 453.854 1115.22 459.121 1117.58 463.684C1118.2 464.89 1118.93 466.123 1120.05 466.886C1119.6 459.992 1117.3 453.349 1113.4 447.658C1109.5 441.966 1104.14 437.438 1097.88 434.551V434.551Z" fill="#212121"/>
<path opacity="0.1" d="M1039.38 463.102C1039.38 463.102 1078.72 414.004 1124.24 463.102L1120.3 452.103C1120.3 452.103 1098.95 420.798 1083.78 427.554C1068.61 434.31 1053.71 439.119 1053.71 439.119L1039.38 463.102Z" fill="black"/>
<path d="M1039.38 462.232C1039.38 462.232 1078.72 413.134 1124.24 462.232L1120.3 451.233C1120.3 451.233 1098.95 419.928 1083.78 426.684C1068.61 433.441 1053.71 438.249 1053.71 438.249L1039.38 462.232Z" fill="#4F4F4F"/>
<path opacity="0.1" d="M1007.06 568.001C1007.06 568.001 998.637 590.564 1010.44 610.871C1022.23 631.177 1000.04 639.641 1000.04 639.641" fill="black"/>
<path opacity="0.1" d="M1143.62 547.695C1143.62 547.695 1158.23 566.309 1148.68 582.949C1139.12 599.589 1139.69 639.641 1139.69 639.641" fill="black"/>
<path d="M994.139 656.281H1156.55C1160.12 656.281 1163.56 657.707 1166.09 660.246C1168.61 662.785 1170.04 666.229 1170.04 669.82V669.82H980.656C980.656 666.23 982.077 662.787 984.605 660.248C987.133 657.709 990.563 656.282 994.139 656.281V656.281Z" fill="#535461"/>
<path d="M1010.66 563.203H1140.03C1142.75 563.203 1145.45 563.741 1147.96 564.787C1150.48 565.833 1152.77 567.366 1154.69 569.299C1156.62 571.232 1158.14 573.526 1159.19 576.051C1160.23 578.577 1160.76 581.283 1160.76 584.016V659.382H989.929V584.016C989.929 578.496 992.113 573.202 996.002 569.299C999.89 565.396 1005.16 563.203 1010.66 563.203V563.203Z" fill="#535461"/>
<path d="M1075.2 625.68C1080.79 625.68 1085.32 621.133 1085.32 615.524C1085.32 609.915 1080.79 605.368 1075.2 605.368C1069.61 605.368 1065.08 609.915 1065.08 615.524C1065.08 621.133 1069.61 625.68 1075.2 625.68Z" fill="white"/>
<path opacity="0.1" d="M1041.63 440.09C1041.63 440.09 1080.29 401.303 1121.99 439.38" stroke="black" stroke-miterlimit="10"/>
<path d="M1131.76 437.619H1127.88V459.708H1131.76V437.619Z" fill="#CDCDCD"/>
<path d="M1122.7 451.911C1126.24 451.911 1129.65 453.326 1132.16 455.844C1134.66 458.362 1136.07 461.777 1136.07 465.338V466.203C1136.07 469.764 1134.66 473.179 1132.16 475.697C1129.65 478.215 1126.24 479.63 1122.7 479.63V479.63V451.911Z" fill="#474747"/>
<path d="M1126.15 453.646C1126.15 451.971 1124.79 450.614 1123.13 450.614C1121.46 450.614 1120.11 451.971 1120.11 453.646V477.901C1120.11 479.575 1121.46 480.932 1123.13 480.932C1124.79 480.932 1126.15 479.575 1126.15 477.901V453.646Z" fill="#CDCDCD"/>
<path d="M1031.46 460.14H1035.34V438.051H1031.46V460.14Z" fill="#CDCDCD"/>
<path d="M1040.52 480.062C1036.97 480.062 1033.57 478.648 1031.06 476.13C1028.55 473.611 1027.15 470.196 1027.15 466.635V465.771C1027.15 464.007 1027.49 462.261 1028.16 460.632C1028.84 459.003 1029.82 457.523 1031.06 456.276C1032.31 455.029 1033.78 454.04 1035.4 453.365C1037.03 452.691 1038.77 452.343 1040.52 452.343V452.343V480.062Z" fill="#474747"/>
<path d="M1037.07 478.328C1037.07 480.002 1038.42 481.359 1040.09 481.359C1041.76 481.359 1043.11 480.002 1043.11 478.328V454.072C1043.11 452.398 1041.76 451.041 1040.09 451.041C1038.42 451.041 1037.07 452.398 1037.07 454.072V478.328Z" fill="#CDCDCD"/>
<path d="M1127.42 414.01C1122.16 403.037 1110.71 389.77 1086.02 388.708V388.676H1085.72L1076.98 389.093V389.135C1052.46 390.267 1041.06 403.486 1035.82 414.421C1032.33 421.834 1030.47 429.917 1030.38 438.116L1033.4 438.041L1036.42 437.972C1036.55 430.672 1038.23 423.483 1041.33 416.881C1047.99 403.155 1060.24 395.859 1077.73 395.182L1085.47 394.749C1102.98 395.422 1115.23 402.728 1121.88 416.449C1124.99 423.053 1126.67 430.246 1126.8 437.55L1129.82 437.619L1132.84 437.694C1132.75 429.499 1130.9 421.42 1127.42 414.01V414.01Z" fill="#363636"/>
<path d="M1265.38 669.996H853.492V781H1265.38V669.996Z" fill="#373737"/>
<path d="M1265.38 677.468H853.492V691.877H1265.38V677.468Z" fill="#6B71FF"/>
<path d="M1293 668.395H825.861V682.804H1293V668.395Z" fill="#373737"/>
</g>
<defs>
<linearGradient id="paint0_linear" x1="234" y1="360.5" x2="819" y2="360.5" gradientUnits="userSpaceOnUse">
<stop stop-color="#5F3AFF"/>
<stop offset="1" stop-color="#3000FF"/>
</linearGradient>
<linearGradient id="paint1_linear" x1="1059.43" y1="675.6" x2="1059.43" y2="386.083" gradientUnits="userSpaceOnUse">
<stop stop-color="#808080" stop-opacity="0.25"/>
<stop offset="0.54" stop-color="#808080" stop-opacity="0.12"/>
<stop offset="1" stop-color="#808080" stop-opacity="0.1"/>
</linearGradient>
<linearGradient id="paint2_linear" x1="1059.42" y1="498.151" x2="1059.42" y2="667.701" gradientUnits="userSpaceOnUse">
<stop stop-color="#4729FF"/>
<stop offset="1" stop-color="#100073"/>
</linearGradient>
<clipPath id="clip0">
<rect width="479" height="420" fill="white" transform="translate(814 361)"/>
</clipPath>
</defs>
</svg>
