<svg width="1021" height="361" viewBox="0 0 1021 361" fill="none" xmlns="http://www.w3.org/2000/svg">
<path d="M55 50C55 22.3858 77.3858 0 105 0H915C942.614 0 965 22.3858 965 50V241C965 268.614 942.614 291 915 291H105C77.3858 291 55 268.614 55 241V50Z" fill="#3F3D56"/>
<path d="M0 361V201.385C415.346 384.955 873.067 87.9768 1021 122.885V361H0Z" fill="#7656FF"/>
<path d="M573.407 204.921C573.407 204.921 599.596 187.945 598.99 176.282C598.383 164.619 582.596 127.846 582.596 127.846C582.596 127.846 570.245 101.962 565.335 112.54C560.425 123.118 571.788 134.379 571.788 134.379L579.122 170.452L559.189 189.62L573.407 204.921Z" fill="#FAD3BD"/>
<path d="M506.858 181.35C519.447 181.35 529.653 171.653 529.653 159.69C529.653 147.728 519.447 138.031 506.858 138.031C494.269 138.031 484.063 147.728 484.063 159.69C484.063 171.653 494.269 181.35 506.858 181.35Z" fill="#FAD3BD"/>
<path d="M494.979 173.216L498.755 196.64L526.442 191.708C526.442 191.708 525.184 168.285 525.184 165.82C525.184 163.354 494.979 173.216 494.979 173.216Z" fill="#FAD3BD"/>
<path d="M493.749 195.579C493.749 195.579 524.121 188.351 527.766 190.761C531.411 193.17 549.634 195.579 549.634 195.579L570.287 226.9L564.213 266.653C564.213 266.653 562.998 330.499 565.428 341.341C567.857 352.183 581.221 353.388 553.279 355.797C525.336 358.206 520.477 354.592 501.039 359.411C481.6 364.229 465.807 357.002 470.666 352.183C475.526 347.365 484.03 270.267 474.311 263.039C464.592 255.812 460.947 218.468 460.947 218.468C460.947 218.468 493.749 201.603 493.749 195.579Z" fill="#393939"/>
<path d="M546.347 199.17L550.055 195.566L557.47 188.358C557.47 188.358 581.569 198.569 580.333 202.173C579.097 205.777 571.064 226.8 571.064 226.8L559.942 230.404L546.347 199.17Z" fill="#2F2F2F"/>
<path d="M514.42 132.158L514.191 130.422C512.676 130.414 511.169 130.644 509.729 131.104C509.582 130.057 509.676 128.992 510.004 127.986C508.541 128.351 507.147 128.94 505.874 129.73L504.973 126.563L492.59 132.492C488.144 134.62 483.458 136.958 480.917 141.091C478.084 145.699 478.577 151.62 480.513 156.647C482.45 161.673 485.668 166.121 488.247 170.867C489.227 172.908 490.404 174.854 491.762 176.678C496.436 182.338 505.535 183.482 512.125 180.065C514.558 178.805 516.768 176.92 517.768 174.425C518.367 172.933 518.503 171.309 518.895 169.754C519.711 166.519 520.657 159.843 523.361 157.796C524.552 156.896 526.911 159.881 527.897 158.772C530.432 155.923 529.9 151.528 528.326 148.087C526.815 144.631 525.049 141.285 523.042 138.076C522.192 136.785 514.392 131.949 514.42 132.158Z" fill="#212121"/>
<path d="M441.987 246.967C441.987 246.967 412.65 274.985 416.317 289.604C419.984 304.222 449.321 346.858 449.321 346.858C449.321 346.858 477.435 361.477 481.102 346.858C484.769 332.24 461.544 335.895 461.544 335.895L443.209 292.04L463.989 262.803L441.987 246.967Z" fill="#FAD3BD"/>
<path d="M476.566 220.092L461.78 217.662C461.78 217.662 450.691 229.811 446.995 234.67C443.298 239.53 435.905 251.678 435.905 251.678L461.78 269.901L481.495 249.249L476.566 220.092Z" fill="#2F2F2F"/>
</svg>
